<svg width="577" height="392" viewBox="0 0 577 392" fill="none" xmlns="http://www.w3.org/2000/svg">
<path d="M319 60L313.226 70L324.774 70L319 60ZM318 183C318 183.552 318.448 184 319 184C319.552 184 320 183.552 320 183L318 183ZM318 69L318 183L320 183L320 69L318 69Z" fill="#343537"/>
<path d="M319 366L324.774 356L313.226 356L319 366ZM320 244C320 243.448 319.552 243 319 243C318.448 243 318 243.448 318 244L320 244ZM320 357L320 244L318 244L318 357L320 357Z" fill="#343537"/>
<path d="M208 100L198 94.2265L198 105.774L208 100ZM154 99C153.448 99 153 99.4477 153 100C153 100.552 153.448 101 154 101L154 99ZM199 99L154 99L154 101L199 101L199 99Z" fill="#343537"/>
<rect width="305" height="392" rx="4" fill="white"/>
<path opacity="0.8" d="M21.5303 23.1973C22.0407 23.1927 22.5101 23.2998 22.9385 23.5186C23.3714 23.7327 23.7132 24.0381 23.9639 24.4346C24.2191 24.8311 24.3421 25.2822 24.333 25.7881C24.333 26.3167 24.1895 26.777 23.9023 27.1689C23.6152 27.5563 23.2256 27.8434 22.7334 28.0303C23.2894 28.1214 23.7292 28.3721 24.0527 28.7822C24.3763 29.1924 24.5381 29.7279 24.5381 30.3887C24.5381 30.89 24.4059 31.3411 24.1416 31.7422C23.8773 32.1387 23.5241 32.4486 23.082 32.6719C22.6445 32.8952 22.1729 33.0046 21.667 33H17.2578V23.1973H21.5303ZM21.3867 31.7422C21.9245 31.7422 22.3506 31.6055 22.665 31.332C22.9795 31.0586 23.1367 30.6803 23.1367 30.1973C23.1367 29.7188 22.9795 29.3428 22.665 29.0693C22.3506 28.7959 21.9245 28.6592 21.3867 28.6592H18.6592V31.7422H21.3867ZM21.3184 27.4014C21.8105 27.4014 22.2025 27.2692 22.4941 27.0049C22.7858 26.7406 22.9316 26.3828 22.9316 25.9316C22.9316 25.4805 22.7858 25.1227 22.4941 24.8584C22.2025 24.5941 21.8105 24.4619 21.3184 24.4619H18.6592V27.4014H21.3184ZM26.2607 26H27.5938V30.3408C27.5938 31.4619 28.0654 32.0225 29.0088 32.0225H29.1182C29.4235 32.027 29.7106 31.9359 29.9795 31.749C30.2529 31.5576 30.4717 31.291 30.6357 30.9492C30.8044 30.6029 30.8864 30.2132 30.8818 29.7803V26H32.2148V33H30.8818V31.667C30.736 32.0908 30.4694 32.4417 30.082 32.7197C29.7038 32.9977 29.2253 33.1367 28.6465 33.1367C28.1452 33.1367 27.7145 33.0319 27.3545 32.8223C26.9945 32.6126 26.721 32.3187 26.5342 31.9404C26.3519 31.5622 26.2607 31.1224 26.2607 30.6211V26ZM37.1025 34.4697C36.9795 34.766 36.8428 34.9938 36.6924 35.1533C36.542 35.3128 36.3643 35.4245 36.1592 35.4883C35.9541 35.5566 35.6989 35.5908 35.3936 35.5908H33.8008V34.4014H35.1885C35.4255 34.4014 35.6032 34.3626 35.7217 34.2852C35.8402 34.2122 35.9404 34.0732 36.0225 33.8682L36.4395 32.8018L33.377 26H34.792L37.0957 31.0996L39.0781 26H40.4521L37.1025 34.4697Z" fill="#38CFFF"/>
<path d="M120.387 23.1973C120.993 23.1927 121.535 23.3112 122.014 23.5527C122.497 23.7897 122.873 24.1361 123.142 24.5918C123.41 25.043 123.543 25.5693 123.538 26.1709C123.543 26.7725 123.41 27.2988 123.142 27.75C122.873 28.2012 122.497 28.5475 122.014 28.7891C121.535 29.026 120.993 29.1423 120.387 29.1377H117.659V33H116.258V23.1973H120.387ZM120.182 27.873C120.815 27.873 121.298 27.7295 121.631 27.4424C121.968 27.1507 122.137 26.7269 122.137 26.1709C122.137 25.6149 121.968 25.1911 121.631 24.8994C121.298 24.6077 120.815 24.4619 120.182 24.4619H117.659V27.873H120.182ZM126.334 26V27.5381C126.425 27.2054 126.571 26.9183 126.771 26.6768C126.972 26.4307 127.209 26.2461 127.482 26.123C127.76 25.9954 128.054 25.9316 128.364 25.9316H128.993V27.2168H128.433C128.018 27.2168 127.658 27.3079 127.353 27.4902C127.047 27.668 126.812 27.9255 126.648 28.2627C126.484 28.5999 126.402 28.9987 126.402 29.459V33H125.076V26H126.334ZM131.734 23.1973V24.7422H130.265V23.1973H131.734ZM130.34 26H131.666V33H130.34V26ZM133.348 29.5C133.339 28.8073 133.468 28.1852 133.737 27.6338C134.011 27.0778 134.403 26.6426 134.913 26.3281C135.428 26.0091 136.027 25.8542 136.711 25.8633C137.24 25.8633 137.711 25.9635 138.126 26.1641C138.545 26.3646 138.88 26.6494 139.131 27.0186C139.386 27.3877 139.536 27.8184 139.582 28.3105H138.249C138.185 27.9095 138.019 27.5882 137.75 27.3467C137.481 27.1006 137.153 26.9775 136.766 26.9775H136.649C136.23 26.9775 135.872 27.0892 135.576 27.3125C135.28 27.5358 135.057 27.8389 134.906 28.2217C134.756 28.6045 134.681 29.0306 134.681 29.5C134.681 29.9694 134.756 30.3955 134.906 30.7783C135.057 31.1611 135.28 31.4642 135.576 31.6875C135.872 31.9108 136.23 32.0225 136.649 32.0225H136.766C137.153 32.0225 137.481 31.9017 137.75 31.6602C138.019 31.4141 138.185 31.0905 138.249 30.6895H139.582C139.536 31.1816 139.386 31.6123 139.131 31.9814C138.88 32.3506 138.545 32.6354 138.126 32.8359C137.711 33.0365 137.24 33.1367 136.711 33.1367C136.027 33.1458 135.428 32.9932 134.913 32.6787C134.403 32.3597 134.011 31.9245 133.737 31.373C133.468 30.8171 133.339 30.1927 133.348 29.5ZM140.799 29.4863C140.79 28.7435 140.936 28.0964 141.236 27.5449C141.542 26.9935 141.945 26.5742 142.446 26.2871C142.948 25.9954 143.485 25.8542 144.06 25.8633C144.647 25.8542 145.167 25.9818 145.618 26.2461C146.074 26.5059 146.425 26.8704 146.671 27.3398C146.917 27.8092 147.038 28.3424 147.033 28.9395V29.7119H142.132C142.15 30.1904 142.257 30.6074 142.453 30.9629C142.649 31.3138 142.893 31.5804 143.185 31.7627C143.481 31.9404 143.782 32.027 144.087 32.0225H144.203C144.563 32.0225 144.884 31.929 145.167 31.7422C145.445 31.5508 145.618 31.2796 145.687 30.9287H147.013C146.931 31.3844 146.751 31.7786 146.473 32.1113C146.195 32.444 145.846 32.6992 145.427 32.877C145.012 33.0501 144.556 33.1367 144.06 33.1367C143.467 33.1367 142.92 32.9932 142.419 32.7061C141.918 32.4144 141.519 31.9928 141.223 31.4414C140.931 30.89 140.79 30.2383 140.799 29.4863ZM145.7 28.6592C145.673 28.0895 145.511 27.668 145.215 27.3945C144.923 27.1165 144.559 26.9775 144.121 26.9775H144.005C143.599 26.9775 143.228 27.1143 142.891 27.3877C142.558 27.652 142.332 28.0758 142.214 28.6592H145.7Z" fill="#919294"/>
<path opacity="0.8" d="M215.907 29.8486C215.907 30.277 216.01 30.6439 216.215 30.9492C216.424 31.2546 216.716 31.487 217.09 31.6465C217.468 31.8014 217.908 31.8789 218.409 31.8789H218.553C218.967 31.8789 219.327 31.8151 219.633 31.6875C219.943 31.5553 220.177 31.3776 220.337 31.1543C220.501 30.931 220.583 30.6826 220.583 30.4092C220.583 30.0127 220.455 29.696 220.2 29.459C219.95 29.2174 219.562 29.0443 219.038 28.9395L217.473 28.6182C215.818 28.2809 214.991 27.349 214.991 25.8223C214.991 25.321 215.142 24.8584 215.442 24.4346C215.748 24.0062 216.167 23.6689 216.7 23.4229C217.233 23.1722 217.83 23.0514 218.491 23.0605C219.207 23.0605 219.833 23.1859 220.371 23.4365C220.913 23.6872 221.335 24.0449 221.636 24.5098C221.937 24.9701 222.098 25.5124 222.121 26.1367H220.72C220.697 25.7721 220.59 25.4531 220.398 25.1797C220.207 24.9062 219.952 24.6943 219.633 24.5439C219.318 24.3936 218.963 24.3184 218.566 24.3184H218.423C218.031 24.3184 217.68 24.3844 217.37 24.5166C217.065 24.6488 216.826 24.8311 216.652 25.0635C216.479 25.2959 216.393 25.5557 216.393 25.8428C216.393 26.2074 216.509 26.5059 216.741 26.7383C216.978 26.9707 217.311 27.1302 217.739 27.2168L219.305 27.5244C221.087 27.8708 221.978 28.8255 221.978 30.3887C221.978 30.9355 221.825 31.4186 221.52 31.8379C221.214 32.2572 220.786 32.5807 220.234 32.8086C219.688 33.0319 219.061 33.1413 218.354 33.1367C217.575 33.1367 216.901 33.0114 216.331 32.7607C215.766 32.5101 215.326 32.141 215.012 31.6533C214.697 31.1611 214.529 30.5596 214.506 29.8486H215.907ZM223.393 29.4863C223.383 28.7435 223.529 28.0964 223.83 27.5449C224.135 26.9935 224.539 26.5742 225.04 26.2871C225.541 25.9954 226.079 25.8542 226.653 25.8633C227.241 25.8542 227.761 25.9818 228.212 26.2461C228.668 26.5059 229.019 26.8704 229.265 27.3398C229.511 27.8092 229.632 28.3424 229.627 28.9395V29.7119H224.726C224.744 30.1904 224.851 30.6074 225.047 30.9629C225.243 31.3138 225.487 31.5804 225.778 31.7627C226.075 31.9404 226.375 32.027 226.681 32.0225H226.797C227.157 32.0225 227.478 31.929 227.761 31.7422C228.039 31.5508 228.212 31.2796 228.28 30.9287H229.606C229.524 31.3844 229.344 31.7786 229.066 32.1113C228.788 32.444 228.44 32.6992 228.021 32.877C227.606 33.0501 227.15 33.1367 226.653 33.1367C226.061 33.1367 225.514 32.9932 225.013 32.7061C224.511 32.4144 224.113 31.9928 223.816 31.4414C223.525 30.89 223.383 30.2383 223.393 29.4863ZM228.294 28.6592C228.267 28.0895 228.105 27.668 227.809 27.3945C227.517 27.1165 227.152 26.9775 226.715 26.9775H226.599C226.193 26.9775 225.822 27.1143 225.484 27.3877C225.152 27.652 224.926 28.0758 224.808 28.6592H228.294ZM232.676 23.1973V33H231.35V23.1973H232.676ZM236.107 23.1973V33H234.781V23.1973H236.107Z" fill="#FB607F"/>
<path d="M119.609 78H118.07V69.0625L115.531 71.5234V69.6016L118.406 66.7969H119.609V78ZM130.344 75.4531H128.586V78H127.047V75.4531H121.539V73.9219L127.062 66.7969H128.586V74.0938H130.344V75.4531ZM127.047 74.0938V68.9531L123.047 74.0938H127.047ZM135.469 78H133.93V69.0625L131.391 71.5234V69.6016L134.266 66.7969H135.469V78ZM139.914 76.0781V78H137.992V76.0781H139.914ZM141.539 72.3984C141.539 71.1693 141.711 70.125 142.055 69.2656C142.404 68.401 142.906 67.7474 143.562 67.3047C144.224 66.862 145.016 66.6406 145.938 66.6406C146.859 66.6406 147.648 66.862 148.305 67.3047C148.966 67.7474 149.469 68.401 149.812 69.2656C150.161 70.125 150.336 71.1693 150.336 72.3984C150.336 73.6276 150.161 74.6745 149.812 75.5391C149.469 76.3984 148.966 77.0495 148.305 77.4922C147.648 77.9349 146.859 78.1562 145.938 78.1562C145.016 78.1562 144.224 77.9349 143.562 77.4922C142.906 77.0495 142.404 76.3984 142.055 75.5391C141.711 74.6745 141.539 73.6276 141.539 72.3984ZM143.102 72.3438C143.102 73.4635 143.24 74.349 143.516 75C143.786 75.6458 144.133 76.1094 144.555 76.3906C144.966 76.6615 145.401 76.7969 145.859 76.7969H146.016C146.469 76.7969 146.901 76.6615 147.312 76.3906C147.734 76.1094 148.081 75.6458 148.352 75C148.628 74.349 148.766 73.4635 148.766 72.3438C148.766 71.3281 148.633 70.4948 148.367 69.8438C148.102 69.1927 147.76 68.7214 147.344 68.4297C146.932 68.138 146.49 67.9948 146.016 68H145.859C145.385 67.9948 144.94 68.138 144.523 68.4297C144.107 68.7214 143.766 69.1927 143.5 69.8438C143.234 70.4948 143.102 71.3281 143.102 72.3438ZM159.602 78H152.031V76.3047L155.648 72.8672C155.758 72.7578 155.927 72.6042 156.156 72.4062C156.521 72.0781 156.823 71.7865 157.062 71.5312C157.604 70.9531 157.875 70.3464 157.875 69.7109C157.875 69.3724 157.792 69.0755 157.625 68.8203C157.458 68.5599 157.232 68.3594 156.945 68.2188C156.659 68.0729 156.339 68 155.984 68H155.828C155.427 68 155.068 68.0938 154.75 68.2812C154.438 68.4635 154.193 68.7188 154.016 69.0469C153.839 69.3698 153.75 69.7344 153.75 70.1406H152.148C152.143 69.4583 152.305 68.849 152.633 68.3125C152.961 67.776 153.411 67.362 153.984 67.0703C154.562 66.7734 155.203 66.6302 155.906 66.6406C156.547 66.6302 157.138 66.7448 157.68 66.9844C158.221 67.224 158.651 67.5703 158.969 68.0234C159.286 68.4714 159.445 68.9948 159.445 69.5938C159.445 70.1615 159.333 70.6693 159.109 71.1172C158.88 71.5703 158.604 71.9792 158.281 72.3438C157.984 72.6771 157.544 73.1146 156.961 73.6562L156.82 73.7891L153.828 76.5625H159.602V78Z" fill="#13161C"/>
<path d="M222.141 68.3203C221.177 68.9036 220.385 69.6224 219.766 70.4766C219.146 71.3307 218.682 72.3516 218.375 73.5391C218.073 74.7214 217.922 76.1016 217.922 77.6797V78H216.352V77.5391C216.352 75.3151 216.716 73.4141 217.445 71.8359C218.185 70.2578 219.208 69.0599 220.516 68.2422H214.383V66.7969H222.141V68.3203ZM224.914 75.0703C225.029 75.6172 225.284 76.0417 225.68 76.3438C226.076 76.6458 226.573 76.7969 227.172 76.7969H227.312C227.708 76.7969 228.07 76.7214 228.398 76.5703C228.732 76.4141 228.995 76.1979 229.188 75.9219C229.38 75.6406 229.477 75.3203 229.477 74.9609C229.477 74.5859 229.388 74.2552 229.211 73.9688C229.039 73.6823 228.797 73.4609 228.484 73.3047C228.177 73.1484 227.828 73.0703 227.438 73.0703H226.484V71.7266H227.438C227.812 71.7266 228.148 71.6432 228.445 71.4766C228.742 71.3047 228.974 71.0755 229.141 70.7891C229.307 70.5026 229.391 70.1875 229.391 69.8438C229.391 69.474 229.299 69.151 229.117 68.875C228.94 68.5938 228.693 68.3776 228.375 68.2266C228.062 68.0755 227.708 68 227.312 68H227.172C226.818 68 226.487 68.0781 226.18 68.2344C225.872 68.3854 225.62 68.5964 225.422 68.8672C225.229 69.138 225.117 69.4349 225.086 69.7578H223.57C223.586 69.1849 223.766 68.6589 224.109 68.1797C224.453 67.7005 224.909 67.3229 225.477 67.0469C226.049 66.7708 226.667 66.6354 227.328 66.6406C227.958 66.6302 228.552 66.7578 229.109 67.0234C229.672 67.2891 230.12 67.6484 230.453 68.1016C230.792 68.5495 230.961 69.0312 230.961 69.5469C230.961 70.276 230.781 70.8802 230.422 71.3594C230.068 71.8438 229.602 72.1745 229.023 72.3516C229.414 72.4453 229.76 72.612 230.062 72.8516C230.365 73.0911 230.602 73.3958 230.773 73.7656C230.951 74.1354 231.039 74.5599 231.039 75.0391C231.049 75.6172 230.888 76.1458 230.555 76.625C230.221 77.1042 229.763 77.4818 229.18 77.7578C228.596 78.0339 227.953 78.1667 227.25 78.1562C226.536 78.1562 225.896 78.0312 225.328 77.7812C224.766 77.526 224.312 77.1667 223.969 76.7031C223.63 76.2396 223.427 75.6953 223.359 75.0703H224.914Z" fill="#FB607F"/>
<path d="M16 48.5H289V47.5H16V48.5Z" fill="#E8E9EC"/>
<path d="M119.609 126H118.07V117.062L115.531 119.523V117.602L118.406 114.797H119.609V126ZM130.344 123.453H128.586V126H127.047V123.453H121.539V121.922L127.062 114.797H128.586V122.094H130.344V123.453ZM127.047 122.094V116.953L123.047 122.094H127.047ZM135.469 126H133.93V117.062L131.391 119.523V117.602L134.266 114.797H135.469V126ZM139.914 124.078V126H137.992V124.078H139.914ZM141.539 120.398C141.539 119.169 141.711 118.125 142.055 117.266C142.404 116.401 142.906 115.747 143.562 115.305C144.224 114.862 145.016 114.641 145.938 114.641C146.859 114.641 147.648 114.862 148.305 115.305C148.966 115.747 149.469 116.401 149.812 117.266C150.161 118.125 150.336 119.169 150.336 120.398C150.336 121.628 150.161 122.674 149.812 123.539C149.469 124.398 148.966 125.049 148.305 125.492C147.648 125.935 146.859 126.156 145.938 126.156C145.016 126.156 144.224 125.935 143.562 125.492C142.906 125.049 142.404 124.398 142.055 123.539C141.711 122.674 141.539 121.628 141.539 120.398ZM143.102 120.344C143.102 121.464 143.24 122.349 143.516 123C143.786 123.646 144.133 124.109 144.555 124.391C144.966 124.661 145.401 124.797 145.859 124.797H146.016C146.469 124.797 146.901 124.661 147.312 124.391C147.734 124.109 148.081 123.646 148.352 123C148.628 122.349 148.766 121.464 148.766 120.344C148.766 119.328 148.633 118.495 148.367 117.844C148.102 117.193 147.76 116.721 147.344 116.43C146.932 116.138 146.49 115.995 146.016 116H145.859C145.385 115.995 144.94 116.138 144.523 116.43C144.107 116.721 143.766 117.193 143.5 117.844C143.234 118.495 143.102 119.328 143.102 120.344ZM155.844 126H154.305V117.062L151.766 119.523V117.602L154.641 114.797H155.844V126Z" fill="#13161C"/>
<path d="M218.609 126H217.07V117.062L214.531 119.523V117.602L217.406 114.797H218.609V126ZM224.688 126H223.148V117.062L220.609 119.523V117.602L223.484 114.797H224.688V126ZM234.602 122.398C234.612 123.107 234.443 123.75 234.094 124.328C233.745 124.901 233.268 125.352 232.664 125.68C232.065 126.008 231.406 126.167 230.688 126.156C229.99 126.161 229.346 126.042 228.758 125.797C228.174 125.547 227.701 125.188 227.336 124.719C226.977 124.245 226.776 123.685 226.734 123.039H228.297C228.344 123.409 228.474 123.727 228.688 123.992C228.901 124.253 229.174 124.453 229.508 124.594C229.841 124.729 230.206 124.797 230.602 124.797H230.766C231.198 124.802 231.589 124.703 231.938 124.5C232.286 124.297 232.557 124.018 232.75 123.664C232.948 123.305 233.044 122.909 233.039 122.477C233.044 122.086 232.948 121.727 232.75 121.398C232.557 121.07 232.289 120.812 231.945 120.625C231.607 120.438 231.24 120.346 230.844 120.352H230.688C230.302 120.352 229.927 120.448 229.562 120.641C229.188 120.833 228.896 121.099 228.688 121.438H227.133L228.492 114.797H234.492V116.242H229.656L228.883 119.867C229.174 119.581 229.521 119.365 229.922 119.219C230.328 119.068 230.747 118.992 231.18 118.992C231.831 118.992 232.419 119.146 232.945 119.453C233.471 119.755 233.88 120.167 234.172 120.688C234.469 121.208 234.612 121.779 234.602 122.398Z" fill="#FB607F"/>
<path d="M16 96.5H289V95.5H16V96.5Z" fill="#E8E9EC"/>
<path d="M119.609 174H118.07V165.062L115.531 167.523V165.602L118.406 162.797H119.609V174ZM130.344 171.453H128.586V174H127.047V171.453H121.539V169.922L127.062 162.797H128.586V170.094H130.344V171.453ZM127.047 170.094V164.953L123.047 170.094H127.047ZM135.469 174H133.93V165.062L131.391 167.523V165.602L134.266 162.797H135.469V174ZM139.914 172.078V174H137.992V172.078H139.914ZM141.539 168.398C141.539 167.169 141.711 166.125 142.055 165.266C142.404 164.401 142.906 163.747 143.562 163.305C144.224 162.862 145.016 162.641 145.938 162.641C146.859 162.641 147.648 162.862 148.305 163.305C148.966 163.747 149.469 164.401 149.812 165.266C150.161 166.125 150.336 167.169 150.336 168.398C150.336 169.628 150.161 170.674 149.812 171.539C149.469 172.398 148.966 173.049 148.305 173.492C147.648 173.935 146.859 174.156 145.938 174.156C145.016 174.156 144.224 173.935 143.562 173.492C142.906 173.049 142.404 172.398 142.055 171.539C141.711 170.674 141.539 169.628 141.539 168.398ZM143.102 168.344C143.102 169.464 143.24 170.349 143.516 171C143.786 171.646 144.133 172.109 144.555 172.391C144.966 172.661 145.401 172.797 145.859 172.797H146.016C146.469 172.797 146.901 172.661 147.312 172.391C147.734 172.109 148.081 171.646 148.352 171C148.628 170.349 148.766 169.464 148.766 168.344C148.766 167.328 148.633 166.495 148.367 165.844C148.102 165.193 147.76 164.721 147.344 164.43C146.932 164.138 146.49 163.995 146.016 164H145.859C145.385 163.995 144.94 164.138 144.523 164.43C144.107 164.721 143.766 165.193 143.5 165.844C143.234 166.495 143.102 167.328 143.102 168.344ZM152.133 168.398C152.133 167.169 152.305 166.125 152.648 165.266C152.997 164.401 153.5 163.747 154.156 163.305C154.818 162.862 155.609 162.641 156.531 162.641C157.453 162.641 158.242 162.862 158.898 163.305C159.56 163.747 160.062 164.401 160.406 165.266C160.755 166.125 160.93 167.169 160.93 168.398C160.93 169.628 160.755 170.674 160.406 171.539C160.062 172.398 159.56 173.049 158.898 173.492C158.242 173.935 157.453 174.156 156.531 174.156C155.609 174.156 154.818 173.935 154.156 173.492C153.5 173.049 152.997 172.398 152.648 171.539C152.305 170.674 152.133 169.628 152.133 168.398ZM153.695 168.344C153.695 169.464 153.833 170.349 154.109 171C154.38 171.646 154.727 172.109 155.148 172.391C155.56 172.661 155.995 172.797 156.453 172.797H156.609C157.062 172.797 157.495 172.661 157.906 172.391C158.328 172.109 158.674 171.646 158.945 171C159.221 170.349 159.359 169.464 159.359 168.344C159.359 167.328 159.227 166.495 158.961 165.844C158.695 165.193 158.354 164.721 157.938 164.43C157.526 164.138 157.083 163.995 156.609 164H156.453C155.979 163.995 155.534 164.138 155.117 164.43C154.701 164.721 154.359 165.193 154.094 165.844C153.828 166.495 153.695 167.328 153.695 168.344Z" fill="#13161C"/>
<path d="M215.102 171.242C215.102 170.586 215.276 170.031 215.625 169.578C215.974 169.109 216.43 168.771 216.992 168.562C216.612 168.469 216.258 168.286 215.93 168.016C215.607 167.745 215.349 167.417 215.156 167.031C214.969 166.641 214.878 166.232 214.883 165.805C214.872 165.201 215.026 164.656 215.344 164.172C215.661 163.688 216.104 163.31 216.672 163.039C217.245 162.768 217.891 162.635 218.609 162.641C219.323 162.635 219.964 162.768 220.531 163.039C221.104 163.31 221.549 163.688 221.867 164.172C222.19 164.656 222.346 165.201 222.336 165.805C222.341 166.232 222.247 166.641 222.055 167.031C221.867 167.417 221.609 167.745 221.281 168.016C220.958 168.286 220.607 168.469 220.227 168.562C220.794 168.776 221.247 169.115 221.586 169.578C221.935 170.031 222.109 170.586 222.109 171.242C222.109 171.799 221.958 172.302 221.656 172.75C221.354 173.193 220.935 173.539 220.398 173.789C219.867 174.039 219.271 174.161 218.609 174.156C217.943 174.161 217.341 174.039 216.805 173.789C216.273 173.539 215.857 173.193 215.555 172.75C215.253 172.302 215.102 171.799 215.102 171.242ZM216.445 165.891C216.445 166.26 216.534 166.594 216.711 166.891C216.893 167.182 217.143 167.411 217.461 167.578C217.779 167.74 218.135 167.82 218.531 167.82H218.688C219.083 167.82 219.438 167.74 219.75 167.578C220.068 167.411 220.315 167.182 220.492 166.891C220.674 166.594 220.766 166.26 220.766 165.891C220.766 165.526 220.674 165.201 220.492 164.914C220.315 164.622 220.068 164.398 219.75 164.242C219.438 164.081 219.083 164 218.688 164H218.531C218.135 164 217.779 164.081 217.461 164.242C217.143 164.398 216.893 164.622 216.711 164.914C216.534 165.201 216.445 165.526 216.445 165.891ZM216.656 171.039C216.656 171.378 216.734 171.682 216.891 171.953C217.047 172.219 217.266 172.427 217.547 172.578C217.833 172.724 218.161 172.797 218.531 172.797H218.688C219.057 172.797 219.383 172.724 219.664 172.578C219.951 172.427 220.172 172.219 220.328 171.953C220.484 171.682 220.562 171.378 220.562 171.039C220.562 170.69 220.482 170.375 220.32 170.094C220.164 169.812 219.943 169.591 219.656 169.43C219.37 169.268 219.047 169.188 218.688 169.188H218.531C218.167 169.188 217.841 169.268 217.555 169.43C217.273 169.591 217.052 169.812 216.891 170.094C216.734 170.375 216.656 170.69 216.656 171.039ZM227.828 174H226.289V165.062L223.75 167.523V165.602L226.625 162.797H227.828V174Z" fill="#FB607F"/>
<path d="M16 144.5H289V143.5H16V144.5Z" fill="#E8E9EC"/>
<rect x="106" y="203" width="68" height="27" fill="#E8E9EC"/>
<path d="M119.609 222H118.07V213.062L115.531 215.523V213.602L118.406 210.797H119.609V222ZM130.344 219.453H128.586V222H127.047V219.453H121.539V217.922L127.062 210.797H128.586V218.094H130.344V219.453ZM127.047 218.094V212.953L123.047 218.094H127.047ZM131.758 216.398C131.758 215.169 131.93 214.125 132.273 213.266C132.622 212.401 133.125 211.747 133.781 211.305C134.443 210.862 135.234 210.641 136.156 210.641C137.078 210.641 137.867 210.862 138.523 211.305C139.185 211.747 139.688 212.401 140.031 213.266C140.38 214.125 140.555 215.169 140.555 216.398C140.555 217.628 140.38 218.674 140.031 219.539C139.688 220.398 139.185 221.049 138.523 221.492C137.867 221.935 137.078 222.156 136.156 222.156C135.234 222.156 134.443 221.935 133.781 221.492C133.125 221.049 132.622 220.398 132.273 219.539C131.93 218.674 131.758 217.628 131.758 216.398ZM133.32 216.344C133.32 217.464 133.458 218.349 133.734 219C134.005 219.646 134.352 220.109 134.773 220.391C135.185 220.661 135.62 220.797 136.078 220.797H136.234C136.688 220.797 137.12 220.661 137.531 220.391C137.953 220.109 138.299 219.646 138.57 219C138.846 218.349 138.984 217.464 138.984 216.344C138.984 215.328 138.852 214.495 138.586 213.844C138.32 213.193 137.979 212.721 137.562 212.43C137.151 212.138 136.708 211.995 136.234 212H136.078C135.604 211.995 135.159 212.138 134.742 212.43C134.326 212.721 133.984 213.193 133.719 213.844C133.453 214.495 133.32 215.328 133.32 216.344ZM144.102 220.078V222H142.18V220.078H144.102ZM154.195 215.961C154.195 217.19 153.982 218.266 153.555 219.188C153.122 220.125 152.544 220.854 151.82 221.375C151.096 221.896 150.31 222.156 149.461 222.156C148.826 222.156 148.258 222.044 147.758 221.82C147.258 221.591 146.846 221.26 146.523 220.828C146.206 220.396 145.995 219.88 145.891 219.281H147.461C147.586 219.75 147.812 220.117 148.141 220.383C148.469 220.648 148.872 220.781 149.352 220.781H149.539C150.112 220.792 150.635 220.609 151.109 220.234C151.589 219.854 151.977 219.323 152.273 218.641C152.57 217.958 152.745 217.182 152.797 216.312C152.521 216.885 152.107 217.336 151.555 217.664C151.008 217.992 150.385 218.156 149.688 218.156C149.036 218.156 148.438 218 147.891 217.688C147.344 217.37 146.911 216.932 146.594 216.375C146.276 215.812 146.122 215.18 146.133 214.477C146.122 213.742 146.289 213.081 146.633 212.492C146.977 211.904 147.448 211.445 148.047 211.117C148.651 210.789 149.32 210.63 150.055 210.641C150.872 210.635 151.594 210.846 152.219 211.273C152.844 211.695 153.328 212.31 153.672 213.117C154.021 213.919 154.195 214.867 154.195 215.961ZM147.703 214.398C147.698 214.852 147.797 215.263 148 215.633C148.203 216.003 148.477 216.292 148.82 216.5C149.169 216.703 149.542 216.802 149.938 216.797H150.102C150.487 216.802 150.859 216.698 151.219 216.484C151.583 216.266 151.875 215.971 152.094 215.602C152.312 215.232 152.417 214.836 152.406 214.414C152.417 213.992 152.312 213.596 152.094 213.227C151.875 212.852 151.583 212.555 151.219 212.336C150.859 212.117 150.487 212.01 150.102 212.016H149.938C149.542 212.01 149.172 212.112 148.828 212.32C148.484 212.523 148.208 212.81 148 213.18C147.797 213.544 147.698 213.951 147.703 214.398ZM164.102 215.961C164.102 217.19 163.888 218.266 163.461 219.188C163.029 220.125 162.451 220.854 161.727 221.375C161.003 221.896 160.216 222.156 159.367 222.156C158.732 222.156 158.164 222.044 157.664 221.82C157.164 221.591 156.753 221.26 156.43 220.828C156.112 220.396 155.901 219.88 155.797 219.281H157.367C157.492 219.75 157.719 220.117 158.047 220.383C158.375 220.648 158.779 220.781 159.258 220.781H159.445C160.018 220.792 160.542 220.609 161.016 220.234C161.495 219.854 161.883 219.323 162.18 218.641C162.477 217.958 162.651 217.182 162.703 216.312C162.427 216.885 162.013 217.336 161.461 217.664C160.914 217.992 160.292 218.156 159.594 218.156C158.943 218.156 158.344 218 157.797 217.688C157.25 217.37 156.818 216.932 156.5 216.375C156.182 215.812 156.029 215.18 156.039 214.477C156.029 213.742 156.195 213.081 156.539 212.492C156.883 211.904 157.354 211.445 157.953 211.117C158.557 210.789 159.227 210.63 159.961 210.641C160.779 210.635 161.5 210.846 162.125 211.273C162.75 211.695 163.234 212.31 163.578 213.117C163.927 213.919 164.102 214.867 164.102 215.961ZM157.609 214.398C157.604 214.852 157.703 215.263 157.906 215.633C158.109 216.003 158.383 216.292 158.727 216.5C159.076 216.703 159.448 216.802 159.844 216.797H160.008C160.393 216.802 160.766 216.698 161.125 216.484C161.49 216.266 161.781 215.971 162 215.602C162.219 215.232 162.323 214.836 162.312 214.414C162.323 213.992 162.219 213.596 162 213.227C161.781 212.852 161.49 212.555 161.125 212.336C160.766 212.117 160.393 212.01 160.008 212.016H159.844C159.448 212.01 159.078 212.112 158.734 212.32C158.391 212.523 158.115 212.81 157.906 213.18C157.703 213.544 157.604 213.951 157.609 214.398Z" fill="#13161C"/>
<path d="M16 192.5H289V191.5H16V192.5Z" fill="#E8E9EC"/>
<rect opacity="0.8" x="106" y="250" width="68" height="27" fill="#FB607F"/>
<path d="M24.1406 260.32C23.1771 260.904 22.3854 261.622 21.7656 262.477C21.1458 263.331 20.6823 264.352 20.375 265.539C20.0729 266.721 19.9219 268.102 19.9219 269.68V270H18.3516V269.539C18.3516 267.315 18.7161 265.414 19.4453 263.836C20.1849 262.258 21.2083 261.06 22.5156 260.242H16.3828V258.797H24.1406V260.32ZM32.7656 260.32C31.8021 260.904 31.0104 261.622 30.3906 262.477C29.7708 263.331 29.3073 264.352 29 265.539C28.6979 266.721 28.5469 268.102 28.5469 269.68V270H26.9766V269.539C26.9766 267.315 27.3411 265.414 28.0703 263.836C28.8099 262.258 29.8333 261.06 31.1406 260.242H25.0078V258.797H32.7656V260.32Z" fill="#38CFFF"/>
<path d="M119.609 270H118.07V261.062L115.531 263.523V261.602L118.406 258.797H119.609V270ZM130.344 267.453H128.586V270H127.047V267.453H121.539V265.922L127.062 258.797H128.586V266.094H130.344V267.453ZM127.047 266.094V260.953L123.047 266.094H127.047ZM131.758 264.398C131.758 263.169 131.93 262.125 132.273 261.266C132.622 260.401 133.125 259.747 133.781 259.305C134.443 258.862 135.234 258.641 136.156 258.641C137.078 258.641 137.867 258.862 138.523 259.305C139.185 259.747 139.688 260.401 140.031 261.266C140.38 262.125 140.555 263.169 140.555 264.398C140.555 265.628 140.38 266.674 140.031 267.539C139.688 268.398 139.185 269.049 138.523 269.492C137.867 269.935 137.078 270.156 136.156 270.156C135.234 270.156 134.443 269.935 133.781 269.492C133.125 269.049 132.622 268.398 132.273 267.539C131.93 266.674 131.758 265.628 131.758 264.398ZM133.32 264.344C133.32 265.464 133.458 266.349 133.734 267C134.005 267.646 134.352 268.109 134.773 268.391C135.185 268.661 135.62 268.797 136.078 268.797H136.234C136.688 268.797 137.12 268.661 137.531 268.391C137.953 268.109 138.299 267.646 138.57 267C138.846 266.349 138.984 265.464 138.984 264.344C138.984 263.328 138.852 262.495 138.586 261.844C138.32 261.193 137.979 260.721 137.562 260.43C137.151 260.138 136.708 259.995 136.234 260H136.078C135.604 259.995 135.159 260.138 134.742 260.43C134.326 260.721 133.984 261.193 133.719 261.844C133.453 262.495 133.32 263.328 133.32 264.344ZM144.102 268.078V270H142.18V268.078H144.102ZM154.195 263.961C154.195 265.19 153.982 266.266 153.555 267.188C153.122 268.125 152.544 268.854 151.82 269.375C151.096 269.896 150.31 270.156 149.461 270.156C148.826 270.156 148.258 270.044 147.758 269.82C147.258 269.591 146.846 269.26 146.523 268.828C146.206 268.396 145.995 267.88 145.891 267.281H147.461C147.586 267.75 147.812 268.117 148.141 268.383C148.469 268.648 148.872 268.781 149.352 268.781H149.539C150.112 268.792 150.635 268.609 151.109 268.234C151.589 267.854 151.977 267.323 152.273 266.641C152.57 265.958 152.745 265.182 152.797 264.312C152.521 264.885 152.107 265.336 151.555 265.664C151.008 265.992 150.385 266.156 149.688 266.156C149.036 266.156 148.438 266 147.891 265.688C147.344 265.37 146.911 264.932 146.594 264.375C146.276 263.812 146.122 263.18 146.133 262.477C146.122 261.742 146.289 261.081 146.633 260.492C146.977 259.904 147.448 259.445 148.047 259.117C148.651 258.789 149.32 258.63 150.055 258.641C150.872 258.635 151.594 258.846 152.219 259.273C152.844 259.695 153.328 260.31 153.672 261.117C154.021 261.919 154.195 262.867 154.195 263.961ZM147.703 262.398C147.698 262.852 147.797 263.263 148 263.633C148.203 264.003 148.477 264.292 148.82 264.5C149.169 264.703 149.542 264.802 149.938 264.797H150.102C150.487 264.802 150.859 264.698 151.219 264.484C151.583 264.266 151.875 263.971 152.094 263.602C152.312 263.232 152.417 262.836 152.406 262.414C152.417 261.992 152.312 261.596 152.094 261.227C151.875 260.852 151.583 260.555 151.219 260.336C150.859 260.117 150.487 260.01 150.102 260.016H149.938C149.542 260.01 149.172 260.112 148.828 260.32C148.484 260.523 148.208 260.81 148 261.18C147.797 261.544 147.698 261.951 147.703 262.398ZM156.164 267.242C156.164 266.586 156.339 266.031 156.688 265.578C157.036 265.109 157.492 264.771 158.055 264.562C157.674 264.469 157.32 264.286 156.992 264.016C156.669 263.745 156.411 263.417 156.219 263.031C156.031 262.641 155.94 262.232 155.945 261.805C155.935 261.201 156.089 260.656 156.406 260.172C156.724 259.688 157.167 259.31 157.734 259.039C158.307 258.768 158.953 258.635 159.672 258.641C160.385 258.635 161.026 258.768 161.594 259.039C162.167 259.31 162.612 259.688 162.93 260.172C163.253 260.656 163.409 261.201 163.398 261.805C163.404 262.232 163.31 262.641 163.117 263.031C162.93 263.417 162.672 263.745 162.344 264.016C162.021 264.286 161.669 264.469 161.289 264.562C161.857 264.776 162.31 265.115 162.648 265.578C162.997 266.031 163.172 266.586 163.172 267.242C163.172 267.799 163.021 268.302 162.719 268.75C162.417 269.193 161.997 269.539 161.461 269.789C160.93 270.039 160.333 270.161 159.672 270.156C159.005 270.161 158.404 270.039 157.867 269.789C157.336 269.539 156.919 269.193 156.617 268.75C156.315 268.302 156.164 267.799 156.164 267.242ZM157.508 261.891C157.508 262.26 157.596 262.594 157.773 262.891C157.956 263.182 158.206 263.411 158.523 263.578C158.841 263.74 159.198 263.82 159.594 263.82H159.75C160.146 263.82 160.5 263.74 160.812 263.578C161.13 263.411 161.378 263.182 161.555 262.891C161.737 262.594 161.828 262.26 161.828 261.891C161.828 261.526 161.737 261.201 161.555 260.914C161.378 260.622 161.13 260.398 160.812 260.242C160.5 260.081 160.146 260 159.75 260H159.594C159.198 260 158.841 260.081 158.523 260.242C158.206 260.398 157.956 260.622 157.773 260.914C157.596 261.201 157.508 261.526 157.508 261.891ZM157.719 267.039C157.719 267.378 157.797 267.682 157.953 267.953C158.109 268.219 158.328 268.427 158.609 268.578C158.896 268.724 159.224 268.797 159.594 268.797H159.75C160.12 268.797 160.445 268.724 160.727 268.578C161.013 268.427 161.234 268.219 161.391 267.953C161.547 267.682 161.625 267.378 161.625 267.039C161.625 266.69 161.544 266.375 161.383 266.094C161.227 265.812 161.005 265.591 160.719 265.43C160.432 265.268 160.109 265.188 159.75 265.188H159.594C159.229 265.188 158.904 265.268 158.617 265.43C158.336 265.591 158.115 265.812 157.953 266.094C157.797 266.375 157.719 266.69 157.719 267.039Z" fill="#13161C"/>
<path d="M16 240.5H289V239.5H16V240.5Z" fill="#E8E9EC"/>
<path d="M24.1406 308.32C23.1771 308.904 22.3854 309.622 21.7656 310.477C21.1458 311.331 20.6823 312.352 20.375 313.539C20.0729 314.721 19.9219 316.102 19.9219 317.68V318H18.3516V317.539C18.3516 315.315 18.7161 313.414 19.4453 311.836C20.1849 310.258 21.2083 309.06 22.5156 308.242H16.3828V306.797H24.1406V308.32ZM26.9141 315.07C27.0286 315.617 27.2839 316.042 27.6797 316.344C28.0755 316.646 28.5729 316.797 29.1719 316.797H29.3125C29.7083 316.797 30.0703 316.721 30.3984 316.57C30.7318 316.414 30.9948 316.198 31.1875 315.922C31.3802 315.641 31.4766 315.32 31.4766 314.961C31.4766 314.586 31.388 314.255 31.2109 313.969C31.0391 313.682 30.7969 313.461 30.4844 313.305C30.1771 313.148 29.8281 313.07 29.4375 313.07H28.4844V311.727H29.4375C29.8125 311.727 30.1484 311.643 30.4453 311.477C30.7422 311.305 30.974 311.076 31.1406 310.789C31.3073 310.503 31.3906 310.188 31.3906 309.844C31.3906 309.474 31.2995 309.151 31.1172 308.875C30.9401 308.594 30.6927 308.378 30.375 308.227C30.0625 308.076 29.7083 308 29.3125 308H29.1719C28.8177 308 28.487 308.078 28.1797 308.234C27.8724 308.385 27.6198 308.596 27.4219 308.867C27.2292 309.138 27.1172 309.435 27.0859 309.758H25.5703C25.5859 309.185 25.7656 308.659 26.1094 308.18C26.4531 307.701 26.9089 307.323 27.4766 307.047C28.0495 306.771 28.6667 306.635 29.3281 306.641C29.9583 306.63 30.5521 306.758 31.1094 307.023C31.6719 307.289 32.1198 307.648 32.4531 308.102C32.7917 308.549 32.9609 309.031 32.9609 309.547C32.9609 310.276 32.7812 310.88 32.4219 311.359C32.0677 311.844 31.6016 312.174 31.0234 312.352C31.4141 312.445 31.7604 312.612 32.0625 312.852C32.3646 313.091 32.6016 313.396 32.7734 313.766C32.9505 314.135 33.0391 314.56 33.0391 315.039C33.0495 315.617 32.888 316.146 32.5547 316.625C32.2214 317.104 31.763 317.482 31.1797 317.758C30.5964 318.034 29.9531 318.167 29.25 318.156C28.5365 318.156 27.8958 318.031 27.3281 317.781C26.7656 317.526 26.3125 317.167 25.9688 316.703C25.6302 316.24 25.4271 315.695 25.3594 315.07H26.9141Z" fill="#38CFFF"/>
<path d="M119.609 318H118.07V309.062L115.531 311.523V309.602L118.406 306.797H119.609V318ZM130.344 315.453H128.586V318H127.047V315.453H121.539V313.922L127.062 306.797H128.586V314.094H130.344V315.453ZM127.047 314.094V308.953L123.047 314.094H127.047ZM131.758 312.398C131.758 311.169 131.93 310.125 132.273 309.266C132.622 308.401 133.125 307.747 133.781 307.305C134.443 306.862 135.234 306.641 136.156 306.641C137.078 306.641 137.867 306.862 138.523 307.305C139.185 307.747 139.688 308.401 140.031 309.266C140.38 310.125 140.555 311.169 140.555 312.398C140.555 313.628 140.38 314.674 140.031 315.539C139.688 316.398 139.185 317.049 138.523 317.492C137.867 317.935 137.078 318.156 136.156 318.156C135.234 318.156 134.443 317.935 133.781 317.492C133.125 317.049 132.622 316.398 132.273 315.539C131.93 314.674 131.758 313.628 131.758 312.398ZM133.32 312.344C133.32 313.464 133.458 314.349 133.734 315C134.005 315.646 134.352 316.109 134.773 316.391C135.185 316.661 135.62 316.797 136.078 316.797H136.234C136.688 316.797 137.12 316.661 137.531 316.391C137.953 316.109 138.299 315.646 138.57 315C138.846 314.349 138.984 313.464 138.984 312.344C138.984 311.328 138.852 310.495 138.586 309.844C138.32 309.193 137.979 308.721 137.562 308.43C137.151 308.138 136.708 307.995 136.234 308H136.078C135.604 307.995 135.159 308.138 134.742 308.43C134.326 308.721 133.984 309.193 133.719 309.844C133.453 310.495 133.32 311.328 133.32 312.344ZM144.102 316.078V318H142.18V316.078H144.102ZM154.195 311.961C154.195 313.19 153.982 314.266 153.555 315.188C153.122 316.125 152.544 316.854 151.82 317.375C151.096 317.896 150.31 318.156 149.461 318.156C148.826 318.156 148.258 318.044 147.758 317.82C147.258 317.591 146.846 317.26 146.523 316.828C146.206 316.396 145.995 315.88 145.891 315.281H147.461C147.586 315.75 147.812 316.117 148.141 316.383C148.469 316.648 148.872 316.781 149.352 316.781H149.539C150.112 316.792 150.635 316.609 151.109 316.234C151.589 315.854 151.977 315.323 152.273 314.641C152.57 313.958 152.745 313.182 152.797 312.312C152.521 312.885 152.107 313.336 151.555 313.664C151.008 313.992 150.385 314.156 149.688 314.156C149.036 314.156 148.438 314 147.891 313.688C147.344 313.37 146.911 312.932 146.594 312.375C146.276 311.812 146.122 311.18 146.133 310.477C146.122 309.742 146.289 309.081 146.633 308.492C146.977 307.904 147.448 307.445 148.047 307.117C148.651 306.789 149.32 306.63 150.055 306.641C150.872 306.635 151.594 306.846 152.219 307.273C152.844 307.695 153.328 308.31 153.672 309.117C154.021 309.919 154.195 310.867 154.195 311.961ZM147.703 310.398C147.698 310.852 147.797 311.263 148 311.633C148.203 312.003 148.477 312.292 148.82 312.5C149.169 312.703 149.542 312.802 149.938 312.797H150.102C150.487 312.802 150.859 312.698 151.219 312.484C151.583 312.266 151.875 311.971 152.094 311.602C152.312 311.232 152.417 310.836 152.406 310.414C152.417 309.992 152.312 309.596 152.094 309.227C151.875 308.852 151.583 308.555 151.219 308.336C150.859 308.117 150.487 308.01 150.102 308.016H149.938C149.542 308.01 149.172 308.112 148.828 308.32C148.484 308.523 148.208 308.81 148 309.18C147.797 309.544 147.698 309.951 147.703 310.398ZM163.203 308.32C162.24 308.904 161.448 309.622 160.828 310.477C160.208 311.331 159.745 312.352 159.438 313.539C159.135 314.721 158.984 316.102 158.984 317.68V318H157.414V317.539C157.414 315.315 157.779 313.414 158.508 311.836C159.247 310.258 160.271 309.06 161.578 308.242H155.445V306.797H163.203V308.32Z" fill="#13161C"/>
<path d="M16 288.5H289V287.5H16V288.5Z" fill="#E8E9EC"/>
<path d="M20.6094 366H19.0703V357.062L16.5312 359.523V357.602L19.4062 354.797H20.6094V366ZM22.9766 360.398C22.9766 359.169 23.1484 358.125 23.4922 357.266C23.8411 356.401 24.3438 355.747 25 355.305C25.6615 354.862 26.4531 354.641 27.375 354.641C28.2969 354.641 29.0859 354.862 29.7422 355.305C30.4036 355.747 30.9062 356.401 31.25 357.266C31.599 358.125 31.7734 359.169 31.7734 360.398C31.7734 361.628 31.599 362.674 31.25 363.539C30.9062 364.398 30.4036 365.049 29.7422 365.492C29.0859 365.935 28.2969 366.156 27.375 366.156C26.4531 366.156 25.6615 365.935 25 365.492C24.3438 365.049 23.8411 364.398 23.4922 363.539C23.1484 362.674 22.9766 361.628 22.9766 360.398ZM24.5391 360.344C24.5391 361.464 24.6771 362.349 24.9531 363C25.224 363.646 25.5703 364.109 25.9922 364.391C26.4036 364.661 26.8385 364.797 27.2969 364.797H27.4531C27.9062 364.797 28.3385 364.661 28.75 364.391C29.1719 364.109 29.5182 363.646 29.7891 363C30.0651 362.349 30.2031 361.464 30.2031 360.344C30.2031 359.328 30.0703 358.495 29.8047 357.844C29.5391 357.193 29.1979 356.721 28.7812 356.43C28.3698 356.138 27.9271 355.995 27.4531 356H27.2969C26.8229 355.995 26.3776 356.138 25.9609 356.43C25.5443 356.721 25.2031 357.193 24.9375 357.844C24.6719 358.495 24.5391 359.328 24.5391 360.344ZM41.6016 362.32C41.612 363.06 41.4453 363.724 41.1016 364.312C40.7578 364.896 40.2839 365.352 39.6797 365.68C39.0807 366.008 38.4141 366.167 37.6797 366.156C36.862 366.161 36.1406 365.953 35.5156 365.531C34.8906 365.109 34.4036 364.497 34.0547 363.695C33.7109 362.888 33.5391 361.935 33.5391 360.836C33.5391 359.612 33.7526 358.539 34.1797 357.617C34.6068 356.685 35.1849 355.956 35.9141 355.43C36.6432 354.904 37.4297 354.641 38.2734 354.641C38.9089 354.641 39.4766 354.755 39.9766 354.984C40.4766 355.208 40.8854 355.536 41.2031 355.969C41.526 356.401 41.7396 356.919 41.8438 357.523H40.2734C40.1484 357.049 39.9219 356.68 39.5938 356.414C39.2656 356.148 38.862 356.016 38.3828 356.016H38.1953C37.6224 356.005 37.099 356.19 36.625 356.57C36.151 356.945 35.7656 357.474 35.4688 358.156C35.1719 358.833 34.9948 359.607 34.9375 360.477C35.2135 359.904 35.625 359.456 36.1719 359.133C36.7292 358.805 37.349 358.641 38.0312 358.641C38.6823 358.641 39.2839 358.799 39.8359 359.117C40.388 359.43 40.8229 359.867 41.1406 360.43C41.4583 360.987 41.612 361.617 41.6016 362.32ZM35.3281 362.383C35.3177 362.805 35.4219 363.203 35.6406 363.578C35.8594 363.948 36.1484 364.242 36.5078 364.461C36.8672 364.68 37.2422 364.786 37.6328 364.781H37.7891C38.1849 364.786 38.5547 364.688 38.8984 364.484C39.2474 364.276 39.5234 363.99 39.7266 363.625C39.9349 363.255 40.0365 362.846 40.0312 362.398C40.0365 361.951 39.9349 361.542 39.7266 361.172C39.5234 360.802 39.2474 360.513 38.8984 360.305C38.5547 360.096 38.1849 359.995 37.7891 360H37.6328C37.2422 359.995 36.8672 360.099 36.5078 360.312C36.1484 360.526 35.8594 360.818 35.6406 361.188C35.4219 361.557 35.3177 361.956 35.3281 362.383Z" fill="#38CFFF"/>
<path d="M119.609 366H118.07V357.062L115.531 359.523V357.602L118.406 354.797H119.609V366ZM130.344 363.453H128.586V366H127.047V363.453H121.539V361.922L127.062 354.797H128.586V362.094H130.344V363.453ZM127.047 362.094V356.953L123.047 362.094H127.047ZM131.758 360.398C131.758 359.169 131.93 358.125 132.273 357.266C132.622 356.401 133.125 355.747 133.781 355.305C134.443 354.862 135.234 354.641 136.156 354.641C137.078 354.641 137.867 354.862 138.523 355.305C139.185 355.747 139.688 356.401 140.031 357.266C140.38 358.125 140.555 359.169 140.555 360.398C140.555 361.628 140.38 362.674 140.031 363.539C139.688 364.398 139.185 365.049 138.523 365.492C137.867 365.935 137.078 366.156 136.156 366.156C135.234 366.156 134.443 365.935 133.781 365.492C133.125 365.049 132.622 364.398 132.273 363.539C131.93 362.674 131.758 361.628 131.758 360.398ZM133.32 360.344C133.32 361.464 133.458 362.349 133.734 363C134.005 363.646 134.352 364.109 134.773 364.391C135.185 364.661 135.62 364.797 136.078 364.797H136.234C136.688 364.797 137.12 364.661 137.531 364.391C137.953 364.109 138.299 363.646 138.57 363C138.846 362.349 138.984 361.464 138.984 360.344C138.984 359.328 138.852 358.495 138.586 357.844C138.32 357.193 137.979 356.721 137.562 356.43C137.151 356.138 136.708 355.995 136.234 356H136.078C135.604 355.995 135.159 356.138 134.742 356.43C134.326 356.721 133.984 357.193 133.719 357.844C133.453 358.495 133.32 359.328 133.32 360.344ZM144.102 364.078V366H142.18V364.078H144.102ZM154.195 359.961C154.195 361.19 153.982 362.266 153.555 363.188C153.122 364.125 152.544 364.854 151.82 365.375C151.096 365.896 150.31 366.156 149.461 366.156C148.826 366.156 148.258 366.044 147.758 365.82C147.258 365.591 146.846 365.26 146.523 364.828C146.206 364.396 145.995 363.88 145.891 363.281H147.461C147.586 363.75 147.812 364.117 148.141 364.383C148.469 364.648 148.872 364.781 149.352 364.781H149.539C150.112 364.792 150.635 364.609 151.109 364.234C151.589 363.854 151.977 363.323 152.273 362.641C152.57 361.958 152.745 361.182 152.797 360.312C152.521 360.885 152.107 361.336 151.555 361.664C151.008 361.992 150.385 362.156 149.688 362.156C149.036 362.156 148.438 362 147.891 361.688C147.344 361.37 146.911 360.932 146.594 360.375C146.276 359.812 146.122 359.18 146.133 358.477C146.122 357.742 146.289 357.081 146.633 356.492C146.977 355.904 147.448 355.445 148.047 355.117C148.651 354.789 149.32 354.63 150.055 354.641C150.872 354.635 151.594 354.846 152.219 355.273C152.844 355.695 153.328 356.31 153.672 357.117C154.021 357.919 154.195 358.867 154.195 359.961ZM147.703 358.398C147.698 358.852 147.797 359.263 148 359.633C148.203 360.003 148.477 360.292 148.82 360.5C149.169 360.703 149.542 360.802 149.938 360.797H150.102C150.487 360.802 150.859 360.698 151.219 360.484C151.583 360.266 151.875 359.971 152.094 359.602C152.312 359.232 152.417 358.836 152.406 358.414C152.417 357.992 152.312 357.596 152.094 357.227C151.875 356.852 151.583 356.555 151.219 356.336C150.859 356.117 150.487 356.01 150.102 356.016H149.938C149.542 356.01 149.172 356.112 148.828 356.32C148.484 356.523 148.208 356.81 148 357.18C147.797 357.544 147.698 357.951 147.703 358.398ZM163.992 362.32C164.003 363.06 163.836 363.724 163.492 364.312C163.148 364.896 162.674 365.352 162.07 365.68C161.471 366.008 160.805 366.167 160.07 366.156C159.253 366.161 158.531 365.953 157.906 365.531C157.281 365.109 156.794 364.497 156.445 363.695C156.102 362.888 155.93 361.935 155.93 360.836C155.93 359.612 156.143 358.539 156.57 357.617C156.997 356.685 157.576 355.956 158.305 355.43C159.034 354.904 159.82 354.641 160.664 354.641C161.299 354.641 161.867 354.755 162.367 354.984C162.867 355.208 163.276 355.536 163.594 355.969C163.917 356.401 164.13 356.919 164.234 357.523H162.664C162.539 357.049 162.312 356.68 161.984 356.414C161.656 356.148 161.253 356.016 160.773 356.016H160.586C160.013 356.005 159.49 356.19 159.016 356.57C158.542 356.945 158.156 357.474 157.859 358.156C157.562 358.833 157.385 359.607 157.328 360.477C157.604 359.904 158.016 359.456 158.562 359.133C159.12 358.805 159.74 358.641 160.422 358.641C161.073 358.641 161.674 358.799 162.227 359.117C162.779 359.43 163.214 359.867 163.531 360.43C163.849 360.987 164.003 361.617 163.992 362.32ZM157.719 362.383C157.708 362.805 157.812 363.203 158.031 363.578C158.25 363.948 158.539 364.242 158.898 364.461C159.258 364.68 159.633 364.786 160.023 364.781H160.18C160.576 364.786 160.945 364.688 161.289 364.484C161.638 364.276 161.914 363.99 162.117 363.625C162.326 363.255 162.427 362.846 162.422 362.398C162.427 361.951 162.326 361.542 162.117 361.172C161.914 360.802 161.638 360.513 161.289 360.305C160.945 360.096 160.576 359.995 160.18 360H160.023C159.633 359.995 159.258 360.099 158.898 360.312C158.539 360.526 158.25 360.818 158.031 361.188C157.812 361.557 157.708 361.956 157.719 362.383Z" fill="#13161C"/>
<path d="M16 336.5H289V335.5H16V336.5Z" fill="#E8E9EC"/>
<path d="M342.042 63V63.9092C342.147 63.7314 342.299 63.5628 342.5 63.4033C342.701 63.2438 342.935 63.1139 343.204 63.0137C343.478 62.9134 343.762 62.8633 344.059 62.8633C344.688 62.8542 345.239 63.016 345.713 63.3486C346.187 63.6813 346.549 64.1279 346.8 64.6885C347.055 65.249 347.178 65.8529 347.169 66.5C347.178 67.1471 347.055 67.751 346.8 68.3115C346.549 68.8721 346.187 69.3187 345.713 69.6514C345.239 69.984 344.688 70.1458 344.059 70.1367C343.762 70.1367 343.478 70.0866 343.204 69.9863C342.935 69.8861 342.701 69.7562 342.5 69.5967C342.299 69.4372 342.147 69.2686 342.042 69.0908V72.8027H340.224V63H342.042ZM342.042 66.5C342.037 66.9147 342.108 67.2884 342.254 67.6211C342.404 67.9538 342.603 68.2135 342.849 68.4004C343.099 68.5872 343.364 68.6761 343.642 68.667H343.751C344.056 68.667 344.33 68.5781 344.571 68.4004C344.813 68.2181 345.002 67.9629 345.139 67.6348C345.28 67.3066 345.351 66.9284 345.351 66.5C345.351 66.0716 345.28 65.6934 345.139 65.3652C345.002 65.0371 344.813 64.7842 344.571 64.6064C344.33 64.4242 344.056 64.333 343.751 64.333H343.642C343.364 64.3239 343.099 64.4128 342.849 64.5996C342.603 64.7865 342.404 65.0462 342.254 65.3789C342.108 65.7116 342.037 66.0853 342.042 66.5ZM348.577 63H350.396V67.2725C350.396 67.7236 350.484 68.07 350.662 68.3115C350.844 68.5485 351.102 68.667 351.435 68.667H351.544C351.804 68.667 352.043 68.5872 352.262 68.4277C352.485 68.2682 352.66 68.0518 352.788 67.7783C352.92 67.5049 352.986 67.2087 352.986 66.8896V63H354.805V70H352.986V68.9746C352.768 69.3392 352.478 69.624 352.118 69.8291C351.763 70.0342 351.371 70.1367 350.942 70.1367C350.154 70.1367 349.562 69.8975 349.165 69.4189C348.773 68.9313 348.577 68.2842 348.577 67.4775V63ZM357.43 64.4697H355.987V63H357.43V60.7305H359.248V63H360.813V64.4697H359.248V67.6895C359.248 67.9128 359.269 68.0768 359.31 68.1816C359.351 68.2865 359.424 68.3594 359.528 68.4004C359.633 68.4414 359.797 68.4619 360.021 68.4619H361.025V70H359.248C358.656 70 358.204 69.8451 357.895 69.5352C357.585 69.2253 357.43 68.7741 357.43 68.1816V64.4697ZM368.449 70V71.4697H361.866V70H368.449ZM374.109 70H371.464L369.044 63H370.972L372.817 68.6602L374.656 63H376.529L374.109 70ZM381.485 70C381.444 69.804 381.417 69.5192 381.403 69.1455C381.18 69.4554 380.886 69.6992 380.521 69.877C380.157 70.0501 379.751 70.1367 379.305 70.1367C378.895 70.1367 378.516 70.0524 378.17 69.8838C377.824 69.7106 377.548 69.4714 377.343 69.166C377.138 68.8561 377.035 68.5052 377.035 68.1133C377.035 67.3796 377.274 66.8213 377.753 66.4385C378.227 66.0602 378.842 65.8392 379.599 65.7754L381.362 65.6182V65.4473C381.362 65.2376 381.314 65.0485 381.219 64.8799C381.128 64.7113 380.995 64.5791 380.822 64.4834C380.654 64.3831 380.46 64.333 380.241 64.333H380.125C379.915 64.333 379.726 64.3717 379.558 64.4492C379.394 64.5267 379.261 64.6292 379.161 64.7568C379.065 64.8844 379.011 65.0212 378.997 65.167H377.172C377.213 64.7295 377.363 64.3376 377.623 63.9912C377.887 63.6403 378.236 63.3646 378.669 63.1641C379.106 62.9635 379.601 62.8633 380.152 62.8633C380.749 62.8633 381.271 62.9613 381.718 63.1572C382.164 63.3486 382.511 63.6335 382.757 64.0117C383.003 64.39 383.126 64.8457 383.126 65.3789V68.4619C383.126 69.1729 383.149 69.6855 383.194 70H381.485ZM378.826 67.9561C378.826 68.1702 378.908 68.3434 379.072 68.4756C379.236 68.6032 379.444 68.667 379.694 68.667H379.804C380.077 68.667 380.332 68.6009 380.569 68.4688C380.811 68.3366 381.002 68.1543 381.144 67.9219C381.289 67.6895 381.362 67.4297 381.362 67.1426V66.9443L379.845 67.1016C379.576 67.1243 379.339 67.2064 379.134 67.3477C378.929 67.4889 378.826 67.6917 378.826 67.9561ZM386.763 60.1973V70H384.944V60.1973H386.763Z" fill="#343537"/>
<path d="M340.462 94.4146C340.462 93.7993 340.625 93.2793 340.953 92.8545C341.28 92.415 341.707 92.0977 342.234 91.9023C341.878 91.8145 341.546 91.6436 341.238 91.3896C340.936 91.1357 340.694 90.8281 340.513 90.4668C340.337 90.1006 340.252 89.7173 340.257 89.3169C340.247 88.7505 340.391 88.2402 340.689 87.7861C340.987 87.332 341.402 86.978 341.934 86.7241C342.471 86.4702 343.077 86.3457 343.75 86.3506C344.419 86.3457 345.02 86.4702 345.552 86.7241C346.089 86.978 346.507 87.332 346.805 87.7861C347.107 88.2402 347.254 88.7505 347.244 89.3169C347.249 89.7173 347.161 90.1006 346.98 90.4668C346.805 90.8281 346.563 91.1357 346.255 91.3896C345.953 91.6436 345.623 91.8145 345.267 91.9023C345.799 92.1025 346.224 92.4199 346.541 92.8545C346.868 93.2793 347.032 93.7993 347.032 94.4146C347.032 94.937 346.89 95.4082 346.607 95.8281C346.324 96.2432 345.931 96.5679 345.428 96.8022C344.93 97.0366 344.371 97.1514 343.75 97.1465C343.125 97.1514 342.562 97.0366 342.059 96.8022C341.561 96.5679 341.17 96.2432 340.887 95.8281C340.604 95.4082 340.462 94.937 340.462 94.4146ZM341.722 89.3975C341.722 89.7441 341.805 90.0566 341.971 90.335C342.142 90.6084 342.376 90.8232 342.674 90.9795C342.972 91.1309 343.306 91.2065 343.677 91.2065H343.824C344.195 91.2065 344.527 91.1309 344.82 90.9795C345.118 90.8232 345.35 90.6084 345.516 90.335C345.687 90.0566 345.772 89.7441 345.772 89.3975C345.772 89.0557 345.687 88.7505 345.516 88.4819C345.35 88.2085 345.118 87.9985 344.82 87.8521C344.527 87.7007 344.195 87.625 343.824 87.625H343.677C343.306 87.625 342.972 87.7007 342.674 87.8521C342.376 87.9985 342.142 88.2085 341.971 88.4819C341.805 88.7505 341.722 89.0557 341.722 89.3975ZM341.919 94.2241C341.919 94.5415 341.993 94.8271 342.139 95.0811C342.286 95.3301 342.491 95.5254 342.754 95.667C343.023 95.8037 343.331 95.8721 343.677 95.8721H343.824C344.17 95.8721 344.476 95.8037 344.739 95.667C345.008 95.5254 345.215 95.3301 345.362 95.0811C345.508 94.8271 345.582 94.5415 345.582 94.2241C345.582 93.897 345.506 93.6016 345.354 93.3379C345.208 93.0742 345 92.8667 344.732 92.7153C344.463 92.564 344.161 92.4883 343.824 92.4883H343.677C343.335 92.4883 343.03 92.564 342.762 92.7153C342.498 92.8667 342.291 93.0742 342.139 93.3379C341.993 93.6016 341.919 93.897 341.919 94.2241ZM352.393 97H350.95V88.6211L348.57 90.9282V89.1265L351.265 86.4971H352.393V97ZM356.89 93.1328L354.583 90.8184L355.513 89.8882L357.82 92.2026L360.127 89.8882L361.058 90.8184L358.75 93.1328L361.058 95.4399L360.127 96.3701L357.82 94.063L355.513 96.3701L354.583 95.4399L356.89 93.1328ZM366.192 97H364.749V88.6211L362.369 90.9282V89.1265L365.064 86.4971H366.192V97ZM376.255 94.6123H374.607V97H373.165V94.6123H368.001V93.1768L373.179 86.4971H374.607V93.3379H376.255V94.6123ZM373.165 93.3379V88.5186L369.415 93.3379H373.165ZM381.06 97H379.617V88.6211L377.237 90.9282V89.1265L379.932 86.4971H381.06V97ZM383.067 93.7773V92.5029H386.041V89.5H387.505V92.5029H390.479V93.7773H387.505V96.7729H386.041V93.7773H383.067ZM395.43 97H393.987V88.6211L391.607 90.9282V89.1265L394.302 86.4971H395.43V97ZM401.128 97H399.686V88.6211L397.305 90.9282V89.1265L400 86.4971H401.128V97ZM410.423 93.6235C410.433 94.2876 410.274 94.8906 409.947 95.4326C409.62 95.9697 409.173 96.3921 408.606 96.6997C408.045 97.0073 407.427 97.1562 406.753 97.1465C406.099 97.1514 405.496 97.0391 404.944 96.8096C404.397 96.5752 403.953 96.2383 403.611 95.7988C403.274 95.3545 403.086 94.8296 403.047 94.2241H404.512C404.556 94.5708 404.678 94.8687 404.878 95.1177C405.079 95.3618 405.335 95.5498 405.647 95.6816C405.96 95.8086 406.302 95.8721 406.673 95.8721H406.827C407.232 95.877 407.598 95.7842 407.925 95.5938C408.252 95.4033 408.506 95.1421 408.687 94.8101C408.873 94.4731 408.963 94.1021 408.958 93.6968C408.963 93.3306 408.873 92.9937 408.687 92.686C408.506 92.3784 408.255 92.1367 407.933 91.9609C407.615 91.7852 407.271 91.6997 406.9 91.7046H406.753C406.392 91.7046 406.041 91.7949 405.699 91.9756C405.347 92.1562 405.074 92.4053 404.878 92.7227H403.421L404.695 86.4971H410.32V87.8521H405.787L405.062 91.2505C405.335 90.9819 405.66 90.7793 406.036 90.6426C406.417 90.501 406.81 90.4302 407.215 90.4302C407.825 90.4302 408.377 90.5742 408.87 90.8623C409.363 91.1455 409.747 91.5312 410.02 92.0195C410.298 92.5078 410.433 93.0425 410.423 93.6235ZM414.341 93.1328L412.034 90.8184L412.964 89.8882L415.271 92.2026L417.579 89.8882L418.509 90.8184L416.202 93.1328L418.509 95.4399L417.579 96.3701L415.271 94.063L412.964 96.3701L412.034 95.4399L414.341 93.1328ZM423.643 97H422.2V88.6211L419.82 90.9282V89.1265L422.515 86.4971H423.643V97ZM433.707 94.6123H432.059V97H430.616V94.6123H425.452V93.1768L430.63 86.4971H432.059V93.3379H433.707V94.6123ZM430.616 93.3379V88.5186L426.866 93.3379H430.616ZM438.511 97H437.068V88.6211L434.688 90.9282V89.1265L437.383 86.4971H438.511V97ZM442.679 95.1982V97H440.877V95.1982H442.679ZM447.315 97H445.872V88.6211L443.492 90.9282V89.1265L446.187 86.4971H447.315V97ZM449.322 93.7773V92.5029H452.295V89.5H453.76V92.5029H456.734V93.7773H453.76V96.7729H452.295V93.7773H449.322ZM464.659 87.9253C463.755 88.4722 463.013 89.146 462.432 89.9468C461.851 90.7476 461.417 91.7046 461.128 92.8179C460.845 93.9263 460.704 95.2202 460.704 96.6997V97H459.231V96.5679C459.231 94.4829 459.573 92.7007 460.257 91.2212C460.95 89.7417 461.91 88.6187 463.135 87.8521H457.386V86.4971H464.659V87.9253ZM467.259 94.2534C467.366 94.7661 467.605 95.1641 467.977 95.4473C468.348 95.7305 468.814 95.8721 469.375 95.8721H469.507C469.878 95.8721 470.218 95.8013 470.525 95.6597C470.838 95.5132 471.084 95.3105 471.265 95.0518C471.446 94.7881 471.536 94.4878 471.536 94.1509C471.536 93.7993 471.453 93.4893 471.287 93.2207C471.126 92.9521 470.899 92.7446 470.606 92.5981C470.318 92.4517 469.991 92.3784 469.625 92.3784H468.731V91.1187H469.625C469.976 91.1187 470.291 91.0405 470.569 90.8843C470.848 90.7231 471.065 90.5083 471.221 90.2397C471.377 89.9712 471.456 89.6758 471.456 89.3535C471.456 89.0068 471.37 88.7041 471.199 88.4453C471.033 88.1816 470.801 87.979 470.503 87.8374C470.21 87.6958 469.878 87.625 469.507 87.625H469.375C469.043 87.625 468.733 87.6982 468.445 87.8447C468.157 87.9863 467.92 88.1841 467.735 88.438C467.554 88.6919 467.449 88.9702 467.42 89.2729H465.999C466.014 88.7358 466.182 88.2427 466.504 87.7935C466.827 87.3442 467.254 86.9902 467.786 86.7314C468.323 86.4727 468.902 86.3457 469.522 86.3506C470.113 86.3408 470.669 86.4604 471.192 86.7095C471.719 86.9585 472.139 87.2954 472.452 87.7202C472.769 88.1401 472.928 88.5918 472.928 89.0752C472.928 89.7588 472.759 90.3252 472.422 90.7744C472.09 91.2285 471.653 91.5386 471.111 91.7046C471.478 91.7925 471.802 91.9487 472.085 92.1733C472.369 92.3979 472.591 92.6836 472.752 93.0303C472.918 93.377 473.001 93.7749 473.001 94.2241C473.011 94.7661 472.859 95.2617 472.547 95.7109C472.234 96.1602 471.805 96.5142 471.258 96.7729C470.711 97.0317 470.108 97.1562 469.449 97.1465C468.78 97.1465 468.179 97.0293 467.647 96.7949C467.12 96.5557 466.695 96.2188 466.373 95.7842C466.055 95.3496 465.865 94.8394 465.801 94.2534H467.259ZM477.007 93.1328L474.7 90.8184L475.63 89.8882L477.938 92.2026L480.245 89.8882L481.175 90.8184L478.868 93.1328L481.175 95.4399L480.245 96.3701L477.938 94.063L475.63 96.3701L474.7 95.4399L477.007 93.1328ZM486.309 97H484.866V88.6211L482.486 90.9282V89.1265L485.181 86.4971H486.309V97ZM496.373 94.6123H494.725V97H493.282V94.6123H488.118V93.1768L493.296 86.4971H494.725V93.3379H496.373V94.6123ZM493.282 93.3379V88.5186L489.532 93.3379H493.282ZM501.177 97H499.734V88.6211L497.354 90.9282V89.1265L500.049 86.4971H501.177V97ZM505.345 95.1982V97H503.543V95.1982H505.345ZM506.868 91.7485C506.868 90.5962 507.029 89.6172 507.352 88.8115C507.679 88.001 508.15 87.3882 508.765 86.9731C509.385 86.5581 510.127 86.3506 510.992 86.3506C511.856 86.3506 512.596 86.5581 513.211 86.9731C513.831 87.3882 514.302 88.001 514.625 88.8115C514.952 89.6172 515.115 90.5962 515.115 91.7485C515.115 92.9009 514.952 93.8823 514.625 94.6929C514.302 95.4985 513.831 96.1089 513.211 96.5239C512.596 96.939 511.856 97.1465 510.992 97.1465C510.127 97.1465 509.385 96.939 508.765 96.5239C508.15 96.1089 507.679 95.4985 507.352 94.6929C507.029 93.8823 506.868 92.9009 506.868 91.7485ZM508.333 91.6973C508.333 92.7471 508.462 93.5771 508.721 94.1875C508.975 94.793 509.3 95.2275 509.695 95.4912C510.081 95.7451 510.489 95.8721 510.918 95.8721H511.065C511.49 95.8721 511.895 95.7451 512.281 95.4912C512.676 95.2275 513.001 94.793 513.255 94.1875C513.514 93.5771 513.643 92.7471 513.643 91.6973C513.643 90.7451 513.519 89.9639 513.27 89.3535C513.021 88.7432 512.701 88.3013 512.31 88.0278C511.924 87.7544 511.509 87.6201 511.065 87.625H510.918C510.474 87.6201 510.057 87.7544 509.666 88.0278C509.275 88.3013 508.956 88.7432 508.707 89.3535C508.458 89.9639 508.333 90.7451 508.333 91.6973ZM523.802 97H516.705V95.4106L520.096 92.188C520.198 92.0854 520.357 91.9414 520.572 91.7559C520.914 91.4482 521.197 91.1748 521.421 90.9355C521.929 90.3936 522.183 89.8247 522.183 89.229C522.183 88.9116 522.105 88.6333 521.949 88.394C521.792 88.1499 521.58 87.9619 521.312 87.8301C521.043 87.6934 520.743 87.625 520.411 87.625H520.264C519.888 87.625 519.551 87.7129 519.253 87.8887C518.96 88.0596 518.731 88.2988 518.565 88.6064C518.399 88.9092 518.316 89.251 518.316 89.6318H516.814C516.81 88.9922 516.961 88.4209 517.269 87.918C517.576 87.415 517.999 87.0269 518.536 86.7534C519.078 86.4751 519.678 86.3408 520.337 86.3506C520.938 86.3408 521.492 86.4482 522 86.6729C522.508 86.8975 522.911 87.2222 523.208 87.647C523.506 88.0669 523.655 88.5576 523.655 89.1191C523.655 89.6514 523.55 90.1274 523.34 90.5474C523.125 90.9722 522.867 91.3555 522.564 91.6973C522.286 92.0098 521.873 92.4199 521.326 92.9277L521.194 93.0522L518.389 95.6523H523.802V97Z" fill="#343537"/>
<path d="M339.854 335.5C339.844 334.794 339.986 334.165 340.277 333.613C340.569 333.062 340.968 332.633 341.474 332.328C341.984 332.018 342.547 331.863 343.162 331.863C344.124 331.863 344.88 332.082 345.432 332.52C345.983 332.952 346.293 333.595 346.361 334.447H344.543C344.488 334.092 344.352 333.818 344.133 333.627C343.919 333.431 343.632 333.333 343.271 333.333H343.155C342.668 333.333 342.296 333.536 342.041 333.941C341.795 334.342 341.672 334.862 341.672 335.5C341.672 336.133 341.795 336.653 342.041 337.059C342.296 337.464 342.668 337.667 343.155 337.667H343.271C343.632 337.667 343.919 337.571 344.133 337.38C344.352 337.184 344.488 336.908 344.543 336.553H346.361C346.293 337.405 345.983 338.05 345.432 338.487C344.88 338.92 344.124 339.137 343.162 339.137C342.547 339.137 341.984 338.984 341.474 338.679C340.968 338.369 340.569 337.938 340.277 337.387C339.986 336.835 339.844 336.206 339.854 335.5ZM351.837 339C351.796 338.804 351.769 338.519 351.755 338.146C351.532 338.455 351.238 338.699 350.873 338.877C350.508 339.05 350.103 339.137 349.656 339.137C349.246 339.137 348.868 339.052 348.521 338.884C348.175 338.711 347.899 338.471 347.694 338.166C347.489 337.856 347.387 337.505 347.387 337.113C347.387 336.38 347.626 335.821 348.104 335.438C348.578 335.06 349.194 334.839 349.95 334.775L351.714 334.618V334.447C351.714 334.238 351.666 334.049 351.57 333.88C351.479 333.711 351.347 333.579 351.174 333.483C351.005 333.383 350.812 333.333 350.593 333.333H350.477C350.267 333.333 350.078 333.372 349.909 333.449C349.745 333.527 349.613 333.629 349.513 333.757C349.417 333.884 349.362 334.021 349.349 334.167H347.523C347.564 333.729 347.715 333.338 347.975 332.991C348.239 332.64 348.588 332.365 349.021 332.164C349.458 331.964 349.952 331.863 350.504 331.863C351.101 331.863 351.623 331.961 352.069 332.157C352.516 332.349 352.862 332.633 353.108 333.012C353.354 333.39 353.478 333.846 353.478 334.379V337.462C353.478 338.173 353.5 338.686 353.546 339H351.837ZM349.178 336.956C349.178 337.17 349.26 337.343 349.424 337.476C349.588 337.603 349.795 337.667 350.046 337.667H350.155C350.429 337.667 350.684 337.601 350.921 337.469C351.162 337.337 351.354 337.154 351.495 336.922C351.641 336.689 351.714 336.43 351.714 336.143V335.944L350.196 336.102C349.927 336.124 349.69 336.206 349.485 336.348C349.28 336.489 349.178 336.692 349.178 336.956ZM357.114 332V333.025C357.333 332.665 357.629 332.383 358.003 332.178C358.381 331.968 358.791 331.863 359.233 331.863C360.045 331.863 360.651 332.105 361.052 332.588C361.462 333.071 361.667 333.716 361.667 334.522V339H359.849V334.728C359.849 334.276 359.753 333.932 359.562 333.695C359.37 333.454 359.097 333.333 358.741 333.333H358.632C358.358 333.333 358.105 333.413 357.873 333.572C357.641 333.732 357.456 333.948 357.319 334.222C357.183 334.495 357.114 334.791 357.114 335.11V339H355.296V332H357.114ZM363.082 335.5C363.073 334.794 363.214 334.165 363.506 333.613C363.798 333.062 364.196 332.633 364.702 332.328C365.213 332.018 365.775 331.863 366.391 331.863C367.352 331.863 368.109 332.082 368.66 332.52C369.212 332.952 369.521 333.595 369.59 334.447H367.771C367.717 334.092 367.58 333.818 367.361 333.627C367.147 333.431 366.86 333.333 366.5 333.333H366.384C365.896 333.333 365.525 333.536 365.27 333.941C365.023 334.342 364.9 334.862 364.9 335.5C364.9 336.133 365.023 336.653 365.27 337.059C365.525 337.464 365.896 337.667 366.384 337.667H366.5C366.86 337.667 367.147 337.571 367.361 337.38C367.58 337.184 367.717 336.908 367.771 336.553H369.59C369.521 337.405 369.212 338.05 368.66 338.487C368.109 338.92 367.352 339.137 366.391 339.137C365.775 339.137 365.213 338.984 364.702 338.679C364.196 338.369 363.798 337.938 363.506 337.387C363.214 336.835 363.073 336.206 363.082 335.5ZM370.629 335.5C370.624 334.803 370.757 334.176 371.025 333.62C371.299 333.064 371.688 332.631 372.194 332.321C372.7 332.007 373.288 331.854 373.958 331.863C374.619 331.859 375.188 332.007 375.667 332.308C376.15 332.604 376.517 333.019 376.768 333.552C377.023 334.085 377.15 334.689 377.15 335.363C377.15 335.532 377.141 335.769 377.123 336.074H372.393C372.415 336.375 372.502 336.648 372.652 336.895C372.807 337.136 373.001 337.325 373.233 337.462C373.47 337.599 373.716 337.667 373.972 337.667H374.088C374.407 337.667 374.674 337.587 374.888 337.428C375.106 337.264 375.25 337.049 375.318 336.785H377.123C377.009 337.259 376.809 337.674 376.521 338.029C376.239 338.38 375.874 338.654 375.428 338.85C374.986 339.041 374.48 339.137 373.91 339.137C373.327 339.137 372.782 338.986 372.276 338.686C371.771 338.38 371.367 337.952 371.066 337.4C370.766 336.849 370.62 336.215 370.629 335.5ZM375.387 334.673C375.373 334.404 375.3 334.169 375.168 333.969C375.036 333.764 374.863 333.606 374.648 333.497C374.434 333.388 374.2 333.333 373.944 333.333H373.835C373.58 333.333 373.345 333.388 373.131 333.497C372.917 333.606 372.743 333.764 372.611 333.969C372.479 334.169 372.406 334.404 372.393 334.673H375.387ZM380.479 329.197V339H378.661V329.197H380.479ZM388.43 339V340.47H381.847V339H388.43ZM394.09 339H391.444L389.024 332H390.952L392.798 337.66L394.637 332H396.51L394.09 339ZM401.466 339C401.425 338.804 401.397 338.519 401.384 338.146C401.16 338.455 400.867 338.699 400.502 338.877C400.137 339.05 399.732 339.137 399.285 339.137C398.875 339.137 398.497 339.052 398.15 338.884C397.804 338.711 397.528 338.471 397.323 338.166C397.118 337.856 397.016 337.505 397.016 337.113C397.016 336.38 397.255 335.821 397.733 335.438C398.207 335.06 398.823 334.839 399.579 334.775L401.343 334.618V334.447C401.343 334.238 401.295 334.049 401.199 333.88C401.108 333.711 400.976 333.579 400.803 333.483C400.634 333.383 400.44 333.333 400.222 333.333H400.105C399.896 333.333 399.707 333.372 399.538 333.449C399.374 333.527 399.242 333.629 399.142 333.757C399.046 333.884 398.991 334.021 398.978 334.167H397.152C397.193 333.729 397.344 333.338 397.604 332.991C397.868 332.64 398.216 332.365 398.649 332.164C399.087 331.964 399.581 331.863 400.133 331.863C400.73 331.863 401.252 331.961 401.698 332.157C402.145 332.349 402.491 332.633 402.737 333.012C402.983 333.39 403.106 333.846 403.106 334.379V337.462C403.106 338.173 403.129 338.686 403.175 339H401.466ZM398.807 336.956C398.807 337.17 398.889 337.343 399.053 337.476C399.217 337.603 399.424 337.667 399.675 337.667H399.784C400.058 337.667 400.313 337.601 400.55 337.469C400.791 337.337 400.983 337.154 401.124 336.922C401.27 336.689 401.343 336.43 401.343 336.143V335.944L399.825 336.102C399.556 336.124 399.319 336.206 399.114 336.348C398.909 336.489 398.807 336.692 398.807 336.956ZM406.743 329.197V339H404.925V329.197H406.743Z" fill="#343537"/>
<path d="M347.097 356.925C346.193 357.472 345.451 358.146 344.87 358.947C344.289 359.748 343.854 360.705 343.566 361.818C343.283 362.926 343.142 364.22 343.142 365.7V366H341.669V365.568C341.669 363.483 342.011 361.701 342.695 360.221C343.388 358.742 344.348 357.619 345.573 356.852H339.824V355.497H347.097V356.925ZM355.183 356.925C354.279 357.472 353.537 358.146 352.956 358.947C352.375 359.748 351.94 360.705 351.652 361.818C351.369 362.926 351.228 364.22 351.228 365.7V366H349.755V365.568C349.755 363.483 350.097 361.701 350.781 360.221C351.474 358.742 352.434 357.619 353.659 356.852H347.91V355.497H355.183V356.925ZM358.391 362.133L356.083 359.818L357.014 358.888L359.321 361.203L361.628 358.888L362.558 359.818L360.251 362.133L362.558 364.44L361.628 365.37L359.321 363.063L357.014 365.37L356.083 364.44L358.391 362.133ZM367.692 366H366.25V357.621L363.869 359.928V358.126L366.564 355.497H367.692V366ZM377.756 363.612H376.108V366H374.665V363.612H369.501V362.177L374.68 355.497H376.108V362.338H377.756V363.612ZM374.665 362.338V357.519L370.915 362.338H374.665ZM379.082 360.749C379.082 359.596 379.243 358.617 379.565 357.812C379.892 357.001 380.363 356.388 380.979 355.973C381.599 355.558 382.341 355.351 383.205 355.351C384.069 355.351 384.809 355.558 385.424 355.973C386.044 356.388 386.516 357.001 386.838 357.812C387.165 358.617 387.329 359.596 387.329 360.749C387.329 361.901 387.165 362.882 386.838 363.693C386.516 364.499 386.044 365.109 385.424 365.524C384.809 365.939 384.069 366.146 383.205 366.146C382.341 366.146 381.599 365.939 380.979 365.524C380.363 365.109 379.892 364.499 379.565 363.693C379.243 362.882 379.082 361.901 379.082 360.749ZM380.546 360.697C380.546 361.747 380.676 362.577 380.935 363.188C381.188 363.793 381.513 364.228 381.909 364.491C382.294 364.745 382.702 364.872 383.132 364.872H383.278C383.703 364.872 384.108 364.745 384.494 364.491C384.89 364.228 385.214 363.793 385.468 363.188C385.727 362.577 385.856 361.747 385.856 360.697C385.856 359.745 385.732 358.964 385.483 358.354C385.234 357.743 384.914 357.301 384.523 357.028C384.138 356.754 383.723 356.62 383.278 356.625H383.132C382.688 356.62 382.27 356.754 381.879 357.028C381.489 357.301 381.169 357.743 380.92 358.354C380.671 358.964 380.546 359.745 380.546 360.697ZM390.654 364.198V366H388.852V364.198H390.654ZM400.117 360.338C400.117 361.491 399.917 362.499 399.516 363.363C399.111 364.242 398.569 364.926 397.89 365.414C397.211 365.902 396.474 366.146 395.678 366.146C395.083 366.146 394.55 366.042 394.082 365.832C393.613 365.617 393.227 365.307 392.924 364.901C392.626 364.496 392.429 364.013 392.331 363.451H393.803C393.92 363.891 394.133 364.235 394.44 364.484C394.748 364.733 395.126 364.857 395.576 364.857H395.751C396.289 364.867 396.779 364.696 397.224 364.345C397.673 363.988 398.037 363.49 398.315 362.851C398.593 362.211 398.757 361.483 398.806 360.668C398.547 361.205 398.159 361.627 397.641 361.935C397.128 362.243 396.545 362.396 395.891 362.396C395.28 362.396 394.719 362.25 394.206 361.957C393.693 361.659 393.288 361.249 392.99 360.727C392.692 360.199 392.548 359.606 392.558 358.947C392.548 358.258 392.705 357.638 393.027 357.086C393.349 356.535 393.791 356.105 394.353 355.797C394.919 355.49 395.546 355.341 396.235 355.351C397.001 355.346 397.678 355.543 398.264 355.944C398.85 356.339 399.304 356.916 399.626 357.672C399.953 358.424 400.117 359.313 400.117 360.338ZM394.03 358.874C394.025 359.298 394.118 359.684 394.309 360.031C394.499 360.377 394.755 360.648 395.078 360.844C395.405 361.034 395.754 361.127 396.125 361.122H396.279C396.64 361.127 396.989 361.029 397.326 360.829C397.668 360.624 397.941 360.348 398.146 360.001C398.352 359.655 398.449 359.284 398.439 358.888C398.449 358.493 398.352 358.122 398.146 357.775C397.941 357.423 397.668 357.145 397.326 356.94C396.989 356.735 396.64 356.635 396.279 356.64H396.125C395.754 356.635 395.407 356.73 395.085 356.925C394.763 357.116 394.504 357.384 394.309 357.731C394.118 358.073 394.025 358.454 394.03 358.874ZM401.962 363.415C401.962 362.799 402.126 362.279 402.453 361.854C402.78 361.415 403.208 361.098 403.735 360.902C403.378 360.814 403.046 360.644 402.739 360.39C402.436 360.136 402.194 359.828 402.014 359.467C401.838 359.101 401.752 358.717 401.757 358.317C401.748 357.75 401.892 357.24 402.189 356.786C402.487 356.332 402.902 355.978 403.435 355.724C403.972 355.47 404.577 355.346 405.251 355.351C405.92 355.346 406.521 355.47 407.053 355.724C407.59 355.978 408.007 356.332 408.305 356.786C408.608 357.24 408.754 357.75 408.745 358.317C408.75 358.717 408.662 359.101 408.481 359.467C408.305 359.828 408.063 360.136 407.756 360.39C407.453 360.644 407.124 360.814 406.767 360.902C407.299 361.103 407.724 361.42 408.042 361.854C408.369 362.279 408.532 362.799 408.532 363.415C408.532 363.937 408.391 364.408 408.107 364.828C407.824 365.243 407.431 365.568 406.928 365.802C406.43 366.037 405.871 366.151 405.251 366.146C404.626 366.151 404.062 366.037 403.559 365.802C403.061 365.568 402.67 365.243 402.387 364.828C402.104 364.408 401.962 363.937 401.962 363.415ZM403.222 358.397C403.222 358.744 403.305 359.057 403.471 359.335C403.642 359.608 403.876 359.823 404.174 359.979C404.472 360.131 404.807 360.207 405.178 360.207H405.324C405.695 360.207 406.027 360.131 406.32 359.979C406.618 359.823 406.85 359.608 407.016 359.335C407.187 359.057 407.272 358.744 407.272 358.397C407.272 358.056 407.187 357.75 407.016 357.482C406.85 357.208 406.618 356.999 406.32 356.852C406.027 356.701 405.695 356.625 405.324 356.625H405.178C404.807 356.625 404.472 356.701 404.174 356.852C403.876 356.999 403.642 357.208 403.471 357.482C403.305 357.75 403.222 358.056 403.222 358.397ZM403.42 363.224C403.42 363.542 403.493 363.827 403.64 364.081C403.786 364.33 403.991 364.525 404.255 364.667C404.523 364.804 404.831 364.872 405.178 364.872H405.324C405.671 364.872 405.976 364.804 406.24 364.667C406.508 364.525 406.716 364.33 406.862 364.081C407.009 363.827 407.082 363.542 407.082 363.224C407.082 362.897 407.006 362.602 406.855 362.338C406.708 362.074 406.501 361.867 406.232 361.715C405.964 361.564 405.661 361.488 405.324 361.488H405.178C404.836 361.488 404.531 361.564 404.262 361.715C403.999 361.867 403.791 362.074 403.64 362.338C403.493 362.602 403.42 362.897 403.42 363.224ZM410.202 362.777V361.503H413.176V358.5H414.641V361.503H417.614V362.777H414.641V365.773H413.176V362.777H410.202ZM425.539 356.925C424.636 357.472 423.894 358.146 423.312 358.947C422.731 359.748 422.297 360.705 422.009 361.818C421.726 362.926 421.584 364.22 421.584 365.7V366H420.112V365.568C420.112 363.483 420.454 361.701 421.137 360.221C421.831 358.742 422.79 357.619 424.016 356.852H418.266V355.497H425.539V356.925ZM428.139 363.253C428.247 363.766 428.486 364.164 428.857 364.447C429.228 364.73 429.694 364.872 430.256 364.872H430.388C430.759 364.872 431.098 364.801 431.406 364.66C431.718 364.513 431.965 364.311 432.146 364.052C432.326 363.788 432.417 363.488 432.417 363.151C432.417 362.799 432.333 362.489 432.167 362.221C432.006 361.952 431.779 361.745 431.486 361.598C431.198 361.452 430.871 361.378 430.505 361.378H429.611V360.119H430.505C430.856 360.119 431.171 360.041 431.45 359.884C431.728 359.723 431.945 359.508 432.102 359.24C432.258 358.971 432.336 358.676 432.336 358.354C432.336 358.007 432.25 357.704 432.08 357.445C431.914 357.182 431.682 356.979 431.384 356.837C431.091 356.696 430.759 356.625 430.388 356.625H430.256C429.924 356.625 429.614 356.698 429.326 356.845C429.038 356.986 428.801 357.184 428.615 357.438C428.435 357.692 428.33 357.97 428.3 358.273H426.879C426.894 357.736 427.062 357.243 427.385 356.793C427.707 356.344 428.134 355.99 428.667 355.731C429.204 355.473 429.782 355.346 430.402 355.351C430.993 355.341 431.55 355.46 432.072 355.709C432.6 355.958 433.02 356.295 433.332 356.72C433.649 357.14 433.808 357.592 433.808 358.075C433.808 358.759 433.64 359.325 433.303 359.774C432.971 360.229 432.534 360.539 431.992 360.705C432.358 360.792 432.683 360.949 432.966 361.173C433.249 361.398 433.471 361.684 433.632 362.03C433.798 362.377 433.881 362.775 433.881 363.224C433.891 363.766 433.74 364.262 433.427 364.711C433.115 365.16 432.685 365.514 432.138 365.773C431.591 366.032 430.988 366.156 430.329 366.146C429.66 366.146 429.06 366.029 428.527 365.795C428 365.556 427.575 365.219 427.253 364.784C426.936 364.35 426.745 363.839 426.682 363.253H428.139ZM437.888 362.133L435.581 359.818L436.511 358.888L438.818 361.203L441.125 358.888L442.055 359.818L439.748 362.133L442.055 364.44L441.125 365.37L438.818 363.063L436.511 365.37L435.581 364.44L437.888 362.133ZM447.189 366H445.747V357.621L443.366 359.928V358.126L446.062 355.497H447.189V366ZM457.253 363.612H455.605V366H454.162V363.612H448.999V362.177L454.177 355.497H455.605V362.338H457.253V363.612ZM454.162 362.338V357.519L450.412 362.338H454.162ZM458.579 360.749C458.579 359.596 458.74 358.617 459.062 357.812C459.389 357.001 459.86 356.388 460.476 355.973C461.096 355.558 461.838 355.351 462.702 355.351C463.566 355.351 464.306 355.558 464.921 355.973C465.542 356.388 466.013 357.001 466.335 357.812C466.662 358.617 466.826 359.596 466.826 360.749C466.826 361.901 466.662 362.882 466.335 363.693C466.013 364.499 465.542 365.109 464.921 365.524C464.306 365.939 463.566 366.146 462.702 366.146C461.838 366.146 461.096 365.939 460.476 365.524C459.86 365.109 459.389 364.499 459.062 363.693C458.74 362.882 458.579 361.901 458.579 360.749ZM460.043 360.697C460.043 361.747 460.173 362.577 460.432 363.188C460.686 363.793 461.01 364.228 461.406 364.491C461.792 364.745 462.199 364.872 462.629 364.872H462.775C463.2 364.872 463.605 364.745 463.991 364.491C464.387 364.228 464.711 363.793 464.965 363.188C465.224 362.577 465.354 361.747 465.354 360.697C465.354 359.745 465.229 358.964 464.98 358.354C464.731 357.743 464.411 357.301 464.021 357.028C463.635 356.754 463.22 356.62 462.775 356.625H462.629C462.185 356.62 461.767 356.754 461.376 357.028C460.986 357.301 460.666 357.743 460.417 358.354C460.168 358.964 460.043 359.745 460.043 360.697ZM470.151 364.198V366H468.349V364.198H470.151ZM479.614 360.338C479.614 361.491 479.414 362.499 479.013 363.363C478.608 364.242 478.066 364.926 477.387 365.414C476.708 365.902 475.971 366.146 475.175 366.146C474.58 366.146 474.047 366.042 473.579 365.832C473.11 365.617 472.724 365.307 472.421 364.901C472.124 364.496 471.926 364.013 471.828 363.451H473.3C473.417 363.891 473.63 364.235 473.938 364.484C474.245 364.733 474.624 364.857 475.073 364.857H475.249C475.786 364.867 476.276 364.696 476.721 364.345C477.17 363.988 477.534 363.49 477.812 362.851C478.09 362.211 478.254 361.483 478.303 360.668C478.044 361.205 477.656 361.627 477.138 361.935C476.625 362.243 476.042 362.396 475.388 362.396C474.777 362.396 474.216 362.25 473.703 361.957C473.19 361.659 472.785 361.249 472.487 360.727C472.189 360.199 472.045 359.606 472.055 358.947C472.045 358.258 472.202 357.638 472.524 357.086C472.846 356.535 473.288 356.105 473.85 355.797C474.416 355.49 475.043 355.341 475.732 355.351C476.499 355.346 477.175 355.543 477.761 355.944C478.347 356.339 478.801 356.916 479.123 357.672C479.45 358.424 479.614 359.313 479.614 360.338ZM473.527 358.874C473.522 359.298 473.615 359.684 473.806 360.031C473.996 360.377 474.252 360.648 474.575 360.844C474.902 361.034 475.251 361.127 475.622 361.122H475.776C476.137 361.127 476.486 361.029 476.823 360.829C477.165 360.624 477.438 360.348 477.644 360.001C477.849 359.655 477.946 359.284 477.937 358.888C477.946 358.493 477.849 358.122 477.644 357.775C477.438 357.423 477.165 357.145 476.823 356.94C476.486 356.735 476.137 356.635 475.776 356.64H475.622C475.251 356.635 474.904 356.73 474.582 356.925C474.26 357.116 474.001 357.384 473.806 357.731C473.615 358.073 473.522 358.454 473.527 358.874ZM488.059 356.925C487.155 357.472 486.413 358.146 485.832 358.947C485.251 359.748 484.816 360.705 484.528 361.818C484.245 362.926 484.104 364.22 484.104 365.7V366H482.631V365.568C482.631 363.483 482.973 361.701 483.657 360.221C484.35 358.742 485.31 357.619 486.535 356.852H480.786V355.497H488.059V356.925ZM488.63 362.777V361.503H491.604V358.5H493.068V361.503H496.042V362.777H493.068V365.773H491.604V362.777H488.63ZM500.993 366H499.55V357.621L497.17 359.928V358.126L499.865 355.497H500.993V366ZM503.212 360.749C503.212 359.596 503.374 358.617 503.696 357.812C504.023 357.001 504.494 356.388 505.109 355.973C505.729 355.558 506.472 355.351 507.336 355.351C508.2 355.351 508.94 355.558 509.555 355.973C510.175 356.388 510.646 357.001 510.969 357.812C511.296 358.617 511.459 359.596 511.459 360.749C511.459 361.901 511.296 362.882 510.969 363.693C510.646 364.499 510.175 365.109 509.555 365.524C508.94 365.939 508.2 366.146 507.336 366.146C506.472 366.146 505.729 365.939 505.109 365.524C504.494 365.109 504.023 364.499 503.696 363.693C503.374 362.882 503.212 361.901 503.212 360.749ZM504.677 360.697C504.677 361.747 504.807 362.577 505.065 363.188C505.319 363.793 505.644 364.228 506.04 364.491C506.425 364.745 506.833 364.872 507.263 364.872H507.409C507.834 364.872 508.239 364.745 508.625 364.491C509.021 364.228 509.345 363.793 509.599 363.188C509.858 362.577 509.987 361.747 509.987 360.697C509.987 359.745 509.863 358.964 509.614 358.354C509.365 357.743 509.045 357.301 508.654 357.028C508.269 356.754 507.854 356.62 507.409 356.625H507.263C506.818 356.62 506.401 356.754 506.01 357.028C505.62 357.301 505.3 357.743 505.051 358.354C504.802 358.964 504.677 359.745 504.677 360.697ZM520.673 362.55C520.683 363.244 520.527 363.866 520.205 364.418C519.882 364.965 519.438 365.392 518.872 365.7C518.31 366.007 517.685 366.156 516.997 366.146C516.23 366.151 515.554 365.956 514.968 365.561C514.382 365.165 513.925 364.591 513.598 363.839C513.276 363.083 513.115 362.189 513.115 361.159C513.115 360.011 513.315 359.005 513.715 358.141C514.116 357.267 514.658 356.583 515.341 356.09C516.025 355.597 516.762 355.351 517.553 355.351C518.149 355.351 518.681 355.458 519.15 355.673C519.619 355.883 520.002 356.19 520.3 356.596C520.603 357.001 520.803 357.487 520.9 358.053H519.428C519.311 357.609 519.099 357.262 518.791 357.013C518.483 356.764 518.105 356.64 517.656 356.64H517.48C516.943 356.63 516.452 356.803 516.008 357.16C515.563 357.511 515.202 358.007 514.924 358.646C514.646 359.281 514.479 360.006 514.426 360.822C514.685 360.285 515.07 359.865 515.583 359.562C516.105 359.254 516.687 359.101 517.326 359.101C517.937 359.101 518.5 359.25 519.018 359.547C519.536 359.84 519.943 360.25 520.241 360.778C520.539 361.3 520.683 361.891 520.673 362.55ZM514.792 362.609C514.782 363.004 514.88 363.378 515.085 363.729C515.29 364.076 515.561 364.352 515.898 364.557C516.235 364.762 516.586 364.862 516.953 364.857H517.099C517.47 364.862 517.817 364.77 518.139 364.579C518.466 364.384 518.725 364.115 518.916 363.773C519.111 363.427 519.206 363.043 519.201 362.624C519.206 362.204 519.111 361.82 518.916 361.474C518.725 361.127 518.466 360.856 518.139 360.661C517.817 360.465 517.47 360.37 517.099 360.375H516.953C516.586 360.37 516.235 360.468 515.898 360.668C515.561 360.868 515.29 361.142 515.085 361.488C514.88 361.835 514.782 362.208 514.792 362.609ZM524.709 362.133L522.402 359.818L523.332 358.888L525.639 361.203L527.946 358.888L528.876 359.818L526.569 362.133L528.876 364.44L527.946 365.37L525.639 363.063L523.332 365.37L522.402 364.44L524.709 362.133ZM534.011 366H532.568V357.621L530.188 359.928V358.126L532.883 355.497H534.011V366ZM544.074 363.612H542.426V366H540.983V363.612H535.82V362.177L540.998 355.497H542.426V362.338H544.074V363.612ZM540.983 362.338V357.519L537.233 362.338H540.983ZM545.4 360.749C545.4 359.596 545.561 358.617 545.883 357.812C546.21 357.001 546.682 356.388 547.297 355.973C547.917 355.558 548.659 355.351 549.523 355.351C550.388 355.351 551.127 355.558 551.743 355.973C552.363 356.388 552.834 357.001 553.156 357.812C553.483 358.617 553.647 359.596 553.647 360.749C553.647 361.901 553.483 362.882 553.156 363.693C552.834 364.499 552.363 365.109 551.743 365.524C551.127 365.939 550.388 366.146 549.523 366.146C548.659 366.146 547.917 365.939 547.297 365.524C546.682 365.109 546.21 364.499 545.883 363.693C545.561 362.882 545.4 361.901 545.4 360.749ZM546.865 360.697C546.865 361.747 546.994 362.577 547.253 363.188C547.507 363.793 547.832 364.228 548.227 364.491C548.613 364.745 549.021 364.872 549.45 364.872H549.597C550.021 364.872 550.427 364.745 550.812 364.491C551.208 364.228 551.533 363.793 551.787 363.188C552.045 362.577 552.175 361.747 552.175 360.697C552.175 359.745 552.05 358.964 551.801 358.354C551.552 357.743 551.232 357.301 550.842 357.028C550.456 356.754 550.041 356.62 549.597 356.625H549.45C549.006 356.62 548.588 356.754 548.198 357.028C547.807 357.301 547.487 357.743 547.238 358.354C546.989 358.964 546.865 359.745 546.865 360.697ZM556.972 364.198V366H555.17V364.198H556.972ZM566.435 360.338C566.435 361.491 566.235 362.499 565.834 363.363C565.429 364.242 564.887 364.926 564.208 365.414C563.53 365.902 562.792 366.146 561.997 366.146C561.401 366.146 560.869 366.042 560.4 365.832C559.931 365.617 559.545 365.307 559.243 364.901C558.945 364.496 558.747 364.013 558.649 363.451H560.122C560.239 363.891 560.451 364.235 560.759 364.484C561.066 364.733 561.445 364.857 561.894 364.857H562.07C562.607 364.867 563.098 364.696 563.542 364.345C563.991 363.988 564.355 363.49 564.633 362.851C564.912 362.211 565.075 361.483 565.124 360.668C564.865 361.205 564.477 361.627 563.959 361.935C563.447 362.243 562.863 362.396 562.209 362.396C561.599 362.396 561.037 362.25 560.524 361.957C560.012 361.659 559.606 361.249 559.309 360.727C559.011 360.199 558.867 359.606 558.876 358.947C558.867 358.258 559.023 357.638 559.345 357.086C559.667 356.535 560.109 356.105 560.671 355.797C561.237 355.49 561.865 355.341 562.553 355.351C563.32 355.346 563.996 355.543 564.582 355.944C565.168 356.339 565.622 356.916 565.944 357.672C566.271 358.424 566.435 359.313 566.435 360.338ZM560.349 358.874C560.344 359.298 560.437 359.684 560.627 360.031C560.817 360.377 561.074 360.648 561.396 360.844C561.723 361.034 562.072 361.127 562.443 361.122H562.597C562.958 361.127 563.308 361.029 563.645 360.829C563.986 360.624 564.26 360.348 564.465 360.001C564.67 359.655 564.768 359.284 564.758 358.888C564.768 358.493 564.67 358.122 564.465 357.775C564.26 357.423 563.986 357.145 563.645 356.94C563.308 356.735 562.958 356.635 562.597 356.64H562.443C562.072 356.635 561.726 356.73 561.403 356.925C561.081 357.116 560.822 357.384 560.627 357.731C560.437 358.073 560.344 358.454 560.349 358.874ZM575.62 362.55C575.629 363.244 575.473 363.866 575.151 364.418C574.829 364.965 574.384 365.392 573.818 365.7C573.256 366.007 572.631 366.156 571.943 366.146C571.176 366.151 570.5 365.956 569.914 365.561C569.328 365.165 568.872 364.591 568.544 363.839C568.222 363.083 568.061 362.189 568.061 361.159C568.061 360.011 568.261 359.005 568.662 358.141C569.062 357.267 569.604 356.583 570.288 356.09C570.971 355.597 571.708 355.351 572.5 355.351C573.095 355.351 573.627 355.458 574.096 355.673C574.565 355.883 574.948 356.19 575.246 356.596C575.549 357.001 575.749 357.487 575.847 358.053H574.375C574.257 357.609 574.045 357.262 573.737 357.013C573.43 356.764 573.051 356.64 572.602 356.64H572.426C571.889 356.63 571.398 356.803 570.954 357.16C570.51 357.511 570.148 358.007 569.87 358.646C569.592 359.281 569.426 360.006 569.372 360.822C569.631 360.285 570.017 359.865 570.529 359.562C571.052 359.254 571.633 359.101 572.272 359.101C572.883 359.101 573.447 359.25 573.964 359.547C574.482 359.84 574.89 360.25 575.188 360.778C575.485 361.3 575.629 361.891 575.62 362.55ZM569.738 362.609C569.729 363.004 569.826 363.378 570.031 363.729C570.236 364.076 570.507 364.352 570.844 364.557C571.181 364.762 571.533 364.862 571.899 364.857H572.045C572.417 364.862 572.763 364.77 573.085 364.579C573.413 364.384 573.671 364.115 573.862 363.773C574.057 363.427 574.152 363.043 574.147 362.624C574.152 362.204 574.057 361.82 573.862 361.474C573.671 361.127 573.413 360.856 573.085 360.661C572.763 360.465 572.417 360.37 572.045 360.375H571.899C571.533 360.37 571.181 360.468 570.844 360.668C570.507 360.868 570.236 361.142 570.031 361.488C569.826 361.835 569.729 362.208 569.738 362.609Z" fill="#343537"/>
</svg>
