<svg width="501" height="392" viewBox="0 0 501 392" fill="none" xmlns="http://www.w3.org/2000/svg">
<path d="M319 60L313.226 70L324.774 70L319 60ZM318 183C318 183.552 318.448 184 319 184C319.552 184 320 183.552 320 183L318 183ZM318 69L318 183L320 183L320 69L318 69Z" fill="#343537"/>
<path d="M319 366L324.774 356L313.226 356L319 366ZM320 244C320 243.448 319.552 243 319 243C318.448 243 318 243.448 318 244L320 244ZM320 357L320 244L318 244L318 357L320 357Z" fill="#343537"/>
<path d="M208 100L198 94.2265L198 105.774L208 100ZM154 99C153.448 99 153 99.4477 153 100C153 100.552 153.448 101 154 101L154 99ZM199 99L154 99L154 101L199 101L199 99Z" fill="#343537"/>
<rect width="305" height="392" rx="4" fill="white"/>
<path opacity="0.8" d="M21.5303 23.1973C22.0407 23.1927 22.5101 23.2998 22.9385 23.5186C23.3714 23.7327 23.7132 24.0381 23.9639 24.4346C24.2191 24.8311 24.3421 25.2822 24.333 25.7881C24.333 26.3167 24.1895 26.777 23.9023 27.1689C23.6152 27.5563 23.2256 27.8434 22.7334 28.0303C23.2894 28.1214 23.7292 28.3721 24.0527 28.7822C24.3763 29.1924 24.5381 29.7279 24.5381 30.3887C24.5381 30.89 24.4059 31.3411 24.1416 31.7422C23.8773 32.1387 23.5241 32.4486 23.082 32.6719C22.6445 32.8952 22.1729 33.0046 21.667 33H17.2578V23.1973H21.5303ZM21.3867 31.7422C21.9245 31.7422 22.3506 31.6055 22.665 31.332C22.9795 31.0586 23.1367 30.6803 23.1367 30.1973C23.1367 29.7188 22.9795 29.3428 22.665 29.0693C22.3506 28.7959 21.9245 28.6592 21.3867 28.6592H18.6592V31.7422H21.3867ZM21.3184 27.4014C21.8105 27.4014 22.2025 27.2692 22.4941 27.0049C22.7858 26.7406 22.9316 26.3828 22.9316 25.9316C22.9316 25.4805 22.7858 25.1227 22.4941 24.8584C22.2025 24.5941 21.8105 24.4619 21.3184 24.4619H18.6592V27.4014H21.3184ZM26.2607 26H27.5938V30.3408C27.5938 31.4619 28.0654 32.0225 29.0088 32.0225H29.1182C29.4235 32.027 29.7106 31.9359 29.9795 31.749C30.2529 31.5576 30.4717 31.291 30.6357 30.9492C30.8044 30.6029 30.8864 30.2132 30.8818 29.7803V26H32.2148V33H30.8818V31.667C30.736 32.0908 30.4694 32.4417 30.082 32.7197C29.7038 32.9977 29.2253 33.1367 28.6465 33.1367C28.1452 33.1367 27.7145 33.0319 27.3545 32.8223C26.9945 32.6126 26.721 32.3187 26.5342 31.9404C26.3519 31.5622 26.2607 31.1224 26.2607 30.6211V26ZM37.1025 34.4697C36.9795 34.766 36.8428 34.9938 36.6924 35.1533C36.542 35.3128 36.3643 35.4245 36.1592 35.4883C35.9541 35.5566 35.6989 35.5908 35.3936 35.5908H33.8008V34.4014H35.1885C35.4255 34.4014 35.6032 34.3626 35.7217 34.2852C35.8402 34.2122 35.9404 34.0732 36.0225 33.8682L36.4395 32.8018L33.377 26H34.792L37.0957 31.0996L39.0781 26H40.4521L37.1025 34.4697Z" fill="#38CFFF"/>
<path d="M120.387 23.1973C120.993 23.1927 121.535 23.3112 122.014 23.5527C122.497 23.7897 122.873 24.1361 123.142 24.5918C123.41 25.043 123.543 25.5693 123.538 26.1709C123.543 26.7725 123.41 27.2988 123.142 27.75C122.873 28.2012 122.497 28.5475 122.014 28.7891C121.535 29.026 120.993 29.1423 120.387 29.1377H117.659V33H116.258V23.1973H120.387ZM120.182 27.873C120.815 27.873 121.298 27.7295 121.631 27.4424C121.968 27.1507 122.137 26.7269 122.137 26.1709C122.137 25.6149 121.968 25.1911 121.631 24.8994C121.298 24.6077 120.815 24.4619 120.182 24.4619H117.659V27.873H120.182ZM126.334 26V27.5381C126.425 27.2054 126.571 26.9183 126.771 26.6768C126.972 26.4307 127.209 26.2461 127.482 26.123C127.76 25.9954 128.054 25.9316 128.364 25.9316H128.993V27.2168H128.433C128.018 27.2168 127.658 27.3079 127.353 27.4902C127.047 27.668 126.812 27.9255 126.648 28.2627C126.484 28.5999 126.402 28.9987 126.402 29.459V33H125.076V26H126.334ZM131.734 23.1973V24.7422H130.265V23.1973H131.734ZM130.34 26H131.666V33H130.34V26ZM133.348 29.5C133.339 28.8073 133.468 28.1852 133.737 27.6338C134.011 27.0778 134.403 26.6426 134.913 26.3281C135.428 26.0091 136.027 25.8542 136.711 25.8633C137.24 25.8633 137.711 25.9635 138.126 26.1641C138.545 26.3646 138.88 26.6494 139.131 27.0186C139.386 27.3877 139.536 27.8184 139.582 28.3105H138.249C138.185 27.9095 138.019 27.5882 137.75 27.3467C137.481 27.1006 137.153 26.9775 136.766 26.9775H136.649C136.23 26.9775 135.872 27.0892 135.576 27.3125C135.28 27.5358 135.057 27.8389 134.906 28.2217C134.756 28.6045 134.681 29.0306 134.681 29.5C134.681 29.9694 134.756 30.3955 134.906 30.7783C135.057 31.1611 135.28 31.4642 135.576 31.6875C135.872 31.9108 136.23 32.0225 136.649 32.0225H136.766C137.153 32.0225 137.481 31.9017 137.75 31.6602C138.019 31.4141 138.185 31.0905 138.249 30.6895H139.582C139.536 31.1816 139.386 31.6123 139.131 31.9814C138.88 32.3506 138.545 32.6354 138.126 32.8359C137.711 33.0365 137.24 33.1367 136.711 33.1367C136.027 33.1458 135.428 32.9932 134.913 32.6787C134.403 32.3597 134.011 31.9245 133.737 31.373C133.468 30.8171 133.339 30.1927 133.348 29.5ZM140.799 29.4863C140.79 28.7435 140.936 28.0964 141.236 27.5449C141.542 26.9935 141.945 26.5742 142.446 26.2871C142.948 25.9954 143.485 25.8542 144.06 25.8633C144.647 25.8542 145.167 25.9818 145.618 26.2461C146.074 26.5059 146.425 26.8704 146.671 27.3398C146.917 27.8092 147.038 28.3424 147.033 28.9395V29.7119H142.132C142.15 30.1904 142.257 30.6074 142.453 30.9629C142.649 31.3138 142.893 31.5804 143.185 31.7627C143.481 31.9404 143.782 32.027 144.087 32.0225H144.203C144.563 32.0225 144.884 31.929 145.167 31.7422C145.445 31.5508 145.618 31.2796 145.687 30.9287H147.013C146.931 31.3844 146.751 31.7786 146.473 32.1113C146.195 32.444 145.846 32.6992 145.427 32.877C145.012 33.0501 144.556 33.1367 144.06 33.1367C143.467 33.1367 142.92 32.9932 142.419 32.7061C141.918 32.4144 141.519 31.9928 141.223 31.4414C140.931 30.89 140.79 30.2383 140.799 29.4863ZM145.7 28.6592C145.673 28.0895 145.511 27.668 145.215 27.3945C144.923 27.1165 144.559 26.9775 144.121 26.9775H144.005C143.599 26.9775 143.228 27.1143 142.891 27.3877C142.558 27.652 142.332 28.0758 142.214 28.6592H145.7Z" fill="#919294"/>
<path opacity="0.8" d="M215.907 29.8486C215.907 30.277 216.01 30.6439 216.215 30.9492C216.424 31.2546 216.716 31.487 217.09 31.6465C217.468 31.8014 217.908 31.8789 218.409 31.8789H218.553C218.967 31.8789 219.327 31.8151 219.633 31.6875C219.943 31.5553 220.177 31.3776 220.337 31.1543C220.501 30.931 220.583 30.6826 220.583 30.4092C220.583 30.0127 220.455 29.696 220.2 29.459C219.95 29.2174 219.562 29.0443 219.038 28.9395L217.473 28.6182C215.818 28.2809 214.991 27.349 214.991 25.8223C214.991 25.321 215.142 24.8584 215.442 24.4346C215.748 24.0062 216.167 23.6689 216.7 23.4229C217.233 23.1722 217.83 23.0514 218.491 23.0605C219.207 23.0605 219.833 23.1859 220.371 23.4365C220.913 23.6872 221.335 24.0449 221.636 24.5098C221.937 24.9701 222.098 25.5124 222.121 26.1367H220.72C220.697 25.7721 220.59 25.4531 220.398 25.1797C220.207 24.9062 219.952 24.6943 219.633 24.5439C219.318 24.3936 218.963 24.3184 218.566 24.3184H218.423C218.031 24.3184 217.68 24.3844 217.37 24.5166C217.065 24.6488 216.826 24.8311 216.652 25.0635C216.479 25.2959 216.393 25.5557 216.393 25.8428C216.393 26.2074 216.509 26.5059 216.741 26.7383C216.978 26.9707 217.311 27.1302 217.739 27.2168L219.305 27.5244C221.087 27.8708 221.978 28.8255 221.978 30.3887C221.978 30.9355 221.825 31.4186 221.52 31.8379C221.214 32.2572 220.786 32.5807 220.234 32.8086C219.688 33.0319 219.061 33.1413 218.354 33.1367C217.575 33.1367 216.901 33.0114 216.331 32.7607C215.766 32.5101 215.326 32.141 215.012 31.6533C214.697 31.1611 214.529 30.5596 214.506 29.8486H215.907ZM223.393 29.4863C223.383 28.7435 223.529 28.0964 223.83 27.5449C224.135 26.9935 224.539 26.5742 225.04 26.2871C225.541 25.9954 226.079 25.8542 226.653 25.8633C227.241 25.8542 227.761 25.9818 228.212 26.2461C228.668 26.5059 229.019 26.8704 229.265 27.3398C229.511 27.8092 229.632 28.3424 229.627 28.9395V29.7119H224.726C224.744 30.1904 224.851 30.6074 225.047 30.9629C225.243 31.3138 225.487 31.5804 225.778 31.7627C226.075 31.9404 226.375 32.027 226.681 32.0225H226.797C227.157 32.0225 227.478 31.929 227.761 31.7422C228.039 31.5508 228.212 31.2796 228.28 30.9287H229.606C229.524 31.3844 229.344 31.7786 229.066 32.1113C228.788 32.444 228.44 32.6992 228.021 32.877C227.606 33.0501 227.15 33.1367 226.653 33.1367C226.061 33.1367 225.514 32.9932 225.013 32.7061C224.511 32.4144 224.113 31.9928 223.816 31.4414C223.525 30.89 223.383 30.2383 223.393 29.4863ZM228.294 28.6592C228.267 28.0895 228.105 27.668 227.809 27.3945C227.517 27.1165 227.152 26.9775 226.715 26.9775H226.599C226.193 26.9775 225.822 27.1143 225.484 27.3877C225.152 27.652 224.926 28.0758 224.808 28.6592H228.294ZM232.676 23.1973V33H231.35V23.1973H232.676ZM236.107 23.1973V33H234.781V23.1973H236.107Z" fill="#FB607F"/>
<path d="M119.609 78H118.07V69.0625L115.531 71.5234V69.6016L118.406 66.7969H119.609V78ZM130.344 75.4531H128.586V78H127.047V75.4531H121.539V73.9219L127.062 66.7969H128.586V74.0938H130.344V75.4531ZM127.047 74.0938V68.9531L123.047 74.0938H127.047ZM135.469 78H133.93V69.0625L131.391 71.5234V69.6016L134.266 66.7969H135.469V78ZM139.914 76.0781V78H137.992V76.0781H139.914ZM141.539 72.3984C141.539 71.1693 141.711 70.125 142.055 69.2656C142.404 68.401 142.906 67.7474 143.562 67.3047C144.224 66.862 145.016 66.6406 145.938 66.6406C146.859 66.6406 147.648 66.862 148.305 67.3047C148.966 67.7474 149.469 68.401 149.812 69.2656C150.161 70.125 150.336 71.1693 150.336 72.3984C150.336 73.6276 150.161 74.6745 149.812 75.5391C149.469 76.3984 148.966 77.0495 148.305 77.4922C147.648 77.9349 146.859 78.1562 145.938 78.1562C145.016 78.1562 144.224 77.9349 143.562 77.4922C142.906 77.0495 142.404 76.3984 142.055 75.5391C141.711 74.6745 141.539 73.6276 141.539 72.3984ZM143.102 72.3438C143.102 73.4635 143.24 74.349 143.516 75C143.786 75.6458 144.133 76.1094 144.555 76.3906C144.966 76.6615 145.401 76.7969 145.859 76.7969H146.016C146.469 76.7969 146.901 76.6615 147.312 76.3906C147.734 76.1094 148.081 75.6458 148.352 75C148.628 74.349 148.766 73.4635 148.766 72.3438C148.766 71.3281 148.633 70.4948 148.367 69.8438C148.102 69.1927 147.76 68.7214 147.344 68.4297C146.932 68.138 146.49 67.9948 146.016 68H145.859C145.385 67.9948 144.94 68.138 144.523 68.4297C144.107 68.7214 143.766 69.1927 143.5 69.8438C143.234 70.4948 143.102 71.3281 143.102 72.3438ZM159.602 78H152.031V76.3047L155.648 72.8672C155.758 72.7578 155.927 72.6042 156.156 72.4062C156.521 72.0781 156.823 71.7865 157.062 71.5312C157.604 70.9531 157.875 70.3464 157.875 69.7109C157.875 69.3724 157.792 69.0755 157.625 68.8203C157.458 68.5599 157.232 68.3594 156.945 68.2188C156.659 68.0729 156.339 68 155.984 68H155.828C155.427 68 155.068 68.0938 154.75 68.2812C154.438 68.4635 154.193 68.7188 154.016 69.0469C153.839 69.3698 153.75 69.7344 153.75 70.1406H152.148C152.143 69.4583 152.305 68.849 152.633 68.3125C152.961 67.776 153.411 67.362 153.984 67.0703C154.562 66.7734 155.203 66.6302 155.906 66.6406C156.547 66.6302 157.138 66.7448 157.68 66.9844C158.221 67.224 158.651 67.5703 158.969 68.0234C159.286 68.4714 159.445 68.9948 159.445 69.5938C159.445 70.1615 159.333 70.6693 159.109 71.1172C158.88 71.5703 158.604 71.9792 158.281 72.3438C157.984 72.6771 157.544 73.1146 156.961 73.6562L156.82 73.7891L153.828 76.5625H159.602V78Z" fill="#13161C"/>
<path d="M222.141 68.3203C221.177 68.9036 220.385 69.6224 219.766 70.4766C219.146 71.3307 218.682 72.3516 218.375 73.5391C218.073 74.7214 217.922 76.1016 217.922 77.6797V78H216.352V77.5391C216.352 75.3151 216.716 73.4141 217.445 71.8359C218.185 70.2578 219.208 69.0599 220.516 68.2422H214.383V66.7969H222.141V68.3203ZM224.914 75.0703C225.029 75.6172 225.284 76.0417 225.68 76.3438C226.076 76.6458 226.573 76.7969 227.172 76.7969H227.312C227.708 76.7969 228.07 76.7214 228.398 76.5703C228.732 76.4141 228.995 76.1979 229.188 75.9219C229.38 75.6406 229.477 75.3203 229.477 74.9609C229.477 74.5859 229.388 74.2552 229.211 73.9688C229.039 73.6823 228.797 73.4609 228.484 73.3047C228.177 73.1484 227.828 73.0703 227.438 73.0703H226.484V71.7266H227.438C227.812 71.7266 228.148 71.6432 228.445 71.4766C228.742 71.3047 228.974 71.0755 229.141 70.7891C229.307 70.5026 229.391 70.1875 229.391 69.8438C229.391 69.474 229.299 69.151 229.117 68.875C228.94 68.5938 228.693 68.3776 228.375 68.2266C228.062 68.0755 227.708 68 227.312 68H227.172C226.818 68 226.487 68.0781 226.18 68.2344C225.872 68.3854 225.62 68.5964 225.422 68.8672C225.229 69.138 225.117 69.4349 225.086 69.7578H223.57C223.586 69.1849 223.766 68.6589 224.109 68.1797C224.453 67.7005 224.909 67.3229 225.477 67.0469C226.049 66.7708 226.667 66.6354 227.328 66.6406C227.958 66.6302 228.552 66.7578 229.109 67.0234C229.672 67.2891 230.12 67.6484 230.453 68.1016C230.792 68.5495 230.961 69.0312 230.961 69.5469C230.961 70.276 230.781 70.8802 230.422 71.3594C230.068 71.8438 229.602 72.1745 229.023 72.3516C229.414 72.4453 229.76 72.612 230.062 72.8516C230.365 73.0911 230.602 73.3958 230.773 73.7656C230.951 74.1354 231.039 74.5599 231.039 75.0391C231.049 75.6172 230.888 76.1458 230.555 76.625C230.221 77.1042 229.763 77.4818 229.18 77.7578C228.596 78.0339 227.953 78.1667 227.25 78.1562C226.536 78.1562 225.896 78.0312 225.328 77.7812C224.766 77.526 224.312 77.1667 223.969 76.7031C223.63 76.2396 223.427 75.6953 223.359 75.0703H224.914Z" fill="#FB607F"/>
<path d="M16 48.5H289V47.5H16V48.5Z" fill="#E8E9EC"/>
<path d="M119.609 126H118.07V117.062L115.531 119.523V117.602L118.406 114.797H119.609V126ZM130.344 123.453H128.586V126H127.047V123.453H121.539V121.922L127.062 114.797H128.586V122.094H130.344V123.453ZM127.047 122.094V116.953L123.047 122.094H127.047ZM135.469 126H133.93V117.062L131.391 119.523V117.602L134.266 114.797H135.469V126ZM139.914 124.078V126H137.992V124.078H139.914ZM141.539 120.398C141.539 119.169 141.711 118.125 142.055 117.266C142.404 116.401 142.906 115.747 143.562 115.305C144.224 114.862 145.016 114.641 145.938 114.641C146.859 114.641 147.648 114.862 148.305 115.305C148.966 115.747 149.469 116.401 149.812 117.266C150.161 118.125 150.336 119.169 150.336 120.398C150.336 121.628 150.161 122.674 149.812 123.539C149.469 124.398 148.966 125.049 148.305 125.492C147.648 125.935 146.859 126.156 145.938 126.156C145.016 126.156 144.224 125.935 143.562 125.492C142.906 125.049 142.404 124.398 142.055 123.539C141.711 122.674 141.539 121.628 141.539 120.398ZM143.102 120.344C143.102 121.464 143.24 122.349 143.516 123C143.786 123.646 144.133 124.109 144.555 124.391C144.966 124.661 145.401 124.797 145.859 124.797H146.016C146.469 124.797 146.901 124.661 147.312 124.391C147.734 124.109 148.081 123.646 148.352 123C148.628 122.349 148.766 121.464 148.766 120.344C148.766 119.328 148.633 118.495 148.367 117.844C148.102 117.193 147.76 116.721 147.344 116.43C146.932 116.138 146.49 115.995 146.016 116H145.859C145.385 115.995 144.94 116.138 144.523 116.43C144.107 116.721 143.766 117.193 143.5 117.844C143.234 118.495 143.102 119.328 143.102 120.344ZM155.844 126H154.305V117.062L151.766 119.523V117.602L154.641 114.797H155.844V126Z" fill="#13161C"/>
<path d="M218.609 126H217.07V117.062L214.531 119.523V117.602L217.406 114.797H218.609V126ZM224.688 126H223.148V117.062L220.609 119.523V117.602L223.484 114.797H224.688V126ZM234.602 122.398C234.612 123.107 234.443 123.75 234.094 124.328C233.745 124.901 233.268 125.352 232.664 125.68C232.065 126.008 231.406 126.167 230.688 126.156C229.99 126.161 229.346 126.042 228.758 125.797C228.174 125.547 227.701 125.188 227.336 124.719C226.977 124.245 226.776 123.685 226.734 123.039H228.297C228.344 123.409 228.474 123.727 228.688 123.992C228.901 124.253 229.174 124.453 229.508 124.594C229.841 124.729 230.206 124.797 230.602 124.797H230.766C231.198 124.802 231.589 124.703 231.938 124.5C232.286 124.297 232.557 124.018 232.75 123.664C232.948 123.305 233.044 122.909 233.039 122.477C233.044 122.086 232.948 121.727 232.75 121.398C232.557 121.07 232.289 120.812 231.945 120.625C231.607 120.438 231.24 120.346 230.844 120.352H230.688C230.302 120.352 229.927 120.448 229.562 120.641C229.188 120.833 228.896 121.099 228.688 121.438H227.133L228.492 114.797H234.492V116.242H229.656L228.883 119.867C229.174 119.581 229.521 119.365 229.922 119.219C230.328 119.068 230.747 118.992 231.18 118.992C231.831 118.992 232.419 119.146 232.945 119.453C233.471 119.755 233.88 120.167 234.172 120.688C234.469 121.208 234.612 121.779 234.602 122.398Z" fill="#FB607F"/>
<path d="M16 96.5H289V95.5H16V96.5Z" fill="#E8E9EC"/>
<path d="M119.609 174H118.07V165.062L115.531 167.523V165.602L118.406 162.797H119.609V174ZM130.344 171.453H128.586V174H127.047V171.453H121.539V169.922L127.062 162.797H128.586V170.094H130.344V171.453ZM127.047 170.094V164.953L123.047 170.094H127.047ZM135.469 174H133.93V165.062L131.391 167.523V165.602L134.266 162.797H135.469V174ZM139.914 172.078V174H137.992V172.078H139.914ZM141.539 168.398C141.539 167.169 141.711 166.125 142.055 165.266C142.404 164.401 142.906 163.747 143.562 163.305C144.224 162.862 145.016 162.641 145.938 162.641C146.859 162.641 147.648 162.862 148.305 163.305C148.966 163.747 149.469 164.401 149.812 165.266C150.161 166.125 150.336 167.169 150.336 168.398C150.336 169.628 150.161 170.674 149.812 171.539C149.469 172.398 148.966 173.049 148.305 173.492C147.648 173.935 146.859 174.156 145.938 174.156C145.016 174.156 144.224 173.935 143.562 173.492C142.906 173.049 142.404 172.398 142.055 171.539C141.711 170.674 141.539 169.628 141.539 168.398ZM143.102 168.344C143.102 169.464 143.24 170.349 143.516 171C143.786 171.646 144.133 172.109 144.555 172.391C144.966 172.661 145.401 172.797 145.859 172.797H146.016C146.469 172.797 146.901 172.661 147.312 172.391C147.734 172.109 148.081 171.646 148.352 171C148.628 170.349 148.766 169.464 148.766 168.344C148.766 167.328 148.633 166.495 148.367 165.844C148.102 165.193 147.76 164.721 147.344 164.43C146.932 164.138 146.49 163.995 146.016 164H145.859C145.385 163.995 144.94 164.138 144.523 164.43C144.107 164.721 143.766 165.193 143.5 165.844C143.234 166.495 143.102 167.328 143.102 168.344ZM152.133 168.398C152.133 167.169 152.305 166.125 152.648 165.266C152.997 164.401 153.5 163.747 154.156 163.305C154.818 162.862 155.609 162.641 156.531 162.641C157.453 162.641 158.242 162.862 158.898 163.305C159.56 163.747 160.062 164.401 160.406 165.266C160.755 166.125 160.93 167.169 160.93 168.398C160.93 169.628 160.755 170.674 160.406 171.539C160.062 172.398 159.56 173.049 158.898 173.492C158.242 173.935 157.453 174.156 156.531 174.156C155.609 174.156 154.818 173.935 154.156 173.492C153.5 173.049 152.997 172.398 152.648 171.539C152.305 170.674 152.133 169.628 152.133 168.398ZM153.695 168.344C153.695 169.464 153.833 170.349 154.109 171C154.38 171.646 154.727 172.109 155.148 172.391C155.56 172.661 155.995 172.797 156.453 172.797H156.609C157.062 172.797 157.495 172.661 157.906 172.391C158.328 172.109 158.674 171.646 158.945 171C159.221 170.349 159.359 169.464 159.359 168.344C159.359 167.328 159.227 166.495 158.961 165.844C158.695 165.193 158.354 164.721 157.938 164.43C157.526 164.138 157.083 163.995 156.609 164H156.453C155.979 163.995 155.534 164.138 155.117 164.43C154.701 164.721 154.359 165.193 154.094 165.844C153.828 166.495 153.695 167.328 153.695 168.344Z" fill="#13161C"/>
<path d="M215.102 171.242C215.102 170.586 215.276 170.031 215.625 169.578C215.974 169.109 216.43 168.771 216.992 168.562C216.612 168.469 216.258 168.286 215.93 168.016C215.607 167.745 215.349 167.417 215.156 167.031C214.969 166.641 214.878 166.232 214.883 165.805C214.872 165.201 215.026 164.656 215.344 164.172C215.661 163.688 216.104 163.31 216.672 163.039C217.245 162.768 217.891 162.635 218.609 162.641C219.323 162.635 219.964 162.768 220.531 163.039C221.104 163.31 221.549 163.688 221.867 164.172C222.19 164.656 222.346 165.201 222.336 165.805C222.341 166.232 222.247 166.641 222.055 167.031C221.867 167.417 221.609 167.745 221.281 168.016C220.958 168.286 220.607 168.469 220.227 168.562C220.794 168.776 221.247 169.115 221.586 169.578C221.935 170.031 222.109 170.586 222.109 171.242C222.109 171.799 221.958 172.302 221.656 172.75C221.354 173.193 220.935 173.539 220.398 173.789C219.867 174.039 219.271 174.161 218.609 174.156C217.943 174.161 217.341 174.039 216.805 173.789C216.273 173.539 215.857 173.193 215.555 172.75C215.253 172.302 215.102 171.799 215.102 171.242ZM216.445 165.891C216.445 166.26 216.534 166.594 216.711 166.891C216.893 167.182 217.143 167.411 217.461 167.578C217.779 167.74 218.135 167.82 218.531 167.82H218.688C219.083 167.82 219.438 167.74 219.75 167.578C220.068 167.411 220.315 167.182 220.492 166.891C220.674 166.594 220.766 166.26 220.766 165.891C220.766 165.526 220.674 165.201 220.492 164.914C220.315 164.622 220.068 164.398 219.75 164.242C219.438 164.081 219.083 164 218.688 164H218.531C218.135 164 217.779 164.081 217.461 164.242C217.143 164.398 216.893 164.622 216.711 164.914C216.534 165.201 216.445 165.526 216.445 165.891ZM216.656 171.039C216.656 171.378 216.734 171.682 216.891 171.953C217.047 172.219 217.266 172.427 217.547 172.578C217.833 172.724 218.161 172.797 218.531 172.797H218.688C219.057 172.797 219.383 172.724 219.664 172.578C219.951 172.427 220.172 172.219 220.328 171.953C220.484 171.682 220.562 171.378 220.562 171.039C220.562 170.69 220.482 170.375 220.32 170.094C220.164 169.812 219.943 169.591 219.656 169.43C219.37 169.268 219.047 169.188 218.688 169.188H218.531C218.167 169.188 217.841 169.268 217.555 169.43C217.273 169.591 217.052 169.812 216.891 170.094C216.734 170.375 216.656 170.69 216.656 171.039ZM227.828 174H226.289V165.062L223.75 167.523V165.602L226.625 162.797H227.828V174Z" fill="#FB607F"/>
<path d="M16 144.5H289V143.5H16V144.5Z" fill="#E8E9EC"/>
<rect x="106" y="203" width="68" height="27" fill="#E8E9EC"/>
<path d="M119.609 222H118.07V213.062L115.531 215.523V213.602L118.406 210.797H119.609V222ZM130.344 219.453H128.586V222H127.047V219.453H121.539V217.922L127.062 210.797H128.586V218.094H130.344V219.453ZM127.047 218.094V212.953L123.047 218.094H127.047ZM131.758 216.398C131.758 215.169 131.93 214.125 132.273 213.266C132.622 212.401 133.125 211.747 133.781 211.305C134.443 210.862 135.234 210.641 136.156 210.641C137.078 210.641 137.867 210.862 138.523 211.305C139.185 211.747 139.688 212.401 140.031 213.266C140.38 214.125 140.555 215.169 140.555 216.398C140.555 217.628 140.38 218.674 140.031 219.539C139.688 220.398 139.185 221.049 138.523 221.492C137.867 221.935 137.078 222.156 136.156 222.156C135.234 222.156 134.443 221.935 133.781 221.492C133.125 221.049 132.622 220.398 132.273 219.539C131.93 218.674 131.758 217.628 131.758 216.398ZM133.32 216.344C133.32 217.464 133.458 218.349 133.734 219C134.005 219.646 134.352 220.109 134.773 220.391C135.185 220.661 135.62 220.797 136.078 220.797H136.234C136.688 220.797 137.12 220.661 137.531 220.391C137.953 220.109 138.299 219.646 138.57 219C138.846 218.349 138.984 217.464 138.984 216.344C138.984 215.328 138.852 214.495 138.586 213.844C138.32 213.193 137.979 212.721 137.562 212.43C137.151 212.138 136.708 211.995 136.234 212H136.078C135.604 211.995 135.159 212.138 134.742 212.43C134.326 212.721 133.984 213.193 133.719 213.844C133.453 214.495 133.32 215.328 133.32 216.344ZM144.102 220.078V222H142.18V220.078H144.102ZM154.195 215.961C154.195 217.19 153.982 218.266 153.555 219.188C153.122 220.125 152.544 220.854 151.82 221.375C151.096 221.896 150.31 222.156 149.461 222.156C148.826 222.156 148.258 222.044 147.758 221.82C147.258 221.591 146.846 221.26 146.523 220.828C146.206 220.396 145.995 219.88 145.891 219.281H147.461C147.586 219.75 147.812 220.117 148.141 220.383C148.469 220.648 148.872 220.781 149.352 220.781H149.539C150.112 220.792 150.635 220.609 151.109 220.234C151.589 219.854 151.977 219.323 152.273 218.641C152.57 217.958 152.745 217.182 152.797 216.312C152.521 216.885 152.107 217.336 151.555 217.664C151.008 217.992 150.385 218.156 149.688 218.156C149.036 218.156 148.438 218 147.891 217.688C147.344 217.37 146.911 216.932 146.594 216.375C146.276 215.812 146.122 215.18 146.133 214.477C146.122 213.742 146.289 213.081 146.633 212.492C146.977 211.904 147.448 211.445 148.047 211.117C148.651 210.789 149.32 210.63 150.055 210.641C150.872 210.635 151.594 210.846 152.219 211.273C152.844 211.695 153.328 212.31 153.672 213.117C154.021 213.919 154.195 214.867 154.195 215.961ZM147.703 214.398C147.698 214.852 147.797 215.263 148 215.633C148.203 216.003 148.477 216.292 148.82 216.5C149.169 216.703 149.542 216.802 149.938 216.797H150.102C150.487 216.802 150.859 216.698 151.219 216.484C151.583 216.266 151.875 215.971 152.094 215.602C152.312 215.232 152.417 214.836 152.406 214.414C152.417 213.992 152.312 213.596 152.094 213.227C151.875 212.852 151.583 212.555 151.219 212.336C150.859 212.117 150.487 212.01 150.102 212.016H149.938C149.542 212.01 149.172 212.112 148.828 212.32C148.484 212.523 148.208 212.81 148 213.18C147.797 213.544 147.698 213.951 147.703 214.398ZM164.102 215.961C164.102 217.19 163.888 218.266 163.461 219.188C163.029 220.125 162.451 220.854 161.727 221.375C161.003 221.896 160.216 222.156 159.367 222.156C158.732 222.156 158.164 222.044 157.664 221.82C157.164 221.591 156.753 221.26 156.43 220.828C156.112 220.396 155.901 219.88 155.797 219.281H157.367C157.492 219.75 157.719 220.117 158.047 220.383C158.375 220.648 158.779 220.781 159.258 220.781H159.445C160.018 220.792 160.542 220.609 161.016 220.234C161.495 219.854 161.883 219.323 162.18 218.641C162.477 217.958 162.651 217.182 162.703 216.312C162.427 216.885 162.013 217.336 161.461 217.664C160.914 217.992 160.292 218.156 159.594 218.156C158.943 218.156 158.344 218 157.797 217.688C157.25 217.37 156.818 216.932 156.5 216.375C156.182 215.812 156.029 215.18 156.039 214.477C156.029 213.742 156.195 213.081 156.539 212.492C156.883 211.904 157.354 211.445 157.953 211.117C158.557 210.789 159.227 210.63 159.961 210.641C160.779 210.635 161.5 210.846 162.125 211.273C162.75 211.695 163.234 212.31 163.578 213.117C163.927 213.919 164.102 214.867 164.102 215.961ZM157.609 214.398C157.604 214.852 157.703 215.263 157.906 215.633C158.109 216.003 158.383 216.292 158.727 216.5C159.076 216.703 159.448 216.802 159.844 216.797H160.008C160.393 216.802 160.766 216.698 161.125 216.484C161.49 216.266 161.781 215.971 162 215.602C162.219 215.232 162.323 214.836 162.312 214.414C162.323 213.992 162.219 213.596 162 213.227C161.781 212.852 161.49 212.555 161.125 212.336C160.766 212.117 160.393 212.01 160.008 212.016H159.844C159.448 212.01 159.078 212.112 158.734 212.32C158.391 212.523 158.115 212.81 157.906 213.18C157.703 213.544 157.604 213.951 157.609 214.398Z" fill="#13161C"/>
<path d="M16 192.5H289V191.5H16V192.5Z" fill="#E8E9EC"/>
<rect opacity="0.8" x="106" y="250" width="68" height="27" fill="#FB607F"/>
<path d="M24.1406 260.32C23.1771 260.904 22.3854 261.622 21.7656 262.477C21.1458 263.331 20.6823 264.352 20.375 265.539C20.0729 266.721 19.9219 268.102 19.9219 269.68V270H18.3516V269.539C18.3516 267.315 18.7161 265.414 19.4453 263.836C20.1849 262.258 21.2083 261.06 22.5156 260.242H16.3828V258.797H24.1406V260.32ZM32.7656 260.32C31.8021 260.904 31.0104 261.622 30.3906 262.477C29.7708 263.331 29.3073 264.352 29 265.539C28.6979 266.721 28.5469 268.102 28.5469 269.68V270H26.9766V269.539C26.9766 267.315 27.3411 265.414 28.0703 263.836C28.8099 262.258 29.8333 261.06 31.1406 260.242H25.0078V258.797H32.7656V260.32Z" fill="#38CFFF"/>
<path d="M119.609 270H118.07V261.062L115.531 263.523V261.602L118.406 258.797H119.609V270ZM130.344 267.453H128.586V270H127.047V267.453H121.539V265.922L127.062 258.797H128.586V266.094H130.344V267.453ZM127.047 266.094V260.953L123.047 266.094H127.047ZM131.758 264.398C131.758 263.169 131.93 262.125 132.273 261.266C132.622 260.401 133.125 259.747 133.781 259.305C134.443 258.862 135.234 258.641 136.156 258.641C137.078 258.641 137.867 258.862 138.523 259.305C139.185 259.747 139.688 260.401 140.031 261.266C140.38 262.125 140.555 263.169 140.555 264.398C140.555 265.628 140.38 266.674 140.031 267.539C139.688 268.398 139.185 269.049 138.523 269.492C137.867 269.935 137.078 270.156 136.156 270.156C135.234 270.156 134.443 269.935 133.781 269.492C133.125 269.049 132.622 268.398 132.273 267.539C131.93 266.674 131.758 265.628 131.758 264.398ZM133.32 264.344C133.32 265.464 133.458 266.349 133.734 267C134.005 267.646 134.352 268.109 134.773 268.391C135.185 268.661 135.62 268.797 136.078 268.797H136.234C136.688 268.797 137.12 268.661 137.531 268.391C137.953 268.109 138.299 267.646 138.57 267C138.846 266.349 138.984 265.464 138.984 264.344C138.984 263.328 138.852 262.495 138.586 261.844C138.32 261.193 137.979 260.721 137.562 260.43C137.151 260.138 136.708 259.995 136.234 260H136.078C135.604 259.995 135.159 260.138 134.742 260.43C134.326 260.721 133.984 261.193 133.719 261.844C133.453 262.495 133.32 263.328 133.32 264.344ZM144.102 268.078V270H142.18V268.078H144.102ZM154.195 263.961C154.195 265.19 153.982 266.266 153.555 267.188C153.122 268.125 152.544 268.854 151.82 269.375C151.096 269.896 150.31 270.156 149.461 270.156C148.826 270.156 148.258 270.044 147.758 269.82C147.258 269.591 146.846 269.26 146.523 268.828C146.206 268.396 145.995 267.88 145.891 267.281H147.461C147.586 267.75 147.812 268.117 148.141 268.383C148.469 268.648 148.872 268.781 149.352 268.781H149.539C150.112 268.792 150.635 268.609 151.109 268.234C151.589 267.854 151.977 267.323 152.273 266.641C152.57 265.958 152.745 265.182 152.797 264.312C152.521 264.885 152.107 265.336 151.555 265.664C151.008 265.992 150.385 266.156 149.688 266.156C149.036 266.156 148.438 266 147.891 265.688C147.344 265.37 146.911 264.932 146.594 264.375C146.276 263.812 146.122 263.18 146.133 262.477C146.122 261.742 146.289 261.081 146.633 260.492C146.977 259.904 147.448 259.445 148.047 259.117C148.651 258.789 149.32 258.63 150.055 258.641C150.872 258.635 151.594 258.846 152.219 259.273C152.844 259.695 153.328 260.31 153.672 261.117C154.021 261.919 154.195 262.867 154.195 263.961ZM147.703 262.398C147.698 262.852 147.797 263.263 148 263.633C148.203 264.003 148.477 264.292 148.82 264.5C149.169 264.703 149.542 264.802 149.938 264.797H150.102C150.487 264.802 150.859 264.698 151.219 264.484C151.583 264.266 151.875 263.971 152.094 263.602C152.312 263.232 152.417 262.836 152.406 262.414C152.417 261.992 152.312 261.596 152.094 261.227C151.875 260.852 151.583 260.555 151.219 260.336C150.859 260.117 150.487 260.01 150.102 260.016H149.938C149.542 260.01 149.172 260.112 148.828 260.32C148.484 260.523 148.208 260.81 148 261.18C147.797 261.544 147.698 261.951 147.703 262.398ZM156.164 267.242C156.164 266.586 156.339 266.031 156.688 265.578C157.036 265.109 157.492 264.771 158.055 264.562C157.674 264.469 157.32 264.286 156.992 264.016C156.669 263.745 156.411 263.417 156.219 263.031C156.031 262.641 155.94 262.232 155.945 261.805C155.935 261.201 156.089 260.656 156.406 260.172C156.724 259.688 157.167 259.31 157.734 259.039C158.307 258.768 158.953 258.635 159.672 258.641C160.385 258.635 161.026 258.768 161.594 259.039C162.167 259.31 162.612 259.688 162.93 260.172C163.253 260.656 163.409 261.201 163.398 261.805C163.404 262.232 163.31 262.641 163.117 263.031C162.93 263.417 162.672 263.745 162.344 264.016C162.021 264.286 161.669 264.469 161.289 264.562C161.857 264.776 162.31 265.115 162.648 265.578C162.997 266.031 163.172 266.586 163.172 267.242C163.172 267.799 163.021 268.302 162.719 268.75C162.417 269.193 161.997 269.539 161.461 269.789C160.93 270.039 160.333 270.161 159.672 270.156C159.005 270.161 158.404 270.039 157.867 269.789C157.336 269.539 156.919 269.193 156.617 268.75C156.315 268.302 156.164 267.799 156.164 267.242ZM157.508 261.891C157.508 262.26 157.596 262.594 157.773 262.891C157.956 263.182 158.206 263.411 158.523 263.578C158.841 263.74 159.198 263.82 159.594 263.82H159.75C160.146 263.82 160.5 263.74 160.812 263.578C161.13 263.411 161.378 263.182 161.555 262.891C161.737 262.594 161.828 262.26 161.828 261.891C161.828 261.526 161.737 261.201 161.555 260.914C161.378 260.622 161.13 260.398 160.812 260.242C160.5 260.081 160.146 260 159.75 260H159.594C159.198 260 158.841 260.081 158.523 260.242C158.206 260.398 157.956 260.622 157.773 260.914C157.596 261.201 157.508 261.526 157.508 261.891ZM157.719 267.039C157.719 267.378 157.797 267.682 157.953 267.953C158.109 268.219 158.328 268.427 158.609 268.578C158.896 268.724 159.224 268.797 159.594 268.797H159.75C160.12 268.797 160.445 268.724 160.727 268.578C161.013 268.427 161.234 268.219 161.391 267.953C161.547 267.682 161.625 267.378 161.625 267.039C161.625 266.69 161.544 266.375 161.383 266.094C161.227 265.812 161.005 265.591 160.719 265.43C160.432 265.268 160.109 265.188 159.75 265.188H159.594C159.229 265.188 158.904 265.268 158.617 265.43C158.336 265.591 158.115 265.812 157.953 266.094C157.797 266.375 157.719 266.69 157.719 267.039Z" fill="#13161C"/>
<path d="M16 240.5H289V239.5H16V240.5Z" fill="#E8E9EC"/>
<path d="M24.1406 308.32C23.1771 308.904 22.3854 309.622 21.7656 310.477C21.1458 311.331 20.6823 312.352 20.375 313.539C20.0729 314.721 19.9219 316.102 19.9219 317.68V318H18.3516V317.539C18.3516 315.315 18.7161 313.414 19.4453 311.836C20.1849 310.258 21.2083 309.06 22.5156 308.242H16.3828V306.797H24.1406V308.32ZM26.9141 315.07C27.0286 315.617 27.2839 316.042 27.6797 316.344C28.0755 316.646 28.5729 316.797 29.1719 316.797H29.3125C29.7083 316.797 30.0703 316.721 30.3984 316.57C30.7318 316.414 30.9948 316.198 31.1875 315.922C31.3802 315.641 31.4766 315.32 31.4766 314.961C31.4766 314.586 31.388 314.255 31.2109 313.969C31.0391 313.682 30.7969 313.461 30.4844 313.305C30.1771 313.148 29.8281 313.07 29.4375 313.07H28.4844V311.727H29.4375C29.8125 311.727 30.1484 311.643 30.4453 311.477C30.7422 311.305 30.974 311.076 31.1406 310.789C31.3073 310.503 31.3906 310.188 31.3906 309.844C31.3906 309.474 31.2995 309.151 31.1172 308.875C30.9401 308.594 30.6927 308.378 30.375 308.227C30.0625 308.076 29.7083 308 29.3125 308H29.1719C28.8177 308 28.487 308.078 28.1797 308.234C27.8724 308.385 27.6198 308.596 27.4219 308.867C27.2292 309.138 27.1172 309.435 27.0859 309.758H25.5703C25.5859 309.185 25.7656 308.659 26.1094 308.18C26.4531 307.701 26.9089 307.323 27.4766 307.047C28.0495 306.771 28.6667 306.635 29.3281 306.641C29.9583 306.63 30.5521 306.758 31.1094 307.023C31.6719 307.289 32.1198 307.648 32.4531 308.102C32.7917 308.549 32.9609 309.031 32.9609 309.547C32.9609 310.276 32.7812 310.88 32.4219 311.359C32.0677 311.844 31.6016 312.174 31.0234 312.352C31.4141 312.445 31.7604 312.612 32.0625 312.852C32.3646 313.091 32.6016 313.396 32.7734 313.766C32.9505 314.135 33.0391 314.56 33.0391 315.039C33.0495 315.617 32.888 316.146 32.5547 316.625C32.2214 317.104 31.763 317.482 31.1797 317.758C30.5964 318.034 29.9531 318.167 29.25 318.156C28.5365 318.156 27.8958 318.031 27.3281 317.781C26.7656 317.526 26.3125 317.167 25.9688 316.703C25.6302 316.24 25.4271 315.695 25.3594 315.07H26.9141Z" fill="#38CFFF"/>
<path d="M119.609 318H118.07V309.062L115.531 311.523V309.602L118.406 306.797H119.609V318ZM130.344 315.453H128.586V318H127.047V315.453H121.539V313.922L127.062 306.797H128.586V314.094H130.344V315.453ZM127.047 314.094V308.953L123.047 314.094H127.047ZM131.758 312.398C131.758 311.169 131.93 310.125 132.273 309.266C132.622 308.401 133.125 307.747 133.781 307.305C134.443 306.862 135.234 306.641 136.156 306.641C137.078 306.641 137.867 306.862 138.523 307.305C139.185 307.747 139.688 308.401 140.031 309.266C140.38 310.125 140.555 311.169 140.555 312.398C140.555 313.628 140.38 314.674 140.031 315.539C139.688 316.398 139.185 317.049 138.523 317.492C137.867 317.935 137.078 318.156 136.156 318.156C135.234 318.156 134.443 317.935 133.781 317.492C133.125 317.049 132.622 316.398 132.273 315.539C131.93 314.674 131.758 313.628 131.758 312.398ZM133.32 312.344C133.32 313.464 133.458 314.349 133.734 315C134.005 315.646 134.352 316.109 134.773 316.391C135.185 316.661 135.62 316.797 136.078 316.797H136.234C136.688 316.797 137.12 316.661 137.531 316.391C137.953 316.109 138.299 315.646 138.57 315C138.846 314.349 138.984 313.464 138.984 312.344C138.984 311.328 138.852 310.495 138.586 309.844C138.32 309.193 137.979 308.721 137.562 308.43C137.151 308.138 136.708 307.995 136.234 308H136.078C135.604 307.995 135.159 308.138 134.742 308.43C134.326 308.721 133.984 309.193 133.719 309.844C133.453 310.495 133.32 311.328 133.32 312.344ZM144.102 316.078V318H142.18V316.078H144.102ZM154.195 311.961C154.195 313.19 153.982 314.266 153.555 315.188C153.122 316.125 152.544 316.854 151.82 317.375C151.096 317.896 150.31 318.156 149.461 318.156C148.826 318.156 148.258 318.044 147.758 317.82C147.258 317.591 146.846 317.26 146.523 316.828C146.206 316.396 145.995 315.88 145.891 315.281H147.461C147.586 315.75 147.812 316.117 148.141 316.383C148.469 316.648 148.872 316.781 149.352 316.781H149.539C150.112 316.792 150.635 316.609 151.109 316.234C151.589 315.854 151.977 315.323 152.273 314.641C152.57 313.958 152.745 313.182 152.797 312.312C152.521 312.885 152.107 313.336 151.555 313.664C151.008 313.992 150.385 314.156 149.688 314.156C149.036 314.156 148.438 314 147.891 313.688C147.344 313.37 146.911 312.932 146.594 312.375C146.276 311.812 146.122 311.18 146.133 310.477C146.122 309.742 146.289 309.081 146.633 308.492C146.977 307.904 147.448 307.445 148.047 307.117C148.651 306.789 149.32 306.63 150.055 306.641C150.872 306.635 151.594 306.846 152.219 307.273C152.844 307.695 153.328 308.31 153.672 309.117C154.021 309.919 154.195 310.867 154.195 311.961ZM147.703 310.398C147.698 310.852 147.797 311.263 148 311.633C148.203 312.003 148.477 312.292 148.82 312.5C149.169 312.703 149.542 312.802 149.938 312.797H150.102C150.487 312.802 150.859 312.698 151.219 312.484C151.583 312.266 151.875 311.971 152.094 311.602C152.312 311.232 152.417 310.836 152.406 310.414C152.417 309.992 152.312 309.596 152.094 309.227C151.875 308.852 151.583 308.555 151.219 308.336C150.859 308.117 150.487 308.01 150.102 308.016H149.938C149.542 308.01 149.172 308.112 148.828 308.32C148.484 308.523 148.208 308.81 148 309.18C147.797 309.544 147.698 309.951 147.703 310.398ZM163.203 308.32C162.24 308.904 161.448 309.622 160.828 310.477C160.208 311.331 159.745 312.352 159.438 313.539C159.135 314.721 158.984 316.102 158.984 317.68V318H157.414V317.539C157.414 315.315 157.779 313.414 158.508 311.836C159.247 310.258 160.271 309.06 161.578 308.242H155.445V306.797H163.203V308.32Z" fill="#13161C"/>
<path d="M16 288.5H289V287.5H16V288.5Z" fill="#E8E9EC"/>
<path d="M20.6094 366H19.0703V357.062L16.5312 359.523V357.602L19.4062 354.797H20.6094V366ZM22.9766 360.398C22.9766 359.169 23.1484 358.125 23.4922 357.266C23.8411 356.401 24.3438 355.747 25 355.305C25.6615 354.862 26.4531 354.641 27.375 354.641C28.2969 354.641 29.0859 354.862 29.7422 355.305C30.4036 355.747 30.9062 356.401 31.25 357.266C31.599 358.125 31.7734 359.169 31.7734 360.398C31.7734 361.628 31.599 362.674 31.25 363.539C30.9062 364.398 30.4036 365.049 29.7422 365.492C29.0859 365.935 28.2969 366.156 27.375 366.156C26.4531 366.156 25.6615 365.935 25 365.492C24.3438 365.049 23.8411 364.398 23.4922 363.539C23.1484 362.674 22.9766 361.628 22.9766 360.398ZM24.5391 360.344C24.5391 361.464 24.6771 362.349 24.9531 363C25.224 363.646 25.5703 364.109 25.9922 364.391C26.4036 364.661 26.8385 364.797 27.2969 364.797H27.4531C27.9062 364.797 28.3385 364.661 28.75 364.391C29.1719 364.109 29.5182 363.646 29.7891 363C30.0651 362.349 30.2031 361.464 30.2031 360.344C30.2031 359.328 30.0703 358.495 29.8047 357.844C29.5391 357.193 29.1979 356.721 28.7812 356.43C28.3698 356.138 27.9271 355.995 27.4531 356H27.2969C26.8229 355.995 26.3776 356.138 25.9609 356.43C25.5443 356.721 25.2031 357.193 24.9375 357.844C24.6719 358.495 24.5391 359.328 24.5391 360.344ZM41.6016 362.32C41.612 363.06 41.4453 363.724 41.1016 364.312C40.7578 364.896 40.2839 365.352 39.6797 365.68C39.0807 366.008 38.4141 366.167 37.6797 366.156C36.862 366.161 36.1406 365.953 35.5156 365.531C34.8906 365.109 34.4036 364.497 34.0547 363.695C33.7109 362.888 33.5391 361.935 33.5391 360.836C33.5391 359.612 33.7526 358.539 34.1797 357.617C34.6068 356.685 35.1849 355.956 35.9141 355.43C36.6432 354.904 37.4297 354.641 38.2734 354.641C38.9089 354.641 39.4766 354.755 39.9766 354.984C40.4766 355.208 40.8854 355.536 41.2031 355.969C41.526 356.401 41.7396 356.919 41.8438 357.523H40.2734C40.1484 357.049 39.9219 356.68 39.5938 356.414C39.2656 356.148 38.862 356.016 38.3828 356.016H38.1953C37.6224 356.005 37.099 356.19 36.625 356.57C36.151 356.945 35.7656 357.474 35.4688 358.156C35.1719 358.833 34.9948 359.607 34.9375 360.477C35.2135 359.904 35.625 359.456 36.1719 359.133C36.7292 358.805 37.349 358.641 38.0312 358.641C38.6823 358.641 39.2839 358.799 39.8359 359.117C40.388 359.43 40.8229 359.867 41.1406 360.43C41.4583 360.987 41.612 361.617 41.6016 362.32ZM35.3281 362.383C35.3177 362.805 35.4219 363.203 35.6406 363.578C35.8594 363.948 36.1484 364.242 36.5078 364.461C36.8672 364.68 37.2422 364.786 37.6328 364.781H37.7891C38.1849 364.786 38.5547 364.688 38.8984 364.484C39.2474 364.276 39.5234 363.99 39.7266 363.625C39.9349 363.255 40.0365 362.846 40.0312 362.398C40.0365 361.951 39.9349 361.542 39.7266 361.172C39.5234 360.802 39.2474 360.513 38.8984 360.305C38.5547 360.096 38.1849 359.995 37.7891 360H37.6328C37.2422 359.995 36.8672 360.099 36.5078 360.312C36.1484 360.526 35.8594 360.818 35.6406 361.188C35.4219 361.557 35.3177 361.956 35.3281 362.383Z" fill="#38CFFF"/>
<path d="M119.609 366H118.07V357.062L115.531 359.523V357.602L118.406 354.797H119.609V366ZM130.344 363.453H128.586V366H127.047V363.453H121.539V361.922L127.062 354.797H128.586V362.094H130.344V363.453ZM127.047 362.094V356.953L123.047 362.094H127.047ZM131.758 360.398C131.758 359.169 131.93 358.125 132.273 357.266C132.622 356.401 133.125 355.747 133.781 355.305C134.443 354.862 135.234 354.641 136.156 354.641C137.078 354.641 137.867 354.862 138.523 355.305C139.185 355.747 139.688 356.401 140.031 357.266C140.38 358.125 140.555 359.169 140.555 360.398C140.555 361.628 140.38 362.674 140.031 363.539C139.688 364.398 139.185 365.049 138.523 365.492C137.867 365.935 137.078 366.156 136.156 366.156C135.234 366.156 134.443 365.935 133.781 365.492C133.125 365.049 132.622 364.398 132.273 363.539C131.93 362.674 131.758 361.628 131.758 360.398ZM133.32 360.344C133.32 361.464 133.458 362.349 133.734 363C134.005 363.646 134.352 364.109 134.773 364.391C135.185 364.661 135.62 364.797 136.078 364.797H136.234C136.688 364.797 137.12 364.661 137.531 364.391C137.953 364.109 138.299 363.646 138.57 363C138.846 362.349 138.984 361.464 138.984 360.344C138.984 359.328 138.852 358.495 138.586 357.844C138.32 357.193 137.979 356.721 137.562 356.43C137.151 356.138 136.708 355.995 136.234 356H136.078C135.604 355.995 135.159 356.138 134.742 356.43C134.326 356.721 133.984 357.193 133.719 357.844C133.453 358.495 133.32 359.328 133.32 360.344ZM144.102 364.078V366H142.18V364.078H144.102ZM154.195 359.961C154.195 361.19 153.982 362.266 153.555 363.188C153.122 364.125 152.544 364.854 151.82 365.375C151.096 365.896 150.31 366.156 149.461 366.156C148.826 366.156 148.258 366.044 147.758 365.82C147.258 365.591 146.846 365.26 146.523 364.828C146.206 364.396 145.995 363.88 145.891 363.281H147.461C147.586 363.75 147.812 364.117 148.141 364.383C148.469 364.648 148.872 364.781 149.352 364.781H149.539C150.112 364.792 150.635 364.609 151.109 364.234C151.589 363.854 151.977 363.323 152.273 362.641C152.57 361.958 152.745 361.182 152.797 360.312C152.521 360.885 152.107 361.336 151.555 361.664C151.008 361.992 150.385 362.156 149.688 362.156C149.036 362.156 148.438 362 147.891 361.688C147.344 361.37 146.911 360.932 146.594 360.375C146.276 359.812 146.122 359.18 146.133 358.477C146.122 357.742 146.289 357.081 146.633 356.492C146.977 355.904 147.448 355.445 148.047 355.117C148.651 354.789 149.32 354.63 150.055 354.641C150.872 354.635 151.594 354.846 152.219 355.273C152.844 355.695 153.328 356.31 153.672 357.117C154.021 357.919 154.195 358.867 154.195 359.961ZM147.703 358.398C147.698 358.852 147.797 359.263 148 359.633C148.203 360.003 148.477 360.292 148.82 360.5C149.169 360.703 149.542 360.802 149.938 360.797H150.102C150.487 360.802 150.859 360.698 151.219 360.484C151.583 360.266 151.875 359.971 152.094 359.602C152.312 359.232 152.417 358.836 152.406 358.414C152.417 357.992 152.312 357.596 152.094 357.227C151.875 356.852 151.583 356.555 151.219 356.336C150.859 356.117 150.487 356.01 150.102 356.016H149.938C149.542 356.01 149.172 356.112 148.828 356.32C148.484 356.523 148.208 356.81 148 357.18C147.797 357.544 147.698 357.951 147.703 358.398ZM163.992 362.32C164.003 363.06 163.836 363.724 163.492 364.312C163.148 364.896 162.674 365.352 162.07 365.68C161.471 366.008 160.805 366.167 160.07 366.156C159.253 366.161 158.531 365.953 157.906 365.531C157.281 365.109 156.794 364.497 156.445 363.695C156.102 362.888 155.93 361.935 155.93 360.836C155.93 359.612 156.143 358.539 156.57 357.617C156.997 356.685 157.576 355.956 158.305 355.43C159.034 354.904 159.82 354.641 160.664 354.641C161.299 354.641 161.867 354.755 162.367 354.984C162.867 355.208 163.276 355.536 163.594 355.969C163.917 356.401 164.13 356.919 164.234 357.523H162.664C162.539 357.049 162.312 356.68 161.984 356.414C161.656 356.148 161.253 356.016 160.773 356.016H160.586C160.013 356.005 159.49 356.19 159.016 356.57C158.542 356.945 158.156 357.474 157.859 358.156C157.562 358.833 157.385 359.607 157.328 360.477C157.604 359.904 158.016 359.456 158.562 359.133C159.12 358.805 159.74 358.641 160.422 358.641C161.073 358.641 161.674 358.799 162.227 359.117C162.779 359.43 163.214 359.867 163.531 360.43C163.849 360.987 164.003 361.617 163.992 362.32ZM157.719 362.383C157.708 362.805 157.812 363.203 158.031 363.578C158.25 363.948 158.539 364.242 158.898 364.461C159.258 364.68 159.633 364.786 160.023 364.781H160.18C160.576 364.786 160.945 364.688 161.289 364.484C161.638 364.276 161.914 363.99 162.117 363.625C162.326 363.255 162.427 362.846 162.422 362.398C162.427 361.951 162.326 361.542 162.117 361.172C161.914 360.802 161.638 360.513 161.289 360.305C160.945 360.096 160.576 359.995 160.18 360H160.023C159.633 359.995 159.258 360.099 158.898 360.312C158.539 360.526 158.25 360.818 158.031 361.188C157.812 361.557 157.708 361.956 157.719 362.383Z" fill="#13161C"/>
<path d="M16 336.5H289V335.5H16V336.5Z" fill="#E8E9EC"/>
<path d="M342.212 63V63.9092C342.317 63.7314 342.469 63.5628 342.67 63.4033C342.87 63.2438 343.105 63.1139 343.374 63.0137C343.647 62.9134 343.932 62.8633 344.229 62.8633C344.857 62.8542 345.409 63.016 345.883 63.3486C346.357 63.6813 346.719 64.1279 346.97 64.6885C347.225 65.249 347.348 65.8529 347.339 66.5C347.348 67.1471 347.225 67.751 346.97 68.3115C346.719 68.8721 346.357 69.3187 345.883 69.6514C345.409 69.984 344.857 70.1458 344.229 70.1367C343.932 70.1367 343.647 70.0866 343.374 69.9863C343.105 69.8861 342.87 69.7562 342.67 69.5967C342.469 69.4372 342.317 69.2686 342.212 69.0908V72.8027H340.394V63H342.212ZM342.212 66.5C342.207 66.9147 342.278 67.2884 342.424 67.6211C342.574 67.9538 342.772 68.2135 343.019 68.4004C343.269 68.5872 343.534 68.6761 343.812 68.667H343.921C344.226 68.667 344.5 68.5781 344.741 68.4004C344.983 68.2181 345.172 67.9629 345.309 67.6348C345.45 67.3066 345.521 66.9284 345.521 66.5C345.521 66.0716 345.45 65.6934 345.309 65.3652C345.172 65.0371 344.983 64.7842 344.741 64.6064C344.5 64.4242 344.226 64.333 343.921 64.333H343.812C343.534 64.3239 343.269 64.4128 343.019 64.5996C342.772 64.7865 342.574 65.0462 342.424 65.3789C342.278 65.7116 342.207 66.0853 342.212 66.5ZM348.747 63H350.565V67.2725C350.565 67.7236 350.654 68.07 350.832 68.3115C351.014 68.5485 351.272 68.667 351.604 68.667H351.714C351.974 68.667 352.213 68.5872 352.432 68.4277C352.655 68.2682 352.83 68.0518 352.958 67.7783C353.09 67.5049 353.156 67.2087 353.156 66.8896V63H354.975V70H353.156V68.9746C352.938 69.3392 352.648 69.624 352.288 69.8291C351.933 70.0342 351.541 70.1367 351.112 70.1367C350.324 70.1367 349.731 69.8975 349.335 69.4189C348.943 68.9313 348.747 68.2842 348.747 67.4775V63ZM357.6 64.4697H356.157V63H357.6V60.7305H359.418V63H360.983V64.4697H359.418V67.6895C359.418 67.9128 359.438 68.0768 359.479 68.1816C359.521 68.2865 359.593 68.3594 359.698 68.4004C359.803 68.4414 359.967 68.4619 360.19 68.4619H361.195V70H359.418C358.826 70 358.374 69.8451 358.064 69.5352C357.755 69.2253 357.6 68.7741 357.6 68.1816V64.4697ZM368.619 70V71.4697H362.036V70H368.619ZM374.279 70H371.634L369.214 63H371.142L372.987 68.6602L374.826 63H376.699L374.279 70ZM377.232 66.5C377.223 65.8164 377.367 65.1966 377.663 64.6406C377.964 64.0801 378.381 63.6426 378.914 63.3281C379.452 63.0091 380.058 62.8542 380.732 62.8633C381.407 62.8542 382.011 63.0091 382.544 63.3281C383.082 63.6426 383.499 64.0801 383.795 64.6406C384.096 65.1966 384.242 65.8164 384.232 66.5C384.242 67.1836 384.096 67.8057 383.795 68.3662C383.499 68.9222 383.082 69.3597 382.544 69.6787C382.011 69.9932 381.407 70.1458 380.732 70.1367C380.058 70.1458 379.452 69.9932 378.914 69.6787C378.381 69.3597 377.964 68.9222 377.663 68.3662C377.367 67.8057 377.223 67.1836 377.232 66.5ZM379.064 66.5C379.064 66.9466 379.131 67.334 379.263 67.6621C379.395 67.9857 379.582 68.234 379.823 68.4072C380.065 68.5804 380.35 68.667 380.678 68.667H380.787C381.111 68.667 381.393 68.5804 381.635 68.4072C381.881 68.234 382.07 67.9857 382.202 67.6621C382.334 67.334 382.4 66.9466 382.4 66.5C382.4 66.0534 382.334 65.6683 382.202 65.3447C382.07 65.0166 381.881 64.766 381.635 64.5928C381.393 64.4196 381.111 64.333 380.787 64.333H380.678C380.35 64.333 380.065 64.4196 379.823 64.5928C379.582 64.766 379.395 65.0166 379.263 65.3447C379.131 65.6683 379.064 66.0534 379.064 66.5ZM387.521 60.1973V70H385.702V60.1973H387.521ZM399.606 64.1895V65.8027H392.688V64.1895H399.606ZM392.688 66.9922H399.606V68.5986H392.688V66.9922Z" fill="#343537"/>
<path d="M407.373 69.4146C407.373 68.7993 407.536 68.2793 407.863 67.8545C408.19 67.415 408.618 67.0977 409.145 66.9023C408.789 66.8145 408.457 66.6436 408.149 66.3896C407.846 66.1357 407.604 65.8281 407.424 65.4668C407.248 65.1006 407.163 64.7173 407.167 64.3169C407.158 63.7505 407.302 63.2402 407.6 62.7861C407.897 62.332 408.312 61.978 408.845 61.7241C409.382 61.4702 409.987 61.3457 410.661 61.3506C411.33 61.3457 411.931 61.4702 412.463 61.7241C413 61.978 413.417 62.332 413.715 62.7861C414.018 63.2402 414.165 63.7505 414.155 64.3169C414.16 64.7173 414.072 65.1006 413.891 65.4668C413.715 65.8281 413.474 66.1357 413.166 66.3896C412.863 66.6436 412.534 66.8145 412.177 66.9023C412.709 67.1025 413.134 67.4199 413.452 67.8545C413.779 68.2793 413.942 68.7993 413.942 69.4146C413.942 69.937 413.801 70.4082 413.518 70.8281C413.234 71.2432 412.841 71.5679 412.338 71.8022C411.84 72.0366 411.281 72.1514 410.661 72.1465C410.036 72.1514 409.472 72.0366 408.969 71.8022C408.471 71.5679 408.081 71.2432 407.797 70.8281C407.514 70.4082 407.373 69.937 407.373 69.4146ZM408.632 64.3975C408.632 64.7441 408.715 65.0566 408.881 65.335C409.052 65.6084 409.287 65.8232 409.584 65.9795C409.882 66.1309 410.217 66.2065 410.588 66.2065H410.734C411.105 66.2065 411.438 66.1309 411.73 65.9795C412.028 65.8232 412.26 65.6084 412.426 65.335C412.597 65.0566 412.683 64.7441 412.683 64.3975C412.683 64.0557 412.597 63.7505 412.426 63.4819C412.26 63.2085 412.028 62.9985 411.73 62.8521C411.438 62.7007 411.105 62.625 410.734 62.625H410.588C410.217 62.625 409.882 62.7007 409.584 62.8521C409.287 62.9985 409.052 63.2085 408.881 63.4819C408.715 63.7505 408.632 64.0557 408.632 64.3975ZM408.83 69.2241C408.83 69.5415 408.903 69.8271 409.05 70.0811C409.196 70.3301 409.401 70.5254 409.665 70.667C409.934 70.8037 410.241 70.8721 410.588 70.8721H410.734C411.081 70.8721 411.386 70.8037 411.65 70.667C411.918 70.5254 412.126 70.3301 412.272 70.0811C412.419 69.8271 412.492 69.5415 412.492 69.2241C412.492 68.897 412.417 68.6016 412.265 68.3379C412.119 68.0742 411.911 67.8667 411.643 67.7153C411.374 67.564 411.071 67.4883 410.734 67.4883H410.588C410.246 67.4883 409.941 67.564 409.672 67.7153C409.409 67.8667 409.201 68.0742 409.05 68.3379C408.903 68.6016 408.83 68.897 408.83 69.2241ZM419.304 72H417.861V63.6211L415.48 65.9282V64.1265L418.176 61.4971H419.304V72ZM421.311 68.7773V67.5029H424.284V64.5H425.749V67.5029H428.723V68.7773H425.749V71.7729H424.284V68.7773H421.311ZM433.674 72H432.231V63.6211L429.851 65.9282V64.1265L432.546 61.4971H433.674V72ZM439.372 72H437.929V63.6211L435.549 65.9282V64.1265L438.244 61.4971H439.372V72ZM448.667 68.6235C448.676 69.2876 448.518 69.8906 448.19 70.4326C447.863 70.9697 447.417 71.3921 446.85 71.6997C446.289 72.0073 445.671 72.1562 444.997 72.1465C444.343 72.1514 443.74 72.0391 443.188 71.8096C442.641 71.5752 442.197 71.2383 441.855 70.7988C441.518 70.3545 441.33 69.8296 441.291 69.2241H442.756C442.8 69.5708 442.922 69.8687 443.122 70.1177C443.322 70.3618 443.579 70.5498 443.891 70.6816C444.204 70.8086 444.545 70.8721 444.917 70.8721H445.07C445.476 70.877 445.842 70.7842 446.169 70.5938C446.496 70.4033 446.75 70.1421 446.931 69.8101C447.116 69.4731 447.207 69.1021 447.202 68.6968C447.207 68.3306 447.116 67.9937 446.931 67.686C446.75 67.3784 446.499 67.1367 446.176 66.9609C445.859 66.7852 445.515 66.6997 445.144 66.7046H444.997C444.636 66.7046 444.284 66.7949 443.942 66.9756C443.591 67.1562 443.317 67.4053 443.122 67.7227H441.665L442.939 61.4971H448.564V62.8521H444.03L443.305 66.2505C443.579 65.9819 443.903 65.7793 444.279 65.6426C444.66 65.501 445.053 65.4302 445.458 65.4302C446.069 65.4302 446.621 65.5742 447.114 65.8623C447.607 66.1455 447.99 66.5312 448.264 67.0195C448.542 67.5078 448.676 68.0425 448.667 68.6235ZM450.095 68.7773V67.5029H453.068V64.5H454.533V67.5029H457.507V68.7773H454.533V71.7729H453.068V68.7773H450.095ZM465.432 62.9253C464.528 63.4722 463.786 64.146 463.205 64.9468C462.624 65.7476 462.189 66.7046 461.901 67.8179C461.618 68.9263 461.477 70.2202 461.477 71.6997V72H460.004V71.5679C460.004 69.4829 460.346 67.7007 461.03 66.2212C461.723 64.7417 462.683 63.6187 463.908 62.8521H458.159V61.4971H465.432V62.9253ZM468.032 69.2534C468.139 69.7661 468.378 70.1641 468.75 70.4473C469.121 70.7305 469.587 70.8721 470.148 70.8721H470.28C470.651 70.8721 470.991 70.8013 471.298 70.6597C471.611 70.5132 471.857 70.3105 472.038 70.0518C472.219 69.7881 472.309 69.4878 472.309 69.1509C472.309 68.7993 472.226 68.4893 472.06 68.2207C471.899 67.9521 471.672 67.7446 471.379 67.5981C471.091 67.4517 470.764 67.3784 470.397 67.3784H469.504V66.1187H470.397C470.749 66.1187 471.064 66.0405 471.342 65.8843C471.621 65.7231 471.838 65.5083 471.994 65.2397C472.15 64.9712 472.229 64.6758 472.229 64.3535C472.229 64.0068 472.143 63.7041 471.972 63.4453C471.806 63.1816 471.574 62.979 471.276 62.8374C470.983 62.6958 470.651 62.625 470.28 62.625H470.148C469.816 62.625 469.506 62.6982 469.218 62.8447C468.93 62.9863 468.693 63.1841 468.508 63.438C468.327 63.6919 468.222 63.9702 468.193 64.2729H466.772C466.787 63.7358 466.955 63.2427 467.277 62.7935C467.6 62.3442 468.027 61.9902 468.559 61.7314C469.096 61.4727 469.675 61.3457 470.295 61.3506C470.886 61.3408 471.442 61.4604 471.965 61.7095C472.492 61.9585 472.912 62.2954 473.225 62.7202C473.542 63.1401 473.701 63.5918 473.701 64.0752C473.701 64.7588 473.532 65.3252 473.195 65.7744C472.863 66.2285 472.426 66.5386 471.884 66.7046C472.25 66.7925 472.575 66.9487 472.858 67.1733C473.142 67.3979 473.364 67.6836 473.525 68.0303C473.691 68.377 473.774 68.7749 473.774 69.2241C473.784 69.7661 473.632 70.2617 473.32 70.7109C473.007 71.1602 472.578 71.5142 472.031 71.7729C471.484 72.0317 470.881 72.1562 470.222 72.1465C469.553 72.1465 468.952 72.0293 468.42 71.7949C467.893 71.5557 467.468 71.2188 467.146 70.7842C466.828 70.3496 466.638 69.8394 466.574 69.2534H468.032Z" fill="#343537"/>
<path d="M340.023 359.5C340.014 358.794 340.156 358.165 340.447 357.613C340.739 357.062 341.138 356.633 341.644 356.328C342.154 356.018 342.717 355.863 343.332 355.863C344.294 355.863 345.05 356.082 345.602 356.52C346.153 356.952 346.463 357.595 346.531 358.447H344.713C344.658 358.092 344.521 357.818 344.303 357.627C344.089 357.431 343.801 357.333 343.441 357.333H343.325C342.838 357.333 342.466 357.536 342.211 357.941C341.965 358.342 341.842 358.862 341.842 359.5C341.842 360.133 341.965 360.653 342.211 361.059C342.466 361.464 342.838 361.667 343.325 361.667H343.441C343.801 361.667 344.089 361.571 344.303 361.38C344.521 361.184 344.658 360.908 344.713 360.553H346.531C346.463 361.405 346.153 362.05 345.602 362.487C345.05 362.92 344.294 363.137 343.332 363.137C342.717 363.137 342.154 362.984 341.644 362.679C341.138 362.369 340.739 361.938 340.447 361.387C340.156 360.835 340.014 360.206 340.023 359.5ZM352.007 363C351.966 362.804 351.938 362.519 351.925 362.146C351.701 362.455 351.408 362.699 351.043 362.877C350.678 363.05 350.273 363.137 349.826 363.137C349.416 363.137 349.038 363.052 348.691 362.884C348.345 362.711 348.069 362.471 347.864 362.166C347.659 361.856 347.557 361.505 347.557 361.113C347.557 360.38 347.796 359.821 348.274 359.438C348.748 359.06 349.364 358.839 350.12 358.775L351.884 358.618V358.447C351.884 358.238 351.836 358.049 351.74 357.88C351.649 357.711 351.517 357.579 351.344 357.483C351.175 357.383 350.981 357.333 350.763 357.333H350.646C350.437 357.333 350.248 357.372 350.079 357.449C349.915 357.527 349.783 357.629 349.683 357.757C349.587 357.884 349.532 358.021 349.519 358.167H347.693C347.734 357.729 347.885 357.338 348.145 356.991C348.409 356.64 348.757 356.365 349.19 356.164C349.628 355.964 350.122 355.863 350.674 355.863C351.271 355.863 351.793 355.961 352.239 356.157C352.686 356.349 353.032 356.633 353.278 357.012C353.524 357.39 353.647 357.846 353.647 358.379V361.462C353.647 362.173 353.67 362.686 353.716 363H352.007ZM349.348 360.956C349.348 361.17 349.43 361.343 349.594 361.476C349.758 361.603 349.965 361.667 350.216 361.667H350.325C350.599 361.667 350.854 361.601 351.091 361.469C351.332 361.337 351.524 361.154 351.665 360.922C351.811 360.689 351.884 360.43 351.884 360.143V359.944L350.366 360.102C350.097 360.124 349.86 360.206 349.655 360.348C349.45 360.489 349.348 360.692 349.348 360.956ZM357.284 356V357.025C357.503 356.665 357.799 356.383 358.173 356.178C358.551 355.968 358.961 355.863 359.403 355.863C360.215 355.863 360.821 356.105 361.222 356.588C361.632 357.071 361.837 357.716 361.837 358.522V363H360.019V358.728C360.019 358.276 359.923 357.932 359.731 357.695C359.54 357.454 359.267 357.333 358.911 357.333H358.802C358.528 357.333 358.275 357.413 358.043 357.572C357.811 357.732 357.626 357.948 357.489 358.222C357.353 358.495 357.284 358.791 357.284 359.11V363H355.466V356H357.284ZM363.252 359.5C363.243 358.794 363.384 358.165 363.676 357.613C363.967 357.062 364.366 356.633 364.872 356.328C365.382 356.018 365.945 355.863 366.561 355.863C367.522 355.863 368.279 356.082 368.83 356.52C369.382 356.952 369.691 357.595 369.76 358.447H367.941C367.887 358.092 367.75 357.818 367.531 357.627C367.317 357.431 367.03 357.333 366.67 357.333H366.554C366.066 357.333 365.695 357.536 365.439 357.941C365.193 358.342 365.07 358.862 365.07 359.5C365.07 360.133 365.193 360.653 365.439 361.059C365.695 361.464 366.066 361.667 366.554 361.667H366.67C367.03 361.667 367.317 361.571 367.531 361.38C367.75 361.184 367.887 360.908 367.941 360.553H369.76C369.691 361.405 369.382 362.05 368.83 362.487C368.279 362.92 367.522 363.137 366.561 363.137C365.945 363.137 365.382 362.984 364.872 362.679C364.366 362.369 363.967 361.938 363.676 361.387C363.384 360.835 363.243 360.206 363.252 359.5ZM370.799 359.5C370.794 358.803 370.926 358.176 371.195 357.62C371.469 357.064 371.858 356.631 372.364 356.321C372.87 356.007 373.458 355.854 374.128 355.863C374.789 355.859 375.358 356.007 375.837 356.308C376.32 356.604 376.687 357.019 376.938 357.552C377.193 358.085 377.32 358.689 377.32 359.363C377.32 359.532 377.311 359.769 377.293 360.074H372.562C372.585 360.375 372.672 360.648 372.822 360.895C372.977 361.136 373.171 361.325 373.403 361.462C373.64 361.599 373.886 361.667 374.142 361.667H374.258C374.577 361.667 374.843 361.587 375.058 361.428C375.276 361.264 375.42 361.049 375.488 360.785H377.293C377.179 361.259 376.979 361.674 376.691 362.029C376.409 362.38 376.044 362.654 375.598 362.85C375.156 363.041 374.65 363.137 374.08 363.137C373.497 363.137 372.952 362.986 372.446 362.686C371.94 362.38 371.537 361.952 371.236 361.4C370.936 360.849 370.79 360.215 370.799 359.5ZM375.557 358.673C375.543 358.404 375.47 358.169 375.338 357.969C375.206 357.764 375.033 357.606 374.818 357.497C374.604 357.388 374.369 357.333 374.114 357.333H374.005C373.75 357.333 373.515 357.388 373.301 357.497C373.087 357.606 372.913 357.764 372.781 357.969C372.649 358.169 372.576 358.404 372.562 358.673H375.557ZM380.649 353.197V363H378.831V353.197H380.649ZM388.6 363V364.47H382.017V363H388.6ZM394.26 363H391.614L389.194 356H391.122L392.968 361.66L394.807 356H396.68L394.26 363ZM397.213 359.5C397.204 358.816 397.347 358.197 397.644 357.641C397.944 357.08 398.361 356.643 398.895 356.328C399.432 356.009 400.038 355.854 400.713 355.863C401.387 355.854 401.991 356.009 402.524 356.328C403.062 356.643 403.479 357.08 403.775 357.641C404.076 358.197 404.222 358.816 404.213 359.5C404.222 360.184 404.076 360.806 403.775 361.366C403.479 361.922 403.062 362.36 402.524 362.679C401.991 362.993 401.387 363.146 400.713 363.137C400.038 363.146 399.432 362.993 398.895 362.679C398.361 362.36 397.944 361.922 397.644 361.366C397.347 360.806 397.204 360.184 397.213 359.5ZM399.045 359.5C399.045 359.947 399.111 360.334 399.243 360.662C399.375 360.986 399.562 361.234 399.804 361.407C400.045 361.58 400.33 361.667 400.658 361.667H400.768C401.091 361.667 401.374 361.58 401.615 361.407C401.861 361.234 402.05 360.986 402.183 360.662C402.315 360.334 402.381 359.947 402.381 359.5C402.381 359.053 402.315 358.668 402.183 358.345C402.05 358.017 401.861 357.766 401.615 357.593C401.374 357.42 401.091 357.333 400.768 357.333H400.658C400.33 357.333 400.045 357.42 399.804 357.593C399.562 357.766 399.375 358.017 399.243 358.345C399.111 358.668 399.045 359.053 399.045 359.5ZM407.501 353.197V363H405.683V353.197H407.501ZM419.587 357.189V358.803H412.669V357.189H419.587ZM412.669 359.992H419.587V361.599H412.669V359.992Z" fill="#343537"/>
<path d="M433.91 355.925C433.007 356.472 432.265 357.146 431.684 357.947C431.103 358.748 430.668 359.705 430.38 360.818C430.097 361.926 429.955 363.22 429.955 364.7V365H428.483V364.568C428.483 362.483 428.825 360.701 429.508 359.221C430.202 357.742 431.161 356.619 432.387 355.852H426.637V354.497H433.91V355.925ZM441.996 355.925C441.093 356.472 440.351 357.146 439.77 357.947C439.188 358.748 438.754 359.705 438.466 360.818C438.183 361.926 438.041 363.22 438.041 364.7V365H436.569V364.568C436.569 362.483 436.911 360.701 437.594 359.221C438.288 357.742 439.247 356.619 440.473 355.852H434.723V354.497H441.996V355.925ZM442.567 361.777V360.503H445.541V357.5H447.006V360.503H449.979V361.777H447.006V364.773H445.541V361.777H442.567ZM457.904 355.925C457.001 356.472 456.259 357.146 455.678 357.947C455.097 358.748 454.662 359.705 454.374 360.818C454.091 361.926 453.949 363.22 453.949 364.7V365H452.477V364.568C452.477 362.483 452.819 360.701 453.502 359.221C454.196 357.742 455.155 356.619 456.381 355.852H450.631V354.497H457.904V355.925ZM460.504 362.253C460.612 362.766 460.851 363.164 461.222 363.447C461.593 363.73 462.06 363.872 462.621 363.872H462.753C463.124 363.872 463.463 363.801 463.771 363.66C464.083 363.513 464.33 363.311 464.511 363.052C464.691 362.788 464.782 362.488 464.782 362.151C464.782 361.799 464.699 361.489 464.533 361.221C464.372 360.952 464.145 360.745 463.852 360.598C463.563 360.452 463.236 360.378 462.87 360.378H461.977V359.119H462.87C463.222 359.119 463.537 359.041 463.815 358.884C464.093 358.723 464.311 358.508 464.467 358.24C464.623 357.971 464.701 357.676 464.701 357.354C464.701 357.007 464.616 356.704 464.445 356.445C464.279 356.182 464.047 355.979 463.749 355.837C463.456 355.696 463.124 355.625 462.753 355.625H462.621C462.289 355.625 461.979 355.698 461.691 355.845C461.403 355.986 461.166 356.184 460.98 356.438C460.8 356.692 460.695 356.97 460.666 357.273H459.245C459.259 356.736 459.428 356.243 459.75 355.793C460.072 355.344 460.5 354.99 461.032 354.731C461.569 354.473 462.147 354.346 462.768 354.351C463.358 354.341 463.915 354.46 464.438 354.709C464.965 354.958 465.385 355.295 465.697 355.72C466.015 356.14 466.173 356.592 466.173 357.075C466.173 357.759 466.005 358.325 465.668 358.774C465.336 359.229 464.899 359.539 464.357 359.705C464.723 359.792 465.048 359.949 465.331 360.173C465.614 360.398 465.836 360.684 465.998 361.03C466.164 361.377 466.247 361.775 466.247 362.224C466.256 362.766 466.105 363.262 465.792 363.711C465.48 364.16 465.05 364.514 464.503 364.773C463.957 365.032 463.354 365.156 462.694 365.146C462.025 365.146 461.425 365.029 460.893 364.795C460.365 364.556 459.94 364.219 459.618 363.784C459.301 363.35 459.11 362.839 459.047 362.253H460.504ZM467.763 361.777V360.503H470.736V357.5H472.201V360.503H475.175V361.777H472.201V364.773H470.736V361.777H467.763ZM480.126 365H478.683V356.621L476.303 358.928V357.126L478.998 354.497H480.126V365ZM482.345 359.749C482.345 358.596 482.506 357.617 482.829 356.812C483.156 356.001 483.627 355.388 484.242 354.973C484.862 354.558 485.604 354.351 486.469 354.351C487.333 354.351 488.073 354.558 488.688 354.973C489.308 355.388 489.779 356.001 490.102 356.812C490.429 357.617 490.592 358.596 490.592 359.749C490.592 360.901 490.429 361.882 490.102 362.693C489.779 363.499 489.308 364.109 488.688 364.524C488.073 364.939 487.333 365.146 486.469 365.146C485.604 365.146 484.862 364.939 484.242 364.524C483.627 364.109 483.156 363.499 482.829 362.693C482.506 361.882 482.345 360.901 482.345 359.749ZM483.81 359.697C483.81 360.747 483.939 361.577 484.198 362.188C484.452 362.793 484.777 363.228 485.172 363.491C485.558 363.745 485.966 363.872 486.396 363.872H486.542C486.967 363.872 487.372 363.745 487.758 363.491C488.153 363.228 488.478 362.793 488.732 362.188C488.991 361.577 489.12 360.747 489.12 359.697C489.12 358.745 488.996 357.964 488.747 357.354C488.498 356.743 488.178 356.301 487.787 356.028C487.401 355.754 486.986 355.62 486.542 355.625H486.396C485.951 355.62 485.534 355.754 485.143 356.028C484.752 356.301 484.433 356.743 484.184 357.354C483.935 357.964 483.81 358.745 483.81 359.697ZM499.806 361.55C499.816 362.244 499.66 362.866 499.337 363.418C499.015 363.965 498.571 364.392 498.004 364.7C497.443 365.007 496.818 365.156 496.129 365.146C495.363 365.151 494.687 364.956 494.101 364.561C493.515 364.165 493.058 363.591 492.731 362.839C492.409 362.083 492.248 361.189 492.248 360.159C492.248 359.011 492.448 358.005 492.848 357.141C493.249 356.267 493.791 355.583 494.474 355.09C495.158 354.597 495.895 354.351 496.686 354.351C497.282 354.351 497.814 354.458 498.283 354.673C498.751 354.883 499.135 355.19 499.433 355.596C499.735 356.001 499.936 356.487 500.033 357.053H498.561C498.444 356.609 498.231 356.262 497.924 356.013C497.616 355.764 497.238 355.64 496.789 355.64H496.613C496.076 355.63 495.585 355.803 495.141 356.16C494.696 356.511 494.335 357.007 494.057 357.646C493.778 358.281 493.612 359.006 493.559 359.822C493.817 359.285 494.203 358.865 494.716 358.562C495.238 358.254 495.819 358.101 496.459 358.101C497.069 358.101 497.633 358.25 498.151 358.547C498.668 358.84 499.076 359.25 499.374 359.778C499.672 360.3 499.816 360.891 499.806 361.55ZM493.925 361.609C493.915 362.004 494.013 362.378 494.218 362.729C494.423 363.076 494.694 363.352 495.031 363.557C495.368 363.762 495.719 363.862 496.085 363.857H496.232C496.603 363.862 496.95 363.77 497.272 363.579C497.599 363.384 497.858 363.115 498.048 362.773C498.244 362.427 498.339 362.043 498.334 361.624C498.339 361.204 498.244 360.82 498.048 360.474C497.858 360.127 497.599 359.856 497.272 359.661C496.95 359.465 496.603 359.37 496.232 359.375H496.085C495.719 359.37 495.368 359.468 495.031 359.668C494.694 359.868 494.423 360.142 494.218 360.488C494.013 360.835 493.915 361.208 493.925 361.609Z" fill="#343537"/>
</svg>
