<svg width="657" height="200" viewBox="0 0 657 200" fill="none" xmlns="http://www.w3.org/2000/svg">
<path d="M197 100L187 94.2265L187 105.774L197 100ZM143 99C142.448 99 142 99.4477 142 100C142 100.552 142.448 101 143 101L143 99ZM188 99L143 99L143 101L188 101L188 99Z" fill="#343537"/>
<rect width="159" height="200" rx="4" fill="white"/>
<path d="M21.3867 23.1973C21.9928 23.1927 22.5352 23.3112 23.0137 23.5527C23.4967 23.7897 23.8727 24.1361 24.1416 24.5918C24.4105 25.043 24.5426 25.5693 24.5381 26.1709C24.5426 26.7725 24.4105 27.2988 24.1416 27.75C23.8727 28.2012 23.4967 28.5475 23.0137 28.7891C22.5352 29.026 21.9928 29.1423 21.3867 29.1377H18.6592V33H17.2578V23.1973H21.3867ZM21.1816 27.873C21.8151 27.873 22.2982 27.7295 22.6309 27.4424C22.9681 27.1507 23.1367 26.7269 23.1367 26.1709C23.1367 25.6149 22.9681 25.1911 22.6309 24.8994C22.2982 24.6077 21.8151 24.4619 21.1816 24.4619H18.6592V27.873H21.1816ZM27.334 26V27.5381C27.4251 27.2054 27.571 26.9183 27.7715 26.6768C27.972 26.4307 28.209 26.2461 28.4824 26.123C28.7604 25.9954 29.0544 25.9316 29.3643 25.9316H29.9932V27.2168H29.4326C29.0179 27.2168 28.6579 27.3079 28.3525 27.4902C28.0472 27.668 27.8125 27.9255 27.6484 28.2627C27.4844 28.5999 27.4023 28.9987 27.4023 29.459V33H26.0762V26H27.334ZM32.7344 23.1973V24.7422H31.2646V23.1973H32.7344ZM31.3398 26H32.666V33H31.3398V26ZM34.3477 29.5C34.3385 28.8073 34.4684 28.1852 34.7373 27.6338C35.0107 27.0778 35.4027 26.6426 35.9131 26.3281C36.4281 26.0091 37.0273 25.8542 37.7109 25.8633C38.2396 25.8633 38.7113 25.9635 39.126 26.1641C39.5452 26.3646 39.8802 26.6494 40.1309 27.0186C40.3861 27.3877 40.5365 27.8184 40.582 28.3105H39.249C39.1852 27.9095 39.0189 27.5882 38.75 27.3467C38.4811 27.1006 38.153 26.9775 37.7656 26.9775H37.6494C37.2301 26.9775 36.8724 27.0892 36.5762 27.3125C36.2799 27.5358 36.0566 27.8389 35.9062 28.2217C35.7559 28.6045 35.6807 29.0306 35.6807 29.5C35.6807 29.9694 35.7559 30.3955 35.9062 30.7783C36.0566 31.1611 36.2799 31.4642 36.5762 31.6875C36.8724 31.9108 37.2301 32.0225 37.6494 32.0225H37.7656C38.153 32.0225 38.4811 31.9017 38.75 31.6602C39.0189 31.4141 39.1852 31.0905 39.249 30.6895H40.582C40.5365 31.1816 40.3861 31.6123 40.1309 31.9814C39.8802 32.3506 39.5452 32.6354 39.126 32.8359C38.7113 33.0365 38.2396 33.1367 37.7109 33.1367C37.0273 33.1458 36.4281 32.9932 35.9131 32.6787C35.4027 32.3597 35.0107 31.9245 34.7373 31.373C34.4684 30.8171 34.3385 30.1927 34.3477 29.5ZM41.7988 29.4863C41.7897 28.7435 41.9355 28.0964 42.2363 27.5449C42.5417 26.9935 42.945 26.5742 43.4463 26.2871C43.9476 25.9954 44.4854 25.8542 45.0596 25.8633C45.6475 25.8542 46.167 25.9818 46.6182 26.2461C47.0739 26.5059 47.4248 26.8704 47.6709 27.3398C47.917 27.8092 48.0378 28.3424 48.0332 28.9395V29.7119H43.1318C43.1501 30.1904 43.2572 30.6074 43.4531 30.9629C43.6491 31.3138 43.8929 31.5804 44.1846 31.7627C44.4808 31.9404 44.7816 32.027 45.0869 32.0225H45.2031C45.5632 32.0225 45.8844 31.929 46.167 31.7422C46.445 31.5508 46.6182 31.2796 46.6865 30.9287H48.0127C47.9307 31.3844 47.7507 31.7786 47.4727 32.1113C47.1947 32.444 46.846 32.6992 46.4268 32.877C46.012 33.0501 45.5563 33.1367 45.0596 33.1367C44.4671 33.1367 43.9202 32.9932 43.4189 32.7061C42.9176 32.4144 42.5189 31.9928 42.2227 31.4414C41.931 30.89 41.7897 30.2383 41.7988 29.4863ZM46.7002 28.6592C46.6729 28.0895 46.5111 27.668 46.2148 27.3945C45.9232 27.1165 45.5586 26.9775 45.1211 26.9775H45.0049C44.5993 26.9775 44.2279 27.1143 43.8906 27.3877C43.5579 27.652 43.3324 28.0758 43.2139 28.6592H46.7002Z" fill="#919294"/>
<path opacity="0.8" d="M97.3242 33H95.5059L91.582 23.1973H93.0654L96.4561 31.7422L99.7031 23.1973H101.173L97.3242 33ZM101.125 29.5C101.116 28.8118 101.259 28.1875 101.556 27.627C101.856 27.0664 102.264 26.6312 102.779 26.3213C103.299 26.0068 103.868 25.8542 104.488 25.8633C105.104 25.8542 105.669 26.0068 106.184 26.3213C106.703 26.6312 107.111 27.0664 107.407 27.627C107.708 28.1875 107.854 28.8118 107.845 29.5C107.854 30.1882 107.708 30.8125 107.407 31.373C107.111 31.9336 106.703 32.3711 106.184 32.6855C105.669 32.9954 105.104 33.1458 104.488 33.1367C103.868 33.1458 103.299 32.9954 102.779 32.6855C102.264 32.3711 101.856 31.9336 101.556 31.373C101.259 30.8125 101.116 30.1882 101.125 29.5ZM102.458 29.5C102.458 30.0195 102.542 30.4707 102.711 30.8535C102.88 31.2318 103.112 31.5212 103.408 31.7217C103.704 31.9222 104.044 32.0225 104.427 32.0225H104.543C104.926 32.0225 105.265 31.9222 105.562 31.7217C105.862 31.5212 106.097 31.2318 106.266 30.8535C106.434 30.4707 106.519 30.0195 106.519 29.5C106.519 28.9805 106.434 28.5316 106.266 28.1533C106.097 27.7705 105.862 27.4788 105.562 27.2783C105.265 27.0778 104.926 26.9775 104.543 26.9775H104.427C104.044 26.9775 103.704 27.0778 103.408 27.2783C103.112 27.4788 102.88 27.7705 102.711 28.1533C102.542 28.5316 102.458 28.9805 102.458 29.5ZM110.846 23.1973V33H109.52V23.1973H110.846Z" fill="#FB607F"/>
<path d="M20.6094 78H19.0703V69.0625L16.5312 71.5234V69.6016L19.4062 66.7969H20.6094V78ZM31.3438 75.4531H29.5859V78H28.0469V75.4531H22.5391V73.9219L28.0625 66.7969H29.5859V74.0938H31.3438V75.4531ZM28.0469 74.0938V68.9531L24.0469 74.0938H28.0469ZM36.4688 78H34.9297V69.0625L32.3906 71.5234V69.6016L35.2656 66.7969H36.4688V78ZM40.9141 76.0781V78H38.9922V76.0781H40.9141ZM42.5391 72.3984C42.5391 71.1693 42.7109 70.125 43.0547 69.2656C43.4036 68.401 43.9062 67.7474 44.5625 67.3047C45.224 66.862 46.0156 66.6406 46.9375 66.6406C47.8594 66.6406 48.6484 66.862 49.3047 67.3047C49.9661 67.7474 50.4688 68.401 50.8125 69.2656C51.1615 70.125 51.3359 71.1693 51.3359 72.3984C51.3359 73.6276 51.1615 74.6745 50.8125 75.5391C50.4688 76.3984 49.9661 77.0495 49.3047 77.4922C48.6484 77.9349 47.8594 78.1562 46.9375 78.1562C46.0156 78.1562 45.224 77.9349 44.5625 77.4922C43.9062 77.0495 43.4036 76.3984 43.0547 75.5391C42.7109 74.6745 42.5391 73.6276 42.5391 72.3984ZM44.1016 72.3438C44.1016 73.4635 44.2396 74.349 44.5156 75C44.7865 75.6458 45.1328 76.1094 45.5547 76.3906C45.9661 76.6615 46.401 76.7969 46.8594 76.7969H47.0156C47.4688 76.7969 47.901 76.6615 48.3125 76.3906C48.7344 76.1094 49.0807 75.6458 49.3516 75C49.6276 74.349 49.7656 73.4635 49.7656 72.3438C49.7656 71.3281 49.6328 70.4948 49.3672 69.8438C49.1016 69.1927 48.7604 68.7214 48.3438 68.4297C47.9323 68.138 47.4896 67.9948 47.0156 68H46.8594C46.3854 67.9948 45.9401 68.138 45.5234 68.4297C45.1068 68.7214 44.7656 69.1927 44.5 69.8438C44.2344 70.4948 44.1016 71.3281 44.1016 72.3438ZM60.6016 78H53.0312V76.3047L56.6484 72.8672C56.7578 72.7578 56.9271 72.6042 57.1562 72.4062C57.5208 72.0781 57.8229 71.7865 58.0625 71.5312C58.6042 70.9531 58.875 70.3464 58.875 69.7109C58.875 69.3724 58.7917 69.0755 58.625 68.8203C58.4583 68.5599 58.2318 68.3594 57.9453 68.2188C57.6589 68.0729 57.3385 68 56.9844 68H56.8281C56.4271 68 56.0677 68.0938 55.75 68.2812C55.4375 68.4635 55.1927 68.7188 55.0156 69.0469C54.8385 69.3698 54.75 69.7344 54.75 70.1406H53.1484C53.1432 69.4583 53.3047 68.849 53.6328 68.3125C53.9609 67.776 54.4115 67.362 54.9844 67.0703C55.5625 66.7734 56.2031 66.6302 56.9062 66.6406C57.5469 66.6302 58.138 66.7448 58.6797 66.9844C59.2214 67.224 59.651 67.5703 59.9688 68.0234C60.2865 68.4714 60.4453 68.9948 60.4453 69.5938C60.4453 70.1615 60.3333 70.6693 60.1094 71.1172C59.8802 71.5703 59.6042 71.9792 59.2812 72.3438C58.9844 72.6771 58.5443 73.1146 57.9609 73.6562L57.8203 73.7891L54.8281 76.5625H60.6016V78Z" fill="#13161C"/>
<path d="M99.6406 68.3203C98.6771 68.9036 97.8854 69.6224 97.2656 70.4766C96.6458 71.3307 96.1823 72.3516 95.875 73.5391C95.5729 74.7214 95.4219 76.1016 95.4219 77.6797V78H93.8516V77.5391C93.8516 75.3151 94.2161 73.4141 94.9453 71.8359C95.6849 70.2578 96.7083 69.0599 98.0156 68.2422H91.8828V66.7969H99.6406V68.3203ZM102.414 75.0703C102.529 75.6172 102.784 76.0417 103.18 76.3438C103.576 76.6458 104.073 76.7969 104.672 76.7969H104.812C105.208 76.7969 105.57 76.7214 105.898 76.5703C106.232 76.4141 106.495 76.1979 106.688 75.9219C106.88 75.6406 106.977 75.3203 106.977 74.9609C106.977 74.5859 106.888 74.2552 106.711 73.9688C106.539 73.6823 106.297 73.4609 105.984 73.3047C105.677 73.1484 105.328 73.0703 104.938 73.0703H103.984V71.7266H104.938C105.312 71.7266 105.648 71.6432 105.945 71.4766C106.242 71.3047 106.474 71.0755 106.641 70.7891C106.807 70.5026 106.891 70.1875 106.891 69.8438C106.891 69.474 106.799 69.151 106.617 68.875C106.44 68.5938 106.193 68.3776 105.875 68.2266C105.562 68.0755 105.208 68 104.812 68H104.672C104.318 68 103.987 68.0781 103.68 68.2344C103.372 68.3854 103.12 68.5964 102.922 68.8672C102.729 69.138 102.617 69.4349 102.586 69.7578H101.07C101.086 69.1849 101.266 68.6589 101.609 68.1797C101.953 67.7005 102.409 67.3229 102.977 67.0469C103.549 66.7708 104.167 66.6354 104.828 66.6406C105.458 66.6302 106.052 66.7578 106.609 67.0234C107.172 67.2891 107.62 67.6484 107.953 68.1016C108.292 68.5495 108.461 69.0312 108.461 69.5469C108.461 70.276 108.281 70.8802 107.922 71.3594C107.568 71.8438 107.102 72.1745 106.523 72.3516C106.914 72.4453 107.26 72.612 107.562 72.8516C107.865 73.0911 108.102 73.3958 108.273 73.7656C108.451 74.1354 108.539 74.5599 108.539 75.0391C108.549 75.6172 108.388 76.1458 108.055 76.625C107.721 77.1042 107.263 77.4818 106.68 77.7578C106.096 78.0339 105.453 78.1667 104.75 78.1562C104.036 78.1562 103.396 78.0312 102.828 77.7812C102.266 77.526 101.812 77.1667 101.469 76.7031C101.13 76.2396 100.927 75.6953 100.859 75.0703H102.414Z" fill="#FB607F"/>
<path d="M16 48.5H143V47.5H16V48.5Z" fill="#E8E9EC"/>
<path d="M20.6094 126H19.0703V117.062L16.5312 119.523V117.602L19.4062 114.797H20.6094V126ZM31.3438 123.453H29.5859V126H28.0469V123.453H22.5391V121.922L28.0625 114.797H29.5859V122.094H31.3438V123.453ZM28.0469 122.094V116.953L24.0469 122.094H28.0469ZM36.4688 126H34.9297V117.062L32.3906 119.523V117.602L35.2656 114.797H36.4688V126ZM40.9141 124.078V126H38.9922V124.078H40.9141ZM42.5391 120.398C42.5391 119.169 42.7109 118.125 43.0547 117.266C43.4036 116.401 43.9062 115.747 44.5625 115.305C45.224 114.862 46.0156 114.641 46.9375 114.641C47.8594 114.641 48.6484 114.862 49.3047 115.305C49.9661 115.747 50.4688 116.401 50.8125 117.266C51.1615 118.125 51.3359 119.169 51.3359 120.398C51.3359 121.628 51.1615 122.674 50.8125 123.539C50.4688 124.398 49.9661 125.049 49.3047 125.492C48.6484 125.935 47.8594 126.156 46.9375 126.156C46.0156 126.156 45.224 125.935 44.5625 125.492C43.9062 125.049 43.4036 124.398 43.0547 123.539C42.7109 122.674 42.5391 121.628 42.5391 120.398ZM44.1016 120.344C44.1016 121.464 44.2396 122.349 44.5156 123C44.7865 123.646 45.1328 124.109 45.5547 124.391C45.9661 124.661 46.401 124.797 46.8594 124.797H47.0156C47.4688 124.797 47.901 124.661 48.3125 124.391C48.7344 124.109 49.0807 123.646 49.3516 123C49.6276 122.349 49.7656 121.464 49.7656 120.344C49.7656 119.328 49.6328 118.495 49.3672 117.844C49.1016 117.193 48.7604 116.721 48.3438 116.43C47.9323 116.138 47.4896 115.995 47.0156 116H46.8594C46.3854 115.995 45.9401 116.138 45.5234 116.43C45.1068 116.721 44.7656 117.193 44.5 117.844C44.2344 118.495 44.1016 119.328 44.1016 120.344ZM56.8438 126H55.3047V117.062L52.7656 119.523V117.602L55.6406 114.797H56.8438V126Z" fill="#13161C"/>
<path d="M96.1094 126H94.5703V117.062L92.0312 119.523V117.602L94.9062 114.797H96.1094V126ZM102.188 126H100.648V117.062L98.1094 119.523V117.602L100.984 114.797H102.188V126ZM112.102 122.398C112.112 123.107 111.943 123.75 111.594 124.328C111.245 124.901 110.768 125.352 110.164 125.68C109.565 126.008 108.906 126.167 108.188 126.156C107.49 126.161 106.846 126.042 106.258 125.797C105.674 125.547 105.201 125.188 104.836 124.719C104.477 124.245 104.276 123.685 104.234 123.039H105.797C105.844 123.409 105.974 123.727 106.188 123.992C106.401 124.253 106.674 124.453 107.008 124.594C107.341 124.729 107.706 124.797 108.102 124.797H108.266C108.698 124.802 109.089 124.703 109.438 124.5C109.786 124.297 110.057 124.018 110.25 123.664C110.448 123.305 110.544 122.909 110.539 122.477C110.544 122.086 110.448 121.727 110.25 121.398C110.057 121.07 109.789 120.812 109.445 120.625C109.107 120.438 108.74 120.346 108.344 120.352H108.188C107.802 120.352 107.427 120.448 107.062 120.641C106.688 120.833 106.396 121.099 106.188 121.438H104.633L105.992 114.797H111.992V116.242H107.156L106.383 119.867C106.674 119.581 107.021 119.365 107.422 119.219C107.828 119.068 108.247 118.992 108.68 118.992C109.331 118.992 109.919 119.146 110.445 119.453C110.971 119.755 111.38 120.167 111.672 120.688C111.969 121.208 112.112 121.779 112.102 122.398Z" fill="#FB607F"/>
<path d="M16 96.5H143V95.5H16V96.5Z" fill="#E8E9EC"/>
<path d="M20.6094 174H19.0703V165.062L16.5312 167.523V165.602L19.4062 162.797H20.6094V174ZM31.3438 171.453H29.5859V174H28.0469V171.453H22.5391V169.922L28.0625 162.797H29.5859V170.094H31.3438V171.453ZM28.0469 170.094V164.953L24.0469 170.094H28.0469ZM36.4688 174H34.9297V165.062L32.3906 167.523V165.602L35.2656 162.797H36.4688V174ZM40.9141 172.078V174H38.9922V172.078H40.9141ZM42.5391 168.398C42.5391 167.169 42.7109 166.125 43.0547 165.266C43.4036 164.401 43.9062 163.747 44.5625 163.305C45.224 162.862 46.0156 162.641 46.9375 162.641C47.8594 162.641 48.6484 162.862 49.3047 163.305C49.9661 163.747 50.4688 164.401 50.8125 165.266C51.1615 166.125 51.3359 167.169 51.3359 168.398C51.3359 169.628 51.1615 170.674 50.8125 171.539C50.4688 172.398 49.9661 173.049 49.3047 173.492C48.6484 173.935 47.8594 174.156 46.9375 174.156C46.0156 174.156 45.224 173.935 44.5625 173.492C43.9062 173.049 43.4036 172.398 43.0547 171.539C42.7109 170.674 42.5391 169.628 42.5391 168.398ZM44.1016 168.344C44.1016 169.464 44.2396 170.349 44.5156 171C44.7865 171.646 45.1328 172.109 45.5547 172.391C45.9661 172.661 46.401 172.797 46.8594 172.797H47.0156C47.4688 172.797 47.901 172.661 48.3125 172.391C48.7344 172.109 49.0807 171.646 49.3516 171C49.6276 170.349 49.7656 169.464 49.7656 168.344C49.7656 167.328 49.6328 166.495 49.3672 165.844C49.1016 165.193 48.7604 164.721 48.3438 164.43C47.9323 164.138 47.4896 163.995 47.0156 164H46.8594C46.3854 163.995 45.9401 164.138 45.5234 164.43C45.1068 164.721 44.7656 165.193 44.5 165.844C44.2344 166.495 44.1016 167.328 44.1016 168.344ZM53.1328 168.398C53.1328 167.169 53.3047 166.125 53.6484 165.266C53.9974 164.401 54.5 163.747 55.1562 163.305C55.8177 162.862 56.6094 162.641 57.5312 162.641C58.4531 162.641 59.2422 162.862 59.8984 163.305C60.5599 163.747 61.0625 164.401 61.4062 165.266C61.7552 166.125 61.9297 167.169 61.9297 168.398C61.9297 169.628 61.7552 170.674 61.4062 171.539C61.0625 172.398 60.5599 173.049 59.8984 173.492C59.2422 173.935 58.4531 174.156 57.5312 174.156C56.6094 174.156 55.8177 173.935 55.1562 173.492C54.5 173.049 53.9974 172.398 53.6484 171.539C53.3047 170.674 53.1328 169.628 53.1328 168.398ZM54.6953 168.344C54.6953 169.464 54.8333 170.349 55.1094 171C55.3802 171.646 55.7266 172.109 56.1484 172.391C56.5599 172.661 56.9948 172.797 57.4531 172.797H57.6094C58.0625 172.797 58.4948 172.661 58.9062 172.391C59.3281 172.109 59.6745 171.646 59.9453 171C60.2214 170.349 60.3594 169.464 60.3594 168.344C60.3594 167.328 60.2266 166.495 59.9609 165.844C59.6953 165.193 59.3542 164.721 58.9375 164.43C58.526 164.138 58.0833 163.995 57.6094 164H57.4531C56.9792 163.995 56.5339 164.138 56.1172 164.43C55.7005 164.721 55.3594 165.193 55.0938 165.844C54.8281 166.495 54.6953 167.328 54.6953 168.344Z" fill="#13161C"/>
<path d="M92.6016 171.242C92.6016 170.586 92.776 170.031 93.125 169.578C93.474 169.109 93.9297 168.771 94.4922 168.562C94.112 168.469 93.7578 168.286 93.4297 168.016C93.1068 167.745 92.849 167.417 92.6562 167.031C92.4688 166.641 92.3776 166.232 92.3828 165.805C92.3724 165.201 92.526 164.656 92.8438 164.172C93.1615 163.688 93.6042 163.31 94.1719 163.039C94.7448 162.768 95.3906 162.635 96.1094 162.641C96.8229 162.635 97.4635 162.768 98.0312 163.039C98.6042 163.31 99.0495 163.688 99.3672 164.172C99.6901 164.656 99.8464 165.201 99.8359 165.805C99.8411 166.232 99.7474 166.641 99.5547 167.031C99.3672 167.417 99.1094 167.745 98.7812 168.016C98.4583 168.286 98.1068 168.469 97.7266 168.562C98.2943 168.776 98.7474 169.115 99.0859 169.578C99.4349 170.031 99.6094 170.586 99.6094 171.242C99.6094 171.799 99.4583 172.302 99.1562 172.75C98.8542 173.193 98.4349 173.539 97.8984 173.789C97.3672 174.039 96.7708 174.161 96.1094 174.156C95.4427 174.161 94.8411 174.039 94.3047 173.789C93.7734 173.539 93.3568 173.193 93.0547 172.75C92.7526 172.302 92.6016 171.799 92.6016 171.242ZM93.9453 165.891C93.9453 166.26 94.0339 166.594 94.2109 166.891C94.3932 167.182 94.6432 167.411 94.9609 167.578C95.2786 167.74 95.6354 167.82 96.0312 167.82H96.1875C96.5833 167.82 96.9375 167.74 97.25 167.578C97.5677 167.411 97.8151 167.182 97.9922 166.891C98.1745 166.594 98.2656 166.26 98.2656 165.891C98.2656 165.526 98.1745 165.201 97.9922 164.914C97.8151 164.622 97.5677 164.398 97.25 164.242C96.9375 164.081 96.5833 164 96.1875 164H96.0312C95.6354 164 95.2786 164.081 94.9609 164.242C94.6432 164.398 94.3932 164.622 94.2109 164.914C94.0339 165.201 93.9453 165.526 93.9453 165.891ZM94.1562 171.039C94.1562 171.378 94.2344 171.682 94.3906 171.953C94.5469 172.219 94.7656 172.427 95.0469 172.578C95.3333 172.724 95.6615 172.797 96.0312 172.797H96.1875C96.5573 172.797 96.8828 172.724 97.1641 172.578C97.4505 172.427 97.6719 172.219 97.8281 171.953C97.9844 171.682 98.0625 171.378 98.0625 171.039C98.0625 170.69 97.9818 170.375 97.8203 170.094C97.6641 169.812 97.4427 169.591 97.1562 169.43C96.8698 169.268 96.5469 169.188 96.1875 169.188H96.0312C95.6667 169.188 95.3411 169.268 95.0547 169.43C94.7734 169.591 94.5521 169.812 94.3906 170.094C94.2344 170.375 94.1562 170.69 94.1562 171.039ZM105.328 174H103.789V165.062L101.25 167.523V165.602L104.125 162.797H105.328V174Z" fill="#FB607F"/>
<path d="M16 144.5H143V143.5H16V144.5Z" fill="#E8E9EC"/>
<path d="M278.005 64H275.558L271.805 54.1973H273.917L276.822 62.0176L279.604 54.1973H281.676L278.005 64ZM292.367 64H289.92L288.43 56.8701L286.912 64H284.458L282.052 54.1973H284L285.743 61.9561L287.288 54.1973H289.599L291.137 61.9697L292.832 54.1973H294.794L292.367 64ZM297.48 61.6895L296.599 64H294.609L298.485 54.1973H300.7L304.48 64H302.478L301.596 61.6895H297.48ZM300.953 60.0078L299.531 56.2891L298.116 60.0078H300.953ZM310.12 54.1973C310.754 54.1973 311.307 54.3203 311.781 54.5664C312.255 54.8079 312.622 55.1611 312.882 55.626C313.142 56.0908 313.271 56.6423 313.271 57.2803C313.271 57.9183 313.142 58.472 312.882 58.9414C312.622 59.4062 312.255 59.7617 311.781 60.0078C311.307 60.2539 310.754 60.377 310.12 60.377H307.598V64H305.711V54.1973H310.12ZM309.908 58.6953C310.382 58.6953 310.744 58.57 310.995 58.3193C311.25 58.0687 311.378 57.7223 311.378 57.2803C311.378 56.8428 311.25 56.501 310.995 56.2549C310.744 56.0042 310.382 55.8789 309.908 55.8789H307.598V58.6953H309.908Z" fill="#343537"/>
<path d="M257.499 91H249.171V89.2715L252.452 85.5581L249.288 82.2256V80.4971H257.345V82.2988H251.998L255.023 85.4482L251.698 89.1982H257.499V91ZM258.722 85.7485C258.722 84.1372 258.971 82.7725 259.469 81.6543C259.967 80.5312 260.604 79.6963 261.38 79.1494C262.167 78.5977 262.979 78.3218 263.819 78.3218V79.9771C263.331 80.0405 262.845 80.27 262.362 80.6655C261.893 81.0464 261.493 81.6616 261.161 82.5112C260.833 83.3462 260.67 84.4253 260.67 85.7485C260.67 87.0767 260.833 88.1582 261.161 88.9932C261.493 89.8428 261.893 90.458 262.362 90.8389C262.835 91.2246 263.321 91.4541 263.819 91.5273V93.1753C262.979 93.1753 262.167 92.8994 261.38 92.3477C260.604 91.8008 259.967 90.9658 259.469 89.8428C258.971 88.7197 258.722 87.355 258.722 85.7485ZM270.184 80.4971C270.863 80.4971 271.456 80.6289 271.964 80.8926C272.472 81.1514 272.865 81.5298 273.143 82.0278C273.421 82.5259 273.561 83.1167 273.561 83.8003C273.561 84.4839 273.421 85.0771 273.143 85.5801C272.865 86.0781 272.472 86.459 271.964 86.7227C271.456 86.9863 270.863 87.1182 270.184 87.1182H267.481V91H265.46V80.4971H270.184ZM269.957 85.3164C270.465 85.3164 270.853 85.1821 271.122 84.9136C271.395 84.645 271.532 84.2739 271.532 83.8003C271.532 83.3315 271.395 82.9653 271.122 82.7017C270.853 82.4331 270.465 82.2988 269.957 82.2988H267.481V85.3164H269.957ZM276.966 83.5V85.0015C277.118 84.4985 277.381 84.1104 277.757 83.8369C278.133 83.5635 278.595 83.4268 279.142 83.4268H279.522V85.2285H278.841C278.202 85.2285 277.728 85.3823 277.42 85.6899C277.118 85.9927 276.966 86.4639 276.966 87.1035V91H275.018V83.5H276.966ZM282.877 80.4971V82.5259H280.775V80.4971H282.877ZM280.848 83.5H282.796V91H280.848V83.5ZM284.4 87.25C284.391 86.4932 284.542 85.8193 284.854 85.2285C285.167 84.6377 285.594 84.1787 286.136 83.8516C286.683 83.5195 287.286 83.3535 287.945 83.3535C288.976 83.3535 289.786 83.5879 290.377 84.0566C290.968 84.5205 291.3 85.209 291.373 86.1221H289.425C289.366 85.7412 289.22 85.4482 288.985 85.2432C288.756 85.0332 288.448 84.9282 288.062 84.9282H287.938C287.416 84.9282 287.018 85.1455 286.744 85.5801C286.48 86.0098 286.349 86.5664 286.349 87.25C286.349 87.9287 286.48 88.4854 286.744 88.9199C287.018 89.3545 287.416 89.5718 287.938 89.5718H288.062C288.448 89.5718 288.756 89.4692 288.985 89.2642C289.22 89.0542 289.366 88.7588 289.425 88.3779H291.373C291.3 89.291 290.968 89.9819 290.377 90.4507C289.786 90.9146 288.976 91.1465 287.945 91.1465C287.286 91.1465 286.683 90.9829 286.136 90.6558C285.594 90.3237 285.167 89.8623 284.854 89.2715C284.542 88.6807 284.391 88.0068 284.4 87.25ZM292.486 87.25C292.481 86.5029 292.623 85.8315 292.911 85.2358C293.204 84.6401 293.622 84.1763 294.164 83.8442C294.706 83.5073 295.335 83.3438 296.053 83.3535C296.761 83.3486 297.372 83.5073 297.884 83.8296C298.402 84.147 298.795 84.5913 299.063 85.1626C299.337 85.7339 299.474 86.3809 299.474 87.1035C299.474 87.2842 299.464 87.5381 299.444 87.8652H294.376C294.4 88.1875 294.493 88.4805 294.654 88.7441C294.82 89.0029 295.028 89.2056 295.277 89.3521C295.531 89.4985 295.794 89.5718 296.068 89.5718H296.192C296.534 89.5718 296.82 89.4863 297.049 89.3154C297.284 89.1396 297.438 88.9102 297.511 88.627H299.444C299.322 89.1348 299.107 89.5791 298.8 89.96C298.497 90.3359 298.106 90.6289 297.628 90.8389C297.154 91.0439 296.612 91.1465 296.002 91.1465C295.377 91.1465 294.793 90.9854 294.251 90.6631C293.709 90.3359 293.277 89.877 292.955 89.2861C292.633 88.6953 292.477 88.0166 292.486 87.25ZM297.584 86.3638C297.569 86.0757 297.491 85.8242 297.35 85.6094C297.208 85.3896 297.022 85.2212 296.793 85.104C296.563 84.9868 296.312 84.9282 296.039 84.9282H295.921C295.648 84.9282 295.396 84.9868 295.167 85.104C294.938 85.2212 294.752 85.3896 294.61 85.6094C294.469 85.8242 294.391 86.0757 294.376 86.3638H297.584ZM302.967 87.1475L300.792 84.9722L302.037 83.7271L304.212 85.9023L306.373 83.7417L307.589 84.9722L305.443 87.1182L307.604 89.2935L306.358 90.5386L304.198 88.3633L302.022 90.5386L300.807 89.3081L302.967 87.1475ZM315.008 91H312.386L308.365 80.4971H310.628L313.741 88.876L316.722 80.4971H318.941L315.008 91ZM318.736 87.25C318.727 86.5176 318.88 85.8535 319.198 85.2578C319.52 84.6572 319.967 84.1885 320.538 83.8516C321.114 83.5098 321.764 83.3438 322.486 83.3535C323.209 83.3438 323.856 83.5098 324.427 83.8516C325.003 84.1885 325.45 84.6572 325.768 85.2578C326.09 85.8535 326.246 86.5176 326.236 87.25C326.246 87.9824 326.09 88.6489 325.768 89.2495C325.45 89.8452 325.003 90.314 324.427 90.6558C323.856 90.9927 323.209 91.1562 322.486 91.1465C321.764 91.1562 321.114 90.9927 320.538 90.6558C319.967 90.314 319.52 89.8452 319.198 89.2495C318.88 88.6489 318.727 87.9824 318.736 87.25ZM320.699 87.25C320.699 87.7285 320.77 88.1436 320.912 88.4951C321.053 88.8418 321.253 89.1079 321.512 89.2935C321.771 89.479 322.076 89.5718 322.428 89.5718H322.545C322.892 89.5718 323.194 89.479 323.453 89.2935C323.717 89.1079 323.919 88.8418 324.061 88.4951C324.203 88.1436 324.273 87.7285 324.273 87.25C324.273 86.7715 324.203 86.3589 324.061 86.0122C323.919 85.6606 323.717 85.3921 323.453 85.2065C323.194 85.021 322.892 84.9282 322.545 84.9282H322.428C322.076 84.9282 321.771 85.021 321.512 85.2065C321.253 85.3921 321.053 85.6606 320.912 86.0122C320.77 86.3589 320.699 86.7715 320.699 87.25ZM329.759 80.4971V91H327.811V80.4971H329.759ZM336.285 85.7485C336.285 87.355 336.036 88.7197 335.538 89.8428C335.04 90.9658 334.4 91.8008 333.619 92.3477C332.838 92.8994 332.027 93.1753 331.188 93.1753V91.52C331.671 91.4565 332.154 91.2271 332.638 90.8315C333.116 90.4409 333.519 89.8257 333.846 88.9858C334.173 88.1509 334.337 87.0718 334.337 85.7485C334.337 84.4253 334.173 83.3462 333.846 82.5112C333.519 81.6665 333.116 81.0513 332.638 80.6655C332.159 80.2749 331.676 80.043 331.188 79.9697V78.3218C332.027 78.3218 332.838 78.5977 333.619 79.1494C334.4 79.6963 335.04 80.5312 335.538 81.6543C336.036 82.7725 336.285 84.1372 336.285 85.7485Z" fill="#A36CF7"/>
<path d="M345.5 100L240 100" stroke="#A36CF7" stroke-linecap="round"/>
<path d="M285.689 120H277.362V118.271L280.643 114.558L277.479 111.226V109.497H285.536V111.299H280.189L283.214 114.448L279.889 118.198H285.689V120ZM292.97 120H290.348L286.327 109.497H288.59L291.703 117.876L294.684 109.497H296.903L292.97 120ZM296.698 116.25C296.688 115.518 296.842 114.854 297.159 114.258C297.481 113.657 297.928 113.188 298.5 112.852C299.076 112.51 299.725 112.344 300.448 112.354C301.17 112.344 301.817 112.51 302.389 112.852C302.965 113.188 303.412 113.657 303.729 114.258C304.051 114.854 304.208 115.518 304.198 116.25C304.208 116.982 304.051 117.649 303.729 118.25C303.412 118.845 302.965 119.314 302.389 119.656C301.817 119.993 301.17 120.156 300.448 120.146C299.725 120.156 299.076 119.993 298.5 119.656C297.928 119.314 297.481 118.845 297.159 118.25C296.842 117.649 296.688 116.982 296.698 116.25ZM298.661 116.25C298.661 116.729 298.731 117.144 298.873 117.495C299.015 117.842 299.215 118.108 299.474 118.293C299.732 118.479 300.038 118.572 300.389 118.572H300.506C300.853 118.572 301.156 118.479 301.415 118.293C301.678 118.108 301.881 117.842 302.022 117.495C302.164 117.144 302.235 116.729 302.235 116.25C302.235 115.771 302.164 115.359 302.022 115.012C301.881 114.661 301.678 114.392 301.415 114.207C301.156 114.021 300.853 113.928 300.506 113.928H300.389C300.038 113.928 299.732 114.021 299.474 114.207C299.215 114.392 299.015 114.661 298.873 115.012C298.731 115.359 298.661 115.771 298.661 116.25ZM307.721 109.497V120H305.772V109.497H307.721Z" fill="#A36CF7"/>
<path d="M543.255 64H540.808L537.055 54.1973H539.167L542.072 62.0176L544.854 54.1973H546.926L543.255 64ZM557.617 64H555.17L553.68 56.8701L552.162 64H549.708L547.302 54.1973H549.25L550.993 61.9561L552.538 54.1973H554.849L556.387 61.9697L558.082 54.1973H560.044L557.617 64ZM562.73 61.6895L561.849 64H559.859L563.735 54.1973H565.95L569.73 64H567.728L566.846 61.6895H562.73ZM566.203 60.0078L564.781 56.2891L563.366 60.0078H566.203ZM575.37 54.1973C576.004 54.1973 576.557 54.3203 577.031 54.5664C577.505 54.8079 577.872 55.1611 578.132 55.626C578.392 56.0908 578.521 56.6423 578.521 57.2803C578.521 57.9183 578.392 58.472 578.132 58.9414C577.872 59.4062 577.505 59.7617 577.031 60.0078C576.557 60.2539 576.004 60.377 575.37 60.377H572.848V64H570.961V54.1973H575.37ZM575.158 58.6953C575.632 58.6953 575.994 58.57 576.245 58.3193C576.5 58.0687 576.628 57.7223 576.628 57.2803C576.628 56.8428 576.5 56.501 576.245 56.2549C575.994 56.0042 575.632 55.8789 575.158 55.8789H572.848V58.6953H575.158Z" fill="#343537"/>
<path d="M464.433 91H462.99V82.6211L460.61 84.9282V83.1265L463.305 80.4971H464.433V91ZM474.497 88.6123H472.849V91H471.406V88.6123H466.242V87.1768L471.42 80.4971H472.849V87.3379H474.497V88.6123ZM471.406 87.3379V82.5186L467.656 87.3379H471.406ZM479.301 91H477.858V82.6211L475.478 84.9282V83.1265L478.173 80.4971H479.301V91ZM483.469 89.1982V91H481.667V89.1982H483.469ZM484.992 85.7485C484.992 84.5962 485.153 83.6172 485.476 82.8115C485.803 82.001 486.274 81.3882 486.889 80.9731C487.509 80.5581 488.251 80.3506 489.116 80.3506C489.98 80.3506 490.72 80.5581 491.335 80.9731C491.955 81.3882 492.426 82.001 492.749 82.8115C493.076 83.6172 493.239 84.5962 493.239 85.7485C493.239 86.9009 493.076 87.8823 492.749 88.6929C492.426 89.4985 491.955 90.1089 491.335 90.5239C490.72 90.939 489.98 91.1465 489.116 91.1465C488.251 91.1465 487.509 90.939 486.889 90.5239C486.274 90.1089 485.803 89.4985 485.476 88.6929C485.153 87.8823 484.992 86.9009 484.992 85.7485ZM486.457 85.6973C486.457 86.7471 486.586 87.5771 486.845 88.1875C487.099 88.793 487.424 89.2275 487.819 89.4912C488.205 89.7451 488.613 89.8721 489.042 89.8721H489.189C489.614 89.8721 490.019 89.7451 490.405 89.4912C490.8 89.2275 491.125 88.793 491.379 88.1875C491.638 87.5771 491.767 86.7471 491.767 85.6973C491.767 84.7451 491.643 83.9639 491.394 83.3535C491.145 82.7432 490.825 82.3013 490.434 82.0278C490.048 81.7544 489.633 81.6201 489.189 81.625H489.042C488.598 81.6201 488.181 81.7544 487.79 82.0278C487.399 82.3013 487.08 82.7432 486.831 83.3535C486.582 83.9639 486.457 84.7451 486.457 85.6973ZM501.926 91H494.829V89.4106L498.22 86.188C498.322 86.0854 498.481 85.9414 498.696 85.7559C499.038 85.4482 499.321 85.1748 499.545 84.9355C500.053 84.3936 500.307 83.8247 500.307 83.229C500.307 82.9116 500.229 82.6333 500.073 82.394C499.917 82.1499 499.704 81.9619 499.436 81.8301C499.167 81.6934 498.867 81.625 498.535 81.625H498.388C498.012 81.625 497.675 81.7129 497.377 81.8887C497.084 82.0596 496.855 82.2988 496.689 82.6064C496.523 82.9092 496.44 83.251 496.44 83.6318H494.938C494.934 82.9922 495.085 82.4209 495.393 81.918C495.7 81.415 496.123 81.0269 496.66 80.7534C497.202 80.4751 497.802 80.3408 498.461 80.3506C499.062 80.3408 499.616 80.4482 500.124 80.6729C500.632 80.8975 501.035 81.2222 501.333 81.647C501.63 82.0669 501.779 82.5576 501.779 83.1191C501.779 83.6514 501.674 84.1274 501.464 84.5474C501.25 84.9722 500.991 85.3555 500.688 85.6973C500.41 86.0098 499.997 86.4199 499.45 86.9277L499.318 87.0522L496.513 89.6523H501.926V91ZM505.815 87.1328L503.508 84.8184L504.438 83.8882L506.745 86.2026L509.052 83.8882L509.982 84.8184L507.675 87.1328L509.982 89.4399L509.052 90.3701L506.745 88.063L504.438 90.3701L503.508 89.4399L505.815 87.1328ZM518.427 81.9253C517.524 82.4722 516.782 83.146 516.201 83.9468C515.62 84.7476 515.185 85.7046 514.897 86.8179C514.614 87.9263 514.472 89.2202 514.472 90.6997V91H513V90.5679C513 88.4829 513.342 86.7007 514.025 85.2212C514.719 83.7417 515.678 82.6187 516.904 81.8521H511.154V80.4971H518.427V81.9253ZM521.027 88.2534C521.135 88.7661 521.374 89.1641 521.745 89.4473C522.116 89.7305 522.583 89.8721 523.144 89.8721H523.276C523.647 89.8721 523.986 89.8013 524.294 89.6597C524.606 89.5132 524.853 89.3105 525.034 89.0518C525.214 88.7881 525.305 88.4878 525.305 88.1509C525.305 87.7993 525.222 87.4893 525.056 87.2207C524.895 86.9521 524.667 86.7446 524.375 86.5981C524.086 86.4517 523.759 86.3784 523.393 86.3784H522.5V85.1187H523.393C523.745 85.1187 524.06 85.0405 524.338 84.8843C524.616 84.7231 524.833 84.5083 524.99 84.2397C525.146 83.9712 525.224 83.6758 525.224 83.3535C525.224 83.0068 525.139 82.7041 524.968 82.4453C524.802 82.1816 524.57 81.979 524.272 81.8374C523.979 81.6958 523.647 81.625 523.276 81.625H523.144C522.812 81.625 522.502 81.6982 522.214 81.8447C521.926 81.9863 521.689 82.1841 521.503 82.438C521.323 82.6919 521.218 82.9702 521.188 83.2729H519.768C519.782 82.7358 519.951 82.2427 520.273 81.7935C520.595 81.3442 521.022 80.9902 521.555 80.7314C522.092 80.4727 522.67 80.3457 523.291 80.3506C523.881 80.3408 524.438 80.4604 524.96 80.7095C525.488 80.9585 525.908 81.2954 526.22 81.7202C526.538 82.1401 526.696 82.5918 526.696 83.0752C526.696 83.7588 526.528 84.3252 526.191 84.7744C525.859 85.2285 525.422 85.5386 524.88 85.7046C525.246 85.7925 525.571 85.9487 525.854 86.1733C526.137 86.3979 526.359 86.6836 526.521 87.0303C526.687 87.377 526.77 87.7749 526.77 88.2241C526.779 88.7661 526.628 89.2617 526.315 89.7109C526.003 90.1602 525.573 90.5142 525.026 90.7729C524.479 91.0317 523.876 91.1562 523.217 91.1465C522.548 91.1465 521.948 91.0293 521.416 90.7949C520.888 90.5557 520.463 90.2188 520.141 89.7842C519.824 89.3496 519.633 88.8394 519.57 88.2534H521.027ZM528.286 87.7773V86.5029H531.259V83.5H532.724V86.5029H535.698V87.7773H532.724V90.7729H531.259V87.7773H528.286ZM540.649 91H539.206V82.6211L536.826 84.9282V83.1265L539.521 80.4971H540.649V91ZM550.712 88.6123H549.064V91H547.622V88.6123H542.458V87.1768L547.636 80.4971H549.064V87.3379H550.712V88.6123ZM547.622 87.3379V82.5186L543.872 87.3379H547.622ZM555.517 91H554.074V82.6211L551.694 84.9282V83.1265L554.389 80.4971H555.517V91ZM559.685 89.1982V91H557.883V89.1982H559.685ZM561.208 85.7485C561.208 84.5962 561.369 83.6172 561.691 82.8115C562.019 82.001 562.49 81.3882 563.105 80.9731C563.725 80.5581 564.467 80.3506 565.332 80.3506C566.196 80.3506 566.936 80.5581 567.551 80.9731C568.171 81.3882 568.642 82.001 568.964 82.8115C569.292 83.6172 569.455 84.5962 569.455 85.7485C569.455 86.9009 569.292 87.8823 568.964 88.6929C568.642 89.4985 568.171 90.1089 567.551 90.5239C566.936 90.939 566.196 91.1465 565.332 91.1465C564.467 91.1465 563.725 90.939 563.105 90.5239C562.49 90.1089 562.019 89.4985 561.691 88.6929C561.369 87.8823 561.208 86.9009 561.208 85.7485ZM562.673 85.6973C562.673 86.7471 562.802 87.5771 563.061 88.1875C563.315 88.793 563.64 89.2275 564.035 89.4912C564.421 89.7451 564.829 89.8721 565.258 89.8721H565.405C565.83 89.8721 566.235 89.7451 566.621 89.4912C567.016 89.2275 567.341 88.793 567.595 88.1875C567.854 87.5771 567.983 86.7471 567.983 85.6973C567.983 84.7451 567.858 83.9639 567.609 83.3535C567.36 82.7432 567.041 82.3013 566.65 82.0278C566.264 81.7544 565.849 81.6201 565.405 81.625H565.258C564.814 81.6201 564.396 81.7544 564.006 82.0278C563.615 82.3013 563.295 82.7432 563.046 83.3535C562.797 83.9639 562.673 84.7451 562.673 85.6973ZM574.619 91H573.176V82.6211L570.795 84.9282V83.1265L573.491 80.4971H574.619V91ZM579.116 87.1328L576.809 84.8184L577.739 83.8882L580.046 86.2026L582.353 83.8882L583.283 84.8184L580.976 87.1328L583.283 89.4399L582.353 90.3701L580.046 88.063L577.739 90.3701L576.809 89.4399L579.116 87.1328ZM588.417 91H586.975V82.6211L584.594 84.9282V83.1265L587.29 80.4971H588.417V91ZM594.116 91H592.673V82.6211L590.292 84.9282V83.1265L592.988 80.4971H594.116V91ZM603.41 87.6235C603.42 88.2876 603.261 88.8906 602.934 89.4326C602.607 89.9697 602.16 90.3921 601.594 90.6997C601.032 91.0073 600.415 91.1562 599.741 91.1465C599.086 91.1514 598.483 91.0391 597.932 90.8096C597.385 90.5752 596.94 90.2383 596.599 89.7988C596.262 89.3545 596.074 88.8296 596.035 88.2241H597.5C597.543 88.5708 597.666 88.8687 597.866 89.1177C598.066 89.3618 598.322 89.5498 598.635 89.6816C598.947 89.8086 599.289 89.8721 599.66 89.8721H599.814C600.219 89.877 600.585 89.7842 600.913 89.5938C601.24 89.4033 601.494 89.1421 601.674 88.8101C601.86 88.4731 601.95 88.1021 601.945 87.6968C601.95 87.3306 601.86 86.9937 601.674 86.686C601.494 86.3784 601.242 86.1367 600.92 85.9609C600.603 85.7852 600.258 85.6997 599.887 85.7046H599.741C599.379 85.7046 599.028 85.7949 598.686 85.9756C598.334 86.1562 598.061 86.4053 597.866 86.7227H596.408L597.683 80.4971H603.308V81.8521H598.774L598.049 85.2505C598.322 84.9819 598.647 84.7793 599.023 84.6426C599.404 84.501 599.797 84.4302 600.202 84.4302C600.812 84.4302 601.364 84.5742 601.857 84.8623C602.351 85.1455 602.734 85.5312 603.007 86.0195C603.286 86.5078 603.42 87.0425 603.41 87.6235ZM604.838 87.7773V86.5029H607.812V83.5H609.277V86.5029H612.25V87.7773H609.277V90.7729H607.812V87.7773H604.838ZM617.202 91H615.759V82.6211L613.378 84.9282V83.1265L616.074 80.4971H617.202V91ZM627.265 88.6123H625.617V91H624.174V88.6123H619.011V87.1768L624.189 80.4971H625.617V87.3379H627.265V88.6123ZM624.174 87.3379V82.5186L620.424 87.3379H624.174ZM632.07 91H630.627V82.6211L628.247 84.9282V83.1265L630.942 80.4971H632.07V91ZM636.567 87.1328L634.26 84.8184L635.19 83.8882L637.497 86.2026L639.804 83.8882L640.734 84.8184L638.427 87.1328L640.734 89.4399L639.804 90.3701L637.497 88.063L635.19 90.3701L634.26 89.4399L636.567 87.1328ZM642.58 88.4146C642.58 87.7993 642.744 87.2793 643.071 86.8545C643.398 86.415 643.825 86.0977 644.353 85.9023C643.996 85.8145 643.664 85.6436 643.356 85.3896C643.054 85.1357 642.812 84.8281 642.631 84.4668C642.456 84.1006 642.37 83.7173 642.375 83.3169C642.365 82.7505 642.509 82.2402 642.807 81.7861C643.105 81.332 643.52 80.978 644.052 80.7241C644.589 80.4702 645.195 80.3457 645.869 80.3506C646.538 80.3457 647.138 80.4702 647.67 80.7241C648.208 80.978 648.625 81.332 648.923 81.7861C649.226 82.2402 649.372 82.7505 649.362 83.3169C649.367 83.7173 649.279 84.1006 649.099 84.4668C648.923 84.8281 648.681 85.1357 648.374 85.3896C648.071 85.6436 647.741 85.8145 647.385 85.9023C647.917 86.1025 648.342 86.4199 648.659 86.8545C648.986 87.2793 649.15 87.7993 649.15 88.4146C649.15 88.937 649.008 89.4082 648.725 89.8281C648.442 90.2432 648.049 90.5679 647.546 90.8022C647.048 91.0366 646.489 91.1514 645.869 91.1465C645.244 91.1514 644.68 91.0366 644.177 90.8022C643.679 90.5679 643.288 90.2432 643.005 89.8281C642.722 89.4082 642.58 88.937 642.58 88.4146ZM643.84 83.3975C643.84 83.7441 643.923 84.0566 644.089 84.335C644.26 84.6084 644.494 84.8232 644.792 84.9795C645.09 85.1309 645.424 85.2065 645.795 85.2065H645.942C646.313 85.2065 646.645 85.1309 646.938 84.9795C647.236 84.8232 647.468 84.6084 647.634 84.335C647.805 84.0566 647.89 83.7441 647.89 83.3975C647.89 83.0557 647.805 82.7505 647.634 82.4819C647.468 82.2085 647.236 81.9985 646.938 81.8521C646.645 81.7007 646.313 81.625 645.942 81.625H645.795C645.424 81.625 645.09 81.7007 644.792 81.8521C644.494 81.9985 644.26 82.2085 644.089 82.4819C643.923 82.7505 643.84 83.0557 643.84 83.3975ZM644.038 88.2241C644.038 88.5415 644.111 88.8271 644.257 89.0811C644.404 89.3301 644.609 89.5254 644.873 89.667C645.141 89.8037 645.449 89.8721 645.795 89.8721H645.942C646.289 89.8721 646.594 89.8037 646.857 89.667C647.126 89.5254 647.333 89.3301 647.48 89.0811C647.626 88.8271 647.7 88.5415 647.7 88.2241C647.7 87.897 647.624 87.6016 647.473 87.3379C647.326 87.0742 647.119 86.8667 646.85 86.7153C646.582 86.564 646.279 86.4883 645.942 86.4883H645.795C645.454 86.4883 645.148 86.564 644.88 86.7153C644.616 86.8667 644.409 87.0742 644.257 87.3379C644.111 87.6016 644.038 87.897 644.038 88.2241ZM654.511 91H653.068V82.6211L650.688 84.9282V83.1265L653.383 80.4971H654.511V91Z" fill="#343537"/>
<path d="M656 100L460 100" stroke="#343537" stroke-linecap="round"/>
<path d="M531.303 110.925C530.4 111.472 529.658 112.146 529.077 112.947C528.496 113.748 528.061 114.705 527.773 115.818C527.49 116.926 527.348 118.22 527.348 119.7V120H525.876V119.568C525.876 117.483 526.218 115.701 526.901 114.221C527.595 112.742 528.554 111.619 529.78 110.852H524.03V109.497H531.303V110.925ZM533.903 117.253C534.011 117.766 534.25 118.164 534.621 118.447C534.992 118.73 535.458 118.872 536.02 118.872H536.152C536.523 118.872 536.862 118.801 537.17 118.66C537.482 118.513 537.729 118.311 537.91 118.052C538.09 117.788 538.181 117.488 538.181 117.151C538.181 116.799 538.098 116.489 537.932 116.221C537.771 115.952 537.543 115.745 537.25 115.598C536.962 115.452 536.635 115.378 536.269 115.378H535.375V114.119H536.269C536.621 114.119 536.936 114.041 537.214 113.884C537.492 113.723 537.709 113.508 537.866 113.24C538.022 112.971 538.1 112.676 538.1 112.354C538.1 112.007 538.015 111.704 537.844 111.445C537.678 111.182 537.446 110.979 537.148 110.837C536.855 110.696 536.523 110.625 536.152 110.625H536.02C535.688 110.625 535.378 110.698 535.09 110.845C534.802 110.986 534.565 111.184 534.379 111.438C534.199 111.692 534.094 111.97 534.064 112.273H532.644C532.658 111.736 532.827 111.243 533.149 110.793C533.471 110.344 533.898 109.99 534.431 109.731C534.968 109.473 535.546 109.346 536.167 109.351C536.757 109.341 537.314 109.46 537.836 109.709C538.364 109.958 538.784 110.295 539.096 110.72C539.414 111.14 539.572 111.592 539.572 112.075C539.572 112.759 539.404 113.325 539.067 113.774C538.735 114.229 538.298 114.539 537.756 114.705C538.122 114.792 538.447 114.949 538.73 115.173C539.013 115.398 539.235 115.684 539.396 116.03C539.562 116.377 539.646 116.775 539.646 117.224C539.655 117.766 539.504 118.262 539.191 118.711C538.879 119.16 538.449 119.514 537.902 119.773C537.355 120.032 536.752 120.156 536.093 120.146C535.424 120.146 534.824 120.029 534.292 119.795C533.764 119.556 533.339 119.219 533.017 118.784C532.7 118.35 532.509 117.839 532.446 117.253H533.903ZM541.162 116.777V115.503H544.135V112.5H545.6V115.503H548.574V116.777H545.6V119.773H544.135V116.777H541.162ZM553.525 120H552.082V111.621L549.702 113.928V112.126L552.397 109.497H553.525V120ZM559.223 120H557.78V111.621L555.4 113.928V112.126L558.095 109.497H559.223V120ZM568.518 116.624C568.527 117.288 568.369 117.891 568.042 118.433C567.714 118.97 567.268 119.392 566.701 119.7C566.14 120.007 565.522 120.156 564.848 120.146C564.194 120.151 563.591 120.039 563.039 119.81C562.492 119.575 562.048 119.238 561.706 118.799C561.369 118.354 561.181 117.83 561.142 117.224H562.607C562.651 117.571 562.773 117.869 562.973 118.118C563.173 118.362 563.43 118.55 563.742 118.682C564.055 118.809 564.396 118.872 564.768 118.872H564.921C565.327 118.877 565.693 118.784 566.02 118.594C566.347 118.403 566.601 118.142 566.782 117.81C566.967 117.473 567.058 117.102 567.053 116.697C567.058 116.331 566.967 115.994 566.782 115.686C566.601 115.378 566.35 115.137 566.027 114.961C565.71 114.785 565.366 114.7 564.995 114.705H564.848C564.487 114.705 564.135 114.795 563.793 114.976C563.442 115.156 563.168 115.405 562.973 115.723H561.516L562.79 109.497H568.415V110.852H563.881L563.156 114.25C563.43 113.982 563.754 113.779 564.13 113.643C564.511 113.501 564.904 113.43 565.31 113.43C565.92 113.43 566.472 113.574 566.965 113.862C567.458 114.146 567.841 114.531 568.115 115.02C568.393 115.508 568.527 116.042 568.518 116.624ZM569.946 116.777V115.503H572.919V112.5H574.384V115.503H577.358V116.777H574.384V119.773H572.919V116.777H569.946ZM579.021 117.415C579.021 116.799 579.184 116.279 579.511 115.854C579.838 115.415 580.266 115.098 580.793 114.902C580.437 114.814 580.104 114.644 579.797 114.39C579.494 114.136 579.252 113.828 579.072 113.467C578.896 113.101 578.811 112.717 578.815 112.317C578.806 111.75 578.95 111.24 579.248 110.786C579.545 110.332 579.96 109.978 580.493 109.724C581.03 109.47 581.635 109.346 582.309 109.351C582.978 109.346 583.579 109.47 584.111 109.724C584.648 109.978 585.065 110.332 585.363 110.786C585.666 111.24 585.812 111.75 585.803 112.317C585.808 112.717 585.72 113.101 585.539 113.467C585.363 113.828 585.122 114.136 584.814 114.39C584.511 114.644 584.182 114.814 583.825 114.902C584.357 115.103 584.782 115.42 585.1 115.854C585.427 116.279 585.59 116.799 585.59 117.415C585.59 117.937 585.449 118.408 585.166 118.828C584.882 119.243 584.489 119.568 583.986 119.802C583.488 120.037 582.929 120.151 582.309 120.146C581.684 120.151 581.12 120.037 580.617 119.802C580.119 119.568 579.729 119.243 579.445 118.828C579.162 118.408 579.021 117.937 579.021 117.415ZM580.28 112.397C580.28 112.744 580.363 113.057 580.529 113.335C580.7 113.608 580.935 113.823 581.232 113.979C581.53 114.131 581.865 114.207 582.236 114.207H582.382C582.753 114.207 583.085 114.131 583.378 113.979C583.676 113.823 583.908 113.608 584.074 113.335C584.245 113.057 584.331 112.744 584.331 112.397C584.331 112.056 584.245 111.75 584.074 111.482C583.908 111.208 583.676 110.999 583.378 110.852C583.085 110.701 582.753 110.625 582.382 110.625H582.236C581.865 110.625 581.53 110.701 581.232 110.852C580.935 110.999 580.7 111.208 580.529 111.482C580.363 111.75 580.28 112.056 580.28 112.397ZM580.478 117.224C580.478 117.542 580.551 117.827 580.698 118.081C580.844 118.33 581.049 118.525 581.313 118.667C581.582 118.804 581.889 118.872 582.236 118.872H582.382C582.729 118.872 583.034 118.804 583.298 118.667C583.566 118.525 583.774 118.33 583.92 118.081C584.067 117.827 584.14 117.542 584.14 117.224C584.14 116.897 584.064 116.602 583.913 116.338C583.767 116.074 583.559 115.867 583.291 115.715C583.022 115.564 582.719 115.488 582.382 115.488H582.236C581.894 115.488 581.589 115.564 581.32 115.715C581.057 115.867 580.849 116.074 580.698 116.338C580.551 116.602 580.478 116.897 580.478 117.224ZM590.952 120H589.509V111.621L587.128 113.928V112.126L589.824 109.497H590.952V120Z" fill="#343537"/>
<path d="M432 101L427 98.1132V103.887L432 101ZM376 100.5C375.724 100.5 375.5 100.724 375.5 101C375.5 101.276 375.724 101.5 376 101.5V100.5ZM427.5 100.5H376V101.5H427.5V100.5Z" fill="#343537"/>
</svg>
