<svg width="664" height="251" viewBox="0 0 664 251" fill="none" xmlns="http://www.w3.org/2000/svg">
<path d="M339 71.5C338.172 71.5 337.5 72.1716 337.5 73L337.5 100C337.5 100.828 338.172 101.5 339 101.5L660.914 101.5C661.729 101.5 662.395 100.849 662.414 100.034L662.5 96.1875L662.5 96.1817L662.5 76.8183L662.5 76.8125L662.414 72.9664C662.395 72.1512 661.729 71.5 660.914 71.5L339 71.5Z" fill="#FCC200" stroke="black"/>
<path d="M340.281 121.303C340.314 121.791 340.454 122.224 340.701 122.602C340.955 122.979 341.316 123.275 341.785 123.49C342.254 123.699 342.82 123.803 343.484 123.803H343.68C344.155 123.803 344.565 123.728 344.91 123.578C345.255 123.422 345.516 123.217 345.691 122.963C345.874 122.702 345.965 122.416 345.965 122.104C345.965 121.667 345.848 121.332 345.613 121.098C345.379 120.857 344.969 120.678 344.383 120.561L341.883 120.043C339.48 119.542 338.279 118.174 338.279 115.941C338.279 115.225 338.497 114.548 338.934 113.91C339.37 113.266 339.992 112.751 340.799 112.367C341.606 111.977 342.534 111.788 343.582 111.801C344.663 111.794 345.607 111.99 346.414 112.387C347.221 112.777 347.837 113.324 348.26 114.027C348.689 114.724 348.898 115.515 348.885 116.4H346.18C346.134 115.704 345.877 115.163 345.408 114.779C344.946 114.395 344.337 114.203 343.582 114.203H343.377C342.908 114.203 342.492 114.281 342.127 114.438C341.762 114.587 341.479 114.792 341.277 115.053C341.082 115.313 340.984 115.596 340.984 115.902C340.984 116.352 341.115 116.697 341.375 116.938C341.635 117.178 342.072 117.361 342.684 117.484L344.783 117.904C346.046 118.158 347.007 118.617 347.664 119.281C348.328 119.945 348.66 120.818 348.66 121.898C348.673 122.706 348.462 123.438 348.025 124.096C347.589 124.747 346.961 125.261 346.141 125.639C345.32 126.016 344.367 126.202 343.279 126.195C342.049 126.195 341.014 125.997 340.174 125.6C339.34 125.202 338.709 124.639 338.279 123.91C337.85 123.174 337.615 122.305 337.576 121.303H340.281ZM350.916 116H353.514V122.104C353.514 122.748 353.641 123.243 353.895 123.588C354.155 123.926 354.523 124.096 354.998 124.096H355.154C355.525 124.096 355.867 123.982 356.18 123.754C356.499 123.526 356.749 123.217 356.932 122.826C357.12 122.436 357.215 122.012 357.215 121.557V116H359.812V126H357.215V124.535C356.902 125.056 356.489 125.463 355.975 125.756C355.467 126.049 354.907 126.195 354.295 126.195C353.169 126.195 352.322 125.854 351.756 125.17C351.196 124.473 350.916 123.549 350.916 122.396V116ZM365.096 116V117.299C365.245 117.045 365.464 116.804 365.75 116.576C366.036 116.348 366.372 116.163 366.756 116.02C367.146 115.876 367.553 115.805 367.977 115.805C368.875 115.792 369.663 116.023 370.34 116.498C371.017 116.973 371.535 117.611 371.893 118.412C372.257 119.213 372.433 120.076 372.42 121C372.433 121.924 372.257 122.787 371.893 123.588C371.535 124.389 371.017 125.027 370.34 125.502C369.663 125.977 368.875 126.208 367.977 126.195C367.553 126.195 367.146 126.124 366.756 125.98C366.372 125.837 366.036 125.652 365.75 125.424C365.464 125.196 365.245 124.955 365.096 124.701V130.004H362.498V116H365.096ZM365.096 121C365.089 121.592 365.19 122.126 365.398 122.602C365.613 123.077 365.896 123.448 366.248 123.715C366.606 123.982 366.984 124.109 367.381 124.096H367.537C367.973 124.096 368.364 123.969 368.709 123.715C369.054 123.454 369.324 123.09 369.52 122.621C369.721 122.152 369.822 121.612 369.822 121C369.822 120.388 369.721 119.848 369.52 119.379C369.324 118.91 369.054 118.549 368.709 118.295C368.364 118.035 367.973 117.904 367.537 117.904H367.381C366.984 117.891 366.606 118.018 366.248 118.285C365.896 118.552 365.613 118.923 365.398 119.398C365.19 119.874 365.089 120.408 365.096 121ZM373.973 121C373.966 120.004 374.155 119.109 374.539 118.314C374.93 117.52 375.486 116.902 376.209 116.459C376.932 116.01 377.771 115.792 378.729 115.805C379.673 115.798 380.486 116.01 381.17 116.439C381.86 116.863 382.384 117.455 382.742 118.217C383.107 118.979 383.289 119.841 383.289 120.805C383.289 121.046 383.276 121.384 383.25 121.82H376.492C376.525 122.25 376.648 122.641 376.863 122.992C377.085 123.337 377.361 123.607 377.693 123.803C378.032 123.998 378.383 124.096 378.748 124.096H378.914C379.37 124.096 379.751 123.982 380.057 123.754C380.369 123.52 380.574 123.214 380.672 122.836H383.25C383.087 123.513 382.801 124.105 382.391 124.613C381.987 125.115 381.466 125.505 380.828 125.785C380.197 126.059 379.474 126.195 378.66 126.195C377.827 126.195 377.049 125.98 376.326 125.551C375.604 125.115 375.027 124.503 374.598 123.715C374.168 122.927 373.96 122.022 373.973 121ZM380.77 119.818C380.75 119.434 380.646 119.099 380.457 118.812C380.268 118.52 380.021 118.295 379.715 118.139C379.409 117.982 379.074 117.904 378.709 117.904H378.553C378.188 117.904 377.853 117.982 377.547 118.139C377.241 118.295 376.993 118.52 376.805 118.812C376.616 119.099 376.512 119.434 376.492 119.818H380.77ZM388.045 116V118.002C388.247 117.331 388.598 116.814 389.1 116.449C389.601 116.085 390.216 115.902 390.945 115.902H391.453V118.305H390.545C389.692 118.305 389.061 118.51 388.65 118.92C388.247 119.324 388.045 119.952 388.045 120.805V126H385.447V116H388.045ZM392.762 118.998C392.755 117.566 393.016 116.306 393.543 115.219C394.077 114.125 394.852 113.279 395.867 112.68C396.883 112.081 398.081 111.788 399.461 111.801C400.62 111.788 401.632 111.993 402.498 112.416C403.37 112.839 404.048 113.419 404.529 114.154C405.011 114.883 405.281 115.697 405.34 116.596H402.645C402.495 115.834 402.153 115.245 401.619 114.828C401.085 114.411 400.398 114.203 399.559 114.203H399.363C398.608 114.197 397.934 114.385 397.342 114.77C396.756 115.154 396.297 115.704 395.965 116.42C395.633 117.136 395.467 117.969 395.467 118.92C395.467 119.91 395.626 120.772 395.945 121.508C396.271 122.243 396.727 122.81 397.312 123.207C397.905 123.604 398.589 123.803 399.363 123.803H399.559C400.411 123.803 401.102 123.598 401.629 123.188C402.156 122.777 402.495 122.182 402.645 121.4H405.34C405.281 122.338 405.011 123.171 404.529 123.9C404.054 124.623 403.383 125.189 402.518 125.6C401.652 126.003 400.633 126.202 399.461 126.195C398.081 126.208 396.883 125.915 395.867 125.316C394.852 124.717 394.077 123.874 393.543 122.787C393.016 121.693 392.755 120.43 392.762 118.998ZM413.221 126C413.162 125.72 413.123 125.313 413.104 124.779C412.785 125.222 412.365 125.57 411.844 125.824C411.323 126.072 410.743 126.195 410.105 126.195C409.52 126.195 408.979 126.075 408.484 125.834C407.99 125.587 407.596 125.245 407.303 124.809C407.01 124.366 406.863 123.865 406.863 123.305C406.863 122.257 407.205 121.459 407.889 120.912C408.566 120.372 409.445 120.056 410.525 119.965L413.045 119.74V119.496C413.045 119.197 412.977 118.926 412.84 118.686C412.71 118.445 412.521 118.256 412.273 118.119C412.033 117.976 411.756 117.904 411.443 117.904H411.277C410.978 117.904 410.708 117.96 410.467 118.07C410.232 118.181 410.044 118.327 409.9 118.51C409.764 118.692 409.686 118.887 409.666 119.096H407.059C407.117 118.471 407.332 117.911 407.703 117.416C408.081 116.915 408.579 116.521 409.197 116.234C409.822 115.948 410.529 115.805 411.316 115.805C412.169 115.805 412.915 115.945 413.553 116.225C414.191 116.498 414.686 116.905 415.037 117.445C415.389 117.986 415.564 118.637 415.564 119.398V123.803C415.564 124.818 415.597 125.551 415.662 126H413.221ZM409.422 123.08C409.422 123.386 409.539 123.633 409.773 123.822C410.008 124.005 410.304 124.096 410.662 124.096H410.818C411.209 124.096 411.574 124.001 411.912 123.812C412.257 123.624 412.531 123.363 412.732 123.031C412.941 122.699 413.045 122.328 413.045 121.918V121.635L410.877 121.859C410.493 121.892 410.154 122.009 409.861 122.211C409.568 122.413 409.422 122.702 409.422 123.08ZM420.76 116V117.465C421.072 116.951 421.495 116.547 422.029 116.254C422.57 115.954 423.156 115.805 423.787 115.805C424.946 115.805 425.812 116.15 426.385 116.84C426.971 117.53 427.264 118.451 427.264 119.604V126H424.666V119.896C424.666 119.252 424.529 118.76 424.256 118.422C423.982 118.077 423.592 117.904 423.084 117.904H422.928C422.537 117.904 422.176 118.018 421.844 118.246C421.512 118.474 421.248 118.783 421.053 119.174C420.857 119.564 420.76 119.988 420.76 120.443V126H418.162V116H420.76ZM429.266 121C429.253 120.076 429.425 119.213 429.783 118.412C430.148 117.611 430.665 116.973 431.336 116.498C432.013 116.023 432.801 115.792 433.699 115.805C434.129 115.805 434.536 115.876 434.92 116.02C435.311 116.163 435.649 116.348 435.936 116.576C436.222 116.804 436.437 117.045 436.58 117.299V111.996H439.188V126H436.58V124.701C436.437 124.955 436.222 125.196 435.936 125.424C435.649 125.652 435.311 125.837 434.92 125.98C434.536 126.124 434.129 126.195 433.699 126.195C432.801 126.208 432.013 125.977 431.336 125.502C430.665 125.027 430.148 124.389 429.783 123.588C429.425 122.787 429.253 121.924 429.266 121ZM431.863 120.98C431.863 121.592 431.961 122.136 432.156 122.611C432.358 123.08 432.632 123.445 432.977 123.705C433.322 123.965 433.712 124.096 434.148 124.096H434.305C434.708 124.109 435.086 123.982 435.438 123.715C435.789 123.448 436.069 123.077 436.277 122.602C436.486 122.126 436.587 121.592 436.58 121C436.587 120.408 436.486 119.874 436.277 119.398C436.069 118.923 435.789 118.552 435.438 118.285C435.086 118.018 434.708 117.891 434.305 117.904H434.148C433.712 117.904 433.322 118.031 432.977 118.285C432.632 118.539 432.358 118.9 432.156 119.369C431.961 119.831 431.863 120.368 431.863 120.98ZM444.471 111.996V126H441.873V111.996H444.471ZM446.609 121C446.603 120.004 446.792 119.109 447.176 118.314C447.566 117.52 448.123 116.902 448.846 116.459C449.568 116.01 450.408 115.792 451.365 115.805C452.309 115.798 453.123 116.01 453.807 116.439C454.497 116.863 455.021 117.455 455.379 118.217C455.743 118.979 455.926 119.841 455.926 120.805C455.926 121.046 455.913 121.384 455.887 121.82H449.129C449.161 122.25 449.285 122.641 449.5 122.992C449.721 123.337 449.998 123.607 450.33 123.803C450.669 123.998 451.02 124.096 451.385 124.096H451.551C452.007 124.096 452.387 123.982 452.693 123.754C453.006 123.52 453.211 123.214 453.309 122.836H455.887C455.724 123.513 455.438 124.105 455.027 124.613C454.624 125.115 454.103 125.505 453.465 125.785C452.833 126.059 452.111 126.195 451.297 126.195C450.464 126.195 449.686 125.98 448.963 125.551C448.24 125.115 447.664 124.503 447.234 123.715C446.805 122.927 446.596 122.022 446.609 121ZM453.406 119.818C453.387 119.434 453.283 119.099 453.094 118.812C452.905 118.52 452.658 118.295 452.352 118.139C452.046 117.982 451.71 117.904 451.346 117.904H451.189C450.825 117.904 450.49 117.982 450.184 118.139C449.878 118.295 449.63 118.52 449.441 118.812C449.253 119.099 449.148 119.434 449.129 119.818H453.406ZM460.047 122.699C460.047 123.148 460.2 123.513 460.506 123.793C460.818 124.066 461.225 124.203 461.727 124.203H461.883C462.293 124.203 462.622 124.115 462.869 123.939C463.123 123.757 463.25 123.516 463.25 123.217C463.25 122.963 463.162 122.758 462.986 122.602C462.817 122.439 462.55 122.312 462.186 122.221L460.887 121.898C459.812 121.638 459.025 121.27 458.523 120.795C458.029 120.313 457.781 119.675 457.781 118.881C457.781 118.282 457.944 117.751 458.27 117.289C458.602 116.82 459.07 116.456 459.676 116.195C460.288 115.935 460.997 115.805 461.805 115.805C462.658 115.805 463.39 115.941 464.002 116.215C464.62 116.488 465.092 116.882 465.418 117.396C465.743 117.904 465.906 118.507 465.906 119.203H463.309C463.257 118.754 463.1 118.409 462.84 118.168C462.586 117.921 462.241 117.797 461.805 117.797H461.648C461.258 117.797 460.942 117.882 460.701 118.051C460.467 118.22 460.35 118.464 460.35 118.783C460.35 119.031 460.457 119.236 460.672 119.398C460.893 119.561 461.225 119.695 461.668 119.799L463.006 120.141C463.969 120.382 464.676 120.743 465.125 121.225C465.581 121.7 465.809 122.331 465.809 123.119C465.809 123.705 465.649 124.232 465.33 124.701C465.011 125.163 464.542 125.528 463.924 125.795C463.312 126.062 462.579 126.195 461.727 126.195C460.828 126.195 460.053 126.059 459.402 125.785C458.751 125.505 458.253 125.105 457.908 124.584C457.563 124.057 457.391 123.428 457.391 122.699H460.047Z" fill="#343537"/>
<path d="M350.609 93H349.07V84.0625L346.531 86.5234V84.6016L349.406 81.7969H350.609V93ZM360.445 93H352.875V91.3047L356.492 87.8672C356.602 87.7578 356.771 87.6042 357 87.4062C357.365 87.0781 357.667 86.7865 357.906 86.5312C358.448 85.9531 358.719 85.3464 358.719 84.7109C358.719 84.3724 358.635 84.0755 358.469 83.8203C358.302 83.5599 358.076 83.3594 357.789 83.2188C357.503 83.0729 357.182 83 356.828 83H356.672C356.271 83 355.911 83.0938 355.594 83.2812C355.281 83.4635 355.036 83.7188 354.859 84.0469C354.682 84.3698 354.594 84.7344 354.594 85.1406H352.992C352.987 84.4583 353.148 83.849 353.477 83.3125C353.805 82.776 354.255 82.362 354.828 82.0703C355.406 81.7734 356.047 81.6302 356.75 81.6406C357.391 81.6302 357.982 81.7448 358.523 81.9844C359.065 82.224 359.495 82.5703 359.812 83.0234C360.13 83.4714 360.289 83.9948 360.289 84.5938C360.289 85.1615 360.177 85.6693 359.953 86.1172C359.724 86.5703 359.448 86.9792 359.125 87.3438C358.828 87.6771 358.388 88.1146 357.805 88.6562L357.664 88.7891L354.672 91.5625H360.445V93ZM364.258 91.0781V93H362.336V91.0781H364.258ZM362.336 85H364.258V86.9219H362.336V85ZM366.227 87.3984C366.227 86.1693 366.398 85.125 366.742 84.2656C367.091 83.401 367.594 82.7474 368.25 82.3047C368.911 81.862 369.703 81.6406 370.625 81.6406C371.547 81.6406 372.336 81.862 372.992 82.3047C373.654 82.7474 374.156 83.401 374.5 84.2656C374.849 85.125 375.023 86.1693 375.023 87.3984C375.023 88.6276 374.849 89.6745 374.5 90.5391C374.156 91.3984 373.654 92.0495 372.992 92.4922C372.336 92.9349 371.547 93.1562 370.625 93.1562C369.703 93.1562 368.911 92.9349 368.25 92.4922C367.594 92.0495 367.091 91.3984 366.742 90.5391C366.398 89.6745 366.227 88.6276 366.227 87.3984ZM367.789 87.3438C367.789 88.4635 367.927 89.349 368.203 90C368.474 90.6458 368.82 91.1094 369.242 91.3906C369.654 91.6615 370.089 91.7969 370.547 91.7969H370.703C371.156 91.7969 371.589 91.6615 372 91.3906C372.422 91.1094 372.768 90.6458 373.039 90C373.315 89.349 373.453 88.4635 373.453 87.3438C373.453 86.3281 373.32 85.4948 373.055 84.8438C372.789 84.1927 372.448 83.7214 372.031 83.4297C371.62 83.138 371.177 82.9948 370.703 83H370.547C370.073 82.9948 369.628 83.138 369.211 83.4297C368.794 83.7214 368.453 84.1927 368.188 84.8438C367.922 85.4948 367.789 86.3281 367.789 87.3438ZM376.82 87.3984C376.82 86.1693 376.992 85.125 377.336 84.2656C377.685 83.401 378.188 82.7474 378.844 82.3047C379.505 81.862 380.297 81.6406 381.219 81.6406C382.141 81.6406 382.93 81.862 383.586 82.3047C384.247 82.7474 384.75 83.401 385.094 84.2656C385.443 85.125 385.617 86.1693 385.617 87.3984C385.617 88.6276 385.443 89.6745 385.094 90.5391C384.75 91.3984 384.247 92.0495 383.586 92.4922C382.93 92.9349 382.141 93.1562 381.219 93.1562C380.297 93.1562 379.505 92.9349 378.844 92.4922C378.188 92.0495 377.685 91.3984 377.336 90.5391C376.992 89.6745 376.82 88.6276 376.82 87.3984ZM378.383 87.3438C378.383 88.4635 378.521 89.349 378.797 90C379.068 90.6458 379.414 91.1094 379.836 91.3906C380.247 91.6615 380.682 91.7969 381.141 91.7969H381.297C381.75 91.7969 382.182 91.6615 382.594 91.3906C383.016 91.1094 383.362 90.6458 383.633 90C383.909 89.349 384.047 88.4635 384.047 87.3438C384.047 86.3281 383.914 85.4948 383.648 84.8438C383.383 84.1927 383.042 83.7214 382.625 83.4297C382.214 83.138 381.771 82.9948 381.297 83H381.141C380.667 82.9948 380.221 83.138 379.805 83.4297C379.388 83.7214 379.047 84.1927 378.781 84.8438C378.516 85.4948 378.383 86.3281 378.383 87.3438ZM391.969 86.7109V88.0781H387.648V86.7109H391.969ZM397.719 93H396.18V84.0625L393.641 86.5234V84.6016L396.516 81.7969H397.719V93ZM407.555 93H399.984V91.3047L403.602 87.8672C403.711 87.7578 403.88 87.6042 404.109 87.4062C404.474 87.0781 404.776 86.7865 405.016 86.5312C405.557 85.9531 405.828 85.3464 405.828 84.7109C405.828 84.3724 405.745 84.0755 405.578 83.8203C405.411 83.5599 405.185 83.3594 404.898 83.2188C404.612 83.0729 404.292 83 403.938 83H403.781C403.38 83 403.021 83.0938 402.703 83.2812C402.391 83.4635 402.146 83.7188 401.969 84.0469C401.792 84.3698 401.703 84.7344 401.703 85.1406H400.102C400.096 84.4583 400.258 83.849 400.586 83.3125C400.914 82.776 401.365 82.362 401.938 82.0703C402.516 81.7734 403.156 81.6302 403.859 81.6406C404.5 81.6302 405.091 81.7448 405.633 81.9844C406.174 82.224 406.604 82.5703 406.922 83.0234C407.24 83.4714 407.398 83.9948 407.398 84.5938C407.398 85.1615 407.286 85.6693 407.062 86.1172C406.833 86.5703 406.557 86.9792 406.234 87.3438C405.938 87.6771 405.497 88.1146 404.914 88.6562L404.773 88.7891L401.781 91.5625H407.555V93ZM411.367 91.0781V93H409.445V91.0781H411.367ZM409.445 85H411.367V86.9219H409.445V85ZM413.336 87.3984C413.336 86.1693 413.508 85.125 413.852 84.2656C414.201 83.401 414.703 82.7474 415.359 82.3047C416.021 81.862 416.812 81.6406 417.734 81.6406C418.656 81.6406 419.445 81.862 420.102 82.3047C420.763 82.7474 421.266 83.401 421.609 84.2656C421.958 85.125 422.133 86.1693 422.133 87.3984C422.133 88.6276 421.958 89.6745 421.609 90.5391C421.266 91.3984 420.763 92.0495 420.102 92.4922C419.445 92.9349 418.656 93.1562 417.734 93.1562C416.812 93.1562 416.021 92.9349 415.359 92.4922C414.703 92.0495 414.201 91.3984 413.852 90.5391C413.508 89.6745 413.336 88.6276 413.336 87.3984ZM414.898 87.3438C414.898 88.4635 415.036 89.349 415.312 90C415.583 90.6458 415.93 91.1094 416.352 91.3906C416.763 91.6615 417.198 91.7969 417.656 91.7969H417.812C418.266 91.7969 418.698 91.6615 419.109 91.3906C419.531 91.1094 419.878 90.6458 420.148 90C420.424 89.349 420.562 88.4635 420.562 87.3438C420.562 86.3281 420.43 85.4948 420.164 84.8438C419.898 84.1927 419.557 83.7214 419.141 83.4297C418.729 83.138 418.286 82.9948 417.812 83H417.656C417.182 82.9948 416.737 83.138 416.32 83.4297C415.904 83.7214 415.562 84.1927 415.297 84.8438C415.031 85.4948 414.898 86.3281 414.898 87.3438ZM431.477 89.3984C431.487 90.1068 431.318 90.75 430.969 91.3281C430.62 91.901 430.143 92.3516 429.539 92.6797C428.94 93.0078 428.281 93.1667 427.562 93.1562C426.865 93.1615 426.221 93.0417 425.633 92.7969C425.049 92.5469 424.576 92.1875 424.211 91.7188C423.852 91.2448 423.651 90.6849 423.609 90.0391H425.172C425.219 90.4089 425.349 90.7266 425.562 90.9922C425.776 91.2526 426.049 91.4531 426.383 91.5938C426.716 91.7292 427.081 91.7969 427.477 91.7969H427.641C428.073 91.8021 428.464 91.7031 428.812 91.5C429.161 91.2969 429.432 91.0182 429.625 90.6641C429.823 90.3047 429.919 89.9089 429.914 89.4766C429.919 89.0859 429.823 88.7266 429.625 88.3984C429.432 88.0703 429.164 87.8125 428.82 87.625C428.482 87.4375 428.115 87.3464 427.719 87.3516H427.562C427.177 87.3516 426.802 87.4479 426.438 87.6406C426.062 87.8333 425.771 88.099 425.562 88.4375H424.008L425.367 81.7969H431.367V83.2422H426.531L425.758 86.8672C426.049 86.5807 426.396 86.3646 426.797 86.2188C427.203 86.0677 427.622 85.9922 428.055 85.9922C428.706 85.9922 429.294 86.1458 429.82 86.4531C430.346 86.7552 430.755 87.1667 431.047 87.6875C431.344 88.2083 431.487 88.7786 431.477 89.3984Z" fill="#343537"/>
<path d="M452.781 35.0703C452.896 35.6172 453.151 36.0417 453.547 36.3438C453.943 36.6458 454.44 36.7969 455.039 36.7969H455.18C455.576 36.7969 455.938 36.7214 456.266 36.5703C456.599 36.4141 456.862 36.1979 457.055 35.9219C457.247 35.6406 457.344 35.3203 457.344 34.9609C457.344 34.5859 457.255 34.2552 457.078 33.9688C456.906 33.6823 456.664 33.4609 456.352 33.3047C456.044 33.1484 455.695 33.0703 455.305 33.0703H454.352V31.7266H455.305C455.68 31.7266 456.016 31.6432 456.312 31.4766C456.609 31.3047 456.841 31.0755 457.008 30.7891C457.174 30.5026 457.258 30.1875 457.258 29.8438C457.258 29.474 457.167 29.151 456.984 28.875C456.807 28.5938 456.56 28.3776 456.242 28.2266C455.93 28.0755 455.576 28 455.18 28H455.039C454.685 28 454.354 28.0781 454.047 28.2344C453.74 28.3854 453.487 28.5964 453.289 28.8672C453.096 29.138 452.984 29.4349 452.953 29.7578H451.438C451.453 29.1849 451.633 28.6589 451.977 28.1797C452.32 27.7005 452.776 27.3229 453.344 27.0469C453.917 26.7708 454.534 26.6354 455.195 26.6406C455.826 26.6302 456.419 26.7578 456.977 27.0234C457.539 27.2891 457.987 27.6484 458.32 28.1016C458.659 28.5495 458.828 29.0312 458.828 29.5469C458.828 30.276 458.648 30.8802 458.289 31.3594C457.935 31.8438 457.469 32.1745 456.891 32.3516C457.281 32.4453 457.628 32.612 457.93 32.8516C458.232 33.0911 458.469 33.3958 458.641 33.7656C458.818 34.1354 458.906 34.5599 458.906 35.0391C458.917 35.6172 458.755 36.1458 458.422 36.625C458.089 37.1042 457.63 37.4818 457.047 37.7578C456.464 38.0339 455.82 38.1667 455.117 38.1562C454.404 38.1562 453.763 38.0312 453.195 37.7812C452.633 37.526 452.18 37.1667 451.836 36.7031C451.497 36.2396 451.294 35.6953 451.227 35.0703H452.781ZM460.75 32.3984C460.75 31.1693 460.922 30.125 461.266 29.2656C461.615 28.401 462.117 27.7474 462.773 27.3047C463.435 26.862 464.227 26.6406 465.148 26.6406C466.07 26.6406 466.859 26.862 467.516 27.3047C468.177 27.7474 468.68 28.401 469.023 29.2656C469.372 30.125 469.547 31.1693 469.547 32.3984C469.547 33.6276 469.372 34.6745 469.023 35.5391C468.68 36.3984 468.177 37.0495 467.516 37.4922C466.859 37.9349 466.07 38.1562 465.148 38.1562C464.227 38.1562 463.435 37.9349 462.773 37.4922C462.117 37.0495 461.615 36.3984 461.266 35.5391C460.922 34.6745 460.75 33.6276 460.75 32.3984ZM462.312 32.3438C462.312 33.4635 462.451 34.349 462.727 35C462.997 35.6458 463.344 36.1094 463.766 36.3906C464.177 36.6615 464.612 36.7969 465.07 36.7969H465.227C465.68 36.7969 466.112 36.6615 466.523 36.3906C466.945 36.1094 467.292 35.6458 467.562 35C467.839 34.349 467.977 33.4635 467.977 32.3438C467.977 31.3281 467.844 30.4948 467.578 29.8438C467.312 29.1927 466.971 28.7214 466.555 28.4297C466.143 28.138 465.701 27.9948 465.227 28H465.07C464.596 27.9948 464.151 28.138 463.734 28.4297C463.318 28.7214 462.977 29.1927 462.711 29.8438C462.445 30.4948 462.312 31.3281 462.312 32.3438ZM471.344 32.3984C471.344 31.1693 471.516 30.125 471.859 29.2656C472.208 28.401 472.711 27.7474 473.367 27.3047C474.029 26.862 474.82 26.6406 475.742 26.6406C476.664 26.6406 477.453 26.862 478.109 27.3047C478.771 27.7474 479.273 28.401 479.617 29.2656C479.966 30.125 480.141 31.1693 480.141 32.3984C480.141 33.6276 479.966 34.6745 479.617 35.5391C479.273 36.3984 478.771 37.0495 478.109 37.4922C477.453 37.9349 476.664 38.1562 475.742 38.1562C474.82 38.1562 474.029 37.9349 473.367 37.4922C472.711 37.0495 472.208 36.3984 471.859 35.5391C471.516 34.6745 471.344 33.6276 471.344 32.3984ZM472.906 32.3438C472.906 33.4635 473.044 34.349 473.32 35C473.591 35.6458 473.938 36.1094 474.359 36.3906C474.771 36.6615 475.206 36.7969 475.664 36.7969H475.82C476.273 36.7969 476.706 36.6615 477.117 36.3906C477.539 36.1094 477.885 35.6458 478.156 35C478.432 34.349 478.57 33.4635 478.57 32.3438C478.57 31.3281 478.438 30.4948 478.172 29.8438C477.906 29.1927 477.565 28.7214 477.148 28.4297C476.737 28.138 476.294 27.9948 475.82 28H475.664C475.19 27.9948 474.745 28.138 474.328 28.4297C473.911 28.7214 473.57 29.1927 473.305 29.8438C473.039 30.4948 472.906 31.3281 472.906 32.3438ZM481.711 34.5625V33.2031H484.883V30H486.445V33.2031H489.617V34.5625H486.445V37.7578H484.883V34.5625H481.711ZM504.867 38H503.414V31.2812L500.852 38H499.383L496.82 31.2812V38H495.398V30H497.75L500.172 36.3906L502.594 30H504.867V38ZM506.789 33.9844C506.779 33.1354 506.945 32.3958 507.289 31.7656C507.638 31.1354 508.099 30.6562 508.672 30.3281C509.245 29.9948 509.859 29.8333 510.516 29.8438C511.188 29.8333 511.781 29.9792 512.297 30.2812C512.818 30.5781 513.219 30.9948 513.5 31.5312C513.781 32.0677 513.919 32.6771 513.914 33.3594V34.2422H508.312C508.333 34.7891 508.456 35.2656 508.68 35.6719C508.904 36.0729 509.182 36.3776 509.516 36.5859C509.854 36.7891 510.198 36.888 510.547 36.8828H510.68C511.091 36.8828 511.458 36.776 511.781 36.5625C512.099 36.3438 512.297 36.0339 512.375 35.6328H513.891C513.797 36.1536 513.591 36.6042 513.273 36.9844C512.956 37.3646 512.557 37.6562 512.078 37.8594C511.604 38.0573 511.083 38.1562 510.516 38.1562C509.839 38.1562 509.214 37.9922 508.641 37.6641C508.068 37.3307 507.612 36.849 507.273 36.2188C506.94 35.5885 506.779 34.8438 506.789 33.9844ZM512.391 33.0391C512.359 32.388 512.174 31.9062 511.836 31.5938C511.503 31.276 511.086 31.1172 510.586 31.1172H510.453C509.99 31.1172 509.565 31.2734 509.18 31.5859C508.799 31.888 508.542 32.3724 508.406 33.0391H512.391ZM518.875 31.25V38H517.352V31.25H514.766V30H521.469V31.25H518.875ZM524.43 30V31.1172C524.56 30.8776 524.766 30.6615 525.047 30.4688C525.333 30.276 525.659 30.125 526.023 30.0156C526.388 29.901 526.753 29.8438 527.117 29.8438C527.773 29.8438 528.359 30.013 528.875 30.3516C529.396 30.6901 529.799 31.1745 530.086 31.8047C530.372 32.4297 530.513 33.1615 530.508 34C530.518 34.8281 530.367 35.5573 530.055 36.1875C529.742 36.8177 529.312 37.3047 528.766 37.6484C528.219 37.987 527.615 38.1562 526.953 38.1562C526.375 38.1562 525.862 38.0365 525.414 37.7969C524.961 37.5521 524.633 37.2474 524.43 36.8828V41.2031H522.914V30H524.43ZM524.43 34C524.424 34.5938 524.526 35.1094 524.734 35.5469C524.948 35.9844 525.229 36.3177 525.578 36.5469C525.927 36.776 526.297 36.888 526.688 36.8828H526.812C527.234 36.8828 527.609 36.7708 527.938 36.5469C528.266 36.3229 528.523 35.9948 528.711 35.5625C528.898 35.1302 528.992 34.6094 528.992 34C528.992 33.3906 528.898 32.8698 528.711 32.4375C528.523 32.0052 528.266 31.6771 527.938 31.4531C527.609 31.2292 527.234 31.1172 526.812 31.1172H526.688C526.297 31.112 525.927 31.224 525.578 31.4531C525.229 31.6823 524.948 32.0156 524.734 32.4531C524.526 32.8906 524.424 33.4062 524.43 34ZM539.688 38H538.172V31.6328L534.523 38H532.461V30H533.977V36.3984L537.688 30H539.688V38ZM543.617 35.5234V38H542.102V30H543.617V33.8281L547.297 30H549.188L546 33.1641L549.344 38H547.523L544.914 34.2344L543.617 35.5234Z" fill="#343537"/>
<path d="M82.3076 216H80.9609V208.18L78.7393 210.333V208.651L81.2549 206.197H82.3076V216ZM90.9141 216H84.29V214.517L87.4551 211.509C87.5508 211.413 87.6989 211.279 87.8994 211.105C88.2184 210.818 88.4827 210.563 88.6924 210.34C89.1663 209.834 89.4033 209.303 89.4033 208.747C89.4033 208.451 89.3304 208.191 89.1846 207.968C89.0387 207.74 88.8405 207.564 88.5898 207.441C88.3392 207.314 88.0589 207.25 87.749 207.25H87.6123C87.2614 207.25 86.9469 207.332 86.6689 207.496C86.3955 207.656 86.1813 207.879 86.0264 208.166C85.8714 208.449 85.7939 208.768 85.7939 209.123H84.3926C84.388 208.526 84.5293 207.993 84.8164 207.523C85.1035 207.054 85.4977 206.692 85.999 206.437C86.5049 206.177 87.0654 206.051 87.6807 206.061C88.2412 206.051 88.7585 206.152 89.2324 206.361C89.7064 206.571 90.0824 206.874 90.3604 207.271C90.6383 207.662 90.7773 208.12 90.7773 208.645C90.7773 209.141 90.6794 209.586 90.4834 209.978C90.2829 210.374 90.0413 210.732 89.7588 211.051C89.499 211.342 89.1139 211.725 88.6035 212.199L88.4805 212.315L85.8623 214.742H90.9141V216ZM94.25 214.318V216H92.5684V214.318H94.25ZM92.5684 209H94.25V210.682H92.5684V209ZM95.9727 211.099C95.9727 210.023 96.123 209.109 96.4238 208.357C96.7292 207.601 97.1689 207.029 97.7432 206.642C98.3219 206.254 99.0146 206.061 99.8213 206.061C100.628 206.061 101.318 206.254 101.893 206.642C102.471 207.029 102.911 207.601 103.212 208.357C103.517 209.109 103.67 210.023 103.67 211.099C103.67 212.174 103.517 213.09 103.212 213.847C102.911 214.599 102.471 215.168 101.893 215.556C101.318 215.943 100.628 216.137 99.8213 216.137C99.0146 216.137 98.3219 215.943 97.7432 215.556C97.1689 215.168 96.7292 214.599 96.4238 213.847C96.123 213.09 95.9727 212.174 95.9727 211.099ZM97.3398 211.051C97.3398 212.031 97.4606 212.805 97.7021 213.375C97.9391 213.94 98.2422 214.346 98.6113 214.592C98.9714 214.829 99.3519 214.947 99.7529 214.947H99.8896C100.286 214.947 100.664 214.829 101.024 214.592C101.394 214.346 101.697 213.94 101.934 213.375C102.175 212.805 102.296 212.031 102.296 211.051C102.296 210.162 102.18 209.433 101.947 208.863C101.715 208.294 101.416 207.881 101.052 207.626C100.692 207.371 100.304 207.245 99.8896 207.25H99.7529C99.3382 207.245 98.9486 207.371 98.584 207.626C98.2194 207.881 97.9209 208.294 97.6885 208.863C97.4561 209.433 97.3398 210.162 97.3398 211.051ZM105.242 211.099C105.242 210.023 105.393 209.109 105.693 208.357C105.999 207.601 106.438 207.029 107.013 206.642C107.591 206.254 108.284 206.061 109.091 206.061C109.897 206.061 110.588 206.254 111.162 206.642C111.741 207.029 112.181 207.601 112.481 208.357C112.787 209.109 112.939 210.023 112.939 211.099C112.939 212.174 112.787 213.09 112.481 213.847C112.181 214.599 111.741 215.168 111.162 215.556C110.588 215.943 109.897 216.137 109.091 216.137C108.284 216.137 107.591 215.943 107.013 215.556C106.438 215.168 105.999 214.599 105.693 213.847C105.393 213.09 105.242 212.174 105.242 211.099ZM106.609 211.051C106.609 212.031 106.73 212.805 106.972 213.375C107.209 213.94 107.512 214.346 107.881 214.592C108.241 214.829 108.621 214.947 109.022 214.947H109.159C109.556 214.947 109.934 214.829 110.294 214.592C110.663 214.346 110.966 213.94 111.203 213.375C111.445 212.805 111.565 212.031 111.565 211.051C111.565 210.162 111.449 209.433 111.217 208.863C110.984 208.294 110.686 207.881 110.321 207.626C109.961 207.371 109.574 207.245 109.159 207.25H109.022C108.608 207.245 108.218 207.371 107.854 207.626C107.489 207.881 107.19 208.294 106.958 208.863C106.726 209.433 106.609 210.162 106.609 211.051Z" fill="#343537"/>
<path d="M182.375 216H181.028V208.18L178.807 210.333V208.651L181.322 206.197H182.375V216ZM190.981 216H184.357V214.517L187.522 211.509C187.618 211.413 187.766 211.279 187.967 211.105C188.286 210.818 188.55 210.563 188.76 210.34C189.234 209.834 189.471 209.303 189.471 208.747C189.471 208.451 189.398 208.191 189.252 207.968C189.106 207.74 188.908 207.564 188.657 207.441C188.407 207.314 188.126 207.25 187.816 207.25H187.68C187.329 207.25 187.014 207.332 186.736 207.496C186.463 207.656 186.249 207.879 186.094 208.166C185.939 208.449 185.861 208.768 185.861 209.123H184.46C184.455 208.526 184.597 207.993 184.884 207.523C185.171 207.054 185.565 206.692 186.066 206.437C186.572 206.177 187.133 206.051 187.748 206.061C188.309 206.051 188.826 206.152 189.3 206.361C189.774 206.571 190.15 206.874 190.428 207.271C190.706 207.662 190.845 208.12 190.845 208.645C190.845 209.141 190.747 209.586 190.551 209.978C190.35 210.374 190.109 210.732 189.826 211.051C189.566 211.342 189.181 211.725 188.671 212.199L188.548 212.315L185.93 214.742H190.981V216ZM194.317 214.318V216H192.636V214.318H194.317ZM192.636 209H194.317V210.682H192.636V209ZM196.04 211.099C196.04 210.023 196.19 209.109 196.491 208.357C196.797 207.601 197.236 207.029 197.811 206.642C198.389 206.254 199.082 206.061 199.889 206.061C200.695 206.061 201.386 206.254 201.96 206.642C202.539 207.029 202.979 207.601 203.279 208.357C203.585 209.109 203.737 210.023 203.737 211.099C203.737 212.174 203.585 213.09 203.279 213.847C202.979 214.599 202.539 215.168 201.96 215.556C201.386 215.943 200.695 216.137 199.889 216.137C199.082 216.137 198.389 215.943 197.811 215.556C197.236 215.168 196.797 214.599 196.491 213.847C196.19 213.09 196.04 212.174 196.04 211.099ZM197.407 211.051C197.407 212.031 197.528 212.805 197.77 213.375C198.007 213.94 198.31 214.346 198.679 214.592C199.039 214.829 199.419 214.947 199.82 214.947H199.957C200.354 214.947 200.732 214.829 201.092 214.592C201.461 214.346 201.764 213.94 202.001 213.375C202.243 212.805 202.363 212.031 202.363 211.051C202.363 210.162 202.247 209.433 202.015 208.863C201.782 208.294 201.484 207.881 201.119 207.626C200.759 207.371 200.372 207.245 199.957 207.25H199.82C199.406 207.245 199.016 207.371 198.651 207.626C198.287 207.881 197.988 208.294 197.756 208.863C197.523 209.433 197.407 210.162 197.407 211.051ZM211.913 212.849C211.922 213.468 211.774 214.031 211.469 214.537C211.163 215.038 210.746 215.433 210.218 215.72C209.694 216.007 209.117 216.146 208.488 216.137C207.878 216.141 207.315 216.036 206.8 215.822C206.289 215.604 205.875 215.289 205.556 214.879C205.241 214.464 205.066 213.974 205.029 213.409H206.396C206.438 213.733 206.551 214.011 206.738 214.243C206.925 214.471 207.164 214.646 207.456 214.77C207.748 214.888 208.067 214.947 208.413 214.947H208.557C208.935 214.952 209.277 214.865 209.582 214.688C209.887 214.51 210.124 214.266 210.293 213.956C210.466 213.642 210.55 213.295 210.546 212.917C210.55 212.575 210.466 212.261 210.293 211.974C210.124 211.687 209.89 211.461 209.589 211.297C209.293 211.133 208.971 211.053 208.625 211.058H208.488C208.151 211.058 207.823 211.142 207.504 211.311C207.176 211.479 206.921 211.712 206.738 212.008H205.378L206.567 206.197H211.817V207.462H207.586L206.909 210.634C207.164 210.383 207.467 210.194 207.818 210.066C208.174 209.934 208.541 209.868 208.919 209.868C209.489 209.868 210.004 210.003 210.464 210.271C210.924 210.536 211.282 210.896 211.537 211.352C211.797 211.807 211.922 212.306 211.913 212.849Z" fill="#343537"/>
<path d="M337 63L337 52L663 52L663 63" stroke="#343537" stroke-linecap="round"/>
<path d="M195 188L195 199L97 199L97 188" stroke="#FB607F" stroke-linecap="round"/>
<path d="M146 205L146 199" stroke="#FB607F" stroke-linecap="round"/>
<path d="M0.273438 8.24219V6.79688H9.875V8.24219H5.875V18H4.27344V8.24219H0.273438ZM11.3281 10V11.7578C11.4323 11.3776 11.599 11.0495 11.8281 10.7734C12.0573 10.4922 12.3281 10.2812 12.6406 10.1406C12.9583 9.99479 13.2943 9.92188 13.6484 9.92188H14.3672V11.3906H13.7266C13.2526 11.3906 12.8411 11.4948 12.4922 11.7031C12.1432 11.9062 11.875 12.2005 11.6875 12.5859C11.5 12.9714 11.4062 13.4271 11.4062 13.9531V18H9.89062V10H11.3281ZM20.5469 18C20.4948 17.7448 20.4688 17.3177 20.4688 16.7188C20.3594 16.974 20.1797 17.2109 19.9297 17.4297C19.6797 17.6484 19.3776 17.8255 19.0234 17.9609C18.6745 18.0911 18.3021 18.1562 17.9062 18.1562C17.4219 18.1615 16.9766 18.0625 16.5703 17.8594C16.1693 17.6562 15.8516 17.375 15.6172 17.0156C15.3828 16.6562 15.2656 16.2604 15.2656 15.8281C15.2656 14.9844 15.5495 14.3698 16.1172 13.9844C16.6797 13.6094 17.3672 13.3854 18.1797 13.3125L20.3906 13.1406V12.8828C20.3906 12.3255 20.2422 11.8932 19.9453 11.5859C19.6536 11.2734 19.2474 11.1172 18.7266 11.1172H18.5938C18.1458 11.1172 17.7708 11.224 17.4688 11.4375C17.1667 11.6458 16.9922 11.9401 16.9453 12.3203H15.4297C15.4505 11.8464 15.6042 11.4193 15.8906 11.0391C16.1823 10.6589 16.5703 10.3646 17.0547 10.1562C17.5391 9.94271 18.0729 9.83854 18.6562 9.84375C19.3229 9.83854 19.9036 9.97135 20.3984 10.2422C20.8932 10.513 21.2682 10.8828 21.5234 11.3516C21.7839 11.8151 21.9115 12.3255 21.9062 12.8828V16.2422C21.9062 17.0547 21.9323 17.6406 21.9844 18H20.5469ZM16.7891 15.7266C16.7891 15.9453 16.8438 16.1432 16.9531 16.3203C17.0677 16.4922 17.224 16.6302 17.4219 16.7344C17.6198 16.8333 17.8411 16.8828 18.0859 16.8828H18.2109C18.5286 16.888 18.8594 16.8073 19.2031 16.6406C19.5521 16.4688 19.8385 16.2448 20.0625 15.9688C20.2917 15.6927 20.401 15.4089 20.3906 15.1172V14.3125L18.3906 14.4609C17.901 14.5078 17.5104 14.6432 17.2188 14.8672C16.9323 15.0859 16.7891 15.3724 16.7891 15.7266ZM23.7656 14C23.7552 13.1719 23.9062 12.4427 24.2188 11.8125C24.5365 11.1823 24.9688 10.6979 25.5156 10.3594C26.0625 10.0156 26.6667 9.84375 27.3281 9.84375C27.9062 9.84375 28.4167 9.96354 28.8594 10.2031C29.3125 10.4427 29.6406 10.7474 29.8438 11.1172V6.79688H31.3672V18H29.8438V16.8828C29.7135 17.1172 29.5078 17.3333 29.2266 17.5312C28.9453 17.724 28.6224 17.8776 28.2578 17.9922C27.8932 18.1016 27.5286 18.1562 27.1641 18.1562C26.5078 18.1562 25.9193 17.987 25.3984 17.6484C24.8828 17.3099 24.4792 16.8281 24.1875 16.2031C23.901 15.5729 23.7604 14.8385 23.7656 14ZM25.2891 14C25.2891 14.6094 25.3828 15.1302 25.5703 15.5625C25.7578 15.9948 26.0156 16.3229 26.3438 16.5469C26.6719 16.7708 27.0443 16.8828 27.4609 16.8828H27.5938C27.9896 16.888 28.3594 16.776 28.7031 16.5469C29.0521 16.3177 29.3307 15.9844 29.5391 15.5469C29.7474 15.1094 29.849 14.5938 29.8438 14C29.849 13.4062 29.7474 12.8906 29.5391 12.4531C29.3307 12.0156 29.0521 11.6823 28.7031 11.4531C28.3594 11.224 27.9896 11.112 27.5938 11.1172H27.4609C27.0443 11.1172 26.6719 11.2292 26.3438 11.4531C26.0156 11.6771 25.7578 12.0052 25.5703 12.4375C25.3828 12.8698 25.2891 13.3906 25.2891 14ZM33.2969 13.9844C33.2865 13.1354 33.4531 12.3958 33.7969 11.7656C34.1458 11.1354 34.6068 10.6562 35.1797 10.3281C35.7526 9.99479 36.3672 9.83333 37.0234 9.84375C37.6953 9.83333 38.2891 9.97917 38.8047 10.2812C39.3255 10.5781 39.7266 10.9948 40.0078 11.5312C40.2891 12.0677 40.4271 12.6771 40.4219 13.3594V14.2422H34.8203C34.8411 14.7891 34.9635 15.2656 35.1875 15.6719C35.4115 16.0729 35.6901 16.3776 36.0234 16.5859C36.362 16.7891 36.7057 16.888 37.0547 16.8828H37.1875C37.599 16.8828 37.9661 16.776 38.2891 16.5625C38.6068 16.3438 38.8047 16.0339 38.8828 15.6328H40.3984C40.3047 16.1536 40.099 16.6042 39.7812 16.9844C39.4635 17.3646 39.0651 17.6562 38.5859 17.8594C38.112 18.0573 37.5911 18.1562 37.0234 18.1562C36.3464 18.1562 35.7214 17.9922 35.1484 17.6641C34.5755 17.3307 34.1198 16.849 33.7812 16.2188C33.4479 15.5885 33.2865 14.8438 33.2969 13.9844ZM38.8984 13.0391C38.8672 12.388 38.6823 11.9062 38.3438 11.5938C38.0104 11.276 37.5938 11.1172 37.0938 11.1172H36.9609C36.4974 11.1172 36.0729 11.2734 35.6875 11.5859C35.3073 11.888 35.0495 12.3724 34.9141 13.0391H38.8984ZM43.2969 15.5234C43.3385 15.9714 43.5156 16.3099 43.8281 16.5391C44.1458 16.7682 44.5625 16.8828 45.0781 16.8828H45.2031C45.6302 16.8828 45.9844 16.7891 46.2656 16.6016C46.5521 16.4089 46.6953 16.1562 46.6953 15.8438C46.6953 15.5677 46.6094 15.3464 46.4375 15.1797C46.2656 15.013 45.987 14.8906 45.6016 14.8125L44.4375 14.5938C43.7396 14.4531 43.1719 14.1979 42.7344 13.8281C42.3125 13.4531 42.1016 12.9323 42.1016 12.2656C42.1016 11.776 42.237 11.349 42.5078 10.9844C42.7839 10.6146 43.151 10.3333 43.6094 10.1406C44.0677 9.94271 44.5651 9.84375 45.1016 9.84375C45.7786 9.84375 46.3568 9.95573 46.8359 10.1797C47.3151 10.3984 47.6771 10.7057 47.9219 11.1016C48.1667 11.4974 48.2891 11.9557 48.2891 12.4766H46.7734C46.7266 12.0651 46.5703 11.737 46.3047 11.4922C46.0391 11.2422 45.6719 11.1172 45.2031 11.1172H45.0781C44.7917 11.1172 44.5365 11.1641 44.3125 11.2578C44.0938 11.3464 43.9219 11.4688 43.7969 11.625C43.6771 11.7812 43.6172 11.9531 43.6172 12.1406C43.6172 12.4219 43.7031 12.6432 43.875 12.8047C44.0521 12.9661 44.3411 13.0885 44.7422 13.1719L46 13.4219C46.6719 13.5521 47.2083 13.8073 47.6094 14.1875C48.0104 14.5677 48.2109 15.1042 48.2109 15.7969C48.2109 16.2552 48.0755 16.6667 47.8047 17.0312C47.5339 17.3906 47.1589 17.6693 46.6797 17.8672C46.2005 18.0651 45.6615 18.1615 45.0625 18.1562C44.375 18.1562 43.7839 18.0469 43.2891 17.8281C42.7995 17.6042 42.4245 17.2943 42.1641 16.8984C41.9089 16.4974 41.7812 16.0391 41.7812 15.5234H43.2969Z" fill="#343537"/>
<path fill-rule="evenodd" clip-rule="evenodd" d="M221 23.7321C221 22.9623 221.833 22.4811 222.5 22.866L239.5 32.681C240.167 33.0659 240.167 34.0281 239.5 34.413L222.5 44.228C221.833 44.6129 221 44.1318 221 43.362V35.547H2C0.89543 35.547 0 34.6516 0 33.547C0 32.4424 0.89543 31.547 2 31.547H221V23.7321Z" fill="#FFEBEF"/>
<path d="M0.78125 76.3984C0.770833 75.2474 0.992188 74.2344 1.44531 73.3594C1.90365 72.4844 2.53646 71.8099 3.34375 71.3359C4.15104 70.862 5.05729 70.6302 6.0625 70.6406C7.06771 70.6302 7.97396 70.862 8.78125 71.3359C9.58854 71.8099 10.2188 72.4844 10.6719 73.3594C11.1302 74.2344 11.3542 75.2474 11.3438 76.3984C11.3542 77.5495 11.1302 78.5625 10.6719 79.4375C10.2188 80.3125 9.58854 80.987 8.78125 81.4609C7.97396 81.9349 7.06771 82.1667 6.0625 82.1562C5.05729 82.1667 4.15104 81.9349 3.34375 81.4609C2.53646 80.987 1.90365 80.3125 1.44531 79.4375C0.992188 78.5625 0.770833 77.5495 0.78125 76.3984ZM2.38281 76.3984C2.3724 77.263 2.52083 78.026 2.82812 78.6875C3.14062 79.3438 3.57292 79.849 4.125 80.2031C4.67708 80.5521 5.29688 80.724 5.98438 80.7188H6.14062C6.83333 80.7292 7.45312 80.5573 8 80.2031C8.55208 79.849 8.98177 79.3438 9.28906 78.6875C9.59635 78.0312 9.7474 77.2682 9.74219 76.3984C9.7474 75.5286 9.59635 74.7656 9.28906 74.1094C8.98177 73.4531 8.55208 72.9479 8 72.5938C7.45312 72.2396 6.83333 72.0677 6.14062 72.0781H5.98438C5.29688 72.0729 4.67708 72.2474 4.125 72.6016C3.57292 72.9505 3.14062 73.4557 2.82812 74.1172C2.52083 74.7734 2.3724 75.5339 2.38281 76.3984ZM14.7656 74V75.7578C14.8698 75.3776 15.0365 75.0495 15.2656 74.7734C15.4948 74.4922 15.7656 74.2812 16.0781 74.1406C16.3958 73.9948 16.7318 73.9219 17.0859 73.9219H17.8047V75.3906H17.1641C16.6901 75.3906 16.2786 75.4948 15.9297 75.7031C15.5807 75.9062 15.3125 76.2005 15.125 76.5859C14.9375 76.9714 14.8438 77.4271 14.8438 77.9531V82H13.3281V74H14.7656ZM18.6406 78C18.6302 77.1719 18.7812 76.4427 19.0938 75.8125C19.4115 75.1823 19.8438 74.6979 20.3906 74.3594C20.9375 74.0156 21.5417 73.8438 22.2031 73.8438C22.7812 73.8438 23.2917 73.9635 23.7344 74.2031C24.1875 74.4427 24.5156 74.7474 24.7188 75.1172V70.7969H26.2422V82H24.7188V80.8828C24.5885 81.1172 24.3828 81.3333 24.1016 81.5312C23.8203 81.724 23.4974 81.8776 23.1328 81.9922C22.7682 82.1016 22.4036 82.1562 22.0391 82.1562C21.3828 82.1562 20.7943 81.987 20.2734 81.6484C19.7578 81.3099 19.3542 80.8281 19.0625 80.2031C18.776 79.5729 18.6354 78.8385 18.6406 78ZM20.1641 78C20.1641 78.6094 20.2578 79.1302 20.4453 79.5625C20.6328 79.9948 20.8906 80.3229 21.2188 80.5469C21.5469 80.7708 21.9193 80.8828 22.3359 80.8828H22.4688C22.8646 80.888 23.2344 80.776 23.5781 80.5469C23.9271 80.3177 24.2057 79.9844 24.4141 79.5469C24.6224 79.1094 24.724 78.5938 24.7188 78C24.724 77.4062 24.6224 76.8906 24.4141 76.4531C24.2057 76.0156 23.9271 75.6823 23.5781 75.4531C23.2344 75.224 22.8646 75.112 22.4688 75.1172H22.3359C21.9193 75.1172 21.5469 75.2292 21.2188 75.4531C20.8906 75.6771 20.6328 76.0052 20.4453 76.4375C20.2578 76.8698 20.1641 77.3906 20.1641 78ZM28.1719 77.9844C28.1615 77.1354 28.3281 76.3958 28.6719 75.7656C29.0208 75.1354 29.4818 74.6562 30.0547 74.3281C30.6276 73.9948 31.2422 73.8333 31.8984 73.8438C32.5703 73.8333 33.1641 73.9792 33.6797 74.2812C34.2005 74.5781 34.6016 74.9948 34.8828 75.5312C35.1641 76.0677 35.3021 76.6771 35.2969 77.3594V78.2422H29.6953C29.7161 78.7891 29.8385 79.2656 30.0625 79.6719C30.2865 80.0729 30.5651 80.3776 30.8984 80.5859C31.237 80.7891 31.5807 80.888 31.9297 80.8828H32.0625C32.474 80.8828 32.8411 80.776 33.1641 80.5625C33.4818 80.3438 33.6797 80.0339 33.7578 79.6328H35.2734C35.1797 80.1536 34.974 80.6042 34.6562 80.9844C34.3385 81.3646 33.9401 81.6562 33.4609 81.8594C32.987 82.0573 32.4661 82.1562 31.8984 82.1562C31.2214 82.1562 30.5964 81.9922 30.0234 81.6641C29.4505 81.3307 28.9948 80.849 28.6562 80.2188C28.3229 79.5885 28.1615 78.8438 28.1719 77.9844ZM33.7734 77.0391C33.7422 76.388 33.5573 75.9062 33.2188 75.5938C32.8854 75.276 32.4688 75.1172 31.9688 75.1172H31.8359C31.3724 75.1172 30.9479 75.2734 30.5625 75.5859C30.1823 75.888 29.9245 76.3724 29.7891 77.0391H33.7734ZM38.7031 74V75.7578C38.8073 75.3776 38.974 75.0495 39.2031 74.7734C39.4323 74.4922 39.7031 74.2812 40.0156 74.1406C40.3333 73.9948 40.6693 73.9219 41.0234 73.9219H41.7422V75.3906H41.1016C40.6276 75.3906 40.2161 75.4948 39.8672 75.7031C39.5182 75.9062 39.25 76.2005 39.0625 76.5859C38.875 76.9714 38.7812 77.4271 38.7812 77.9531V82H37.2656V74H38.7031ZM44.0781 79.5234C44.1198 79.9714 44.2969 80.3099 44.6094 80.5391C44.9271 80.7682 45.3438 80.8828 45.8594 80.8828H45.9844C46.4115 80.8828 46.7656 80.7891 47.0469 80.6016C47.3333 80.4089 47.4766 80.1562 47.4766 79.8438C47.4766 79.5677 47.3906 79.3464 47.2188 79.1797C47.0469 79.013 46.7682 78.8906 46.3828 78.8125L45.2188 78.5938C44.5208 78.4531 43.9531 78.1979 43.5156 77.8281C43.0938 77.4531 42.8828 76.9323 42.8828 76.2656C42.8828 75.776 43.0182 75.349 43.2891 74.9844C43.5651 74.6146 43.9323 74.3333 44.3906 74.1406C44.849 73.9427 45.3464 73.8438 45.8828 73.8438C46.5599 73.8438 47.138 73.9557 47.6172 74.1797C48.0964 74.3984 48.4583 74.7057 48.7031 75.1016C48.9479 75.4974 49.0703 75.9557 49.0703 76.4766H47.5547C47.5078 76.0651 47.3516 75.737 47.0859 75.4922C46.8203 75.2422 46.4531 75.1172 45.9844 75.1172H45.8594C45.5729 75.1172 45.3177 75.1641 45.0938 75.2578C44.875 75.3464 44.7031 75.4688 44.5781 75.625C44.4583 75.7812 44.3984 75.9531 44.3984 76.1406C44.3984 76.4219 44.4844 76.6432 44.6562 76.8047C44.8333 76.9661 45.1224 77.0885 45.5234 77.1719L46.7812 77.4219C47.4531 77.5521 47.9896 77.8073 48.3906 78.1875C48.7917 78.5677 48.9922 79.1042 48.9922 79.7969C48.9922 80.2552 48.8568 80.6667 48.5859 81.0312C48.3151 81.3906 47.9401 81.6693 47.4609 81.8672C46.9818 82.0651 46.4427 82.1615 45.8438 82.1562C45.1562 82.1562 44.5651 82.0469 44.0703 81.8281C43.5807 81.6042 43.2057 81.2943 42.9453 80.8984C42.6901 80.4974 42.5625 80.0391 42.5625 79.5234H44.0781Z" fill="#343537"/>
<path fill-rule="evenodd" clip-rule="evenodd" d="M221 87.7321C221 86.9623 221.833 86.4811 222.5 86.866L239.5 96.681C240.167 97.0659 240.167 98.0281 239.5 98.413L222.5 108.228C221.833 108.613 221 108.132 221 107.362V99.547H2C0.89543 99.547 0 98.6516 0 97.547C0 96.4424 0.89543 95.547 2 95.547H221V87.7321Z" fill="#FFCCD8"/>
<path d="M0.78125 143.398C0.770833 142.247 0.992188 141.234 1.44531 140.359C1.90365 139.484 2.53646 138.81 3.34375 138.336C4.15104 137.862 5.05729 137.63 6.0625 137.641C7.06771 137.63 7.97396 137.862 8.78125 138.336C9.58854 138.81 10.2188 139.484 10.6719 140.359C11.1302 141.234 11.3542 142.247 11.3438 143.398C11.3542 144.549 11.1302 145.562 10.6719 146.438C10.2188 147.312 9.58854 147.987 8.78125 148.461C7.97396 148.935 7.06771 149.167 6.0625 149.156C5.05729 149.167 4.15104 148.935 3.34375 148.461C2.53646 147.987 1.90365 147.312 1.44531 146.438C0.992188 145.562 0.770833 144.549 0.78125 143.398ZM2.38281 143.398C2.3724 144.263 2.52083 145.026 2.82812 145.688C3.14062 146.344 3.57292 146.849 4.125 147.203C4.67708 147.552 5.29688 147.724 5.98438 147.719H6.14062C6.83333 147.729 7.45312 147.557 8 147.203C8.55208 146.849 8.98177 146.344 9.28906 145.688C9.59635 145.031 9.7474 144.268 9.74219 143.398C9.7474 142.529 9.59635 141.766 9.28906 141.109C8.98177 140.453 8.55208 139.948 8 139.594C7.45312 139.24 6.83333 139.068 6.14062 139.078H5.98438C5.29688 139.073 4.67708 139.247 4.125 139.602C3.57292 139.951 3.14062 140.456 2.82812 141.117C2.52083 141.773 2.3724 142.534 2.38281 143.398ZM14.7656 141V142.758C14.8698 142.378 15.0365 142.049 15.2656 141.773C15.4948 141.492 15.7656 141.281 16.0781 141.141C16.3958 140.995 16.7318 140.922 17.0859 140.922H17.8047V142.391H17.1641C16.6901 142.391 16.2786 142.495 15.9297 142.703C15.5807 142.906 15.3125 143.201 15.125 143.586C14.9375 143.971 14.8438 144.427 14.8438 144.953V149H13.3281V141H14.7656ZM18.6406 145C18.6302 144.172 18.7812 143.443 19.0938 142.812C19.4115 142.182 19.8438 141.698 20.3906 141.359C20.9375 141.016 21.5417 140.844 22.2031 140.844C22.7812 140.844 23.2917 140.964 23.7344 141.203C24.1875 141.443 24.5156 141.747 24.7188 142.117V137.797H26.2422V149H24.7188V147.883C24.5885 148.117 24.3828 148.333 24.1016 148.531C23.8203 148.724 23.4974 148.878 23.1328 148.992C22.7682 149.102 22.4036 149.156 22.0391 149.156C21.3828 149.156 20.7943 148.987 20.2734 148.648C19.7578 148.31 19.3542 147.828 19.0625 147.203C18.776 146.573 18.6354 145.839 18.6406 145ZM20.1641 145C20.1641 145.609 20.2578 146.13 20.4453 146.562C20.6328 146.995 20.8906 147.323 21.2188 147.547C21.5469 147.771 21.9193 147.883 22.3359 147.883H22.4688C22.8646 147.888 23.2344 147.776 23.5781 147.547C23.9271 147.318 24.2057 146.984 24.4141 146.547C24.6224 146.109 24.724 145.594 24.7188 145C24.724 144.406 24.6224 143.891 24.4141 143.453C24.2057 143.016 23.9271 142.682 23.5781 142.453C23.2344 142.224 22.8646 142.112 22.4688 142.117H22.3359C21.9193 142.117 21.5469 142.229 21.2188 142.453C20.8906 142.677 20.6328 143.005 20.4453 143.438C20.2578 143.87 20.1641 144.391 20.1641 145ZM28.1719 144.984C28.1615 144.135 28.3281 143.396 28.6719 142.766C29.0208 142.135 29.4818 141.656 30.0547 141.328C30.6276 140.995 31.2422 140.833 31.8984 140.844C32.5703 140.833 33.1641 140.979 33.6797 141.281C34.2005 141.578 34.6016 141.995 34.8828 142.531C35.1641 143.068 35.3021 143.677 35.2969 144.359V145.242H29.6953C29.7161 145.789 29.8385 146.266 30.0625 146.672C30.2865 147.073 30.5651 147.378 30.8984 147.586C31.237 147.789 31.5807 147.888 31.9297 147.883H32.0625C32.474 147.883 32.8411 147.776 33.1641 147.562C33.4818 147.344 33.6797 147.034 33.7578 146.633H35.2734C35.1797 147.154 34.974 147.604 34.6562 147.984C34.3385 148.365 33.9401 148.656 33.4609 148.859C32.987 149.057 32.4661 149.156 31.8984 149.156C31.2214 149.156 30.5964 148.992 30.0234 148.664C29.4505 148.331 28.9948 147.849 28.6562 147.219C28.3229 146.589 28.1615 145.844 28.1719 144.984ZM33.7734 144.039C33.7422 143.388 33.5573 142.906 33.2188 142.594C32.8854 142.276 32.4688 142.117 31.9688 142.117H31.8359C31.3724 142.117 30.9479 142.273 30.5625 142.586C30.1823 142.888 29.9245 143.372 29.7891 144.039H33.7734ZM38.7031 141V142.758C38.8073 142.378 38.974 142.049 39.2031 141.773C39.4323 141.492 39.7031 141.281 40.0156 141.141C40.3333 140.995 40.6693 140.922 41.0234 140.922H41.7422V142.391H41.1016C40.6276 142.391 40.2161 142.495 39.8672 142.703C39.5182 142.906 39.25 143.201 39.0625 143.586C38.875 143.971 38.7812 144.427 38.7812 144.953V149H37.2656V141H38.7031ZM48.3984 137.797C48.9818 137.792 49.5182 137.914 50.0078 138.164C50.5026 138.409 50.8932 138.758 51.1797 139.211C51.4714 139.664 51.612 140.18 51.6016 140.758C51.6016 141.362 51.4375 141.888 51.1094 142.336C50.7812 142.779 50.3359 143.107 49.7734 143.32C50.4089 143.424 50.9115 143.711 51.2812 144.18C51.651 144.648 51.8359 145.26 51.8359 146.016C51.8359 146.589 51.6849 147.104 51.3828 147.562C51.0807 148.016 50.6771 148.37 50.1719 148.625C49.6719 148.88 49.1328 149.005 48.5547 149H43.5156V137.797H48.3984ZM48.2344 147.562C48.849 147.562 49.3359 147.406 49.6953 147.094C50.0547 146.781 50.2344 146.349 50.2344 145.797C50.2344 145.25 50.0547 144.82 49.6953 144.508C49.3359 144.195 48.849 144.039 48.2344 144.039H45.1172V147.562H48.2344ZM48.1562 142.602C48.7188 142.602 49.1667 142.451 49.5 142.148C49.8333 141.846 50 141.438 50 140.922C50 140.406 49.8333 139.997 49.5 139.695C49.1667 139.393 48.7188 139.242 48.1562 139.242H45.1172V142.602H48.1562ZM53.3906 145C53.3802 144.214 53.5443 143.5 53.8828 142.859C54.2266 142.219 54.6927 141.721 55.2812 141.367C55.875 141.008 56.526 140.833 57.2344 140.844C57.9375 140.833 58.5833 141.008 59.1719 141.367C59.7656 141.721 60.2318 142.219 60.5703 142.859C60.9141 143.5 61.0807 144.214 61.0703 145C61.0807 145.786 60.9141 146.5 60.5703 147.141C60.2318 147.781 59.7656 148.281 59.1719 148.641C58.5833 148.995 57.9375 149.167 57.2344 149.156C56.526 149.167 55.875 148.995 55.2812 148.641C54.6927 148.281 54.2266 147.781 53.8828 147.141C53.5443 146.5 53.3802 145.786 53.3906 145ZM54.9141 145C54.9141 145.594 55.0104 146.109 55.2031 146.547C55.3958 146.979 55.6615 147.31 56 147.539C56.3385 147.768 56.7266 147.883 57.1641 147.883H57.2969C57.7344 147.883 58.1224 147.768 58.4609 147.539C58.8047 147.31 59.0729 146.979 59.2656 146.547C59.4583 146.109 59.5547 145.594 59.5547 145C59.5547 144.406 59.4583 143.893 59.2656 143.461C59.0729 143.023 58.8047 142.69 58.4609 142.461C58.1224 142.232 57.7344 142.117 57.2969 142.117H57.1641C56.7266 142.117 56.3385 142.232 56 142.461C55.6615 142.69 55.3958 143.023 55.2031 143.461C55.0104 143.893 54.9141 144.406 54.9141 145ZM62.4844 145C62.474 144.214 62.638 143.5 62.9766 142.859C63.3203 142.219 63.7865 141.721 64.375 141.367C64.9688 141.008 65.6198 140.833 66.3281 140.844C67.0312 140.833 67.6771 141.008 68.2656 141.367C68.8594 141.721 69.3255 142.219 69.6641 142.859C70.0078 143.5 70.1745 144.214 70.1641 145C70.1745 145.786 70.0078 146.5 69.6641 147.141C69.3255 147.781 68.8594 148.281 68.2656 148.641C67.6771 148.995 67.0312 149.167 66.3281 149.156C65.6198 149.167 64.9688 148.995 64.375 148.641C63.7865 148.281 63.3203 147.781 62.9766 147.141C62.638 146.5 62.474 145.786 62.4844 145ZM64.0078 145C64.0078 145.594 64.1042 146.109 64.2969 146.547C64.4896 146.979 64.7552 147.31 65.0938 147.539C65.4323 147.768 65.8203 147.883 66.2578 147.883H66.3906C66.8281 147.883 67.2161 147.768 67.5547 147.539C67.8984 147.31 68.1667 146.979 68.3594 146.547C68.5521 146.109 68.6484 145.594 68.6484 145C68.6484 144.406 68.5521 143.893 68.3594 143.461C68.1667 143.023 67.8984 142.69 67.5547 142.461C67.2161 142.232 66.8281 142.117 66.3906 142.117H66.2578C65.8203 142.117 65.4323 142.232 65.0938 142.461C64.7552 142.69 64.4896 143.023 64.2969 143.461C64.1042 143.893 64.0078 144.406 64.0078 145ZM73.5938 146.297V149H72.0781V137.797H73.5938V144.453L77.1172 141H79.1172L75.7891 144.188L79.2734 149H77.4062L74.7109 145.227L73.5938 146.297Z" fill="#343537"/>
<path fill-rule="evenodd" clip-rule="evenodd" d="M221 154.732C221 153.962 221.833 153.481 222.5 153.866L239.5 163.681C240.167 164.066 240.167 165.028 239.5 165.413L222.5 175.228C221.833 175.613 221 175.132 221 174.362V166.547H2C0.89543 166.547 0 165.652 0 164.547C0 163.442 0.89543 162.547 2 162.547H221V154.732Z" fill="#FB607F"/>
<path d="M97 186L97 37" stroke="#8C8D8F" stroke-dasharray="2 2"/>
<path d="M195 186L195 37" stroke="#8C8D8F" stroke-dasharray="2 2"/>
<path d="M146 250L145.5 250L145.5 250.5L146 250.5L146 250ZM510 250L510 250.5L510.5 250.5L510.5 250L510 250ZM510 103.5L507.113 108.5L512.887 108.5L510 103.5ZM145.5 211L145.5 211.975L146.5 211.975L146.5 211L145.5 211ZM145.5 213.925L145.5 215.875L146.5 215.875L146.5 213.925L145.5 213.925ZM145.5 217.825L145.5 219.775L146.5 219.775L146.5 217.825L145.5 217.825ZM145.5 221.725L145.5 223.675L146.5 223.675L146.5 221.725L145.5 221.725ZM145.5 225.625L145.5 227.575L146.5 227.575L146.5 225.625L145.5 225.625ZM145.5 229.525L145.5 231.475L146.5 231.475L146.5 229.525L145.5 229.525ZM145.5 233.425L145.5 235.375L146.5 235.375L146.5 233.425L145.5 233.425ZM145.5 237.325L145.5 239.275L146.5 239.275L146.5 237.325L145.5 237.325ZM145.5 241.225L145.5 243.175L146.5 243.175L146.5 241.225L145.5 241.225ZM145.5 245.125L145.5 247.075L146.5 247.075L146.5 245.125L145.5 245.125ZM145.5 249.025L145.5 250L146.5 250L146.5 249.025L145.5 249.025ZM146 250.5L147 250.5L147 249.5L146 249.5L146 250.5ZM149 250.5L151 250.5L151 249.5L149 249.5L149 250.5ZM153 250.5L155 250.5L155 249.5L153 249.5L153 250.5ZM157 250.5L159 250.5L159 249.5L157 249.5L157 250.5ZM161 250.5L163 250.5L163 249.5L161 249.5L161 250.5ZM165 250.5L167 250.5L167 249.5L165 249.5L165 250.5ZM169 250.5L171 250.5L171 249.5L169 249.5L169 250.5ZM173 250.5L175 250.5L175 249.5L173 249.5L173 250.5ZM177 250.5L179 250.5L179 249.5L177 249.5L177 250.5ZM181 250.5L183 250.5L183 249.5L181 249.5L181 250.5ZM185 250.5L187 250.5L187 249.5L185 249.5L185 250.5ZM189 250.5L191 250.5L191 249.5L189 249.5L189 250.5ZM193 250.5L195 250.5L195 249.5L193 249.5L193 250.5ZM197 250.5L199 250.5L199 249.5L197 249.5L197 250.5ZM201 250.5L203 250.5L203 249.5L201 249.5L201 250.5ZM205 250.5L207 250.5L207 249.5L205 249.5L205 250.5ZM209 250.5L211 250.5L211 249.5L209 249.5L209 250.5ZM213 250.5L215 250.5L215 249.5L213 249.5L213 250.5ZM217 250.5L219 250.5L219 249.5L217 249.5L217 250.5ZM221 250.5L223 250.5L223 249.5L221 249.5L221 250.5ZM225 250.5L227 250.5L227 249.5L225 249.5L225 250.5ZM229 250.5L231 250.5L231 249.5L229 249.5L229 250.5ZM233 250.5L235 250.5L235 249.5L233 249.5L233 250.5ZM237 250.5L239 250.5L239 249.5L237 249.5L237 250.5ZM241 250.5L243 250.5L243 249.5L241 249.5L241 250.5ZM245 250.5L247 250.5L247 249.5L245 249.5L245 250.5ZM249 250.5L251 250.5L251 249.5L249 249.5L249 250.5ZM253 250.5L255 250.5L255 249.5L253 249.5L253 250.5ZM257 250.5L259 250.5L259 249.5L257 249.5L257 250.5ZM261 250.5L263 250.5L263 249.5L261 249.5L261 250.5ZM265 250.5L267 250.5L267 249.5L265 249.5L265 250.5ZM269 250.5L271 250.5L271 249.5L269 249.5L269 250.5ZM273 250.5L275 250.5L275 249.5L273 249.5L273 250.5ZM277 250.5L279 250.5L279 249.5L277 249.5L277 250.5ZM281 250.5L283 250.5L283 249.5L281 249.5L281 250.5ZM285 250.5L287 250.5L287 249.5L285 249.5L285 250.5ZM289 250.5L291 250.5L291 249.5L289 249.5L289 250.5ZM293 250.5L295 250.5L295 249.5L293 249.5L293 250.5ZM297 250.5L299 250.5L299 249.5L297 249.5L297 250.5ZM301 250.5L303 250.5L303 249.5L301 249.5L301 250.5ZM305 250.5L307 250.5L307 249.5L305 249.5L305 250.5ZM309 250.5L311 250.5L311 249.5L309 249.5L309 250.5ZM313 250.5L315 250.5L315 249.5L313 249.5L313 250.5ZM317 250.5L319 250.5L319 249.5L317 249.5L317 250.5ZM321 250.5L323 250.5L323 249.5L321 249.5L321 250.5ZM325 250.5L327 250.5L327 249.5L325 249.5L325 250.5ZM329 250.5L331 250.5L331 249.5L329 249.5L329 250.5ZM333 250.5L335 250.5L335 249.5L333 249.5L333 250.5ZM337 250.5L339 250.5L339 249.5L337 249.5L337 250.5ZM341 250.5L343 250.5L343 249.5L341 249.5L341 250.5ZM345 250.5L347 250.5L347 249.5L345 249.5L345 250.5ZM349 250.5L351 250.5L351 249.5L349 249.5L349 250.5ZM353 250.5L355 250.5L355 249.5L353 249.5L353 250.5ZM357 250.5L359 250.5L359 249.5L357 249.5L357 250.5ZM361 250.5L363 250.5L363 249.5L361 249.5L361 250.5ZM365 250.5L367 250.5L367 249.5L365 249.5L365 250.5ZM369 250.5L371 250.5L371 249.5L369 249.5L369 250.5ZM373 250.5L375 250.5L375 249.5L373 249.5L373 250.5ZM377 250.5L379 250.5L379 249.5L377 249.5L377 250.5ZM381 250.5L383 250.5L383 249.5L381 249.5L381 250.5ZM385 250.5L387 250.5L387 249.5L385 249.5L385 250.5ZM389 250.5L391 250.5L391 249.5L389 249.5L389 250.5ZM393 250.5L395 250.5L395 249.5L393 249.5L393 250.5ZM397 250.5L399 250.5L399 249.5L397 249.5L397 250.5ZM401 250.5L403 250.5L403 249.5L401 249.5L401 250.5ZM405 250.5L407 250.5L407 249.5L405 249.5L405 250.5ZM409 250.5L411 250.5L411 249.5L409 249.5L409 250.5ZM413 250.5L415 250.5L415 249.5L413 249.5L413 250.5ZM417 250.5L419 250.5L419 249.5L417 249.5L417 250.5ZM421 250.5L423 250.5L423 249.5L421 249.5L421 250.5ZM425 250.5L427 250.5L427 249.5L425 249.5L425 250.5ZM429 250.5L431 250.5L431 249.5L429 249.5L429 250.5ZM433 250.5L435 250.5L435 249.5L433 249.5L433 250.5ZM437 250.5L439 250.5L439 249.5L437 249.5L437 250.5ZM441 250.5L443 250.5L443 249.5L441 249.5L441 250.5ZM445 250.5L447 250.5L447 249.5L445 249.5L445 250.5ZM449 250.5L451 250.5L451 249.5L449 249.5L449 250.5ZM453 250.5L455 250.5L455 249.5L453 249.5L453 250.5ZM457 250.5L459 250.5L459 249.5L457 249.5L457 250.5ZM461 250.5L463 250.5L463 249.5L461 249.5L461 250.5ZM465 250.5L467 250.5L467 249.5L465 249.5L465 250.5ZM469 250.5L471 250.5L471 249.5L469 249.5L469 250.5ZM473 250.5L475 250.5L475 249.5L473 249.5L473 250.5ZM477 250.5L479 250.5L479 249.5L477 249.5L477 250.5ZM481 250.5L483 250.5L483 249.5L481 249.5L481 250.5ZM485 250.5L487 250.5L487 249.5L485 249.5L485 250.5ZM489 250.5L491 250.5L491 249.5L489 249.5L489 250.5ZM493 250.5L495 250.5L495 249.5L493 249.5L493 250.5ZM497 250.5L499 250.5L499 249.5L497 249.5L497 250.5ZM501 250.5L503 250.5L503 249.5L501 249.5L501 250.5ZM505 250.5L507 250.5L507 249.5L505 249.5L505 250.5ZM509 250.5L510 250.5L510 249.5L509 249.5L509 250.5ZM510.5 250L510.5 249.01L509.5 249.01L509.5 250L510.5 250ZM510.5 247.03L510.5 245.051L509.5 245.051L509.5 247.03L510.5 247.03ZM510.5 243.071L510.5 241.091L509.5 241.091L509.5 243.071L510.5 243.071ZM510.5 239.111L510.5 237.132L509.5 237.132L509.5 239.111L510.5 239.111ZM510.5 235.152L510.5 233.172L509.5 233.172L509.5 235.152L510.5 235.152ZM510.5 231.193L510.5 229.213L509.5 229.213L509.5 231.193L510.5 231.193ZM510.5 227.233L510.5 225.253L509.5 225.253L509.5 227.233L510.5 227.233ZM510.5 223.274L510.5 221.294L509.5 221.294L509.5 223.274L510.5 223.274ZM510.5 219.314L510.5 217.334L509.5 217.334L509.5 219.314L510.5 219.314ZM510.5 215.355L510.5 213.375L509.5 213.375L509.5 215.355L510.5 215.355ZM510.5 211.395L510.5 209.416L509.5 209.416L509.5 211.395L510.5 211.395ZM510.5 207.436L510.5 205.456L509.5 205.456L509.5 207.436L510.5 207.436ZM510.5 203.476L510.5 201.497L509.5 201.497L509.5 203.476L510.5 203.476ZM510.5 199.517L510.5 197.537L509.5 197.537L509.5 199.517L510.5 199.517ZM510.5 195.557L510.5 193.578L509.5 193.578L509.5 195.557L510.5 195.557ZM510.5 191.598L510.5 189.618L509.5 189.618L509.5 191.598L510.5 191.598ZM510.5 187.639L510.5 185.659L509.5 185.659L509.5 187.639L510.5 187.639ZM510.5 183.679L510.5 181.699L509.5 181.699L509.5 183.679L510.5 183.679ZM510.5 179.72L510.5 177.74L509.5 177.74L509.5 179.72L510.5 179.72ZM510.5 175.76L510.5 173.78L509.5 173.78L509.5 175.76L510.5 175.76ZM510.5 171.801L510.5 169.821L509.5 169.821L509.5 171.801L510.5 171.801ZM510.5 167.841L510.5 165.861L509.5 165.861L509.5 167.841L510.5 167.841ZM510.5 163.882L510.5 161.902L509.5 161.902L509.5 163.882L510.5 163.882ZM510.5 159.922L510.5 157.943L509.5 157.943L509.5 159.922L510.5 159.922ZM510.5 155.963L510.5 153.983L509.5 153.983L509.5 155.963L510.5 155.963ZM510.5 152.003L510.5 150.024L509.5 150.024L509.5 152.003L510.5 152.003ZM510.5 148.044L510.5 146.064L509.5 146.064L509.5 148.044L510.5 148.044ZM510.5 144.084L510.5 142.105L509.5 142.105L509.5 144.084L510.5 144.084ZM510.5 140.125L510.5 138.145L509.5 138.145L509.5 140.125L510.5 140.125ZM510.5 136.166L510.5 134.186L509.5 134.186L509.5 136.166L510.5 136.166ZM510.5 132.206L510.5 130.226L509.5 130.226L509.5 132.206L510.5 132.206ZM510.5 128.247L510.5 126.267L509.5 126.267L509.5 128.247L510.5 128.247ZM510.5 124.287L510.5 122.307L509.5 122.307L509.5 124.287L510.5 124.287ZM510.5 120.328L510.5 118.348L509.5 118.348L509.5 120.328L510.5 120.328ZM510.5 116.368L510.5 114.389L509.5 114.389L509.5 116.368L510.5 116.368ZM510.5 112.409L510.5 110.429L509.5 110.429L509.5 112.409L510.5 112.409ZM510.5 108.449L510.5 106.47L509.5 106.47L509.5 108.449L510.5 108.449Z" fill="#8C8D8F"/>
<path d="M500 52L500 45" stroke="#343537" stroke-linecap="round"/>
</svg>
