<svg width="141" height="220" viewBox="0 0 141 220" fill="none" xmlns="http://www.w3.org/2000/svg">
<rect y="53.1094" width="31" height="116.25" rx="3.875" fill="#048B43"/>
<path d="M15.5 8.54688V212.953" stroke="#048B43" stroke-width="1.9375" stroke-linecap="round"/>
<path d="M108.659 3.19727V7.46973H113.629V3.19727H115.03V13H113.629V8.72754H108.659V13H107.258V3.19727H108.659ZM118.742 3.19727V4.74219H117.272V3.19727H118.742ZM117.348 6H118.674V13H117.348V6ZM121.559 13.9092C121.627 14.2464 121.825 14.5062 122.153 14.6885C122.486 14.8708 122.905 14.9619 123.411 14.9619H123.548C124.19 14.9619 124.689 14.7842 125.045 14.4287C125.4 14.0778 125.578 13.556 125.578 12.8633V11.8789C125.368 12.2161 125.077 12.4873 124.703 12.6924C124.334 12.8975 123.912 13 123.438 13C122.878 13 122.363 12.861 121.894 12.583C121.424 12.305 121.05 11.8971 120.772 11.3594C120.494 10.8216 120.36 10.179 120.369 9.43164C120.365 8.67513 120.499 8.02799 120.772 7.49023C121.046 6.95247 121.417 6.54688 121.887 6.27344C122.356 6 122.878 5.86328 123.452 5.86328C123.78 5.86328 124.088 5.91569 124.375 6.02051C124.667 6.12077 124.915 6.25521 125.12 6.42383C125.33 6.59245 125.482 6.77702 125.578 6.97754V6H126.911V13C126.92 13.5788 126.786 14.1029 126.508 14.5723C126.23 15.0417 125.833 15.4108 125.318 15.6797C124.808 15.9486 124.211 16.083 123.527 16.083C122.889 16.083 122.329 15.9919 121.846 15.8096C121.367 15.6273 120.989 15.3721 120.711 15.0439C120.438 14.7158 120.278 14.3376 120.232 13.9092H121.559ZM121.702 9.43164C121.702 9.97852 121.78 10.4365 121.935 10.8057C122.094 11.1702 122.311 11.4414 122.584 11.6191C122.862 11.7923 123.179 11.8789 123.534 11.8789H123.644C123.972 11.888 124.286 11.79 124.587 11.585C124.888 11.3753 125.129 11.0837 125.312 10.71C125.498 10.3317 125.587 9.9056 125.578 9.43164C125.583 8.95312 125.498 8.52702 125.325 8.15332C125.152 7.77507 124.922 7.4834 124.635 7.27832C124.348 7.06868 124.042 6.96842 123.719 6.97754H123.603C123.247 6.97754 122.926 7.06868 122.639 7.25098C122.352 7.42871 122.124 7.70215 121.955 8.07129C121.786 8.43587 121.702 8.88932 121.702 9.43164ZM130.336 3.19727V6.97754C130.842 6.2347 131.589 5.86328 132.578 5.86328C133.098 5.86328 133.547 5.96354 133.925 6.16406C134.303 6.36458 134.592 6.64941 134.793 7.01855C134.993 7.3877 135.094 7.81836 135.094 8.31055V13H133.768V8.59082C133.768 8.07129 133.649 7.67253 133.412 7.39453C133.175 7.11654 132.822 6.97754 132.353 6.97754H132.243C131.906 6.97298 131.589 7.05957 131.293 7.2373C131.001 7.41048 130.767 7.65885 130.589 7.98242C130.416 8.30143 130.331 8.66829 130.336 9.08301V13H129.01V3.19727H130.336Z" fill="#343537"/>
<path d="M108.659 207.197V215.742H114.401V217H107.258V207.197H108.659ZM115.174 213.5C115.165 212.812 115.308 212.188 115.604 211.627C115.905 211.066 116.313 210.631 116.828 210.321C117.348 210.007 117.917 209.854 118.537 209.863C119.152 209.854 119.717 210.007 120.232 210.321C120.752 210.631 121.16 211.066 121.456 211.627C121.757 212.188 121.903 212.812 121.894 213.5C121.903 214.188 121.757 214.812 121.456 215.373C121.16 215.934 120.752 216.371 120.232 216.686C119.717 216.995 119.152 217.146 118.537 217.137C117.917 217.146 117.348 216.995 116.828 216.686C116.313 216.371 115.905 215.934 115.604 215.373C115.308 214.812 115.165 214.188 115.174 213.5ZM116.507 213.5C116.507 214.02 116.591 214.471 116.76 214.854C116.928 215.232 117.161 215.521 117.457 215.722C117.753 215.922 118.093 216.022 118.476 216.022H118.592C118.975 216.022 119.314 215.922 119.61 215.722C119.911 215.521 120.146 215.232 120.314 214.854C120.483 214.471 120.567 214.02 120.567 213.5C120.567 212.98 120.483 212.532 120.314 212.153C120.146 211.771 119.911 211.479 119.61 211.278C119.314 211.078 118.975 210.978 118.592 210.978H118.476C118.093 210.978 117.753 211.078 117.457 211.278C117.161 211.479 116.928 211.771 116.76 212.153C116.591 212.532 116.507 212.98 116.507 213.5ZM130.862 217H129.393L127.854 211.531L126.31 217H124.84L122.673 210H124.074L125.612 215.537L127.15 210H128.552L130.158 215.53L131.635 210H133.029L130.862 217Z" fill="#343537"/>
<path d="M106.684 168.099C106.674 167.091 106.868 166.205 107.265 165.439C107.666 164.674 108.219 164.084 108.926 163.669C109.632 163.254 110.425 163.051 111.305 163.061C112.184 163.051 112.977 163.254 113.684 163.669C114.39 164.084 114.941 164.674 115.338 165.439C115.739 166.205 115.935 167.091 115.926 168.099C115.935 169.106 115.739 169.992 115.338 170.758C114.941 171.523 114.39 172.114 113.684 172.528C112.977 172.943 112.184 173.146 111.305 173.137C110.425 173.146 109.632 172.943 108.926 172.528C108.219 172.114 107.666 171.523 107.265 170.758C106.868 169.992 106.674 169.106 106.684 168.099ZM108.085 168.099C108.076 168.855 108.206 169.523 108.475 170.102C108.748 170.676 109.126 171.118 109.609 171.428C110.092 171.733 110.635 171.883 111.236 171.879H111.373C111.979 171.888 112.521 171.738 113 171.428C113.483 171.118 113.859 170.676 114.128 170.102C114.397 169.527 114.529 168.86 114.524 168.099C114.529 167.338 114.397 166.67 114.128 166.096C113.859 165.521 113.483 165.079 113 164.77C112.521 164.46 111.979 164.309 111.373 164.318H111.236C110.635 164.314 110.092 164.466 109.609 164.776C109.126 165.082 108.748 165.524 108.475 166.103C108.206 166.677 108.076 167.342 108.085 168.099ZM118.988 166V166.978C119.102 166.768 119.282 166.579 119.528 166.41C119.779 166.242 120.064 166.109 120.383 166.014C120.702 165.913 121.021 165.863 121.34 165.863C121.914 165.863 122.427 166.011 122.878 166.308C123.334 166.604 123.687 167.028 123.938 167.579C124.188 168.126 124.311 168.766 124.307 169.5C124.316 170.225 124.184 170.863 123.91 171.414C123.637 171.965 123.261 172.392 122.782 172.692C122.304 172.989 121.775 173.137 121.196 173.137C120.69 173.137 120.242 173.032 119.85 172.822C119.453 172.608 119.166 172.341 118.988 172.022V175.803H117.662V166H118.988ZM118.988 169.5C118.984 170.02 119.073 170.471 119.255 170.854C119.442 171.236 119.688 171.528 119.993 171.729C120.299 171.929 120.622 172.027 120.964 172.022H121.073C121.442 172.022 121.771 171.924 122.058 171.729C122.345 171.533 122.57 171.245 122.734 170.867C122.898 170.489 122.98 170.033 122.98 169.5C122.98 168.967 122.898 168.511 122.734 168.133C122.57 167.755 122.345 167.467 122.058 167.271C121.771 167.076 121.442 166.978 121.073 166.978H120.964C120.622 166.973 120.299 167.071 119.993 167.271C119.688 167.472 119.442 167.764 119.255 168.146C119.073 168.529 118.984 168.98 118.988 169.5ZM125.592 169.486C125.583 168.743 125.729 168.096 126.029 167.545C126.335 166.993 126.738 166.574 127.239 166.287C127.741 165.995 128.278 165.854 128.853 165.863C129.44 165.854 129.96 165.982 130.411 166.246C130.867 166.506 131.218 166.87 131.464 167.34C131.71 167.809 131.831 168.342 131.826 168.939V169.712H126.925C126.943 170.19 127.05 170.607 127.246 170.963C127.442 171.314 127.686 171.58 127.978 171.763C128.274 171.94 128.575 172.027 128.88 172.022H128.996C129.356 172.022 129.677 171.929 129.96 171.742C130.238 171.551 130.411 171.28 130.479 170.929H131.806C131.724 171.384 131.544 171.779 131.266 172.111C130.988 172.444 130.639 172.699 130.22 172.877C129.805 173.05 129.349 173.137 128.853 173.137C128.26 173.137 127.713 172.993 127.212 172.706C126.711 172.414 126.312 171.993 126.016 171.441C125.724 170.89 125.583 170.238 125.592 169.486ZM130.493 168.659C130.466 168.09 130.304 167.668 130.008 167.395C129.716 167.117 129.352 166.978 128.914 166.978H128.798C128.392 166.978 128.021 167.114 127.684 167.388C127.351 167.652 127.125 168.076 127.007 168.659H130.493ZM134.875 166V166.978C135.381 166.235 136.128 165.863 137.117 165.863C137.637 165.863 138.086 165.964 138.464 166.164C138.842 166.365 139.132 166.649 139.332 167.019C139.533 167.388 139.633 167.818 139.633 168.311V173H138.307V168.591C138.307 168.071 138.188 167.673 137.951 167.395C137.714 167.117 137.361 166.978 136.892 166.978H136.782C136.445 166.973 136.128 167.06 135.832 167.237C135.54 167.41 135.306 167.659 135.128 167.982C134.955 168.301 134.87 168.668 134.875 169.083V173H133.549V166H134.875Z" fill="#343537"/>
<path d="M106.67 53.0986C106.67 52.137 106.857 51.2757 107.23 50.5146C107.609 49.7445 108.144 49.1452 108.837 48.7168C109.543 48.2793 110.377 48.0605 111.339 48.0605C112.027 48.0605 112.658 48.1973 113.232 48.4707C113.811 48.7396 114.276 49.1178 114.627 49.6055C114.982 50.0931 115.178 50.6514 115.215 51.2803H113.813C113.768 50.8929 113.633 50.5511 113.41 50.2549C113.191 49.9541 112.904 49.724 112.549 49.5645C112.193 49.4004 111.797 49.3184 111.359 49.3184H111.223C110.58 49.3092 110.02 49.471 109.541 49.8037C109.062 50.1364 108.696 50.5921 108.44 51.1709C108.185 51.7497 108.062 52.3923 108.071 53.0986C108.062 53.805 108.185 54.4476 108.44 55.0264C108.696 55.6051 109.062 56.0609 109.541 56.3936C110.02 56.7262 110.58 56.888 111.223 56.8789H111.359C111.797 56.8789 112.193 56.7992 112.549 56.6396C112.904 56.4756 113.191 56.2454 113.41 55.9492C113.633 55.6484 113.768 55.3044 113.813 54.917H115.215C115.178 55.5413 114.985 56.0996 114.634 56.5918C114.283 57.0794 113.818 57.46 113.239 57.7334C112.665 58.0023 112.036 58.1367 111.353 58.1367C110.386 58.1367 109.548 57.9202 108.837 57.4873C108.144 57.0498 107.609 56.4482 107.23 55.6826C106.857 54.9215 106.67 54.0602 106.67 53.0986ZM118.223 48.1973V58H116.896V48.1973H118.223ZM119.891 54.5C119.882 53.8118 120.025 53.1875 120.321 52.627C120.622 52.0664 121.03 51.6312 121.545 51.3213C122.064 51.0068 122.634 50.8542 123.254 50.8633C123.869 50.8542 124.434 51.0068 124.949 51.3213C125.469 51.6312 125.877 52.0664 126.173 52.627C126.474 53.1875 126.619 53.8118 126.61 54.5C126.619 55.1882 126.474 55.8125 126.173 56.373C125.877 56.9336 125.469 57.3711 124.949 57.6855C124.434 57.9954 123.869 58.1458 123.254 58.1367C122.634 58.1458 122.064 57.9954 121.545 57.6855C121.03 57.3711 120.622 56.9336 120.321 56.373C120.025 55.8125 119.882 55.1882 119.891 54.5ZM121.224 54.5C121.224 55.0195 121.308 55.4707 121.477 55.8535C121.645 56.2318 121.878 56.5212 122.174 56.7217C122.47 56.9222 122.81 57.0225 123.192 57.0225H123.309C123.691 57.0225 124.031 56.9222 124.327 56.7217C124.628 56.5212 124.863 56.2318 125.031 55.8535C125.2 55.4707 125.284 55.0195 125.284 54.5C125.284 53.9805 125.2 53.5316 125.031 53.1533C124.863 52.7705 124.628 52.4788 124.327 52.2783C124.031 52.0778 123.691 51.9775 123.309 51.9775H123.192C122.81 51.9775 122.47 52.0778 122.174 52.2783C121.878 52.4788 121.645 52.7705 121.477 53.1533C121.308 53.5316 121.224 53.9805 121.224 54.5ZM129.078 55.833C129.115 56.2249 129.27 56.5212 129.543 56.7217C129.821 56.9222 130.186 57.0225 130.637 57.0225H130.746C131.12 57.0225 131.43 56.9404 131.676 56.7764C131.926 56.6077 132.052 56.3867 132.052 56.1133C132.052 55.8717 131.977 55.6781 131.826 55.5322C131.676 55.3864 131.432 55.2793 131.095 55.2109L130.076 55.0195C129.465 54.8965 128.969 54.6732 128.586 54.3496C128.217 54.0215 128.032 53.5658 128.032 52.9824C128.032 52.554 128.151 52.1803 128.388 51.8613C128.629 51.5378 128.951 51.2917 129.352 51.123C129.753 50.9499 130.188 50.8633 130.657 50.8633C131.25 50.8633 131.756 50.9613 132.175 51.1572C132.594 51.3486 132.911 51.6175 133.125 51.9639C133.339 52.3102 133.446 52.7113 133.446 53.167H132.12C132.079 52.807 131.942 52.5199 131.71 52.3057C131.478 52.0869 131.156 51.9775 130.746 51.9775H130.637C130.386 51.9775 130.163 52.0186 129.967 52.1006C129.775 52.1781 129.625 52.2852 129.516 52.4219C129.411 52.5586 129.358 52.709 129.358 52.873C129.358 53.1191 129.434 53.3128 129.584 53.4541C129.739 53.5954 129.992 53.7025 130.343 53.7754L131.443 53.9941C132.031 54.1081 132.501 54.3314 132.852 54.6641C133.202 54.9967 133.378 55.4661 133.378 56.0723C133.378 56.4733 133.259 56.8333 133.022 57.1523C132.785 57.4668 132.457 57.7106 132.038 57.8838C131.619 58.057 131.147 58.1413 130.623 58.1367C130.021 58.1367 129.504 58.041 129.071 57.8496C128.643 57.6536 128.315 57.3825 128.087 57.0361C127.864 56.6852 127.752 56.2842 127.752 55.833H129.078ZM134.697 54.4863C134.688 53.7435 134.834 53.0964 135.135 52.5449C135.44 51.9935 135.843 51.5742 136.345 51.2871C136.846 50.9954 137.384 50.8542 137.958 50.8633C138.546 50.8542 139.065 50.9818 139.517 51.2461C139.972 51.5059 140.323 51.8704 140.569 52.3398C140.815 52.8092 140.936 53.3424 140.932 53.9395V54.7119H136.03C136.049 55.1904 136.156 55.6074 136.352 55.9629C136.548 56.3138 136.791 56.5804 137.083 56.7627C137.379 56.9404 137.68 57.027 137.985 57.0225H138.102C138.462 57.0225 138.783 56.929 139.065 56.7422C139.343 56.5508 139.517 56.2796 139.585 55.9287H140.911C140.829 56.3844 140.649 56.7786 140.371 57.1113C140.093 57.444 139.744 57.6992 139.325 57.877C138.91 58.0501 138.455 58.1367 137.958 58.1367C137.366 58.1367 136.819 57.9932 136.317 57.7061C135.816 57.4144 135.417 56.9928 135.121 56.4414C134.829 55.89 134.688 55.2383 134.697 54.4863ZM139.599 53.6592C139.571 53.0895 139.41 52.668 139.113 52.3945C138.822 52.1165 138.457 51.9775 138.02 51.9775H137.903C137.498 51.9775 137.126 52.1143 136.789 52.3877C136.456 52.652 136.231 53.0758 136.112 53.6592H139.599Z" fill="#343537"/>
<path d="M98 213L27 213" stroke="#D1D2D5" stroke-linecap="round"/>
<path d="M98 8L27 7.99999" stroke="#D1D2D5" stroke-linecap="round"/>
<path d="M98 53L35 53" stroke="#D1D2D5" stroke-linecap="round"/>
<path d="M98 169L35 169" stroke="#D1D2D5" stroke-linecap="round"/>
</svg>
