<svg width="786" height="200" viewBox="0 0 786 200" fill="none" xmlns="http://www.w3.org/2000/svg">
<path d="M191 100L181 94.2265V105.774L191 100ZM141 99C140.448 99 140 99.4477 140 100C140 100.552 140.448 101 141 101V99ZM182 99H141V101H182V99Z" fill="#343537"/>
<path d="M396 100L386 94.2265V105.774L396 100ZM346 99C345.448 99 345 99.4477 345 100C345 100.552 345.448 101 346 101V99ZM387 99H346V101H387V99Z" fill="#343537"/>
<path d="M532 100L522 94.2265V105.774L532 100ZM482 99C481.448 99 481 99.4477 481 100C481 100.552 481.448 101 482 101V99ZM523 99H482V101H523V99Z" fill="#343537"/>
<path d="M57 167L62.7735 157L51.2265 157L57 167ZM58 71C58 70.4477 57.5523 70 57 70C56.4477 70 56 70.4477 56 71L58 71ZM58 158L58 71L56 71L56 158L58 158Z" fill="#343537"/>
<path d="M0.765625 170.398C0.765625 169.299 0.979167 168.315 1.40625 167.445C1.83854 166.565 2.45052 165.88 3.24219 165.391C4.04948 164.891 5.0026 164.641 6.10156 164.641C6.88802 164.641 7.60938 164.797 8.26562 165.109C8.92708 165.417 9.45833 165.849 9.85938 166.406C10.2656 166.964 10.4896 167.602 10.5312 168.32H8.92969C8.8776 167.878 8.72396 167.487 8.46875 167.148C8.21875 166.805 7.89062 166.542 7.48438 166.359C7.07812 166.172 6.625 166.078 6.125 166.078H5.96875C5.23438 166.068 4.59375 166.253 4.04688 166.633C3.5 167.013 3.08073 167.534 2.78906 168.195C2.4974 168.857 2.35677 169.591 2.36719 170.398C2.35677 171.206 2.4974 171.94 2.78906 172.602C3.08073 173.263 3.5 173.784 4.04688 174.164C4.59375 174.544 5.23438 174.729 5.96875 174.719H6.125C6.625 174.719 7.07812 174.628 7.48438 174.445C7.89062 174.258 8.21875 173.995 8.46875 173.656C8.72396 173.312 8.8776 172.919 8.92969 172.477H10.5312C10.4896 173.19 10.2682 173.828 9.86719 174.391C9.46615 174.948 8.9349 175.383 8.27344 175.695C7.61719 176.003 6.89844 176.156 6.11719 176.156C5.01302 176.156 4.05469 175.909 3.24219 175.414C2.45052 174.914 1.83854 174.227 1.40625 173.352C0.979167 172.482 0.765625 171.497 0.765625 170.398ZM13.9688 164.797V176H12.4531V164.797H13.9688ZM15.875 172C15.8646 171.214 16.0286 170.5 16.3672 169.859C16.7109 169.219 17.1771 168.721 17.7656 168.367C18.3594 168.008 19.0104 167.833 19.7188 167.844C20.4219 167.833 21.0677 168.008 21.6562 168.367C22.25 168.721 22.7161 169.219 23.0547 169.859C23.3984 170.5 23.5651 171.214 23.5547 172C23.5651 172.786 23.3984 173.5 23.0547 174.141C22.7161 174.781 22.25 175.281 21.6562 175.641C21.0677 175.995 20.4219 176.167 19.7188 176.156C19.0104 176.167 18.3594 175.995 17.7656 175.641C17.1771 175.281 16.7109 174.781 16.3672 174.141C16.0286 173.5 15.8646 172.786 15.875 172ZM17.3984 172C17.3984 172.594 17.4948 173.109 17.6875 173.547C17.8802 173.979 18.1458 174.31 18.4844 174.539C18.8229 174.768 19.2109 174.883 19.6484 174.883H19.7812C20.2188 174.883 20.6068 174.768 20.9453 174.539C21.2891 174.31 21.5573 173.979 21.75 173.547C21.9427 173.109 22.0391 172.594 22.0391 172C22.0391 171.406 21.9427 170.893 21.75 170.461C21.5573 170.023 21.2891 169.69 20.9453 169.461C20.6068 169.232 20.2188 169.117 19.7812 169.117H19.6484C19.2109 169.117 18.8229 169.232 18.4844 169.461C18.1458 169.69 17.8802 170.023 17.6875 170.461C17.4948 170.893 17.3984 171.406 17.3984 172ZM26.375 173.523C26.4167 173.971 26.5938 174.31 26.9062 174.539C27.224 174.768 27.6406 174.883 28.1562 174.883H28.2812C28.7083 174.883 29.0625 174.789 29.3438 174.602C29.6302 174.409 29.7734 174.156 29.7734 173.844C29.7734 173.568 29.6875 173.346 29.5156 173.18C29.3438 173.013 29.0651 172.891 28.6797 172.812L27.5156 172.594C26.8177 172.453 26.25 172.198 25.8125 171.828C25.3906 171.453 25.1797 170.932 25.1797 170.266C25.1797 169.776 25.3151 169.349 25.5859 168.984C25.862 168.615 26.2292 168.333 26.6875 168.141C27.1458 167.943 27.6432 167.844 28.1797 167.844C28.8568 167.844 29.4349 167.956 29.9141 168.18C30.3932 168.398 30.7552 168.706 31 169.102C31.2448 169.497 31.3672 169.956 31.3672 170.477H29.8516C29.8047 170.065 29.6484 169.737 29.3828 169.492C29.1172 169.242 28.75 169.117 28.2812 169.117H28.1562C27.8698 169.117 27.6146 169.164 27.3906 169.258C27.1719 169.346 27 169.469 26.875 169.625C26.7552 169.781 26.6953 169.953 26.6953 170.141C26.6953 170.422 26.7812 170.643 26.9531 170.805C27.1302 170.966 27.4193 171.089 27.8203 171.172L29.0781 171.422C29.75 171.552 30.2865 171.807 30.6875 172.188C31.0885 172.568 31.2891 173.104 31.2891 173.797C31.2891 174.255 31.1536 174.667 30.8828 175.031C30.612 175.391 30.237 175.669 29.7578 175.867C29.2786 176.065 28.7396 176.161 28.1406 176.156C27.4531 176.156 26.862 176.047 26.3672 175.828C25.8776 175.604 25.5026 175.294 25.2422 174.898C24.987 174.497 24.8594 174.039 24.8594 173.523H26.375ZM32.7969 171.984C32.7865 171.135 32.9531 170.396 33.2969 169.766C33.6458 169.135 34.1068 168.656 34.6797 168.328C35.2526 167.995 35.8672 167.833 36.5234 167.844C37.1953 167.833 37.7891 167.979 38.3047 168.281C38.8255 168.578 39.2266 168.995 39.5078 169.531C39.7891 170.068 39.9271 170.677 39.9219 171.359V172.242H34.3203C34.3411 172.789 34.4635 173.266 34.6875 173.672C34.9115 174.073 35.1901 174.378 35.5234 174.586C35.862 174.789 36.2057 174.888 36.5547 174.883H36.6875C37.099 174.883 37.4661 174.776 37.7891 174.562C38.1068 174.344 38.3047 174.034 38.3828 173.633H39.8984C39.8047 174.154 39.599 174.604 39.2812 174.984C38.9635 175.365 38.5651 175.656 38.0859 175.859C37.612 176.057 37.0911 176.156 36.5234 176.156C35.8464 176.156 35.2214 175.992 34.6484 175.664C34.0755 175.331 33.6198 174.849 33.2812 174.219C32.9479 173.589 32.7865 172.844 32.7969 171.984ZM38.3984 171.039C38.3672 170.388 38.1823 169.906 37.8438 169.594C37.5104 169.276 37.0938 169.117 36.5938 169.117H36.4609C35.9974 169.117 35.5729 169.273 35.1875 169.586C34.8073 169.888 34.5495 170.372 34.4141 171.039H38.3984Z" fill="#38CFFF"/>
<path d="M0.78125 56.3984C0.770833 55.2474 0.992188 54.2344 1.44531 53.3594C1.90365 52.4844 2.53646 51.8099 3.34375 51.3359C4.15104 50.862 5.05729 50.6302 6.0625 50.6406C7.06771 50.6302 7.97396 50.862 8.78125 51.3359C9.58854 51.8099 10.2188 52.4844 10.6719 53.3594C11.1302 54.2344 11.3542 55.2474 11.3438 56.3984C11.3542 57.5495 11.1302 58.5625 10.6719 59.4375C10.2188 60.3125 9.58854 60.987 8.78125 61.4609C7.97396 61.9349 7.06771 62.1667 6.0625 62.1562C5.05729 62.1667 4.15104 61.9349 3.34375 61.4609C2.53646 60.987 1.90365 60.3125 1.44531 59.4375C0.992188 58.5625 0.770833 57.5495 0.78125 56.3984ZM2.38281 56.3984C2.3724 57.263 2.52083 58.026 2.82812 58.6875C3.14062 59.3438 3.57292 59.849 4.125 60.2031C4.67708 60.5521 5.29688 60.724 5.98438 60.7188H6.14062C6.83333 60.7292 7.45312 60.5573 8 60.2031C8.55208 59.849 8.98177 59.3438 9.28906 58.6875C9.59635 58.0312 9.7474 57.2682 9.74219 56.3984C9.7474 55.5286 9.59635 54.7656 9.28906 54.1094C8.98177 53.4531 8.55208 52.9479 8 52.5938C7.45312 52.2396 6.83333 52.0677 6.14062 52.0781H5.98438C5.29688 52.0729 4.67708 52.2474 4.125 52.6016C3.57292 52.9505 3.14062 53.4557 2.82812 54.1172C2.52083 54.7734 2.3724 55.5339 2.38281 56.3984ZM14.8438 54V55.1172C14.974 54.8776 15.1797 54.6615 15.4609 54.4688C15.7474 54.276 16.0729 54.125 16.4375 54.0156C16.8021 53.901 17.1667 53.8438 17.5312 53.8438C18.1875 53.8438 18.7734 54.013 19.2891 54.3516C19.8099 54.6901 20.2135 55.1745 20.5 55.8047C20.7865 56.4297 20.9271 57.1615 20.9219 58C20.9323 58.8281 20.7812 59.5573 20.4688 60.1875C20.1562 60.8177 19.7266 61.3047 19.1797 61.6484C18.6328 61.987 18.0286 62.1562 17.3672 62.1562C16.7891 62.1562 16.276 62.0365 15.8281 61.7969C15.375 61.5521 15.0469 61.2474 14.8438 60.8828V65.2031H13.3281V54H14.8438ZM14.8438 58C14.8385 58.5938 14.9401 59.1094 15.1484 59.5469C15.362 59.9844 15.6432 60.3177 15.9922 60.5469C16.3411 60.776 16.7109 60.888 17.1016 60.8828H17.2266C17.6484 60.8828 18.0234 60.7708 18.3516 60.5469C18.6797 60.3229 18.9375 59.9948 19.125 59.5625C19.3125 59.1302 19.4062 58.6094 19.4062 58C19.4062 57.3906 19.3125 56.8698 19.125 56.4375C18.9375 56.0052 18.6797 55.6771 18.3516 55.4531C18.0234 55.2292 17.6484 55.1172 17.2266 55.1172H17.1016C16.7109 55.112 16.3411 55.224 15.9922 55.4531C15.6432 55.6823 15.362 56.0156 15.1484 56.4531C14.9401 56.8906 14.8385 57.4062 14.8438 58ZM22.3906 57.9844C22.3802 57.1354 22.5469 56.3958 22.8906 55.7656C23.2396 55.1354 23.7005 54.6562 24.2734 54.3281C24.8464 53.9948 25.4609 53.8333 26.1172 53.8438C26.7891 53.8333 27.3828 53.9792 27.8984 54.2812C28.4193 54.5781 28.8203 54.9948 29.1016 55.5312C29.3828 56.0677 29.5208 56.6771 29.5156 57.3594V58.2422H23.9141C23.9349 58.7891 24.0573 59.2656 24.2812 59.6719C24.5052 60.0729 24.7839 60.3776 25.1172 60.5859C25.4557 60.7891 25.7995 60.888 26.1484 60.8828H26.2812C26.6927 60.8828 27.0599 60.776 27.3828 60.5625C27.7005 60.3438 27.8984 60.0339 27.9766 59.6328H29.4922C29.3984 60.1536 29.1927 60.6042 28.875 60.9844C28.5573 61.3646 28.1589 61.6562 27.6797 61.8594C27.2057 62.0573 26.6849 62.1562 26.1172 62.1562C25.4401 62.1562 24.8151 61.9922 24.2422 61.6641C23.6693 61.3307 23.2135 60.849 22.875 60.2188C22.5417 59.5885 22.3802 58.8438 22.3906 57.9844ZM27.9922 57.0391C27.9609 56.388 27.776 55.9062 27.4375 55.5938C27.1042 55.276 26.6875 55.1172 26.1875 55.1172H26.0547C25.5911 55.1172 25.1667 55.2734 24.7812 55.5859C24.401 55.888 24.1432 56.3724 24.0078 57.0391H27.9922ZM33 54V55.1172C33.5781 54.2682 34.4323 53.8438 35.5625 53.8438C36.1562 53.8438 36.6693 53.9583 37.1016 54.1875C37.5339 54.4167 37.8646 54.7422 38.0938 55.1641C38.3229 55.5859 38.4375 56.0781 38.4375 56.6406V62H36.9219V56.9609C36.9219 56.3672 36.7865 55.9115 36.5156 55.5938C36.2448 55.276 35.8411 55.1172 35.3047 55.1172H35.1797C34.7943 55.112 34.4323 55.2109 34.0938 55.4141C33.7604 55.612 33.4922 55.8958 33.2891 56.2656C33.0911 56.6302 32.9948 57.0495 33 57.5234V62H31.4844V54H33Z" fill="#FB607F"/>
<rect x="72" width="74" height="200" rx="4" fill="white"/>
<path d="M93.3867 23.1973C93.9928 23.1927 94.5352 23.3112 95.0137 23.5527C95.4967 23.7897 95.8727 24.1361 96.1416 24.5918C96.4105 25.043 96.5426 25.5693 96.5381 26.1709C96.5426 26.7725 96.4105 27.2988 96.1416 27.75C95.8727 28.2012 95.4967 28.5475 95.0137 28.7891C94.5352 29.026 93.9928 29.1423 93.3867 29.1377H90.6592V33H89.2578V23.1973H93.3867ZM93.1816 27.873C93.8151 27.873 94.2982 27.7295 94.6309 27.4424C94.9681 27.1507 95.1367 26.7269 95.1367 26.1709C95.1367 25.6149 94.9681 25.1911 94.6309 24.8994C94.2982 24.6077 93.8151 24.4619 93.1816 24.4619H90.6592V27.873H93.1816ZM99.334 26V27.5381C99.4251 27.2054 99.571 26.9183 99.7715 26.6768C99.972 26.4307 100.209 26.2461 100.482 26.123C100.76 25.9954 101.054 25.9316 101.364 25.9316H101.993V27.2168H101.433C101.018 27.2168 100.658 27.3079 100.353 27.4902C100.047 27.668 99.8125 27.9255 99.6484 28.2627C99.4844 28.5999 99.4023 28.9987 99.4023 29.459V33H98.0762V26H99.334ZM104.734 23.1973V24.7422H103.265V23.1973H104.734ZM103.34 26H104.666V33H103.34V26ZM106.348 29.5C106.339 28.8073 106.468 28.1852 106.737 27.6338C107.011 27.0778 107.403 26.6426 107.913 26.3281C108.428 26.0091 109.027 25.8542 109.711 25.8633C110.24 25.8633 110.711 25.9635 111.126 26.1641C111.545 26.3646 111.88 26.6494 112.131 27.0186C112.386 27.3877 112.536 27.8184 112.582 28.3105H111.249C111.185 27.9095 111.019 27.5882 110.75 27.3467C110.481 27.1006 110.153 26.9775 109.766 26.9775H109.649C109.23 26.9775 108.872 27.0892 108.576 27.3125C108.28 27.5358 108.057 27.8389 107.906 28.2217C107.756 28.6045 107.681 29.0306 107.681 29.5C107.681 29.9694 107.756 30.3955 107.906 30.7783C108.057 31.1611 108.28 31.4642 108.576 31.6875C108.872 31.9108 109.23 32.0225 109.649 32.0225H109.766C110.153 32.0225 110.481 31.9017 110.75 31.6602C111.019 31.4141 111.185 31.0905 111.249 30.6895H112.582C112.536 31.1816 112.386 31.6123 112.131 31.9814C111.88 32.3506 111.545 32.6354 111.126 32.8359C110.711 33.0365 110.24 33.1367 109.711 33.1367C109.027 33.1458 108.428 32.9932 107.913 32.6787C107.403 32.3597 107.011 31.9245 106.737 31.373C106.468 30.8171 106.339 30.1927 106.348 29.5ZM113.799 29.4863C113.79 28.7435 113.936 28.0964 114.236 27.5449C114.542 26.9935 114.945 26.5742 115.446 26.2871C115.948 25.9954 116.485 25.8542 117.06 25.8633C117.647 25.8542 118.167 25.9818 118.618 26.2461C119.074 26.5059 119.425 26.8704 119.671 27.3398C119.917 27.8092 120.038 28.3424 120.033 28.9395V29.7119H115.132C115.15 30.1904 115.257 30.6074 115.453 30.9629C115.649 31.3138 115.893 31.5804 116.185 31.7627C116.481 31.9404 116.782 32.027 117.087 32.0225H117.203C117.563 32.0225 117.884 31.929 118.167 31.7422C118.445 31.5508 118.618 31.2796 118.687 30.9287H120.013C119.931 31.3844 119.751 31.7786 119.473 32.1113C119.195 32.444 118.846 32.6992 118.427 32.877C118.012 33.0501 117.556 33.1367 117.06 33.1367C116.467 33.1367 115.92 32.9932 115.419 32.7061C114.918 32.4144 114.519 31.9928 114.223 31.4414C113.931 30.89 113.79 30.2383 113.799 29.4863ZM118.7 28.6592C118.673 28.0895 118.511 27.668 118.215 27.3945C117.923 27.1165 117.559 26.9775 117.121 26.9775H117.005C116.599 26.9775 116.228 27.1143 115.891 27.3877C115.558 27.652 115.332 28.0758 115.214 28.6592H118.7Z" fill="#919294"/>
<path d="M92.6094 78H91.0703V69.0625L88.5312 71.5234V69.6016L91.4062 66.7969H92.6094V78ZM94.9766 72.3984C94.9766 71.1693 95.1484 70.125 95.4922 69.2656C95.8411 68.401 96.3438 67.7474 97 67.3047C97.6615 66.862 98.4531 66.6406 99.375 66.6406C100.297 66.6406 101.086 66.862 101.742 67.3047C102.404 67.7474 102.906 68.401 103.25 69.2656C103.599 70.125 103.773 71.1693 103.773 72.3984C103.773 73.6276 103.599 74.6745 103.25 75.5391C102.906 76.3984 102.404 77.0495 101.742 77.4922C101.086 77.9349 100.297 78.1562 99.375 78.1562C98.4531 78.1562 97.6615 77.9349 97 77.4922C96.3438 77.0495 95.8411 76.3984 95.4922 75.5391C95.1484 74.6745 94.9766 73.6276 94.9766 72.3984ZM96.5391 72.3438C96.5391 73.4635 96.6771 74.349 96.9531 75C97.224 75.6458 97.5703 76.1094 97.9922 76.3906C98.4036 76.6615 98.8385 76.7969 99.2969 76.7969H99.4531C99.9062 76.7969 100.339 76.6615 100.75 76.3906C101.172 76.1094 101.518 75.6458 101.789 75C102.065 74.349 102.203 73.4635 102.203 72.3438C102.203 71.3281 102.07 70.4948 101.805 69.8438C101.539 69.1927 101.198 68.7214 100.781 68.4297C100.37 68.138 99.9271 67.9948 99.4531 68H99.2969C98.8229 67.9948 98.3776 68.138 97.9609 68.4297C97.5443 68.7214 97.2031 69.1927 96.9375 69.8438C96.6719 70.4948 96.5391 71.3281 96.5391 72.3438ZM105.57 72.3984C105.57 71.1693 105.742 70.125 106.086 69.2656C106.435 68.401 106.938 67.7474 107.594 67.3047C108.255 66.862 109.047 66.6406 109.969 66.6406C110.891 66.6406 111.68 66.862 112.336 67.3047C112.997 67.7474 113.5 68.401 113.844 69.2656C114.193 70.125 114.367 71.1693 114.367 72.3984C114.367 73.6276 114.193 74.6745 113.844 75.5391C113.5 76.3984 112.997 77.0495 112.336 77.4922C111.68 77.9349 110.891 78.1562 109.969 78.1562C109.047 78.1562 108.255 77.9349 107.594 77.4922C106.938 77.0495 106.435 76.3984 106.086 75.5391C105.742 74.6745 105.57 73.6276 105.57 72.3984ZM107.133 72.3438C107.133 73.4635 107.271 74.349 107.547 75C107.818 75.6458 108.164 76.1094 108.586 76.3906C108.997 76.6615 109.432 76.7969 109.891 76.7969H110.047C110.5 76.7969 110.932 76.6615 111.344 76.3906C111.766 76.1094 112.112 75.6458 112.383 75C112.659 74.349 112.797 73.4635 112.797 72.3438C112.797 71.3281 112.664 70.4948 112.398 69.8438C112.133 69.1927 111.792 68.7214 111.375 68.4297C110.964 68.138 110.521 67.9948 110.047 68H109.891C109.417 67.9948 108.971 68.138 108.555 68.4297C108.138 68.7214 107.797 69.1927 107.531 69.8438C107.266 70.4948 107.133 71.3281 107.133 72.3438Z" fill="#13161C"/>
<path d="M88 48.5H130V47.5H88V48.5Z" fill="#E8E9EC"/>
<path d="M92.6094 126H91.0703V117.062L88.5312 119.523V117.602L91.4062 114.797H92.6094V126ZM103.344 123.453H101.586V126H100.047V123.453H94.5391V121.922L100.062 114.797H101.586V122.094H103.344V123.453ZM100.047 122.094V116.953L96.0469 122.094H100.047ZM104.758 120.398C104.758 119.169 104.93 118.125 105.273 117.266C105.622 116.401 106.125 115.747 106.781 115.305C107.443 114.862 108.234 114.641 109.156 114.641C110.078 114.641 110.867 114.862 111.523 115.305C112.185 115.747 112.688 116.401 113.031 117.266C113.38 118.125 113.555 119.169 113.555 120.398C113.555 121.628 113.38 122.674 113.031 123.539C112.688 124.398 112.185 125.049 111.523 125.492C110.867 125.935 110.078 126.156 109.156 126.156C108.234 126.156 107.443 125.935 106.781 125.492C106.125 125.049 105.622 124.398 105.273 123.539C104.93 122.674 104.758 121.628 104.758 120.398ZM106.32 120.344C106.32 121.464 106.458 122.349 106.734 123C107.005 123.646 107.352 124.109 107.773 124.391C108.185 124.661 108.62 124.797 109.078 124.797H109.234C109.688 124.797 110.12 124.661 110.531 124.391C110.953 124.109 111.299 123.646 111.57 123C111.846 122.349 111.984 121.464 111.984 120.344C111.984 119.328 111.852 118.495 111.586 117.844C111.32 117.193 110.979 116.721 110.562 116.43C110.151 116.138 109.708 115.995 109.234 116H109.078C108.604 115.995 108.159 116.138 107.742 116.43C107.326 116.721 106.984 117.193 106.719 117.844C106.453 118.495 106.32 119.328 106.32 120.344Z" fill="#13161C"/>
<path d="M88 96.5H130V95.5H88V96.5Z" fill="#E8E9EC"/>
<path d="M96.3672 174H88.7969V172.305L92.4141 168.867C92.5234 168.758 92.6927 168.604 92.9219 168.406C93.2865 168.078 93.5885 167.786 93.8281 167.531C94.3698 166.953 94.6406 166.346 94.6406 165.711C94.6406 165.372 94.5573 165.076 94.3906 164.82C94.224 164.56 93.9974 164.359 93.7109 164.219C93.4245 164.073 93.1042 164 92.75 164H92.5938C92.1927 164 91.8333 164.094 91.5156 164.281C91.2031 164.464 90.9583 164.719 90.7812 165.047C90.6042 165.37 90.5156 165.734 90.5156 166.141H88.9141C88.9089 165.458 89.0703 164.849 89.3984 164.312C89.7266 163.776 90.1771 163.362 90.75 163.07C91.3281 162.773 91.9688 162.63 92.6719 162.641C93.3125 162.63 93.9036 162.745 94.4453 162.984C94.987 163.224 95.4167 163.57 95.7344 164.023C96.0521 164.471 96.2109 164.995 96.2109 165.594C96.2109 166.161 96.099 166.669 95.875 167.117C95.6458 167.57 95.3698 167.979 95.0469 168.344C94.75 168.677 94.3099 169.115 93.7266 169.656L93.5859 169.789L90.5938 172.562H96.3672V174ZM98.0859 168.398C98.0859 167.169 98.2578 166.125 98.6016 165.266C98.9505 164.401 99.4531 163.747 100.109 163.305C100.771 162.862 101.562 162.641 102.484 162.641C103.406 162.641 104.195 162.862 104.852 163.305C105.513 163.747 106.016 164.401 106.359 165.266C106.708 166.125 106.883 167.169 106.883 168.398C106.883 169.628 106.708 170.674 106.359 171.539C106.016 172.398 105.513 173.049 104.852 173.492C104.195 173.935 103.406 174.156 102.484 174.156C101.562 174.156 100.771 173.935 100.109 173.492C99.4531 173.049 98.9505 172.398 98.6016 171.539C98.2578 170.674 98.0859 169.628 98.0859 168.398ZM99.6484 168.344C99.6484 169.464 99.7865 170.349 100.062 171C100.333 171.646 100.68 172.109 101.102 172.391C101.513 172.661 101.948 172.797 102.406 172.797H102.562C103.016 172.797 103.448 172.661 103.859 172.391C104.281 172.109 104.628 171.646 104.898 171C105.174 170.349 105.312 169.464 105.312 168.344C105.312 167.328 105.18 166.495 104.914 165.844C104.648 165.193 104.307 164.721 103.891 164.43C103.479 164.138 103.036 163.995 102.562 164H102.406C101.932 163.995 101.487 164.138 101.07 164.43C100.654 164.721 100.312 165.193 100.047 165.844C99.7812 166.495 99.6484 167.328 99.6484 168.344ZM108.68 168.398C108.68 167.169 108.852 166.125 109.195 165.266C109.544 164.401 110.047 163.747 110.703 163.305C111.365 162.862 112.156 162.641 113.078 162.641C114 162.641 114.789 162.862 115.445 163.305C116.107 163.747 116.609 164.401 116.953 165.266C117.302 166.125 117.477 167.169 117.477 168.398C117.477 169.628 117.302 170.674 116.953 171.539C116.609 172.398 116.107 173.049 115.445 173.492C114.789 173.935 114 174.156 113.078 174.156C112.156 174.156 111.365 173.935 110.703 173.492C110.047 173.049 109.544 172.398 109.195 171.539C108.852 170.674 108.68 169.628 108.68 168.398ZM110.242 168.344C110.242 169.464 110.38 170.349 110.656 171C110.927 171.646 111.273 172.109 111.695 172.391C112.107 172.661 112.542 172.797 113 172.797H113.156C113.609 172.797 114.042 172.661 114.453 172.391C114.875 172.109 115.221 171.646 115.492 171C115.768 170.349 115.906 169.464 115.906 168.344C115.906 167.328 115.773 166.495 115.508 165.844C115.242 165.193 114.901 164.721 114.484 164.43C114.073 164.138 113.63 163.995 113.156 164H113C112.526 163.995 112.081 164.138 111.664 164.43C111.247 164.721 110.906 165.193 110.641 165.844C110.375 166.495 110.242 167.328 110.242 168.344Z" fill="#13161C"/>
<path d="M88 144.5H130V143.5H88V144.5Z" fill="#E8E9EC"/>
<path d="M241.835 66.1973C242.468 66.1973 243.022 66.3203 243.496 66.5664C243.97 66.8079 244.337 67.1611 244.597 67.626C244.856 68.0908 244.986 68.6423 244.986 69.2803C244.986 69.9183 244.856 70.472 244.597 70.9414C244.337 71.4062 243.97 71.7617 243.496 72.0078C243.022 72.2539 242.468 72.377 241.835 72.377H239.312V76H237.426V66.1973H241.835ZM241.623 70.6953C242.097 70.6953 242.459 70.57 242.71 70.3193C242.965 70.0687 243.093 69.7223 243.093 69.2803C243.093 68.8428 242.965 68.501 242.71 68.2549C242.459 68.0042 242.097 67.8789 241.623 67.8789H239.312V70.6953H241.623ZM245.752 72.5C245.743 71.7936 245.884 71.1647 246.176 70.6133C246.467 70.0618 246.866 69.6335 247.372 69.3281C247.882 69.0182 248.445 68.8633 249.061 68.8633C250.022 68.8633 250.779 69.082 251.33 69.5195C251.882 69.9525 252.191 70.5951 252.26 71.4473H250.441C250.387 71.0918 250.25 70.8184 250.031 70.627C249.817 70.431 249.53 70.333 249.17 70.333H249.054C248.566 70.333 248.195 70.5358 247.939 70.9414C247.693 71.3424 247.57 71.862 247.57 72.5C247.57 73.1335 247.693 73.653 247.939 74.0586C248.195 74.4642 248.566 74.667 249.054 74.667H249.17C249.53 74.667 249.817 74.5713 250.031 74.3799C250.25 74.1839 250.387 73.9082 250.441 73.5527H252.26C252.191 74.4049 251.882 75.0498 251.33 75.4873C250.779 75.9202 250.022 76.1367 249.061 76.1367C248.445 76.1367 247.882 75.984 247.372 75.6787C246.866 75.3688 246.467 74.9382 246.176 74.3867C245.884 73.8353 245.743 73.2064 245.752 72.5ZM254.434 70.4697H252.991V69H254.434V66.7305H256.252V69H257.817V70.4697H256.252V73.6895C256.252 73.9128 256.272 74.0768 256.313 74.1816C256.354 74.2865 256.427 74.3594 256.532 74.4004C256.637 74.4414 256.801 74.4619 257.024 74.4619H258.029V76H256.252C255.66 76 255.208 75.8451 254.898 75.5352C254.589 75.2253 254.434 74.7741 254.434 74.1816V70.4697ZM265.453 76V77.4697H258.87V76H265.453ZM266.424 72.5C266.415 71.7936 266.556 71.1647 266.848 70.6133C267.139 70.0618 267.538 69.6335 268.044 69.3281C268.554 69.0182 269.117 68.8633 269.732 68.8633C270.694 68.8633 271.451 69.082 272.002 69.5195C272.553 69.9525 272.863 70.5951 272.932 71.4473H271.113C271.059 71.0918 270.922 70.8184 270.703 70.627C270.489 70.431 270.202 70.333 269.842 70.333H269.726C269.238 70.333 268.867 70.5358 268.611 70.9414C268.365 71.3424 268.242 71.862 268.242 72.5C268.242 73.1335 268.365 73.653 268.611 74.0586C268.867 74.4642 269.238 74.667 269.726 74.667H269.842C270.202 74.667 270.489 74.5713 270.703 74.3799C270.922 74.1839 271.059 73.9082 271.113 73.5527H272.932C272.863 74.4049 272.553 75.0498 272.002 75.4873C271.451 75.9202 270.694 76.1367 269.732 76.1367C269.117 76.1367 268.554 75.984 268.044 75.6787C267.538 75.3688 267.139 74.9382 266.848 74.3867C266.556 73.8353 266.415 73.2064 266.424 72.5ZM276.179 66.1973V70.0254C276.397 69.6654 276.694 69.3828 277.067 69.1777C277.446 68.9681 277.856 68.8633 278.298 68.8633C279.109 68.8633 279.715 69.1048 280.116 69.5879C280.526 70.071 280.731 70.7158 280.731 71.5225V76H278.913V71.7275C278.913 71.2764 278.817 70.9323 278.626 70.6953C278.435 70.4538 278.161 70.333 277.806 70.333H277.696C277.423 70.333 277.17 70.4128 276.938 70.5723C276.705 70.7318 276.521 70.9482 276.384 71.2217C276.247 71.4951 276.179 71.7913 276.179 72.1104V76H274.36V66.1973H276.179ZM286.583 76C286.542 75.804 286.515 75.5192 286.501 75.1455C286.278 75.4554 285.984 75.6992 285.619 75.877C285.255 76.0501 284.849 76.1367 284.402 76.1367C283.992 76.1367 283.614 76.0524 283.268 75.8838C282.921 75.7106 282.646 75.4714 282.44 75.166C282.235 74.8561 282.133 74.5052 282.133 74.1133C282.133 73.3796 282.372 72.8213 282.851 72.4385C283.325 72.0602 283.94 71.8392 284.696 71.7754L286.46 71.6182V71.4473C286.46 71.2376 286.412 71.0485 286.316 70.8799C286.225 70.7113 286.093 70.5791 285.92 70.4834C285.751 70.3831 285.558 70.333 285.339 70.333H285.223C285.013 70.333 284.824 70.3717 284.655 70.4492C284.491 70.5267 284.359 70.6292 284.259 70.7568C284.163 70.8844 284.108 71.0212 284.095 71.167H282.27C282.311 70.7295 282.461 70.3376 282.721 69.9912C282.985 69.6403 283.334 69.3646 283.767 69.1641C284.204 68.9635 284.699 68.8633 285.25 68.8633C285.847 68.8633 286.369 68.9613 286.815 69.1572C287.262 69.3486 287.608 69.6335 287.854 70.0117C288.101 70.39 288.224 70.8457 288.224 71.3789V74.4619C288.224 75.1729 288.246 75.6855 288.292 76H286.583ZM283.924 73.9561C283.924 74.1702 284.006 74.3434 284.17 74.4756C284.334 74.6032 284.541 74.667 284.792 74.667H284.901C285.175 74.667 285.43 74.6009 285.667 74.4688C285.909 74.3366 286.1 74.1543 286.241 73.9219C286.387 73.6895 286.46 73.4297 286.46 73.1426V72.9443L284.942 73.1016C284.674 73.1243 284.437 73.2064 284.231 73.3477C284.026 73.4889 283.924 73.6917 283.924 73.9561ZM291.86 69V70.0254C292.079 69.6654 292.375 69.3828 292.749 69.1777C293.127 68.9681 293.537 68.8633 293.979 68.8633C294.791 68.8633 295.397 69.1048 295.798 69.5879C296.208 70.071 296.413 70.7158 296.413 71.5225V76H294.595V71.7275C294.595 71.2764 294.499 70.9323 294.308 70.6953C294.116 70.4538 293.843 70.333 293.487 70.333H293.378C293.104 70.333 292.852 70.4128 292.619 70.5723C292.387 70.7318 292.202 70.9482 292.065 71.2217C291.929 71.4951 291.86 71.7913 291.86 72.1104V76H290.042V69H291.86ZM299.537 76.7861C299.578 77.0368 299.735 77.2373 300.009 77.3877C300.287 77.5381 300.651 77.6133 301.103 77.6133H301.185C301.499 77.6133 301.779 77.5495 302.025 77.4219C302.276 77.2943 302.472 77.1051 302.613 76.8545C302.755 76.6038 302.825 76.3008 302.825 75.9453V75.0225C302.634 75.346 302.36 75.5898 302.005 75.7539C301.649 75.918 301.253 76 300.815 76C300.273 76 299.772 75.8542 299.312 75.5625C298.856 75.2708 298.491 74.8561 298.218 74.3184C297.949 73.776 297.819 73.1471 297.828 72.4316C297.819 71.7161 297.949 71.0895 298.218 70.5518C298.491 70.0094 298.856 69.5924 299.312 69.3008C299.772 69.0091 300.273 68.8633 300.815 68.8633C301.253 68.8633 301.649 68.9453 302.005 69.1094C302.36 69.2734 302.634 69.5173 302.825 69.8408V69H304.644V76.1709C304.653 76.6768 304.511 77.1553 304.22 77.6064C303.933 78.0576 303.513 78.4176 302.962 78.6865C302.41 78.96 301.763 79.0921 301.021 79.083C300.414 79.0876 299.861 78.9919 299.359 78.7959C298.863 78.5999 298.466 78.3242 298.17 77.9688C297.878 77.6178 297.726 77.2236 297.712 76.7861H299.537ZM299.646 72.4316C299.646 72.86 299.715 73.2337 299.852 73.5527C299.988 73.8672 300.175 74.1087 300.412 74.2773C300.649 74.446 300.916 74.5303 301.212 74.5303H301.328C301.615 74.5303 301.87 74.446 302.094 74.2773C302.322 74.1087 302.499 73.8649 302.627 73.5459C302.759 73.2269 302.825 72.8555 302.825 72.4316C302.825 72.0033 302.759 71.6318 302.627 71.3174C302.499 70.9984 302.322 70.7546 302.094 70.5859C301.87 70.4173 301.615 70.333 301.328 70.333H301.212C300.916 70.333 300.649 70.4173 300.412 70.5859C300.175 70.7546 299.988 70.9984 299.852 71.3174C299.715 71.6318 299.646 72.0033 299.646 72.4316ZM306.127 72.5C306.122 71.8027 306.255 71.1761 306.523 70.6201C306.797 70.0641 307.187 69.6312 307.692 69.3213C308.198 69.0068 308.786 68.8542 309.456 68.8633C310.117 68.8587 310.687 69.0068 311.165 69.3076C311.648 69.6038 312.015 70.0186 312.266 70.5518C312.521 71.085 312.648 71.6888 312.648 72.3633C312.648 72.5319 312.639 72.7689 312.621 73.0742H307.891C307.913 73.375 308 73.6484 308.15 73.8945C308.305 74.1361 308.499 74.3252 308.731 74.4619C308.968 74.5986 309.215 74.667 309.47 74.667H309.586C309.905 74.667 310.172 74.5872 310.386 74.4277C310.604 74.2637 310.748 74.0495 310.816 73.7852H312.621C312.507 74.2591 312.307 74.6738 312.02 75.0293C311.737 75.3802 311.372 75.6536 310.926 75.8496C310.484 76.041 309.978 76.1367 309.408 76.1367C308.825 76.1367 308.28 75.9863 307.774 75.6855C307.269 75.3802 306.865 74.9518 306.564 74.4004C306.264 73.849 306.118 73.2155 306.127 72.5ZM310.885 71.6729C310.871 71.404 310.798 71.1693 310.666 70.9688C310.534 70.7637 310.361 70.6064 310.146 70.4971C309.932 70.3877 309.698 70.333 309.442 70.333H309.333C309.078 70.333 308.843 70.3877 308.629 70.4971C308.415 70.6064 308.242 70.7637 308.109 70.9688C307.977 71.1693 307.904 71.404 307.891 71.6729H310.885Z" fill="#343537"/>
<path d="M229.843 92.4971C230.522 92.4971 231.115 92.6289 231.623 92.8926C232.131 93.1514 232.524 93.5298 232.802 94.0278C233.08 94.5259 233.22 95.1167 233.22 95.8003C233.22 96.4839 233.08 97.0771 232.802 97.5801C232.524 98.0781 232.131 98.459 231.623 98.7227C231.115 98.9863 230.522 99.1182 229.843 99.1182H227.14V103H225.119V92.4971H229.843ZM229.616 97.3164C230.124 97.3164 230.512 97.1821 230.781 96.9136C231.054 96.645 231.191 96.2739 231.191 95.8003C231.191 95.3315 231.054 94.9653 230.781 94.7017C230.512 94.4331 230.124 94.2988 229.616 94.2988H227.14V97.3164H229.616ZM236.625 95.5V97.0015C236.777 96.4985 237.04 96.1104 237.416 95.8369C237.792 95.5635 238.254 95.4268 238.801 95.4268H239.181V97.2285H238.5C237.861 97.2285 237.387 97.3823 237.079 97.6899C236.777 97.9927 236.625 98.4639 236.625 99.1035V103H234.677V95.5H236.625ZM242.536 92.4971V94.5259H240.434V92.4971H242.536ZM240.507 95.5H242.455V103H240.507V95.5ZM244.059 99.25C244.05 98.4932 244.201 97.8193 244.513 97.2285C244.826 96.6377 245.253 96.1787 245.795 95.8516C246.342 95.5195 246.945 95.3535 247.604 95.3535C248.635 95.3535 249.445 95.5879 250.036 96.0566C250.627 96.5205 250.959 97.209 251.032 98.1221H249.084C249.025 97.7412 248.879 97.4482 248.644 97.2432C248.415 97.0332 248.107 96.9282 247.721 96.9282H247.597C247.074 96.9282 246.677 97.1455 246.403 97.5801C246.139 98.0098 246.008 98.5664 246.008 99.25C246.008 99.9287 246.139 100.485 246.403 100.92C246.677 101.354 247.074 101.572 247.597 101.572H247.721C248.107 101.572 248.415 101.469 248.644 101.264C248.879 101.054 249.025 100.759 249.084 100.378H251.032C250.959 101.291 250.627 101.982 250.036 102.451C249.445 102.915 248.635 103.146 247.604 103.146C246.945 103.146 246.342 102.983 245.795 102.656C245.253 102.324 244.826 101.862 244.513 101.271C244.201 100.681 244.05 100.007 244.059 99.25ZM252.145 99.25C252.14 98.5029 252.282 97.8315 252.57 97.2358C252.863 96.6401 253.281 96.1763 253.823 95.8442C254.365 95.5073 254.994 95.3438 255.712 95.3535C256.42 95.3486 257.031 95.5073 257.543 95.8296C258.061 96.147 258.454 96.5913 258.722 97.1626C258.996 97.7339 259.133 98.3809 259.133 99.1035C259.133 99.2842 259.123 99.5381 259.103 99.8652H254.035C254.059 100.188 254.152 100.48 254.313 100.744C254.479 101.003 254.687 101.206 254.936 101.352C255.19 101.499 255.453 101.572 255.727 101.572H255.851C256.193 101.572 256.479 101.486 256.708 101.315C256.943 101.14 257.096 100.91 257.17 100.627H259.103C258.981 101.135 258.766 101.579 258.459 101.96C258.156 102.336 257.765 102.629 257.287 102.839C256.813 103.044 256.271 103.146 255.661 103.146C255.036 103.146 254.452 102.985 253.91 102.663C253.368 102.336 252.936 101.877 252.614 101.286C252.292 100.695 252.136 100.017 252.145 99.25ZM257.243 98.3638C257.228 98.0757 257.15 97.8242 257.009 97.6094C256.867 97.3896 256.681 97.2212 256.452 97.104C256.222 96.9868 255.971 96.9282 255.698 96.9282H255.58C255.307 96.9282 255.055 96.9868 254.826 97.104C254.596 97.2212 254.411 97.3896 254.269 97.6094C254.128 97.8242 254.05 98.0757 254.035 98.3638H257.243ZM261.519 101.5V102.159C261.659 101.928 261.85 101.746 262.09 101.614C262.333 101.479 262.597 101.412 262.881 101.412C263.403 101.412 263.792 101.567 264.05 101.878C264.314 102.188 264.446 102.603 264.446 103.122V106H263.277V103.253C263.277 102.963 263.215 102.742 263.092 102.59C262.969 102.435 262.793 102.357 262.565 102.357H262.494C262.319 102.357 262.156 102.408 262.007 102.511C261.857 102.613 261.739 102.752 261.651 102.928C261.563 103.104 261.519 103.294 261.519 103.5V106H260.35V101.5H261.519ZM273.689 98.2759V99.9971H266.277V98.2759H273.689ZM280.647 92.4971C281.326 92.4971 281.919 92.6289 282.427 92.8926C282.935 93.1514 283.328 93.5298 283.606 94.0278C283.885 94.5259 284.024 95.1167 284.024 95.8003C284.024 96.4839 283.885 97.0771 283.606 97.5801C283.328 98.0781 282.935 98.459 282.427 98.7227C281.919 98.9863 281.326 99.1182 280.647 99.1182H277.945V103H275.923V92.4971H280.647ZM280.42 97.3164C280.928 97.3164 281.316 97.1821 281.585 96.9136C281.858 96.645 281.995 96.2739 281.995 95.8003C281.995 95.3315 281.858 94.9653 281.585 94.7017C281.316 94.4331 280.928 94.2988 280.42 94.2988H277.945V97.3164H280.42ZM287.429 95.5V97.0015C287.581 96.4985 287.844 96.1104 288.22 95.8369C288.596 95.5635 289.058 95.4268 289.605 95.4268H289.986V97.2285H289.304C288.665 97.2285 288.191 97.3823 287.884 97.6899C287.581 97.9927 287.429 98.4639 287.429 99.1035V103H285.481V95.5H287.429ZM293.34 92.4971V94.5259H291.238V92.4971H293.34ZM291.311 95.5H293.26V103H291.311V95.5ZM294.864 99.25C294.854 98.4932 295.005 97.8193 295.318 97.2285C295.63 96.6377 296.057 96.1787 296.599 95.8516C297.146 95.5195 297.749 95.3535 298.408 95.3535C299.439 95.3535 300.249 95.5879 300.84 96.0566C301.431 96.5205 301.763 97.209 301.836 98.1221H299.888C299.829 97.7412 299.683 97.4482 299.448 97.2432C299.219 97.0332 298.911 96.9282 298.526 96.9282H298.401C297.879 96.9282 297.481 97.1455 297.207 97.5801C296.944 98.0098 296.812 98.5664 296.812 99.25C296.812 99.9287 296.944 100.485 297.207 100.92C297.481 101.354 297.879 101.572 298.401 101.572H298.526C298.911 101.572 299.219 101.469 299.448 101.264C299.683 101.054 299.829 100.759 299.888 100.378H301.836C301.763 101.291 301.431 101.982 300.84 102.451C300.249 102.915 299.439 103.146 298.408 103.146C297.749 103.146 297.146 102.983 296.599 102.656C296.057 102.324 295.63 101.862 295.318 101.271C295.005 100.681 294.854 100.007 294.864 99.25ZM302.949 99.25C302.945 98.5029 303.086 97.8315 303.374 97.2358C303.667 96.6401 304.085 96.1763 304.627 95.8442C305.169 95.5073 305.799 95.3438 306.516 95.3535C307.224 95.3486 307.835 95.5073 308.347 95.8296C308.865 96.147 309.258 96.5913 309.527 97.1626C309.8 97.7339 309.937 98.3809 309.937 99.1035C309.937 99.2842 309.927 99.5381 309.907 99.8652H304.839C304.864 100.188 304.956 100.48 305.117 100.744C305.283 101.003 305.491 101.206 305.74 101.352C305.994 101.499 306.258 101.572 306.531 101.572H306.656C306.997 101.572 307.283 101.486 307.512 101.315C307.747 101.14 307.901 100.91 307.974 100.627H309.907C309.785 101.135 309.571 101.579 309.263 101.96C308.96 102.336 308.57 102.629 308.091 102.839C307.617 103.044 307.075 103.146 306.465 103.146C305.84 103.146 305.257 102.985 304.715 102.663C304.173 102.336 303.74 101.877 303.418 101.286C303.096 100.695 302.94 100.017 302.949 99.25ZM308.047 98.3638C308.032 98.0757 307.954 97.8242 307.813 97.6094C307.671 97.3896 307.486 97.2212 307.256 97.104C307.027 96.9868 306.775 96.9282 306.502 96.9282H306.385C306.111 96.9282 305.86 96.9868 305.63 97.104C305.401 97.2212 305.215 97.3896 305.073 97.6094C304.932 97.8242 304.854 98.0757 304.839 98.3638H308.047ZM312.323 101.5V102.159C312.464 101.928 312.654 101.746 312.894 101.614C313.137 101.479 313.401 101.412 313.685 101.412C314.207 101.412 314.596 101.567 314.854 101.878C315.118 102.188 315.25 102.603 315.25 103.122V106H314.081V103.253C314.081 102.963 314.019 102.742 313.896 102.59C313.773 102.435 313.597 102.357 313.369 102.357H313.299C313.123 102.357 312.96 102.408 312.811 102.511C312.661 102.613 312.543 102.752 312.455 102.928C312.367 103.104 312.323 103.294 312.323 103.5V106H311.154V101.5H312.323ZM321.127 103.166V104.198H316.68V103.166H321.127ZM324.842 106H323.7V101.399L322.307 102.735V101.25L323.898 99.6982H324.842V106Z" fill="#A36CF7"/>
<path d="M327.5 112L222 112" stroke="#A36CF7" stroke-linecap="round"/>
<path d="M255.245 121.497C255.924 121.497 256.517 121.629 257.025 121.893C257.533 122.151 257.926 122.53 258.204 123.028C258.482 123.526 258.622 124.117 258.622 124.8C258.622 125.484 258.482 126.077 258.204 126.58C257.926 127.078 257.533 127.459 257.025 127.723C256.517 127.986 255.924 128.118 255.245 128.118H252.542V132H250.521V121.497H255.245ZM255.018 126.316C255.526 126.316 255.914 126.182 256.183 125.914C256.456 125.645 256.593 125.274 256.593 124.8C256.593 124.332 256.456 123.965 256.183 123.702C255.914 123.433 255.526 123.299 255.018 123.299H252.542V126.316H255.018ZM262.027 124.5V126.001C262.179 125.499 262.442 125.11 262.818 124.837C263.194 124.563 263.656 124.427 264.203 124.427H264.584V126.229H263.902C263.263 126.229 262.789 126.382 262.481 126.69C262.179 126.993 262.027 127.464 262.027 128.104V132H260.079V124.5H262.027ZM267.938 121.497V123.526H265.836V121.497H267.938ZM265.909 124.5H267.857V132H265.909V124.5ZM269.461 128.25C269.452 127.493 269.603 126.819 269.916 126.229C270.228 125.638 270.655 125.179 271.197 124.852C271.744 124.52 272.347 124.354 273.006 124.354C274.037 124.354 274.847 124.588 275.438 125.057C276.029 125.521 276.361 126.209 276.434 127.122H274.486C274.427 126.741 274.281 126.448 274.046 126.243C273.817 126.033 273.509 125.928 273.124 125.928H272.999C272.477 125.928 272.079 126.146 271.805 126.58C271.542 127.01 271.41 127.566 271.41 128.25C271.41 128.929 271.542 129.485 271.805 129.92C272.079 130.354 272.477 130.572 272.999 130.572H273.124C273.509 130.572 273.817 130.469 274.046 130.264C274.281 130.054 274.427 129.759 274.486 129.378H276.434C276.361 130.291 276.029 130.982 275.438 131.451C274.847 131.915 274.037 132.146 273.006 132.146C272.347 132.146 271.744 131.983 271.197 131.656C270.655 131.324 270.228 130.862 269.916 130.271C269.603 129.681 269.452 129.007 269.461 128.25ZM277.547 128.25C277.542 127.503 277.684 126.832 277.972 126.236C278.265 125.64 278.683 125.176 279.225 124.844C279.767 124.507 280.397 124.344 281.114 124.354C281.822 124.349 282.433 124.507 282.945 124.83C283.463 125.147 283.856 125.591 284.125 126.163C284.398 126.734 284.535 127.381 284.535 128.104C284.535 128.284 284.525 128.538 284.505 128.865H279.437C279.461 129.188 279.554 129.48 279.715 129.744C279.881 130.003 280.089 130.206 280.338 130.352C280.592 130.499 280.855 130.572 281.129 130.572H281.253C281.595 130.572 281.881 130.486 282.11 130.315C282.345 130.14 282.499 129.91 282.572 129.627H284.505C284.383 130.135 284.168 130.579 283.861 130.96C283.558 131.336 283.167 131.629 282.689 131.839C282.215 132.044 281.673 132.146 281.063 132.146C280.438 132.146 279.855 131.985 279.313 131.663C278.771 131.336 278.338 130.877 278.016 130.286C277.694 129.695 277.538 129.017 277.547 128.25ZM282.645 127.364C282.63 127.076 282.552 126.824 282.411 126.609C282.269 126.39 282.084 126.221 281.854 126.104C281.625 125.987 281.373 125.928 281.1 125.928H280.982C280.709 125.928 280.458 125.987 280.228 126.104C279.999 126.221 279.813 126.39 279.671 126.609C279.53 126.824 279.452 127.076 279.437 127.364H282.645ZM286.921 130.5V131.159C287.062 130.928 287.252 130.746 287.492 130.614C287.735 130.479 287.999 130.412 288.283 130.412C288.805 130.412 289.194 130.567 289.452 130.878C289.716 131.188 289.848 131.603 289.848 132.122V135H288.679V132.253C288.679 131.963 288.617 131.742 288.494 131.59C288.371 131.435 288.195 131.357 287.967 131.357H287.897C287.721 131.357 287.558 131.408 287.409 131.511C287.259 131.613 287.141 131.752 287.053 131.928C286.965 132.104 286.921 132.294 286.921 132.5V135H285.752V130.5H286.921ZM295.725 132.166V133.198H291.278V132.166H295.725ZM299.44 135H298.298V130.399L296.905 131.735V130.25L298.496 128.698H299.44V135Z" fill="#A36CF7"/>
<path d="M411.585 55.1973C412.218 55.1973 412.772 55.3203 413.246 55.5664C413.72 55.8079 414.087 56.1611 414.347 56.626C414.606 57.0908 414.736 57.6423 414.736 58.2803C414.736 58.9183 414.606 59.472 414.347 59.9414C414.087 60.4062 413.72 60.7617 413.246 61.0078C412.772 61.2539 412.218 61.377 411.585 61.377H409.062V65H407.176V55.1973H411.585ZM411.373 59.6953C411.847 59.6953 412.209 59.57 412.46 59.3193C412.715 59.0687 412.843 58.7223 412.843 58.2803C412.843 57.8428 412.715 57.501 412.46 57.2549C412.209 57.0042 411.847 56.8789 411.373 56.8789H409.062V59.6953H411.373ZM415.502 61.5C415.493 60.7936 415.634 60.1647 415.926 59.6133C416.217 59.0618 416.616 58.6335 417.122 58.3281C417.632 58.0182 418.195 57.8633 418.811 57.8633C419.772 57.8633 420.529 58.082 421.08 58.5195C421.632 58.9525 421.941 59.5951 422.01 60.4473H420.191C420.137 60.0918 420 59.8184 419.781 59.627C419.567 59.431 419.28 59.333 418.92 59.333H418.804C418.316 59.333 417.945 59.5358 417.689 59.9414C417.443 60.3424 417.32 60.862 417.32 61.5C417.32 62.1335 417.443 62.653 417.689 63.0586C417.945 63.4642 418.316 63.667 418.804 63.667H418.92C419.28 63.667 419.567 63.5713 419.781 63.3799C420 63.1839 420.137 62.9082 420.191 62.5527H422.01C421.941 63.4049 421.632 64.0498 421.08 64.4873C420.529 64.9202 419.772 65.1367 418.811 65.1367C418.195 65.1367 417.632 64.984 417.122 64.6787C416.616 64.3688 416.217 63.9382 415.926 63.3867C415.634 62.8353 415.493 62.2064 415.502 61.5ZM424.184 59.4697H422.741V58H424.184V55.7305H426.002V58H427.567V59.4697H426.002V62.6895C426.002 62.9128 426.022 63.0768 426.063 63.1816C426.104 63.2865 426.177 63.3594 426.282 63.4004C426.387 63.4414 426.551 63.4619 426.774 63.4619H427.779V65H426.002C425.41 65 424.958 64.8451 424.648 64.5352C424.339 64.2253 424.184 63.7741 424.184 63.1816V59.4697ZM435.203 65V66.4697H428.62V65H435.203ZM436.174 61.5C436.165 60.7936 436.306 60.1647 436.598 59.6133C436.889 59.0618 437.288 58.6335 437.794 58.3281C438.304 58.0182 438.867 57.8633 439.482 57.8633C440.444 57.8633 441.201 58.082 441.752 58.5195C442.303 58.9525 442.613 59.5951 442.682 60.4473H440.863C440.809 60.0918 440.672 59.8184 440.453 59.627C440.239 59.431 439.952 59.333 439.592 59.333H439.476C438.988 59.333 438.617 59.5358 438.361 59.9414C438.115 60.3424 437.992 60.862 437.992 61.5C437.992 62.1335 438.115 62.653 438.361 63.0586C438.617 63.4642 438.988 63.667 439.476 63.667H439.592C439.952 63.667 440.239 63.5713 440.453 63.3799C440.672 63.1839 440.809 62.9082 440.863 62.5527H442.682C442.613 63.4049 442.303 64.0498 441.752 64.4873C441.201 64.9202 440.444 65.1367 439.482 65.1367C438.867 65.1367 438.304 64.984 437.794 64.6787C437.288 64.3688 436.889 63.9382 436.598 63.3867C436.306 62.8353 436.165 62.2064 436.174 61.5ZM445.929 55.1973V59.0254C446.147 58.6654 446.444 58.3828 446.817 58.1777C447.196 57.9681 447.606 57.8633 448.048 57.8633C448.859 57.8633 449.465 58.1048 449.866 58.5879C450.276 59.071 450.481 59.7158 450.481 60.5225V65H448.663V60.7275C448.663 60.2764 448.567 59.9323 448.376 59.6953C448.185 59.4538 447.911 59.333 447.556 59.333H447.446C447.173 59.333 446.92 59.4128 446.688 59.5723C446.455 59.7318 446.271 59.9482 446.134 60.2217C445.997 60.4951 445.929 60.7913 445.929 61.1104V65H444.11V55.1973H445.929ZM456.333 65C456.292 64.804 456.265 64.5192 456.251 64.1455C456.028 64.4554 455.734 64.6992 455.369 64.877C455.005 65.0501 454.599 65.1367 454.152 65.1367C453.742 65.1367 453.364 65.0524 453.018 64.8838C452.671 64.7106 452.396 64.4714 452.19 64.166C451.985 63.8561 451.883 63.5052 451.883 63.1133C451.883 62.3796 452.122 61.8213 452.601 61.4385C453.075 61.0602 453.69 60.8392 454.446 60.7754L456.21 60.6182V60.4473C456.21 60.2376 456.162 60.0485 456.066 59.8799C455.975 59.7113 455.843 59.5791 455.67 59.4834C455.501 59.3831 455.308 59.333 455.089 59.333H454.973C454.763 59.333 454.574 59.3717 454.405 59.4492C454.241 59.5267 454.109 59.6292 454.009 59.7568C453.913 59.8844 453.858 60.0212 453.845 60.167H452.02C452.061 59.7295 452.211 59.3376 452.471 58.9912C452.735 58.6403 453.084 58.3646 453.517 58.1641C453.954 57.9635 454.449 57.8633 455 57.8633C455.597 57.8633 456.119 57.9613 456.565 58.1572C457.012 58.3486 457.358 58.6335 457.604 59.0117C457.851 59.39 457.974 59.8457 457.974 60.3789V63.4619C457.974 64.1729 457.996 64.6855 458.042 65H456.333ZM453.674 62.9561C453.674 63.1702 453.756 63.3434 453.92 63.4756C454.084 63.6032 454.291 63.667 454.542 63.667H454.651C454.925 63.667 455.18 63.6009 455.417 63.4688C455.659 63.3366 455.85 63.1543 455.991 62.9219C456.137 62.6895 456.21 62.4297 456.21 62.1426V61.9443L454.692 62.1016C454.424 62.1243 454.187 62.2064 453.981 62.3477C453.776 62.4889 453.674 62.6917 453.674 62.9561ZM461.61 58V59.0254C461.829 58.6654 462.125 58.3828 462.499 58.1777C462.877 57.9681 463.287 57.8633 463.729 57.8633C464.541 57.8633 465.147 58.1048 465.548 58.5879C465.958 59.071 466.163 59.7158 466.163 60.5225V65H464.345V60.7275C464.345 60.2764 464.249 59.9323 464.058 59.6953C463.866 59.4538 463.593 59.333 463.237 59.333H463.128C462.854 59.333 462.602 59.4128 462.369 59.5723C462.137 59.7318 461.952 59.9482 461.815 60.2217C461.679 60.4951 461.61 60.7913 461.61 61.1104V65H459.792V58H461.61ZM469.287 65.7861C469.328 66.0368 469.485 66.2373 469.759 66.3877C470.037 66.5381 470.401 66.6133 470.853 66.6133H470.935C471.249 66.6133 471.529 66.5495 471.775 66.4219C472.026 66.2943 472.222 66.1051 472.363 65.8545C472.505 65.6038 472.575 65.3008 472.575 64.9453V64.0225C472.384 64.346 472.11 64.5898 471.755 64.7539C471.399 64.918 471.003 65 470.565 65C470.023 65 469.522 64.8542 469.062 64.5625C468.606 64.2708 468.241 63.8561 467.968 63.3184C467.699 62.776 467.569 62.1471 467.578 61.4316C467.569 60.7161 467.699 60.0895 467.968 59.5518C468.241 59.0094 468.606 58.5924 469.062 58.3008C469.522 58.0091 470.023 57.8633 470.565 57.8633C471.003 57.8633 471.399 57.9453 471.755 58.1094C472.11 58.2734 472.384 58.5173 472.575 58.8408V58H474.394V65.1709C474.403 65.6768 474.261 66.1553 473.97 66.6064C473.683 67.0576 473.263 67.4176 472.712 67.6865C472.16 67.96 471.513 68.0921 470.771 68.083C470.164 68.0876 469.611 67.9919 469.109 67.7959C468.613 67.5999 468.216 67.3242 467.92 66.9688C467.628 66.6178 467.476 66.2236 467.462 65.7861H469.287ZM469.396 61.4316C469.396 61.86 469.465 62.2337 469.602 62.5527C469.738 62.8672 469.925 63.1087 470.162 63.2773C470.399 63.446 470.666 63.5303 470.962 63.5303H471.078C471.365 63.5303 471.62 63.446 471.844 63.2773C472.072 63.1087 472.249 62.8649 472.377 62.5459C472.509 62.2269 472.575 61.8555 472.575 61.4316C472.575 61.0033 472.509 60.6318 472.377 60.3174C472.249 59.9984 472.072 59.7546 471.844 59.5859C471.62 59.4173 471.365 59.333 471.078 59.333H470.962C470.666 59.333 470.399 59.4173 470.162 59.5859C469.925 59.7546 469.738 59.9984 469.602 60.3174C469.465 60.6318 469.396 61.0033 469.396 61.4316ZM475.877 61.5C475.872 60.8027 476.005 60.1761 476.273 59.6201C476.547 59.0641 476.937 58.6312 477.442 58.3213C477.948 58.0068 478.536 57.8542 479.206 57.8633C479.867 57.8587 480.437 58.0068 480.915 58.3076C481.398 58.6038 481.765 59.0186 482.016 59.5518C482.271 60.085 482.398 60.6888 482.398 61.3633C482.398 61.5319 482.389 61.7689 482.371 62.0742H477.641C477.663 62.375 477.75 62.6484 477.9 62.8945C478.055 63.1361 478.249 63.3252 478.481 63.4619C478.718 63.5986 478.965 63.667 479.22 63.667H479.336C479.655 63.667 479.922 63.5872 480.136 63.4277C480.354 63.2637 480.498 63.0495 480.566 62.7852H482.371C482.257 63.2591 482.057 63.6738 481.77 64.0293C481.487 64.3802 481.122 64.6536 480.676 64.8496C480.234 65.041 479.728 65.1367 479.158 65.1367C478.575 65.1367 478.03 64.9863 477.524 64.6855C477.019 64.3802 476.615 63.9518 476.314 63.4004C476.014 62.849 475.868 62.2155 475.877 61.5ZM480.635 60.6729C480.621 60.404 480.548 60.1693 480.416 59.9688C480.284 59.7637 480.111 59.6064 479.896 59.4971C479.682 59.3877 479.448 59.333 479.192 59.333H479.083C478.828 59.333 478.593 59.3877 478.379 59.4971C478.165 59.6064 477.992 59.7637 477.859 59.9688C477.727 60.1693 477.654 60.404 477.641 60.6729H480.635Z" fill="#343537"/>
<path d="M428.833 86.7485C428.833 85.5962 428.995 84.6172 429.317 83.8115C429.644 83.001 430.115 82.3882 430.73 81.9731C431.351 81.5581 432.093 81.3506 432.957 81.3506C433.821 81.3506 434.561 81.5581 435.176 81.9731C435.796 82.3882 436.268 83.001 436.59 83.8115C436.917 84.6172 437.081 85.5962 437.081 86.7485C437.081 87.9009 436.917 88.8823 436.59 89.6929C436.268 90.4985 435.796 91.1089 435.176 91.5239C434.561 91.939 433.821 92.1465 432.957 92.1465C432.093 92.1465 431.351 91.939 430.73 91.5239C430.115 91.1089 429.644 90.4985 429.317 89.6929C428.995 88.8823 428.833 87.9009 428.833 86.7485ZM430.298 86.6973C430.298 87.7471 430.428 88.5771 430.687 89.1875C430.94 89.793 431.265 90.2275 431.661 90.4912C432.046 90.7451 432.454 90.8721 432.884 90.8721H433.03C433.455 90.8721 433.86 90.7451 434.246 90.4912C434.642 90.2275 434.966 89.793 435.22 89.1875C435.479 88.5771 435.608 87.7471 435.608 86.6973C435.608 85.7451 435.484 84.9639 435.235 84.3535C434.986 83.7432 434.666 83.3013 434.275 83.0278C433.89 82.7544 433.475 82.6201 433.03 82.625H432.884C432.439 82.6201 432.022 82.7544 431.631 83.0278C431.241 83.3013 430.921 83.7432 430.672 84.3535C430.423 84.9639 430.298 85.7451 430.298 86.6973ZM438.633 93.1279C439.234 93.1279 439.534 92.8276 439.534 92.2271V92H438.633V90.1982H440.435V92.3003C440.435 92.8862 440.279 93.333 439.966 93.6406C439.654 93.9482 439.209 94.1021 438.633 94.1021H438.113V93.1279H438.633ZM441.988 86.7485C441.988 85.5962 442.149 84.6172 442.471 83.8115C442.798 83.001 443.27 82.3882 443.885 81.9731C444.505 81.5581 445.247 81.3506 446.111 81.3506C446.976 81.3506 447.715 81.5581 448.331 81.9731C448.951 82.3882 449.422 83.001 449.744 83.8115C450.071 84.6172 450.235 85.5962 450.235 86.7485C450.235 87.9009 450.071 88.8823 449.744 89.6929C449.422 90.4985 448.951 91.1089 448.331 91.5239C447.715 91.939 446.976 92.1465 446.111 92.1465C445.247 92.1465 444.505 91.939 443.885 91.5239C443.27 91.1089 442.798 90.4985 442.471 89.6929C442.149 88.8823 441.988 87.9009 441.988 86.7485ZM443.453 86.6973C443.453 87.7471 443.582 88.5771 443.841 89.1875C444.095 89.793 444.419 90.2275 444.815 90.4912C445.201 90.7451 445.608 90.8721 446.038 90.8721H446.185C446.609 90.8721 447.015 90.7451 447.4 90.4912C447.796 90.2275 448.121 89.793 448.375 89.1875C448.633 88.5771 448.763 87.7471 448.763 86.6973C448.763 85.7451 448.638 84.9639 448.389 84.3535C448.14 83.7432 447.82 83.3013 447.43 83.0278C447.044 82.7544 446.629 82.6201 446.185 82.625H446.038C445.594 82.6201 445.176 82.7544 444.786 83.0278C444.395 83.3013 444.075 83.7432 443.826 84.3535C443.577 84.9639 443.453 85.7451 443.453 86.6973ZM451.919 86.7485C451.919 85.5962 452.081 84.6172 452.403 83.8115C452.73 83.001 453.201 82.3882 453.816 81.9731C454.437 81.5581 455.179 81.3506 456.043 81.3506C456.907 81.3506 457.647 81.5581 458.262 81.9731C458.882 82.3882 459.354 83.001 459.676 83.8115C460.003 84.6172 460.167 85.5962 460.167 86.7485C460.167 87.9009 460.003 88.8823 459.676 89.6929C459.354 90.4985 458.882 91.1089 458.262 91.5239C457.647 91.939 456.907 92.1465 456.043 92.1465C455.179 92.1465 454.437 91.939 453.816 91.5239C453.201 91.1089 452.73 90.4985 452.403 89.6929C452.081 88.8823 451.919 87.9009 451.919 86.7485ZM453.384 86.6973C453.384 87.7471 453.514 88.5771 453.772 89.1875C454.026 89.793 454.351 90.2275 454.747 90.4912C455.132 90.7451 455.54 90.8721 455.97 90.8721H456.116C456.541 90.8721 456.946 90.7451 457.332 90.4912C457.728 90.2275 458.052 89.793 458.306 89.1875C458.565 88.5771 458.694 87.7471 458.694 86.6973C458.694 85.7451 458.57 84.9639 458.321 84.3535C458.072 83.7432 457.752 83.3013 457.361 83.0278C456.976 82.7544 456.561 82.6201 456.116 82.625H455.97C455.525 82.6201 455.108 82.7544 454.717 83.0278C454.327 83.3013 454.007 83.7432 453.758 84.3535C453.509 84.9639 453.384 85.7451 453.384 86.6973Z" fill="#343537"/>
<path d="M428.561 112.749C428.561 111.596 428.722 110.617 429.044 109.812C429.371 109.001 429.842 108.388 430.458 107.973C431.078 107.558 431.82 107.351 432.684 107.351C433.548 107.351 434.288 107.558 434.903 107.973C435.523 108.388 435.995 109.001 436.317 109.812C436.644 110.617 436.808 111.596 436.808 112.749C436.808 113.901 436.644 114.882 436.317 115.693C435.995 116.499 435.523 117.109 434.903 117.524C434.288 117.939 433.548 118.146 432.684 118.146C431.82 118.146 431.078 117.939 430.458 117.524C429.842 117.109 429.371 116.499 429.044 115.693C428.722 114.882 428.561 113.901 428.561 112.749ZM430.025 112.697C430.025 113.747 430.155 114.577 430.414 115.188C430.667 115.793 430.992 116.228 431.388 116.491C431.773 116.745 432.181 116.872 432.611 116.872H432.757C433.182 116.872 433.587 116.745 433.973 116.491C434.369 116.228 434.693 115.793 434.947 115.188C435.206 114.577 435.335 113.747 435.335 112.697C435.335 111.745 435.211 110.964 434.962 110.354C434.713 109.743 434.393 109.301 434.002 109.028C433.617 108.754 433.202 108.62 432.757 108.625H432.611C432.167 108.62 431.749 108.754 431.358 109.028C430.968 109.301 430.648 109.743 430.399 110.354C430.15 110.964 430.025 111.745 430.025 112.697ZM438.36 119.128C438.961 119.128 439.261 118.828 439.261 118.227V118H438.36V116.198H440.162V118.3C440.162 118.886 440.006 119.333 439.693 119.641C439.381 119.948 438.937 120.102 438.36 120.102H437.84V119.128H438.36ZM449.867 115.612H448.219V118H446.776V115.612H441.612V114.177L446.791 107.497H448.219V114.338H449.867V115.612ZM446.776 114.338V109.519L443.026 114.338H446.776ZM451.192 112.749C451.192 111.596 451.354 110.617 451.676 109.812C452.003 109.001 452.474 108.388 453.089 107.973C453.709 107.558 454.452 107.351 455.316 107.351C456.18 107.351 456.92 107.558 457.535 107.973C458.155 108.388 458.626 109.001 458.949 109.812C459.276 110.617 459.439 111.596 459.439 112.749C459.439 113.901 459.276 114.882 458.949 115.693C458.626 116.499 458.155 117.109 457.535 117.524C456.92 117.939 456.18 118.146 455.316 118.146C454.452 118.146 453.709 117.939 453.089 117.524C452.474 117.109 452.003 116.499 451.676 115.693C451.354 114.882 451.192 113.901 451.192 112.749ZM452.657 112.697C452.657 113.747 452.787 114.577 453.045 115.188C453.299 115.793 453.624 116.228 454.02 116.491C454.405 116.745 454.813 116.872 455.243 116.872H455.389C455.814 116.872 456.219 116.745 456.605 116.491C457 116.228 457.325 115.793 457.579 115.188C457.838 114.577 457.967 113.747 457.967 112.697C457.967 111.745 457.843 110.964 457.594 110.354C457.345 109.743 457.025 109.301 456.634 109.028C456.249 108.754 455.833 108.62 455.389 108.625H455.243C454.798 108.62 454.381 108.754 453.99 109.028C453.6 109.301 453.28 109.743 453.031 110.354C452.782 110.964 452.657 111.745 452.657 112.697Z" fill="#343537"/>
<path d="M428.639 138.749C428.639 137.596 428.8 136.617 429.123 135.812C429.45 135.001 429.921 134.388 430.536 133.973C431.156 133.558 431.898 133.351 432.763 133.351C433.627 133.351 434.367 133.558 434.982 133.973C435.602 134.388 436.073 135.001 436.396 135.812C436.723 136.617 436.886 137.596 436.886 138.749C436.886 139.901 436.723 140.882 436.396 141.693C436.073 142.499 435.602 143.109 434.982 143.524C434.367 143.939 433.627 144.146 432.763 144.146C431.898 144.146 431.156 143.939 430.536 143.524C429.921 143.109 429.45 142.499 429.123 141.693C428.8 140.882 428.639 139.901 428.639 138.749ZM430.104 138.697C430.104 139.747 430.233 140.577 430.492 141.188C430.746 141.793 431.071 142.228 431.466 142.491C431.852 142.745 432.26 142.872 432.689 142.872H432.836C433.261 142.872 433.666 142.745 434.052 142.491C434.447 142.228 434.772 141.793 435.026 141.188C435.285 140.577 435.414 139.747 435.414 138.697C435.414 137.745 435.29 136.964 435.041 136.354C434.792 135.743 434.472 135.301 434.081 135.028C433.695 134.754 433.28 134.62 432.836 134.625H432.689C432.245 134.62 431.828 134.754 431.437 135.028C431.046 135.301 430.727 135.743 430.478 136.354C430.229 136.964 430.104 137.745 430.104 138.697ZM438.439 145.128C439.04 145.128 439.34 144.828 439.34 144.227V144H438.439V142.198H440.241V144.3C440.241 144.886 440.084 145.333 439.772 145.641C439.459 145.948 439.015 146.102 438.439 146.102H437.919V145.128H438.439ZM449.945 141.612H448.297V144H446.854V141.612H441.691V140.177L446.869 133.497H448.297V140.338H449.945V141.612ZM446.854 140.338V135.519L443.104 140.338H446.854ZM452.575 141.253C452.682 141.766 452.921 142.164 453.292 142.447C453.664 142.73 454.13 142.872 454.691 142.872H454.823C455.194 142.872 455.534 142.801 455.841 142.66C456.154 142.513 456.4 142.311 456.581 142.052C456.762 141.788 456.852 141.488 456.852 141.151C456.852 140.799 456.769 140.489 456.603 140.221C456.442 139.952 456.215 139.745 455.922 139.598C455.634 139.452 455.307 139.378 454.94 139.378H454.047V138.119H454.94C455.292 138.119 455.607 138.041 455.885 137.884C456.164 137.723 456.381 137.508 456.537 137.24C456.693 136.971 456.771 136.676 456.771 136.354C456.771 136.007 456.686 135.704 456.515 135.445C456.349 135.182 456.117 134.979 455.819 134.837C455.526 134.696 455.194 134.625 454.823 134.625H454.691C454.359 134.625 454.049 134.698 453.761 134.845C453.473 134.986 453.236 135.184 453.051 135.438C452.87 135.692 452.765 135.97 452.736 136.273H451.315C451.33 135.736 451.498 135.243 451.82 134.793C452.143 134.344 452.57 133.99 453.102 133.731C453.639 133.473 454.218 133.346 454.838 133.351C455.429 133.341 455.985 133.46 456.508 133.709C457.035 133.958 457.455 134.295 457.768 134.72C458.085 135.14 458.244 135.592 458.244 136.075C458.244 136.759 458.075 137.325 457.738 137.774C457.406 138.229 456.969 138.539 456.427 138.705C456.793 138.792 457.118 138.949 457.401 139.173C457.685 139.398 457.907 139.684 458.068 140.03C458.234 140.377 458.317 140.775 458.317 141.224C458.327 141.766 458.175 142.262 457.863 142.711C457.55 143.16 457.121 143.514 456.574 143.773C456.027 144.032 455.424 144.156 454.765 144.146C454.096 144.146 453.495 144.029 452.963 143.795C452.436 143.556 452.011 143.219 451.688 142.784C451.371 142.35 451.181 141.839 451.117 141.253H452.575Z" fill="#343537"/>
<path d="M647.326 69.7119C647.349 70.0537 647.447 70.3568 647.62 70.6211C647.798 70.8854 648.051 71.0928 648.379 71.2432C648.707 71.389 649.104 71.4619 649.568 71.4619H649.705C650.038 71.4619 650.325 71.4095 650.566 71.3047C650.808 71.1953 650.99 71.0518 651.113 70.874C651.241 70.6917 651.305 70.4912 651.305 70.2725C651.305 69.9671 651.223 69.7324 651.059 69.5684C650.895 69.3997 650.607 69.2744 650.197 69.1924L648.447 68.8301C646.766 68.4792 645.925 67.5221 645.925 65.959C645.925 65.4577 646.077 64.9837 646.383 64.5371C646.688 64.0859 647.123 63.7259 647.688 63.457C648.254 63.1836 648.903 63.0514 649.637 63.0605C650.393 63.056 651.054 63.1927 651.619 63.4707C652.184 63.7441 652.615 64.127 652.911 64.6191C653.212 65.1068 653.358 65.6605 653.349 66.2803H651.455C651.423 65.7926 651.243 65.4144 650.915 65.1455C650.591 64.8766 650.165 64.7422 649.637 64.7422H649.493C649.165 64.7422 648.873 64.7969 648.618 64.9062C648.363 65.0111 648.165 65.1546 648.023 65.3369C647.887 65.5192 647.818 65.7174 647.818 65.9316C647.818 66.2461 647.91 66.4876 648.092 66.6562C648.274 66.8249 648.579 66.9525 649.008 67.0391L650.478 67.333C651.362 67.5107 652.034 67.832 652.494 68.2969C652.959 68.7617 653.191 69.3724 653.191 70.1289C653.201 70.694 653.052 71.2067 652.747 71.667C652.442 72.1227 652.002 72.4827 651.428 72.7471C650.854 73.0114 650.186 73.1413 649.425 73.1367C648.563 73.1367 647.839 72.9977 647.251 72.7197C646.668 72.4417 646.226 72.0475 645.925 71.5371C645.624 71.0221 645.46 70.4137 645.433 69.7119H647.326ZM655.584 67.4697H654.142V66H655.584V63.7305H657.402V66H658.968V67.4697H657.402V70.6895C657.402 70.9128 657.423 71.0768 657.464 71.1816C657.505 71.2865 657.578 71.3594 657.683 71.4004C657.787 71.4414 657.951 71.4619 658.175 71.4619H659.18V73H657.402C656.81 73 656.359 72.8451 656.049 72.5352C655.739 72.2253 655.584 71.7741 655.584 71.1816V67.4697ZM660.082 69.5C660.073 68.8529 660.194 68.249 660.444 67.6885C660.7 67.1279 661.062 66.6813 661.531 66.3486C662.005 66.016 662.557 65.8542 663.186 65.8633C663.486 65.8633 663.771 65.9134 664.04 66.0137C664.313 66.1139 664.55 66.2438 664.751 66.4033C664.951 66.5628 665.102 66.7314 665.202 66.9092V63.1973H667.027V73H665.202V72.0908C665.102 72.2686 664.951 72.4372 664.751 72.5967C664.55 72.7562 664.313 72.8861 664.04 72.9863C663.771 73.0866 663.486 73.1367 663.186 73.1367C662.557 73.1458 662.005 72.984 661.531 72.6514C661.062 72.3187 660.7 71.8721 660.444 71.3115C660.194 70.751 660.073 70.1471 660.082 69.5ZM661.9 69.4863C661.9 69.9147 661.969 70.2952 662.105 70.6279C662.247 70.9561 662.438 71.2113 662.68 71.3936C662.921 71.5758 663.195 71.667 663.5 71.667H663.609C663.892 71.6761 664.156 71.5872 664.402 71.4004C664.648 71.2135 664.844 70.9538 664.99 70.6211C665.136 70.2884 665.207 69.9147 665.202 69.5C665.207 69.0853 665.136 68.7116 664.99 68.3789C664.844 68.0462 664.648 67.7865 664.402 67.5996C664.156 67.4128 663.892 67.3239 663.609 67.333H663.5C663.195 67.333 662.921 67.4219 662.68 67.5996C662.438 67.7773 662.247 68.0303 662.105 68.3584C661.969 68.682 661.9 69.0579 661.9 69.4863Z" fill="#343537"/>
<path d="M527.184 128.502C527.292 128.611 527.388 128.665 527.469 128.665C527.496 128.665 527.618 128.584 527.835 128.421C528.053 128.258 528.263 128.095 528.467 127.932L528.792 127.708L530.747 131.984C532.05 134.835 532.716 136.274 532.743 136.301C532.784 136.342 532.865 136.362 532.987 136.362C533.191 136.362 533.946 136.095 534 136L548.904 87.4887V87.3665C548.876 87.2851 548.829 87.2036 548.761 87.1222C548.693 87.0408 548.612 87 548.517 87C548.327 87 548.191 87.095 548.109 87.2851L533.618 133.858L531.888 130.091C531.725 129.738 531.514 129.269 531.256 128.686C530.632 127.328 530.265 126.534 530.157 126.303C530.048 126.073 529.953 125.957 529.872 125.957H529.851C529.811 125.957 529.777 125.971 529.75 125.998C529.695 126.039 529.437 126.235 528.976 126.588C528.514 126.941 528.066 127.281 527.632 127.607C527.197 127.932 526.987 128.136 527.001 128.217C527.014 128.299 527.075 128.394 527.184 128.502Z" fill="#18191B"/>
<path d="M786 88H548V87H786V88Z" fill="#18191B"/>
<path d="M561.13 107H553.132V105.608L556.662 101.521L553.249 97.8521V96.4971H560.976V97.8521H555.161L558.53 101.463L554.927 105.652H561.13V107ZM562.478 101.749C562.478 99.7319 562.802 98.0425 563.452 96.6802C564.101 95.3081 565.207 94.522 566.77 94.3218V95.6328C565.998 95.8184 565.405 96.2114 564.99 96.812C564.57 97.4224 564.292 98.1353 564.155 98.9507C564.018 99.7563 563.95 100.689 563.95 101.749C563.95 102.813 564.018 103.748 564.155 104.554C564.297 105.374 564.575 106.087 564.99 106.692C565.405 107.293 565.998 107.686 566.77 107.872V109.175C565.198 109.029 564.089 108.265 563.445 106.883C562.8 105.496 562.478 103.785 562.478 101.749ZM569.729 99.5V100.547C569.851 100.323 570.044 100.12 570.307 99.9395C570.576 99.7588 570.881 99.6172 571.223 99.5146C571.565 99.4072 571.907 99.3535 572.248 99.3535C572.864 99.3535 573.413 99.5122 573.896 99.8296C574.385 100.147 574.763 100.601 575.032 101.192C575.3 101.778 575.432 102.464 575.427 103.25C575.437 104.026 575.295 104.71 575.002 105.301C574.709 105.892 574.306 106.348 573.794 106.67C573.281 106.988 572.715 107.146 572.094 107.146C571.552 107.146 571.072 107.034 570.652 106.81C570.227 106.58 569.919 106.294 569.729 105.953V110.003H568.308V99.5H569.729ZM569.729 103.25C569.724 103.807 569.819 104.29 570.014 104.7C570.215 105.11 570.478 105.423 570.805 105.638C571.133 105.853 571.479 105.958 571.845 105.953H571.963C572.358 105.953 572.71 105.848 573.017 105.638C573.325 105.428 573.567 105.12 573.742 104.715C573.918 104.31 574.006 103.821 574.006 103.25C574.006 102.679 573.918 102.19 573.742 101.785C573.567 101.38 573.325 101.072 573.017 100.862C572.71 100.652 572.358 100.547 571.963 100.547H571.845C571.479 100.542 571.133 100.647 570.805 100.862C570.478 101.077 570.215 101.39 570.014 101.8C569.819 102.21 569.724 102.693 569.729 103.25ZM577.917 100.73H576.269V99.5H577.917V97.0684H579.345V99.5H581.14V100.73H579.345V105.125C579.345 105.35 579.389 105.506 579.477 105.594C579.565 105.682 579.721 105.726 579.946 105.726H581.367V107H579.565C579.043 107 578.637 106.856 578.349 106.568C578.061 106.28 577.917 105.875 577.917 105.352V100.73ZM582.37 103.25C582.361 102.508 582.5 101.841 582.788 101.25C583.081 100.655 583.501 100.188 584.048 99.8516C584.599 99.5098 585.241 99.3438 585.974 99.3535C586.54 99.3535 587.046 99.4609 587.49 99.6758C587.939 99.8906 588.298 100.196 588.567 100.591C588.84 100.987 589.001 101.448 589.05 101.976H587.622C587.553 101.546 587.375 101.202 587.087 100.943C586.799 100.679 586.448 100.547 586.032 100.547H585.908C585.459 100.547 585.075 100.667 584.758 100.906C584.441 101.146 584.201 101.47 584.04 101.88C583.879 102.291 583.799 102.747 583.799 103.25C583.799 103.753 583.879 104.209 584.04 104.62C584.201 105.03 584.441 105.354 584.758 105.594C585.075 105.833 585.459 105.953 585.908 105.953H586.032C586.448 105.953 586.799 105.823 587.087 105.564C587.375 105.301 587.553 104.954 587.622 104.524H589.05C589.001 105.052 588.84 105.513 588.567 105.909C588.298 106.304 587.939 106.609 587.49 106.824C587.046 107.039 586.54 107.146 585.974 107.146C585.241 107.156 584.599 106.993 584.048 106.656C583.501 106.314 583.081 105.848 582.788 105.257C582.5 104.661 582.361 103.992 582.37 103.25ZM596.88 107V108.274H590.127V107H596.88ZM598 103.25C597.99 102.508 598.13 101.841 598.418 101.25C598.711 100.655 599.131 100.188 599.677 99.8516C600.229 99.5098 600.871 99.3438 601.604 99.3535C602.17 99.3535 602.676 99.4609 603.12 99.6758C603.569 99.8906 603.928 100.196 604.197 100.591C604.47 100.987 604.631 101.448 604.68 101.976H603.252C603.183 101.546 603.005 101.202 602.717 100.943C602.429 100.679 602.077 100.547 601.662 100.547H601.538C601.089 100.547 600.705 100.667 600.388 100.906C600.071 101.146 599.831 101.47 599.67 101.88C599.509 102.291 599.428 102.747 599.428 103.25C599.428 103.753 599.509 104.209 599.67 104.62C599.831 105.03 600.071 105.354 600.388 105.594C600.705 105.833 601.089 105.953 601.538 105.953H601.662C602.077 105.953 602.429 105.823 602.717 105.564C603.005 105.301 603.183 104.954 603.252 104.524H604.68C604.631 105.052 604.47 105.513 604.197 105.909C603.928 106.304 603.569 106.609 603.12 106.824C602.676 107.039 602.17 107.146 601.604 107.146C600.871 107.156 600.229 106.993 599.677 106.656C599.131 106.314 598.711 105.848 598.418 105.257C598.13 104.661 597.99 103.992 598 103.25ZM607.859 96.4971V100.547C608.401 99.7515 609.201 99.3535 610.261 99.3535C610.818 99.3535 611.299 99.4609 611.704 99.6758C612.109 99.8906 612.419 100.196 612.634 100.591C612.849 100.987 612.956 101.448 612.956 101.976V107H611.535V102.276C611.535 101.719 611.408 101.292 611.155 100.994C610.901 100.696 610.522 100.547 610.019 100.547H609.902C609.541 100.542 609.201 100.635 608.884 100.826C608.572 101.011 608.32 101.277 608.13 101.624C607.944 101.966 607.854 102.359 607.859 102.803V107H606.438V96.4971H607.859ZM619.636 107C619.587 106.761 619.563 106.36 619.563 105.799C619.46 106.038 619.292 106.26 619.057 106.465C618.823 106.67 618.54 106.836 618.208 106.963C617.881 107.085 617.532 107.146 617.16 107.146C616.706 107.151 616.289 107.059 615.908 106.868C615.532 106.678 615.234 106.414 615.014 106.077C614.795 105.74 614.685 105.369 614.685 104.964C614.685 104.173 614.951 103.597 615.483 103.235C616.011 102.884 616.655 102.674 617.417 102.605L619.49 102.444V102.203C619.49 101.68 619.35 101.275 619.072 100.987C618.799 100.694 618.418 100.547 617.929 100.547H617.805C617.385 100.547 617.033 100.647 616.75 100.848C616.467 101.043 616.303 101.319 616.26 101.675H614.839C614.858 101.231 615.002 100.831 615.271 100.474C615.544 100.118 615.908 99.8418 616.362 99.6465C616.816 99.4463 617.317 99.3486 617.864 99.3535C618.489 99.3486 619.033 99.4731 619.497 99.7271C619.961 99.981 620.312 100.328 620.552 100.767C620.796 101.202 620.915 101.68 620.91 102.203V105.352C620.91 106.114 620.935 106.663 620.984 107H619.636ZM616.113 104.869C616.113 105.074 616.164 105.259 616.267 105.425C616.374 105.586 616.521 105.716 616.706 105.813C616.892 105.906 617.099 105.953 617.329 105.953H617.446C617.744 105.958 618.054 105.882 618.376 105.726C618.703 105.564 618.972 105.354 619.182 105.096C619.397 104.837 619.499 104.571 619.49 104.297V103.543L617.615 103.682C617.156 103.726 616.789 103.853 616.516 104.063C616.247 104.268 616.113 104.537 616.113 104.869ZM624.514 99.5V100.547C625.056 99.7515 625.857 99.3535 626.916 99.3535C627.473 99.3535 627.954 99.4609 628.359 99.6758C628.764 99.8906 629.074 100.196 629.289 100.591C629.504 100.987 629.612 101.448 629.612 101.976V107H628.191V102.276C628.191 101.719 628.064 101.292 627.81 100.994C627.556 100.696 627.177 100.547 626.675 100.547H626.557C626.196 100.542 625.857 100.635 625.539 100.826C625.227 101.011 624.975 101.277 624.785 101.624C624.599 101.966 624.509 102.359 624.514 102.803V107H623.093V99.5H624.514ZM632.629 107.974C632.702 108.335 632.915 108.614 633.266 108.809C633.623 109.004 634.072 109.102 634.614 109.102H634.761C635.449 109.102 635.984 108.912 636.365 108.531C636.745 108.155 636.936 107.596 636.936 106.854V105.799C636.711 106.16 636.399 106.451 635.998 106.67C635.603 106.89 635.151 107 634.643 107C634.043 107 633.491 106.851 632.988 106.553C632.485 106.255 632.085 105.818 631.787 105.242C631.489 104.666 631.345 103.978 631.355 103.177C631.35 102.366 631.494 101.673 631.787 101.097C632.08 100.521 632.478 100.086 632.981 99.793C633.484 99.5 634.043 99.3535 634.658 99.3535C635.01 99.3535 635.339 99.4097 635.647 99.522C635.959 99.6294 636.225 99.7734 636.445 99.9541C636.67 100.135 636.833 100.333 636.936 100.547V99.5H638.364V107C638.374 107.62 638.23 108.182 637.932 108.685C637.634 109.188 637.209 109.583 636.657 109.871C636.111 110.159 635.471 110.303 634.739 110.303C634.055 110.303 633.454 110.206 632.937 110.01C632.424 109.815 632.019 109.542 631.721 109.19C631.428 108.838 631.257 108.433 631.208 107.974H632.629ZM632.783 103.177C632.783 103.763 632.866 104.253 633.032 104.649C633.203 105.04 633.435 105.33 633.728 105.521C634.026 105.706 634.365 105.799 634.746 105.799H634.863C635.215 105.809 635.552 105.704 635.874 105.484C636.196 105.259 636.455 104.947 636.65 104.546C636.85 104.141 636.946 103.685 636.936 103.177C636.941 102.664 636.85 102.208 636.665 101.807C636.479 101.402 636.233 101.089 635.925 100.87C635.617 100.645 635.29 100.538 634.944 100.547H634.819C634.438 100.547 634.094 100.645 633.786 100.84C633.479 101.031 633.235 101.324 633.054 101.719C632.873 102.11 632.783 102.596 632.783 103.177ZM640.158 103.235C640.149 102.439 640.305 101.746 640.627 101.155C640.954 100.564 641.386 100.115 641.924 99.8076C642.461 99.4951 643.037 99.3438 643.652 99.3535C644.282 99.3438 644.839 99.4805 645.322 99.7637C645.81 100.042 646.186 100.433 646.45 100.936C646.714 101.438 646.843 102.01 646.838 102.649V103.477H641.587C641.606 103.99 641.721 104.437 641.931 104.817C642.141 105.193 642.402 105.479 642.715 105.674C643.032 105.865 643.354 105.958 643.681 105.953H643.806C644.192 105.953 644.536 105.853 644.839 105.652C645.136 105.447 645.322 105.157 645.395 104.781H646.816C646.728 105.269 646.535 105.691 646.238 106.048C645.94 106.404 645.566 106.678 645.117 106.868C644.673 107.054 644.184 107.146 643.652 107.146C643.017 107.146 642.431 106.993 641.894 106.685C641.357 106.373 640.93 105.921 640.613 105.33C640.3 104.739 640.149 104.041 640.158 103.235ZM645.41 102.349C645.381 101.739 645.207 101.287 644.89 100.994C644.577 100.696 644.187 100.547 643.718 100.547H643.594C643.159 100.547 642.761 100.694 642.4 100.987C642.043 101.27 641.802 101.724 641.675 102.349H645.41ZM649.085 105.5V106.128C649.41 105.651 649.891 105.412 650.527 105.412C650.861 105.412 651.149 105.477 651.392 105.605C651.636 105.734 651.822 105.917 651.95 106.155C652.079 106.392 652.144 106.669 652.144 106.985V110H651.291V107.166C651.291 106.832 651.215 106.575 651.063 106.396C650.91 106.218 650.683 106.128 650.382 106.128H650.311C650.094 106.125 649.891 106.181 649.7 106.295C649.513 106.407 649.362 106.566 649.248 106.774C649.136 106.979 649.082 107.215 649.085 107.482V110H648.233V105.5H649.085ZM661.521 102.503V103.777H654.109V102.503H661.521ZM682.197 107H674.199V105.608L677.729 101.521L674.316 97.8521V96.4971H682.043V97.8521H676.228L679.597 101.463L675.993 105.652H682.197V107ZM685.346 99.5V100.547C685.469 100.323 685.661 100.12 685.925 99.9395C686.194 99.7588 686.499 99.6172 686.841 99.5146C687.182 99.4072 687.524 99.3535 687.866 99.3535C688.481 99.3535 689.031 99.5122 689.514 99.8296C690.002 100.147 690.381 100.601 690.649 101.192C690.918 101.778 691.05 102.464 691.045 103.25C691.054 104.026 690.913 104.71 690.62 105.301C690.327 105.892 689.924 106.348 689.411 106.67C688.899 106.988 688.332 107.146 687.712 107.146C687.17 107.146 686.689 107.034 686.269 106.81C685.844 106.58 685.537 106.294 685.346 105.953V110.003H683.926V99.5H685.346ZM685.346 103.25C685.342 103.807 685.437 104.29 685.632 104.7C685.832 105.11 686.096 105.423 686.423 105.638C686.75 105.853 687.097 105.958 687.463 105.953H687.58C687.976 105.953 688.327 105.848 688.635 105.638C688.943 105.428 689.184 105.12 689.36 104.715C689.536 104.31 689.624 103.821 689.624 103.25C689.624 102.679 689.536 102.19 689.36 101.785C689.184 101.38 688.943 101.072 688.635 100.862C688.327 100.652 687.976 100.547 687.58 100.547H687.463C687.097 100.542 686.75 100.647 686.423 100.862C686.096 101.077 685.832 101.39 685.632 101.8C685.437 102.21 685.342 102.693 685.346 103.25ZM693.535 100.73H691.887V99.5H693.535V97.0684H694.963V99.5H696.758V100.73H694.963V105.125C694.963 105.35 695.007 105.506 695.095 105.594C695.183 105.682 695.339 105.726 695.564 105.726H696.985V107H695.183C694.66 107 694.255 106.856 693.967 106.568C693.679 106.28 693.535 105.875 693.535 105.352V100.73ZM697.988 103.25C697.978 102.508 698.117 101.841 698.406 101.25C698.698 100.655 699.118 100.188 699.665 99.8516C700.217 99.5098 700.859 99.3438 701.592 99.3535C702.158 99.3535 702.663 99.4609 703.108 99.6758C703.557 99.8906 703.916 100.196 704.184 100.591C704.458 100.987 704.619 101.448 704.668 101.976H703.24C703.171 101.546 702.993 101.202 702.705 100.943C702.417 100.679 702.065 100.547 701.65 100.547H701.526C701.076 100.547 700.693 100.667 700.376 100.906C700.058 101.146 699.819 101.47 699.658 101.88C699.497 102.291 699.416 102.747 699.416 103.25C699.416 103.753 699.497 104.209 699.658 104.62C699.819 105.03 700.058 105.354 700.376 105.594C700.693 105.833 701.076 105.953 701.526 105.953H701.65C702.065 105.953 702.417 105.823 702.705 105.564C702.993 105.301 703.171 104.954 703.24 104.524H704.668C704.619 105.052 704.458 105.513 704.184 105.909C703.916 106.304 703.557 106.609 703.108 106.824C702.663 107.039 702.158 107.146 701.592 107.146C700.859 107.156 700.217 106.993 699.665 106.656C699.118 106.314 698.698 105.848 698.406 105.257C698.117 104.661 697.978 103.992 697.988 103.25ZM712.497 107V108.274H705.744V107H712.497ZM713.618 103.25C713.608 102.508 713.747 101.841 714.035 101.25C714.328 100.655 714.748 100.188 715.295 99.8516C715.847 99.5098 716.489 99.3438 717.221 99.3535C717.788 99.3535 718.293 99.4609 718.738 99.6758C719.187 99.8906 719.546 100.196 719.814 100.591C720.088 100.987 720.249 101.448 720.298 101.976H718.869C718.801 101.546 718.623 101.202 718.335 100.943C718.047 100.679 717.695 100.547 717.28 100.547H717.156C716.706 100.547 716.323 100.667 716.006 100.906C715.688 101.146 715.449 101.47 715.288 101.88C715.127 102.291 715.046 102.747 715.046 103.25C715.046 103.753 715.127 104.209 715.288 104.62C715.449 105.03 715.688 105.354 716.006 105.594C716.323 105.833 716.706 105.953 717.156 105.953H717.28C717.695 105.953 718.047 105.823 718.335 105.564C718.623 105.301 718.801 104.954 718.869 104.524H720.298C720.249 105.052 720.088 105.513 719.814 105.909C719.546 106.304 719.187 106.609 718.738 106.824C718.293 107.039 717.788 107.146 717.221 107.146C716.489 107.156 715.847 106.993 715.295 106.656C714.748 106.314 714.328 105.848 714.035 105.257C713.747 104.661 713.608 103.992 713.618 103.25ZM723.476 96.4971V100.547C724.018 99.7515 724.819 99.3535 725.879 99.3535C726.435 99.3535 726.916 99.4609 727.322 99.6758C727.727 99.8906 728.037 100.196 728.252 100.591C728.467 100.987 728.574 101.448 728.574 101.976V107H727.153V102.276C727.153 101.719 727.026 101.292 726.772 100.994C726.518 100.696 726.14 100.547 725.637 100.547H725.52C725.158 100.542 724.819 100.635 724.502 100.826C724.189 101.011 723.938 101.277 723.747 101.624C723.562 101.966 723.471 102.359 723.476 102.803V107H722.055V96.4971H723.476ZM735.254 107C735.205 106.761 735.18 106.36 735.18 105.799C735.078 106.038 734.909 106.26 734.675 106.465C734.441 106.67 734.157 106.836 733.825 106.963C733.498 107.085 733.149 107.146 732.778 107.146C732.324 107.151 731.906 107.059 731.526 106.868C731.15 106.678 730.852 106.414 730.632 106.077C730.412 105.74 730.302 105.369 730.302 104.964C730.302 104.173 730.569 103.597 731.101 103.235C731.628 102.884 732.273 102.674 733.034 102.605L735.107 102.444V102.203C735.107 101.68 734.968 101.275 734.69 100.987C734.416 100.694 734.035 100.547 733.547 100.547H733.423C733.003 100.547 732.651 100.647 732.368 100.848C732.085 101.043 731.921 101.319 731.877 101.675H730.456C730.476 101.231 730.62 100.831 730.888 100.474C731.162 100.118 731.526 99.8418 731.98 99.6465C732.434 99.4463 732.934 99.3486 733.481 99.3535C734.106 99.3486 734.651 99.4731 735.115 99.7271C735.578 99.981 735.93 100.328 736.169 100.767C736.413 101.202 736.533 101.68 736.528 102.203V105.352C736.528 106.114 736.552 106.663 736.601 107H735.254ZM731.731 104.869C731.731 105.074 731.782 105.259 731.885 105.425C731.992 105.586 732.138 105.716 732.324 105.813C732.51 105.906 732.717 105.953 732.947 105.953H733.064C733.362 105.958 733.672 105.882 733.994 105.726C734.321 105.564 734.59 105.354 734.8 105.096C735.014 104.837 735.117 104.571 735.107 104.297V103.543L733.232 103.682C732.773 103.726 732.407 103.853 732.134 104.063C731.865 104.268 731.731 104.537 731.731 104.869ZM740.132 99.5V100.547C740.674 99.7515 741.474 99.3535 742.534 99.3535C743.091 99.3535 743.572 99.4609 743.977 99.6758C744.382 99.8906 744.692 100.196 744.907 100.591C745.122 100.987 745.229 101.448 745.229 101.976V107H743.808V102.276C743.808 101.719 743.681 101.292 743.427 100.994C743.174 100.696 742.795 100.547 742.292 100.547H742.175C741.814 100.542 741.474 100.635 741.157 100.826C740.844 101.011 740.593 101.277 740.403 101.624C740.217 101.966 740.127 102.359 740.132 102.803V107H738.711V99.5H740.132ZM748.247 107.974C748.32 108.335 748.532 108.614 748.884 108.809C749.24 109.004 749.69 109.102 750.232 109.102H750.378C751.067 109.102 751.601 108.912 751.982 108.531C752.363 108.155 752.553 107.596 752.553 106.854V105.799C752.329 106.16 752.016 106.451 751.616 106.67C751.22 106.89 750.769 107 750.261 107C749.66 107 749.109 106.851 748.606 106.553C748.103 106.255 747.702 105.818 747.405 105.242C747.107 104.666 746.963 103.978 746.972 103.177C746.968 102.366 747.112 101.673 747.405 101.097C747.698 100.521 748.095 100.086 748.598 99.793C749.101 99.5 749.66 99.3535 750.276 99.3535C750.627 99.3535 750.957 99.4097 751.264 99.522C751.577 99.6294 751.843 99.7734 752.063 99.9541C752.287 100.135 752.451 100.333 752.553 100.547V99.5H753.982V107C753.991 107.62 753.847 108.182 753.55 108.685C753.252 109.188 752.827 109.583 752.275 109.871C751.728 110.159 751.089 110.303 750.356 110.303C749.673 110.303 749.072 110.206 748.554 110.01C748.042 109.815 747.636 109.542 747.339 109.19C747.046 108.838 746.875 108.433 746.826 107.974H748.247ZM748.401 103.177C748.401 103.763 748.484 104.253 748.65 104.649C748.821 105.04 749.052 105.33 749.345 105.521C749.643 105.706 749.983 105.799 750.364 105.799H750.481C750.832 105.809 751.169 105.704 751.491 105.484C751.814 105.259 752.073 104.947 752.268 104.546C752.468 104.141 752.563 103.685 752.553 103.177C752.558 102.664 752.468 102.208 752.282 101.807C752.097 101.402 751.85 101.089 751.543 100.87C751.235 100.645 750.908 100.538 750.561 100.547H750.437C750.056 100.547 749.712 100.645 749.404 100.84C749.096 101.031 748.852 101.324 748.672 101.719C748.491 102.11 748.401 102.596 748.401 103.177ZM755.776 103.235C755.766 102.439 755.923 101.746 756.245 101.155C756.572 100.564 757.004 100.115 757.541 99.8076C758.078 99.4951 758.655 99.3438 759.27 99.3535C759.9 99.3438 760.456 99.4805 760.94 99.7637C761.428 100.042 761.804 100.433 762.068 100.936C762.331 101.438 762.461 102.01 762.456 102.649V103.477H757.204C757.224 103.99 757.339 104.437 757.549 104.817C757.759 105.193 758.02 105.479 758.332 105.674C758.65 105.865 758.972 105.958 759.299 105.953H759.424C759.809 105.953 760.154 105.853 760.456 105.652C760.754 105.447 760.94 105.157 761.013 104.781H762.434C762.346 105.269 762.153 105.691 761.855 106.048C761.557 106.404 761.184 106.678 760.735 106.868C760.29 107.054 759.802 107.146 759.27 107.146C758.635 107.146 758.049 106.993 757.512 106.685C756.975 106.373 756.548 105.921 756.23 105.33C755.918 104.739 755.766 104.041 755.776 103.235ZM761.028 102.349C760.998 101.739 760.825 101.287 760.508 100.994C760.195 100.696 759.804 100.547 759.336 100.547H759.211C758.777 100.547 758.379 100.694 758.017 100.987C757.661 101.27 757.419 101.724 757.292 102.349H761.028ZM767.561 101.749C767.561 103.75 767.234 105.442 766.579 106.824C765.925 108.196 764.822 108.98 763.269 109.175V107.864C764.04 107.679 764.634 107.286 765.049 106.685C765.459 106.084 765.735 105.372 765.876 104.546C766.018 103.711 766.089 102.779 766.089 101.749C766.089 100.708 766.018 99.7759 765.876 98.9507C765.735 98.1255 765.459 97.4126 765.049 96.812C764.634 96.2017 764.04 95.8062 763.269 95.6255V94.3218C764.841 94.4683 765.949 95.2349 766.594 96.6216C767.239 98.0034 767.561 99.7124 767.561 101.749ZM773.022 102H768.763V101.046L770.798 99.1128C770.86 99.0513 770.955 98.9648 771.084 98.8535C771.289 98.6689 771.459 98.5049 771.594 98.3613C771.898 98.0361 772.051 97.6948 772.051 97.3374C772.051 97.147 772.004 96.98 771.91 96.8364C771.816 96.6899 771.689 96.5771 771.528 96.498C771.366 96.416 771.186 96.375 770.987 96.375H770.899C770.674 96.375 770.471 96.4277 770.293 96.5332C770.117 96.6357 769.979 96.7793 769.88 96.9639C769.78 97.1455 769.73 97.3506 769.73 97.5791H768.829C768.826 97.1953 768.917 96.8525 769.102 96.5508C769.286 96.249 769.54 96.0161 769.862 95.8521C770.187 95.6851 770.548 95.6045 770.943 95.6104C771.303 95.6045 771.636 95.6689 771.941 95.8037C772.245 95.9385 772.487 96.1333 772.666 96.3882C772.844 96.6401 772.934 96.9346 772.934 97.2715C772.934 97.5908 772.871 97.8765 772.745 98.1284C772.616 98.3833 772.461 98.6133 772.279 98.8184C772.112 99.0059 771.865 99.252 771.536 99.5566L771.457 99.6313L769.774 101.191H773.022V102Z" fill="#343537"/>
<path d="M777 116L549 116" stroke="#343537" stroke-linecap="round"/>
<path d="M653.574 128.5V129.547C654.116 128.751 654.917 128.354 655.976 128.354C656.533 128.354 657.014 128.461 657.419 128.676C657.824 128.891 658.134 129.196 658.349 129.591C658.564 129.987 658.671 130.448 658.671 130.976V136H657.25V131.276C657.25 130.719 657.124 130.292 656.87 129.994C656.616 129.696 656.237 129.547 655.734 129.547H655.617C655.256 129.542 654.917 129.635 654.599 129.826C654.287 130.011 654.035 130.277 653.845 130.624C653.659 130.966 653.569 131.359 653.574 131.803V136H652.153V128.5H653.574ZM668.2 131.503V132.777H660.788V131.503H668.2ZM673.598 136H672.155V127.621L669.775 129.928V128.126L672.47 125.497H673.598V136Z" fill="#343537"/>
<path d="M666.253 99H665.548V94.9036L664.384 96.0316V95.1507L665.701 93.8652H666.253V99Z" fill="#343537"/>
<path d="M667.53 110H664.061V109.223L665.718 107.647C665.769 107.597 665.846 107.527 665.951 107.436C666.118 107.286 666.257 107.152 666.367 107.035C666.615 106.77 666.739 106.492 666.739 106.201C666.739 106.046 666.701 105.91 666.624 105.793C666.548 105.673 666.444 105.581 666.313 105.517C666.182 105.45 666.035 105.417 665.872 105.417H665.801C665.617 105.417 665.452 105.46 665.307 105.546C665.163 105.629 665.051 105.746 664.97 105.896C664.889 106.044 664.848 106.212 664.848 106.398H664.114C664.112 106.085 664.186 105.806 664.336 105.56C664.487 105.314 664.693 105.124 664.956 104.991C665.221 104.854 665.514 104.789 665.837 104.794C666.13 104.789 666.401 104.841 666.649 104.951C666.898 105.061 667.095 105.22 667.24 105.427C667.386 105.633 667.459 105.873 667.459 106.147C667.459 106.407 667.407 106.64 667.305 106.845C667.2 107.053 667.073 107.24 666.925 107.408C666.789 107.56 666.587 107.761 666.32 108.009L666.256 108.07L664.884 109.341H667.53V110Z" fill="#343537"/>
<path d="M668.434 102H662.567" stroke="#343537" stroke-width="0.733333" stroke-linecap="round"/>
</svg>
