<svg width="781" height="344" viewBox="0 0 781 344" fill="none" xmlns="http://www.w3.org/2000/svg">
<path d="M344 173L334 167.226L334 178.774L344 173ZM290 172C289.448 172 289 172.448 289 173C289 173.552 289.448 174 290 174L290 172ZM335 172L290 172L290 174L335 174L335 172Z" fill="#343537"/>
<path d="M208 76L198 70.2265L198 81.7735L208 76ZM154 75C153.448 75 153 75.4477 153 76C153 76.5523 153.448 77 154 77L154 75ZM199 75L154 75L154 77L199 77L199 75Z" fill="#343537"/>
<rect width="305" height="344" rx="4" fill="white"/>
<path opacity="0.8" d="M21.5303 23.1973C22.0407 23.1927 22.5101 23.2998 22.9385 23.5186C23.3714 23.7327 23.7132 24.0381 23.9639 24.4346C24.2191 24.8311 24.3421 25.2822 24.333 25.7881C24.333 26.3167 24.1895 26.777 23.9023 27.1689C23.6152 27.5563 23.2256 27.8434 22.7334 28.0303C23.2894 28.1214 23.7292 28.3721 24.0527 28.7822C24.3763 29.1924 24.5381 29.7279 24.5381 30.3887C24.5381 30.89 24.4059 31.3411 24.1416 31.7422C23.8773 32.1387 23.5241 32.4486 23.082 32.6719C22.6445 32.8952 22.1729 33.0046 21.667 33H17.2578V23.1973H21.5303ZM21.3867 31.7422C21.9245 31.7422 22.3506 31.6055 22.665 31.332C22.9795 31.0586 23.1367 30.6803 23.1367 30.1973C23.1367 29.7188 22.9795 29.3428 22.665 29.0693C22.3506 28.7959 21.9245 28.6592 21.3867 28.6592H18.6592V31.7422H21.3867ZM21.3184 27.4014C21.8105 27.4014 22.2025 27.2692 22.4941 27.0049C22.7858 26.7406 22.9316 26.3828 22.9316 25.9316C22.9316 25.4805 22.7858 25.1227 22.4941 24.8584C22.2025 24.5941 21.8105 24.4619 21.3184 24.4619H18.6592V27.4014H21.3184ZM26.2607 26H27.5938V30.3408C27.5938 31.4619 28.0654 32.0225 29.0088 32.0225H29.1182C29.4235 32.027 29.7106 31.9359 29.9795 31.749C30.2529 31.5576 30.4717 31.291 30.6357 30.9492C30.8044 30.6029 30.8864 30.2132 30.8818 29.7803V26H32.2148V33H30.8818V31.667C30.736 32.0908 30.4694 32.4417 30.082 32.7197C29.7038 32.9977 29.2253 33.1367 28.6465 33.1367C28.1452 33.1367 27.7145 33.0319 27.3545 32.8223C26.9945 32.6126 26.721 32.3187 26.5342 31.9404C26.3519 31.5622 26.2607 31.1224 26.2607 30.6211V26ZM37.1025 34.4697C36.9795 34.766 36.8428 34.9938 36.6924 35.1533C36.542 35.3128 36.3643 35.4245 36.1592 35.4883C35.9541 35.5566 35.6989 35.5908 35.3936 35.5908H33.8008V34.4014H35.1885C35.4255 34.4014 35.6032 34.3626 35.7217 34.2852C35.8402 34.2122 35.9404 34.0732 36.0225 33.8682L36.4395 32.8018L33.377 26H34.792L37.0957 31.0996L39.0781 26H40.4521L37.1025 34.4697Z" fill="#38CFFF"/>
<path d="M120.387 23.1973C120.993 23.1927 121.535 23.3112 122.014 23.5527C122.497 23.7897 122.873 24.1361 123.142 24.5918C123.41 25.043 123.543 25.5693 123.538 26.1709C123.543 26.7725 123.41 27.2988 123.142 27.75C122.873 28.2012 122.497 28.5475 122.014 28.7891C121.535 29.026 120.993 29.1423 120.387 29.1377H117.659V33H116.258V23.1973H120.387ZM120.182 27.873C120.815 27.873 121.298 27.7295 121.631 27.4424C121.968 27.1507 122.137 26.7269 122.137 26.1709C122.137 25.6149 121.968 25.1911 121.631 24.8994C121.298 24.6077 120.815 24.4619 120.182 24.4619H117.659V27.873H120.182ZM126.334 26V27.5381C126.425 27.2054 126.571 26.9183 126.771 26.6768C126.972 26.4307 127.209 26.2461 127.482 26.123C127.76 25.9954 128.054 25.9316 128.364 25.9316H128.993V27.2168H128.433C128.018 27.2168 127.658 27.3079 127.353 27.4902C127.047 27.668 126.812 27.9255 126.648 28.2627C126.484 28.5999 126.402 28.9987 126.402 29.459V33H125.076V26H126.334ZM131.734 23.1973V24.7422H130.265V23.1973H131.734ZM130.34 26H131.666V33H130.34V26ZM133.348 29.5C133.339 28.8073 133.468 28.1852 133.737 27.6338C134.011 27.0778 134.403 26.6426 134.913 26.3281C135.428 26.0091 136.027 25.8542 136.711 25.8633C137.24 25.8633 137.711 25.9635 138.126 26.1641C138.545 26.3646 138.88 26.6494 139.131 27.0186C139.386 27.3877 139.536 27.8184 139.582 28.3105H138.249C138.185 27.9095 138.019 27.5882 137.75 27.3467C137.481 27.1006 137.153 26.9775 136.766 26.9775H136.649C136.23 26.9775 135.872 27.0892 135.576 27.3125C135.28 27.5358 135.057 27.8389 134.906 28.2217C134.756 28.6045 134.681 29.0306 134.681 29.5C134.681 29.9694 134.756 30.3955 134.906 30.7783C135.057 31.1611 135.28 31.4642 135.576 31.6875C135.872 31.9108 136.23 32.0225 136.649 32.0225H136.766C137.153 32.0225 137.481 31.9017 137.75 31.6602C138.019 31.4141 138.185 31.0905 138.249 30.6895H139.582C139.536 31.1816 139.386 31.6123 139.131 31.9814C138.88 32.3506 138.545 32.6354 138.126 32.8359C137.711 33.0365 137.24 33.1367 136.711 33.1367C136.027 33.1458 135.428 32.9932 134.913 32.6787C134.403 32.3597 134.011 31.9245 133.737 31.373C133.468 30.8171 133.339 30.1927 133.348 29.5ZM140.799 29.4863C140.79 28.7435 140.936 28.0964 141.236 27.5449C141.542 26.9935 141.945 26.5742 142.446 26.2871C142.948 25.9954 143.485 25.8542 144.06 25.8633C144.647 25.8542 145.167 25.9818 145.618 26.2461C146.074 26.5059 146.425 26.8704 146.671 27.3398C146.917 27.8092 147.038 28.3424 147.033 28.9395V29.7119H142.132C142.15 30.1904 142.257 30.6074 142.453 30.9629C142.649 31.3138 142.893 31.5804 143.185 31.7627C143.481 31.9404 143.782 32.027 144.087 32.0225H144.203C144.563 32.0225 144.884 31.929 145.167 31.7422C145.445 31.5508 145.618 31.2796 145.687 30.9287H147.013C146.931 31.3844 146.751 31.7786 146.473 32.1113C146.195 32.444 145.846 32.6992 145.427 32.877C145.012 33.0501 144.556 33.1367 144.06 33.1367C143.467 33.1367 142.92 32.9932 142.419 32.7061C141.918 32.4144 141.519 31.9928 141.223 31.4414C140.931 30.89 140.79 30.2383 140.799 29.4863ZM145.7 28.6592C145.673 28.0895 145.511 27.668 145.215 27.3945C144.923 27.1165 144.559 26.9775 144.121 26.9775H144.005C143.599 26.9775 143.228 27.1143 142.891 27.3877C142.558 27.652 142.332 28.0758 142.214 28.6592H145.7Z" fill="#919294"/>
<path opacity="0.8" d="M215.907 29.8486C215.907 30.277 216.01 30.6439 216.215 30.9492C216.424 31.2546 216.716 31.487 217.09 31.6465C217.468 31.8014 217.908 31.8789 218.409 31.8789H218.553C218.967 31.8789 219.327 31.8151 219.633 31.6875C219.943 31.5553 220.177 31.3776 220.337 31.1543C220.501 30.931 220.583 30.6826 220.583 30.4092C220.583 30.0127 220.455 29.696 220.2 29.459C219.95 29.2174 219.562 29.0443 219.038 28.9395L217.473 28.6182C215.818 28.2809 214.991 27.349 214.991 25.8223C214.991 25.321 215.142 24.8584 215.442 24.4346C215.748 24.0062 216.167 23.6689 216.7 23.4229C217.233 23.1722 217.83 23.0514 218.491 23.0605C219.207 23.0605 219.833 23.1859 220.371 23.4365C220.913 23.6872 221.335 24.0449 221.636 24.5098C221.937 24.9701 222.098 25.5124 222.121 26.1367H220.72C220.697 25.7721 220.59 25.4531 220.398 25.1797C220.207 24.9062 219.952 24.6943 219.633 24.5439C219.318 24.3936 218.963 24.3184 218.566 24.3184H218.423C218.031 24.3184 217.68 24.3844 217.37 24.5166C217.065 24.6488 216.826 24.8311 216.652 25.0635C216.479 25.2959 216.393 25.5557 216.393 25.8428C216.393 26.2074 216.509 26.5059 216.741 26.7383C216.978 26.9707 217.311 27.1302 217.739 27.2168L219.305 27.5244C221.087 27.8708 221.978 28.8255 221.978 30.3887C221.978 30.9355 221.825 31.4186 221.52 31.8379C221.214 32.2572 220.786 32.5807 220.234 32.8086C219.688 33.0319 219.061 33.1413 218.354 33.1367C217.575 33.1367 216.901 33.0114 216.331 32.7607C215.766 32.5101 215.326 32.141 215.012 31.6533C214.697 31.1611 214.529 30.5596 214.506 29.8486H215.907ZM223.393 29.4863C223.383 28.7435 223.529 28.0964 223.83 27.5449C224.135 26.9935 224.539 26.5742 225.04 26.2871C225.541 25.9954 226.079 25.8542 226.653 25.8633C227.241 25.8542 227.761 25.9818 228.212 26.2461C228.668 26.5059 229.019 26.8704 229.265 27.3398C229.511 27.8092 229.632 28.3424 229.627 28.9395V29.7119H224.726C224.744 30.1904 224.851 30.6074 225.047 30.9629C225.243 31.3138 225.487 31.5804 225.778 31.7627C226.075 31.9404 226.375 32.027 226.681 32.0225H226.797C227.157 32.0225 227.478 31.929 227.761 31.7422C228.039 31.5508 228.212 31.2796 228.28 30.9287H229.606C229.524 31.3844 229.344 31.7786 229.066 32.1113C228.788 32.444 228.44 32.6992 228.021 32.877C227.606 33.0501 227.15 33.1367 226.653 33.1367C226.061 33.1367 225.514 32.9932 225.013 32.7061C224.511 32.4144 224.113 31.9928 223.816 31.4414C223.525 30.89 223.383 30.2383 223.393 29.4863ZM228.294 28.6592C228.267 28.0895 228.105 27.668 227.809 27.3945C227.517 27.1165 227.152 26.9775 226.715 26.9775H226.599C226.193 26.9775 225.822 27.1143 225.484 27.3877C225.152 27.652 224.926 28.0758 224.808 28.6592H228.294ZM232.676 23.1973V33H231.35V23.1973H232.676ZM236.107 23.1973V33H234.781V23.1973H236.107Z" fill="#FB607F"/>
<path d="M119.609 78H118.07V69.0625L115.531 71.5234V69.6016L118.406 66.7969H119.609V78ZM130.344 75.4531H128.586V78H127.047V75.4531H121.539V73.9219L127.062 66.7969H128.586V74.0938H130.344V75.4531ZM127.047 74.0938V68.9531L123.047 74.0938H127.047ZM135.469 78H133.93V69.0625L131.391 71.5234V69.6016L134.266 66.7969H135.469V78ZM139.914 76.0781V78H137.992V76.0781H139.914ZM141.539 72.3984C141.539 71.1693 141.711 70.125 142.055 69.2656C142.404 68.401 142.906 67.7474 143.562 67.3047C144.224 66.862 145.016 66.6406 145.938 66.6406C146.859 66.6406 147.648 66.862 148.305 67.3047C148.966 67.7474 149.469 68.401 149.812 69.2656C150.161 70.125 150.336 71.1693 150.336 72.3984C150.336 73.6276 150.161 74.6745 149.812 75.5391C149.469 76.3984 148.966 77.0495 148.305 77.4922C147.648 77.9349 146.859 78.1562 145.938 78.1562C145.016 78.1562 144.224 77.9349 143.562 77.4922C142.906 77.0495 142.404 76.3984 142.055 75.5391C141.711 74.6745 141.539 73.6276 141.539 72.3984ZM143.102 72.3438C143.102 73.4635 143.24 74.349 143.516 75C143.786 75.6458 144.133 76.1094 144.555 76.3906C144.966 76.6615 145.401 76.7969 145.859 76.7969H146.016C146.469 76.7969 146.901 76.6615 147.312 76.3906C147.734 76.1094 148.081 75.6458 148.352 75C148.628 74.349 148.766 73.4635 148.766 72.3438C148.766 71.3281 148.633 70.4948 148.367 69.8438C148.102 69.1927 147.76 68.7214 147.344 68.4297C146.932 68.138 146.49 67.9948 146.016 68H145.859C145.385 67.9948 144.94 68.138 144.523 68.4297C144.107 68.7214 143.766 69.1927 143.5 69.8438C143.234 70.4948 143.102 71.3281 143.102 72.3438ZM159.602 78H152.031V76.3047L155.648 72.8672C155.758 72.7578 155.927 72.6042 156.156 72.4062C156.521 72.0781 156.823 71.7865 157.062 71.5312C157.604 70.9531 157.875 70.3464 157.875 69.7109C157.875 69.3724 157.792 69.0755 157.625 68.8203C157.458 68.5599 157.232 68.3594 156.945 68.2188C156.659 68.0729 156.339 68 155.984 68H155.828C155.427 68 155.068 68.0938 154.75 68.2812C154.438 68.4635 154.193 68.7188 154.016 69.0469C153.839 69.3698 153.75 69.7344 153.75 70.1406H152.148C152.143 69.4583 152.305 68.849 152.633 68.3125C152.961 67.776 153.411 67.362 153.984 67.0703C154.562 66.7734 155.203 66.6302 155.906 66.6406C156.547 66.6302 157.138 66.7448 157.68 66.9844C158.221 67.224 158.651 67.5703 158.969 68.0234C159.286 68.4714 159.445 68.9948 159.445 69.5938C159.445 70.1615 159.333 70.6693 159.109 71.1172C158.88 71.5703 158.604 71.9792 158.281 72.3438C157.984 72.6771 157.544 73.1146 156.961 73.6562L156.82 73.7891L153.828 76.5625H159.602V78Z" fill="#13161C"/>
<path d="M222.141 68.3203C221.177 68.9036 220.385 69.6224 219.766 70.4766C219.146 71.3307 218.682 72.3516 218.375 73.5391C218.073 74.7214 217.922 76.1016 217.922 77.6797V78H216.352V77.5391C216.352 75.3151 216.716 73.4141 217.445 71.8359C218.185 70.2578 219.208 69.0599 220.516 68.2422H214.383V66.7969H222.141V68.3203ZM224.914 75.0703C225.029 75.6172 225.284 76.0417 225.68 76.3438C226.076 76.6458 226.573 76.7969 227.172 76.7969H227.312C227.708 76.7969 228.07 76.7214 228.398 76.5703C228.732 76.4141 228.995 76.1979 229.188 75.9219C229.38 75.6406 229.477 75.3203 229.477 74.9609C229.477 74.5859 229.388 74.2552 229.211 73.9688C229.039 73.6823 228.797 73.4609 228.484 73.3047C228.177 73.1484 227.828 73.0703 227.438 73.0703H226.484V71.7266H227.438C227.812 71.7266 228.148 71.6432 228.445 71.4766C228.742 71.3047 228.974 71.0755 229.141 70.7891C229.307 70.5026 229.391 70.1875 229.391 69.8438C229.391 69.474 229.299 69.151 229.117 68.875C228.94 68.5938 228.693 68.3776 228.375 68.2266C228.062 68.0755 227.708 68 227.312 68H227.172C226.818 68 226.487 68.0781 226.18 68.2344C225.872 68.3854 225.62 68.5964 225.422 68.8672C225.229 69.138 225.117 69.4349 225.086 69.7578H223.57C223.586 69.1849 223.766 68.6589 224.109 68.1797C224.453 67.7005 224.909 67.3229 225.477 67.0469C226.049 66.7708 226.667 66.6354 227.328 66.6406C227.958 66.6302 228.552 66.7578 229.109 67.0234C229.672 67.2891 230.12 67.6484 230.453 68.1016C230.792 68.5495 230.961 69.0312 230.961 69.5469C230.961 70.276 230.781 70.8802 230.422 71.3594C230.068 71.8438 229.602 72.1745 229.023 72.3516C229.414 72.4453 229.76 72.612 230.062 72.8516C230.365 73.0911 230.602 73.3958 230.773 73.7656C230.951 74.1354 231.039 74.5599 231.039 75.0391C231.049 75.6172 230.888 76.1458 230.555 76.625C230.221 77.1042 229.763 77.4818 229.18 77.7578C228.596 78.0339 227.953 78.1667 227.25 78.1562C226.536 78.1562 225.896 78.0312 225.328 77.7812C224.766 77.526 224.312 77.1667 223.969 76.7031C223.63 76.2396 223.427 75.6953 223.359 75.0703H224.914Z" fill="#FB607F"/>
<path d="M16 48.5H289V47.5H16V48.5Z" fill="#E8E9EC"/>
<path d="M119.609 126H118.07V117.062L115.531 119.523V117.602L118.406 114.797H119.609V126ZM130.344 123.453H128.586V126H127.047V123.453H121.539V121.922L127.062 114.797H128.586V122.094H130.344V123.453ZM127.047 122.094V116.953L123.047 122.094H127.047ZM135.469 126H133.93V117.062L131.391 119.523V117.602L134.266 114.797H135.469V126ZM139.914 124.078V126H137.992V124.078H139.914ZM141.539 120.398C141.539 119.169 141.711 118.125 142.055 117.266C142.404 116.401 142.906 115.747 143.562 115.305C144.224 114.862 145.016 114.641 145.938 114.641C146.859 114.641 147.648 114.862 148.305 115.305C148.966 115.747 149.469 116.401 149.812 117.266C150.161 118.125 150.336 119.169 150.336 120.398C150.336 121.628 150.161 122.674 149.812 123.539C149.469 124.398 148.966 125.049 148.305 125.492C147.648 125.935 146.859 126.156 145.938 126.156C145.016 126.156 144.224 125.935 143.562 125.492C142.906 125.049 142.404 124.398 142.055 123.539C141.711 122.674 141.539 121.628 141.539 120.398ZM143.102 120.344C143.102 121.464 143.24 122.349 143.516 123C143.786 123.646 144.133 124.109 144.555 124.391C144.966 124.661 145.401 124.797 145.859 124.797H146.016C146.469 124.797 146.901 124.661 147.312 124.391C147.734 124.109 148.081 123.646 148.352 123C148.628 122.349 148.766 121.464 148.766 120.344C148.766 119.328 148.633 118.495 148.367 117.844C148.102 117.193 147.76 116.721 147.344 116.43C146.932 116.138 146.49 115.995 146.016 116H145.859C145.385 115.995 144.94 116.138 144.523 116.43C144.107 116.721 143.766 117.193 143.5 117.844C143.234 118.495 143.102 119.328 143.102 120.344ZM155.844 126H154.305V117.062L151.766 119.523V117.602L154.641 114.797H155.844V126Z" fill="#13161C"/>
<path d="M218.609 126H217.07V117.062L214.531 119.523V117.602L217.406 114.797H218.609V126ZM224.688 126H223.148V117.062L220.609 119.523V117.602L223.484 114.797H224.688V126ZM234.602 122.398C234.612 123.107 234.443 123.75 234.094 124.328C233.745 124.901 233.268 125.352 232.664 125.68C232.065 126.008 231.406 126.167 230.688 126.156C229.99 126.161 229.346 126.042 228.758 125.797C228.174 125.547 227.701 125.188 227.336 124.719C226.977 124.245 226.776 123.685 226.734 123.039H228.297C228.344 123.409 228.474 123.727 228.688 123.992C228.901 124.253 229.174 124.453 229.508 124.594C229.841 124.729 230.206 124.797 230.602 124.797H230.766C231.198 124.802 231.589 124.703 231.938 124.5C232.286 124.297 232.557 124.018 232.75 123.664C232.948 123.305 233.044 122.909 233.039 122.477C233.044 122.086 232.948 121.727 232.75 121.398C232.557 121.07 232.289 120.812 231.945 120.625C231.607 120.438 231.24 120.346 230.844 120.352H230.688C230.302 120.352 229.927 120.448 229.562 120.641C229.188 120.833 228.896 121.099 228.688 121.438H227.133L228.492 114.797H234.492V116.242H229.656L228.883 119.867C229.174 119.581 229.521 119.365 229.922 119.219C230.328 119.068 230.747 118.992 231.18 118.992C231.831 118.992 232.419 119.146 232.945 119.453C233.471 119.755 233.88 120.167 234.172 120.688C234.469 121.208 234.612 121.779 234.602 122.398Z" fill="#FB607F"/>
<path d="M16 96.5H289V95.5H16V96.5Z" fill="#E8E9EC"/>
<path d="M119.609 174H118.07V165.062L115.531 167.523V165.602L118.406 162.797H119.609V174ZM130.344 171.453H128.586V174H127.047V171.453H121.539V169.922L127.062 162.797H128.586V170.094H130.344V171.453ZM127.047 170.094V164.953L123.047 170.094H127.047ZM135.469 174H133.93V165.062L131.391 167.523V165.602L134.266 162.797H135.469V174ZM139.914 172.078V174H137.992V172.078H139.914ZM141.539 168.398C141.539 167.169 141.711 166.125 142.055 165.266C142.404 164.401 142.906 163.747 143.562 163.305C144.224 162.862 145.016 162.641 145.938 162.641C146.859 162.641 147.648 162.862 148.305 163.305C148.966 163.747 149.469 164.401 149.812 165.266C150.161 166.125 150.336 167.169 150.336 168.398C150.336 169.628 150.161 170.674 149.812 171.539C149.469 172.398 148.966 173.049 148.305 173.492C147.648 173.935 146.859 174.156 145.938 174.156C145.016 174.156 144.224 173.935 143.562 173.492C142.906 173.049 142.404 172.398 142.055 171.539C141.711 170.674 141.539 169.628 141.539 168.398ZM143.102 168.344C143.102 169.464 143.24 170.349 143.516 171C143.786 171.646 144.133 172.109 144.555 172.391C144.966 172.661 145.401 172.797 145.859 172.797H146.016C146.469 172.797 146.901 172.661 147.312 172.391C147.734 172.109 148.081 171.646 148.352 171C148.628 170.349 148.766 169.464 148.766 168.344C148.766 167.328 148.633 166.495 148.367 165.844C148.102 165.193 147.76 164.721 147.344 164.43C146.932 164.138 146.49 163.995 146.016 164H145.859C145.385 163.995 144.94 164.138 144.523 164.43C144.107 164.721 143.766 165.193 143.5 165.844C143.234 166.495 143.102 167.328 143.102 168.344ZM152.133 168.398C152.133 167.169 152.305 166.125 152.648 165.266C152.997 164.401 153.5 163.747 154.156 163.305C154.818 162.862 155.609 162.641 156.531 162.641C157.453 162.641 158.242 162.862 158.898 163.305C159.56 163.747 160.062 164.401 160.406 165.266C160.755 166.125 160.93 167.169 160.93 168.398C160.93 169.628 160.755 170.674 160.406 171.539C160.062 172.398 159.56 173.049 158.898 173.492C158.242 173.935 157.453 174.156 156.531 174.156C155.609 174.156 154.818 173.935 154.156 173.492C153.5 173.049 152.997 172.398 152.648 171.539C152.305 170.674 152.133 169.628 152.133 168.398ZM153.695 168.344C153.695 169.464 153.833 170.349 154.109 171C154.38 171.646 154.727 172.109 155.148 172.391C155.56 172.661 155.995 172.797 156.453 172.797H156.609C157.062 172.797 157.495 172.661 157.906 172.391C158.328 172.109 158.674 171.646 158.945 171C159.221 170.349 159.359 169.464 159.359 168.344C159.359 167.328 159.227 166.495 158.961 165.844C158.695 165.193 158.354 164.721 157.938 164.43C157.526 164.138 157.083 163.995 156.609 164H156.453C155.979 163.995 155.534 164.138 155.117 164.43C154.701 164.721 154.359 165.193 154.094 165.844C153.828 166.495 153.695 167.328 153.695 168.344Z" fill="#13161C"/>
<path d="M215.102 171.242C215.102 170.586 215.276 170.031 215.625 169.578C215.974 169.109 216.43 168.771 216.992 168.562C216.612 168.469 216.258 168.286 215.93 168.016C215.607 167.745 215.349 167.417 215.156 167.031C214.969 166.641 214.878 166.232 214.883 165.805C214.872 165.201 215.026 164.656 215.344 164.172C215.661 163.688 216.104 163.31 216.672 163.039C217.245 162.768 217.891 162.635 218.609 162.641C219.323 162.635 219.964 162.768 220.531 163.039C221.104 163.31 221.549 163.688 221.867 164.172C222.19 164.656 222.346 165.201 222.336 165.805C222.341 166.232 222.247 166.641 222.055 167.031C221.867 167.417 221.609 167.745 221.281 168.016C220.958 168.286 220.607 168.469 220.227 168.562C220.794 168.776 221.247 169.115 221.586 169.578C221.935 170.031 222.109 170.586 222.109 171.242C222.109 171.799 221.958 172.302 221.656 172.75C221.354 173.193 220.935 173.539 220.398 173.789C219.867 174.039 219.271 174.161 218.609 174.156C217.943 174.161 217.341 174.039 216.805 173.789C216.273 173.539 215.857 173.193 215.555 172.75C215.253 172.302 215.102 171.799 215.102 171.242ZM216.445 165.891C216.445 166.26 216.534 166.594 216.711 166.891C216.893 167.182 217.143 167.411 217.461 167.578C217.779 167.74 218.135 167.82 218.531 167.82H218.688C219.083 167.82 219.438 167.74 219.75 167.578C220.068 167.411 220.315 167.182 220.492 166.891C220.674 166.594 220.766 166.26 220.766 165.891C220.766 165.526 220.674 165.201 220.492 164.914C220.315 164.622 220.068 164.398 219.75 164.242C219.438 164.081 219.083 164 218.688 164H218.531C218.135 164 217.779 164.081 217.461 164.242C217.143 164.398 216.893 164.622 216.711 164.914C216.534 165.201 216.445 165.526 216.445 165.891ZM216.656 171.039C216.656 171.378 216.734 171.682 216.891 171.953C217.047 172.219 217.266 172.427 217.547 172.578C217.833 172.724 218.161 172.797 218.531 172.797H218.688C219.057 172.797 219.383 172.724 219.664 172.578C219.951 172.427 220.172 172.219 220.328 171.953C220.484 171.682 220.562 171.378 220.562 171.039C220.562 170.69 220.482 170.375 220.32 170.094C220.164 169.812 219.943 169.591 219.656 169.43C219.37 169.268 219.047 169.188 218.688 169.188H218.531C218.167 169.188 217.841 169.268 217.555 169.43C217.273 169.591 217.052 169.812 216.891 170.094C216.734 170.375 216.656 170.69 216.656 171.039ZM227.828 174H226.289V165.062L223.75 167.523V165.602L226.625 162.797H227.828V174Z" fill="#FB607F"/>
<path d="M16 144.5H289V143.5H16V144.5Z" fill="#E8E9EC"/>
<path d="M24.1406 212.32C23.1771 212.904 22.3854 213.622 21.7656 214.477C21.1458 215.331 20.6823 216.352 20.375 217.539C20.0729 218.721 19.9219 220.102 19.9219 221.68V222H18.3516V221.539C18.3516 219.315 18.7161 217.414 19.4453 215.836C20.1849 214.258 21.2083 213.06 22.5156 212.242H16.3828V210.797H24.1406V212.32ZM26.9141 219.07C27.0286 219.617 27.2839 220.042 27.6797 220.344C28.0755 220.646 28.5729 220.797 29.1719 220.797H29.3125C29.7083 220.797 30.0703 220.721 30.3984 220.57C30.7318 220.414 30.9948 220.198 31.1875 219.922C31.3802 219.641 31.4766 219.32 31.4766 218.961C31.4766 218.586 31.388 218.255 31.2109 217.969C31.0391 217.682 30.7969 217.461 30.4844 217.305C30.1771 217.148 29.8281 217.07 29.4375 217.07H28.4844V215.727H29.4375C29.8125 215.727 30.1484 215.643 30.4453 215.477C30.7422 215.305 30.974 215.076 31.1406 214.789C31.3073 214.503 31.3906 214.188 31.3906 213.844C31.3906 213.474 31.2995 213.151 31.1172 212.875C30.9401 212.594 30.6927 212.378 30.375 212.227C30.0625 212.076 29.7083 212 29.3125 212H29.1719C28.8177 212 28.487 212.078 28.1797 212.234C27.8724 212.385 27.6198 212.596 27.4219 212.867C27.2292 213.138 27.1172 213.435 27.0859 213.758H25.5703C25.5859 213.185 25.7656 212.659 26.1094 212.18C26.4531 211.701 26.9089 211.323 27.4766 211.047C28.0495 210.771 28.6667 210.635 29.3281 210.641C29.9583 210.63 30.5521 210.758 31.1094 211.023C31.6719 211.289 32.1198 211.648 32.4531 212.102C32.7917 212.549 32.9609 213.031 32.9609 213.547C32.9609 214.276 32.7812 214.88 32.4219 215.359C32.0677 215.844 31.6016 216.174 31.0234 216.352C31.4141 216.445 31.7604 216.612 32.0625 216.852C32.3646 217.091 32.6016 217.396 32.7734 217.766C32.9505 218.135 33.0391 218.56 33.0391 219.039C33.0495 219.617 32.888 220.146 32.5547 220.625C32.2214 221.104 31.763 221.482 31.1797 221.758C30.5964 222.034 29.9531 222.167 29.25 222.156C28.5365 222.156 27.8958 222.031 27.3281 221.781C26.7656 221.526 26.3125 221.167 25.9688 220.703C25.6302 220.24 25.4271 219.695 25.3594 219.07H26.9141Z" fill="#38CFFF"/>
<path d="M119.609 222H118.07V213.062L115.531 215.523V213.602L118.406 210.797H119.609V222ZM130.344 219.453H128.586V222H127.047V219.453H121.539V217.922L127.062 210.797H128.586V218.094H130.344V219.453ZM127.047 218.094V212.953L123.047 218.094H127.047ZM131.758 216.398C131.758 215.169 131.93 214.125 132.273 213.266C132.622 212.401 133.125 211.747 133.781 211.305C134.443 210.862 135.234 210.641 136.156 210.641C137.078 210.641 137.867 210.862 138.523 211.305C139.185 211.747 139.688 212.401 140.031 213.266C140.38 214.125 140.555 215.169 140.555 216.398C140.555 217.628 140.38 218.674 140.031 219.539C139.688 220.398 139.185 221.049 138.523 221.492C137.867 221.935 137.078 222.156 136.156 222.156C135.234 222.156 134.443 221.935 133.781 221.492C133.125 221.049 132.622 220.398 132.273 219.539C131.93 218.674 131.758 217.628 131.758 216.398ZM133.32 216.344C133.32 217.464 133.458 218.349 133.734 219C134.005 219.646 134.352 220.109 134.773 220.391C135.185 220.661 135.62 220.797 136.078 220.797H136.234C136.688 220.797 137.12 220.661 137.531 220.391C137.953 220.109 138.299 219.646 138.57 219C138.846 218.349 138.984 217.464 138.984 216.344C138.984 215.328 138.852 214.495 138.586 213.844C138.32 213.193 137.979 212.721 137.562 212.43C137.151 212.138 136.708 211.995 136.234 212H136.078C135.604 211.995 135.159 212.138 134.742 212.43C134.326 212.721 133.984 213.193 133.719 213.844C133.453 214.495 133.32 215.328 133.32 216.344ZM144.102 220.078V222H142.18V220.078H144.102ZM154.195 215.961C154.195 217.19 153.982 218.266 153.555 219.188C153.122 220.125 152.544 220.854 151.82 221.375C151.096 221.896 150.31 222.156 149.461 222.156C148.826 222.156 148.258 222.044 147.758 221.82C147.258 221.591 146.846 221.26 146.523 220.828C146.206 220.396 145.995 219.88 145.891 219.281H147.461C147.586 219.75 147.812 220.117 148.141 220.383C148.469 220.648 148.872 220.781 149.352 220.781H149.539C150.112 220.792 150.635 220.609 151.109 220.234C151.589 219.854 151.977 219.323 152.273 218.641C152.57 217.958 152.745 217.182 152.797 216.312C152.521 216.885 152.107 217.336 151.555 217.664C151.008 217.992 150.385 218.156 149.688 218.156C149.036 218.156 148.438 218 147.891 217.688C147.344 217.37 146.911 216.932 146.594 216.375C146.276 215.812 146.122 215.18 146.133 214.477C146.122 213.742 146.289 213.081 146.633 212.492C146.977 211.904 147.448 211.445 148.047 211.117C148.651 210.789 149.32 210.63 150.055 210.641C150.872 210.635 151.594 210.846 152.219 211.273C152.844 211.695 153.328 212.31 153.672 213.117C154.021 213.919 154.195 214.867 154.195 215.961ZM147.703 214.398C147.698 214.852 147.797 215.263 148 215.633C148.203 216.003 148.477 216.292 148.82 216.5C149.169 216.703 149.542 216.802 149.938 216.797H150.102C150.487 216.802 150.859 216.698 151.219 216.484C151.583 216.266 151.875 215.971 152.094 215.602C152.312 215.232 152.417 214.836 152.406 214.414C152.417 213.992 152.312 213.596 152.094 213.227C151.875 212.852 151.583 212.555 151.219 212.336C150.859 212.117 150.487 212.01 150.102 212.016H149.938C149.542 212.01 149.172 212.112 148.828 212.32C148.484 212.523 148.208 212.81 148 213.18C147.797 213.544 147.698 213.951 147.703 214.398ZM163.203 212.32C162.24 212.904 161.448 213.622 160.828 214.477C160.208 215.331 159.745 216.352 159.438 217.539C159.135 218.721 158.984 220.102 158.984 221.68V222H157.414V221.539C157.414 219.315 157.779 217.414 158.508 215.836C159.247 214.258 160.271 213.06 161.578 212.242H155.445V210.797H163.203V212.32Z" fill="#13161C"/>
<path d="M16 192.5H289V191.5H16V192.5Z" fill="#E8E9EC"/>
<path d="M20.6094 270H19.0703V261.062L16.5312 263.523V261.602L19.4062 258.797H20.6094V270ZM22.9766 264.398C22.9766 263.169 23.1484 262.125 23.4922 261.266C23.8411 260.401 24.3438 259.747 25 259.305C25.6615 258.862 26.4531 258.641 27.375 258.641C28.2969 258.641 29.0859 258.862 29.7422 259.305C30.4036 259.747 30.9062 260.401 31.25 261.266C31.599 262.125 31.7734 263.169 31.7734 264.398C31.7734 265.628 31.599 266.674 31.25 267.539C30.9062 268.398 30.4036 269.049 29.7422 269.492C29.0859 269.935 28.2969 270.156 27.375 270.156C26.4531 270.156 25.6615 269.935 25 269.492C24.3438 269.049 23.8411 268.398 23.4922 267.539C23.1484 266.674 22.9766 265.628 22.9766 264.398ZM24.5391 264.344C24.5391 265.464 24.6771 266.349 24.9531 267C25.224 267.646 25.5703 268.109 25.9922 268.391C26.4036 268.661 26.8385 268.797 27.2969 268.797H27.4531C27.9062 268.797 28.3385 268.661 28.75 268.391C29.1719 268.109 29.5182 267.646 29.7891 267C30.0651 266.349 30.2031 265.464 30.2031 264.344C30.2031 263.328 30.0703 262.495 29.8047 261.844C29.5391 261.193 29.1979 260.721 28.7812 260.43C28.3698 260.138 27.9271 259.995 27.4531 260H27.2969C26.8229 259.995 26.3776 260.138 25.9609 260.43C25.5443 260.721 25.2031 261.193 24.9375 261.844C24.6719 262.495 24.5391 263.328 24.5391 264.344ZM41.6016 266.32C41.612 267.06 41.4453 267.724 41.1016 268.312C40.7578 268.896 40.2839 269.352 39.6797 269.68C39.0807 270.008 38.4141 270.167 37.6797 270.156C36.862 270.161 36.1406 269.953 35.5156 269.531C34.8906 269.109 34.4036 268.497 34.0547 267.695C33.7109 266.888 33.5391 265.935 33.5391 264.836C33.5391 263.612 33.7526 262.539 34.1797 261.617C34.6068 260.685 35.1849 259.956 35.9141 259.43C36.6432 258.904 37.4297 258.641 38.2734 258.641C38.9089 258.641 39.4766 258.755 39.9766 258.984C40.4766 259.208 40.8854 259.536 41.2031 259.969C41.526 260.401 41.7396 260.919 41.8438 261.523H40.2734C40.1484 261.049 39.9219 260.68 39.5938 260.414C39.2656 260.148 38.862 260.016 38.3828 260.016H38.1953C37.6224 260.005 37.099 260.19 36.625 260.57C36.151 260.945 35.7656 261.474 35.4688 262.156C35.1719 262.833 34.9948 263.607 34.9375 264.477C35.2135 263.904 35.625 263.456 36.1719 263.133C36.7292 262.805 37.349 262.641 38.0312 262.641C38.6823 262.641 39.2839 262.799 39.8359 263.117C40.388 263.43 40.8229 263.867 41.1406 264.43C41.4583 264.987 41.612 265.617 41.6016 266.32ZM35.3281 266.383C35.3177 266.805 35.4219 267.203 35.6406 267.578C35.8594 267.948 36.1484 268.242 36.5078 268.461C36.8672 268.68 37.2422 268.786 37.6328 268.781H37.7891C38.1849 268.786 38.5547 268.688 38.8984 268.484C39.2474 268.276 39.5234 267.99 39.7266 267.625C39.9349 267.255 40.0365 266.846 40.0312 266.398C40.0365 265.951 39.9349 265.542 39.7266 265.172C39.5234 264.802 39.2474 264.513 38.8984 264.305C38.5547 264.096 38.1849 263.995 37.7891 264H37.6328C37.2422 263.995 36.8672 264.099 36.5078 264.312C36.1484 264.526 35.8594 264.818 35.6406 265.188C35.4219 265.557 35.3177 265.956 35.3281 266.383Z" fill="#38CFFF"/>
<path d="M119.609 270H118.07V261.062L115.531 263.523V261.602L118.406 258.797H119.609V270ZM130.344 267.453H128.586V270H127.047V267.453H121.539V265.922L127.062 258.797H128.586V266.094H130.344V267.453ZM127.047 266.094V260.953L123.047 266.094H127.047ZM131.758 264.398C131.758 263.169 131.93 262.125 132.273 261.266C132.622 260.401 133.125 259.747 133.781 259.305C134.443 258.862 135.234 258.641 136.156 258.641C137.078 258.641 137.867 258.862 138.523 259.305C139.185 259.747 139.688 260.401 140.031 261.266C140.38 262.125 140.555 263.169 140.555 264.398C140.555 265.628 140.38 266.674 140.031 267.539C139.688 268.398 139.185 269.049 138.523 269.492C137.867 269.935 137.078 270.156 136.156 270.156C135.234 270.156 134.443 269.935 133.781 269.492C133.125 269.049 132.622 268.398 132.273 267.539C131.93 266.674 131.758 265.628 131.758 264.398ZM133.32 264.344C133.32 265.464 133.458 266.349 133.734 267C134.005 267.646 134.352 268.109 134.773 268.391C135.185 268.661 135.62 268.797 136.078 268.797H136.234C136.688 268.797 137.12 268.661 137.531 268.391C137.953 268.109 138.299 267.646 138.57 267C138.846 266.349 138.984 265.464 138.984 264.344C138.984 263.328 138.852 262.495 138.586 261.844C138.32 261.193 137.979 260.721 137.562 260.43C137.151 260.138 136.708 259.995 136.234 260H136.078C135.604 259.995 135.159 260.138 134.742 260.43C134.326 260.721 133.984 261.193 133.719 261.844C133.453 262.495 133.32 263.328 133.32 264.344ZM144.102 268.078V270H142.18V268.078H144.102ZM154.195 263.961C154.195 265.19 153.982 266.266 153.555 267.188C153.122 268.125 152.544 268.854 151.82 269.375C151.096 269.896 150.31 270.156 149.461 270.156C148.826 270.156 148.258 270.044 147.758 269.82C147.258 269.591 146.846 269.26 146.523 268.828C146.206 268.396 145.995 267.88 145.891 267.281H147.461C147.586 267.75 147.812 268.117 148.141 268.383C148.469 268.648 148.872 268.781 149.352 268.781H149.539C150.112 268.792 150.635 268.609 151.109 268.234C151.589 267.854 151.977 267.323 152.273 266.641C152.57 265.958 152.745 265.182 152.797 264.312C152.521 264.885 152.107 265.336 151.555 265.664C151.008 265.992 150.385 266.156 149.688 266.156C149.036 266.156 148.438 266 147.891 265.688C147.344 265.37 146.911 264.932 146.594 264.375C146.276 263.812 146.122 263.18 146.133 262.477C146.122 261.742 146.289 261.081 146.633 260.492C146.977 259.904 147.448 259.445 148.047 259.117C148.651 258.789 149.32 258.63 150.055 258.641C150.872 258.635 151.594 258.846 152.219 259.273C152.844 259.695 153.328 260.31 153.672 261.117C154.021 261.919 154.195 262.867 154.195 263.961ZM147.703 262.398C147.698 262.852 147.797 263.263 148 263.633C148.203 264.003 148.477 264.292 148.82 264.5C149.169 264.703 149.542 264.802 149.938 264.797H150.102C150.487 264.802 150.859 264.698 151.219 264.484C151.583 264.266 151.875 263.971 152.094 263.602C152.312 263.232 152.417 262.836 152.406 262.414C152.417 261.992 152.312 261.596 152.094 261.227C151.875 260.852 151.583 260.555 151.219 260.336C150.859 260.117 150.487 260.01 150.102 260.016H149.938C149.542 260.01 149.172 260.112 148.828 260.32C148.484 260.523 148.208 260.81 148 261.18C147.797 261.544 147.698 261.951 147.703 262.398ZM163.992 266.32C164.003 267.06 163.836 267.724 163.492 268.312C163.148 268.896 162.674 269.352 162.07 269.68C161.471 270.008 160.805 270.167 160.07 270.156C159.253 270.161 158.531 269.953 157.906 269.531C157.281 269.109 156.794 268.497 156.445 267.695C156.102 266.888 155.93 265.935 155.93 264.836C155.93 263.612 156.143 262.539 156.57 261.617C156.997 260.685 157.576 259.956 158.305 259.43C159.034 258.904 159.82 258.641 160.664 258.641C161.299 258.641 161.867 258.755 162.367 258.984C162.867 259.208 163.276 259.536 163.594 259.969C163.917 260.401 164.13 260.919 164.234 261.523H162.664C162.539 261.049 162.312 260.68 161.984 260.414C161.656 260.148 161.253 260.016 160.773 260.016H160.586C160.013 260.005 159.49 260.19 159.016 260.57C158.542 260.945 158.156 261.474 157.859 262.156C157.562 262.833 157.385 263.607 157.328 264.477C157.604 263.904 158.016 263.456 158.562 263.133C159.12 262.805 159.74 262.641 160.422 262.641C161.073 262.641 161.674 262.799 162.227 263.117C162.779 263.43 163.214 263.867 163.531 264.43C163.849 264.987 164.003 265.617 163.992 266.32ZM157.719 266.383C157.708 266.805 157.812 267.203 158.031 267.578C158.25 267.948 158.539 268.242 158.898 268.461C159.258 268.68 159.633 268.786 160.023 268.781H160.18C160.576 268.786 160.945 268.688 161.289 268.484C161.638 268.276 161.914 267.99 162.117 267.625C162.326 267.255 162.427 266.846 162.422 266.398C162.427 265.951 162.326 265.542 162.117 265.172C161.914 264.802 161.638 264.513 161.289 264.305C160.945 264.096 160.576 263.995 160.18 264H160.023C159.633 263.995 159.258 264.099 158.898 264.312C158.539 264.526 158.25 264.818 158.031 265.188C157.812 265.557 157.708 265.956 157.719 266.383Z" fill="#13161C"/>
<path d="M16 240.5H289V239.5H16V240.5Z" fill="#E8E9EC"/>
<path d="M25.2656 315.453H23.5078V318H21.9688V315.453H16.4609V313.922L21.9844 306.797H23.5078V314.094H25.2656V315.453ZM21.9688 314.094V308.953L17.9688 314.094H21.9688ZM33.9219 308.32C32.9583 308.904 32.1667 309.622 31.5469 310.477C30.9271 311.331 30.4635 312.352 30.1562 313.539C29.8542 314.721 29.7031 316.102 29.7031 317.68V318H28.1328V317.539C28.1328 315.315 28.4974 313.414 29.2266 311.836C29.9661 310.258 30.9896 309.06 32.2969 308.242H26.1641V306.797H33.9219V308.32Z" fill="#38CFFF"/>
<path d="M119.609 318H118.07V309.062L115.531 311.523V309.602L118.406 306.797H119.609V318ZM130.344 315.453H128.586V318H127.047V315.453H121.539V313.922L127.062 306.797H128.586V314.094H130.344V315.453ZM127.047 314.094V308.953L123.047 314.094H127.047ZM131.758 312.398C131.758 311.169 131.93 310.125 132.273 309.266C132.622 308.401 133.125 307.747 133.781 307.305C134.443 306.862 135.234 306.641 136.156 306.641C137.078 306.641 137.867 306.862 138.523 307.305C139.185 307.747 139.688 308.401 140.031 309.266C140.38 310.125 140.555 311.169 140.555 312.398C140.555 313.628 140.38 314.674 140.031 315.539C139.688 316.398 139.185 317.049 138.523 317.492C137.867 317.935 137.078 318.156 136.156 318.156C135.234 318.156 134.443 317.935 133.781 317.492C133.125 317.049 132.622 316.398 132.273 315.539C131.93 314.674 131.758 313.628 131.758 312.398ZM133.32 312.344C133.32 313.464 133.458 314.349 133.734 315C134.005 315.646 134.352 316.109 134.773 316.391C135.185 316.661 135.62 316.797 136.078 316.797H136.234C136.688 316.797 137.12 316.661 137.531 316.391C137.953 316.109 138.299 315.646 138.57 315C138.846 314.349 138.984 313.464 138.984 312.344C138.984 311.328 138.852 310.495 138.586 309.844C138.32 309.193 137.979 308.721 137.562 308.43C137.151 308.138 136.708 307.995 136.234 308H136.078C135.604 307.995 135.159 308.138 134.742 308.43C134.326 308.721 133.984 309.193 133.719 309.844C133.453 310.495 133.32 311.328 133.32 312.344ZM144.102 316.078V318H142.18V316.078H144.102ZM154.195 311.961C154.195 313.19 153.982 314.266 153.555 315.188C153.122 316.125 152.544 316.854 151.82 317.375C151.096 317.896 150.31 318.156 149.461 318.156C148.826 318.156 148.258 318.044 147.758 317.82C147.258 317.591 146.846 317.26 146.523 316.828C146.206 316.396 145.995 315.88 145.891 315.281H147.461C147.586 315.75 147.812 316.117 148.141 316.383C148.469 316.648 148.872 316.781 149.352 316.781H149.539C150.112 316.792 150.635 316.609 151.109 316.234C151.589 315.854 151.977 315.323 152.273 314.641C152.57 313.958 152.745 313.182 152.797 312.312C152.521 312.885 152.107 313.336 151.555 313.664C151.008 313.992 150.385 314.156 149.688 314.156C149.036 314.156 148.438 314 147.891 313.688C147.344 313.37 146.911 312.932 146.594 312.375C146.276 311.812 146.122 311.18 146.133 310.477C146.122 309.742 146.289 309.081 146.633 308.492C146.977 307.904 147.448 307.445 148.047 307.117C148.651 306.789 149.32 306.63 150.055 306.641C150.872 306.635 151.594 306.846 152.219 307.273C152.844 307.695 153.328 308.31 153.672 309.117C154.021 309.919 154.195 310.867 154.195 311.961ZM147.703 310.398C147.698 310.852 147.797 311.263 148 311.633C148.203 312.003 148.477 312.292 148.82 312.5C149.169 312.703 149.542 312.802 149.938 312.797H150.102C150.487 312.802 150.859 312.698 151.219 312.484C151.583 312.266 151.875 311.971 152.094 311.602C152.312 311.232 152.417 310.836 152.406 310.414C152.417 309.992 152.312 309.596 152.094 309.227C151.875 308.852 151.583 308.555 151.219 308.336C150.859 308.117 150.487 308.01 150.102 308.016H149.938C149.542 308.01 149.172 308.112 148.828 308.32C148.484 308.523 148.208 308.81 148 309.18C147.797 309.544 147.698 309.951 147.703 310.398ZM163.508 314.398C163.518 315.107 163.349 315.75 163 316.328C162.651 316.901 162.174 317.352 161.57 317.68C160.971 318.008 160.312 318.167 159.594 318.156C158.896 318.161 158.253 318.042 157.664 317.797C157.081 317.547 156.607 317.188 156.242 316.719C155.883 316.245 155.682 315.685 155.641 315.039H157.203C157.25 315.409 157.38 315.727 157.594 315.992C157.807 316.253 158.081 316.453 158.414 316.594C158.747 316.729 159.112 316.797 159.508 316.797H159.672C160.104 316.802 160.495 316.703 160.844 316.5C161.193 316.297 161.464 316.018 161.656 315.664C161.854 315.305 161.951 314.909 161.945 314.477C161.951 314.086 161.854 313.727 161.656 313.398C161.464 313.07 161.195 312.812 160.852 312.625C160.513 312.438 160.146 312.346 159.75 312.352H159.594C159.208 312.352 158.833 312.448 158.469 312.641C158.094 312.833 157.802 313.099 157.594 313.438H156.039L157.398 306.797H163.398V308.242H158.562L157.789 311.867C158.081 311.581 158.427 311.365 158.828 311.219C159.234 311.068 159.654 310.992 160.086 310.992C160.737 310.992 161.326 311.146 161.852 311.453C162.378 311.755 162.786 312.167 163.078 312.688C163.375 313.208 163.518 313.779 163.508 314.398Z" fill="#13161C"/>
<path d="M16 288.5H289V287.5H16V288.5Z" fill="#E8E9EC"/>
<path d="M425.098 151H422.65L418.897 141.197H421.01L423.915 149.018L426.697 141.197H428.769L425.098 151ZM428.577 147.5C428.568 146.816 428.712 146.197 429.008 145.641C429.309 145.08 429.726 144.643 430.259 144.328C430.797 144.009 431.403 143.854 432.077 143.863C432.752 143.854 433.355 144.009 433.889 144.328C434.426 144.643 434.843 145.08 435.14 145.641C435.44 146.197 435.586 146.816 435.577 147.5C435.586 148.184 435.44 148.806 435.14 149.366C434.843 149.922 434.426 150.36 433.889 150.679C433.355 150.993 432.752 151.146 432.077 151.137C431.403 151.146 430.797 150.993 430.259 150.679C429.726 150.36 429.309 149.922 429.008 149.366C428.712 148.806 428.568 148.184 428.577 147.5ZM430.409 147.5C430.409 147.947 430.475 148.334 430.607 148.662C430.74 148.986 430.926 149.234 431.168 149.407C431.41 149.58 431.694 149.667 432.022 149.667H432.132C432.455 149.667 432.738 149.58 432.979 149.407C433.226 149.234 433.415 148.986 433.547 148.662C433.679 148.334 433.745 147.947 433.745 147.5C433.745 147.053 433.679 146.668 433.547 146.345C433.415 146.017 433.226 145.766 432.979 145.593C432.738 145.42 432.455 145.333 432.132 145.333H432.022C431.694 145.333 431.41 145.42 431.168 145.593C430.926 145.766 430.74 146.017 430.607 146.345C430.475 146.668 430.409 147.053 430.409 147.5ZM438.865 141.197V151H437.047V141.197H438.865ZM440.684 144H442.502V148.272C442.502 148.724 442.591 149.07 442.769 149.312C442.951 149.549 443.208 149.667 443.541 149.667H443.65C443.91 149.667 444.149 149.587 444.368 149.428C444.591 149.268 444.767 149.052 444.895 148.778C445.027 148.505 445.093 148.209 445.093 147.89V144H446.911V151H445.093V149.975C444.874 150.339 444.585 150.624 444.225 150.829C443.869 151.034 443.477 151.137 443.049 151.137C442.26 151.137 441.668 150.897 441.271 150.419C440.88 149.931 440.684 149.284 440.684 148.478V144ZM450.609 144V144.991C450.837 144.622 451.133 144.342 451.498 144.15C451.867 143.959 452.268 143.863 452.701 143.863C453.202 143.863 453.635 143.966 454 144.171C454.369 144.376 454.649 144.674 454.841 145.066C455.091 144.67 455.417 144.371 455.818 144.171C456.224 143.966 456.668 143.863 457.151 143.863C458.013 143.863 458.642 144.112 459.038 144.608C459.439 145.096 459.64 145.757 459.64 146.591V151H457.821V146.803C457.821 146.333 457.732 145.982 457.555 145.75C457.382 145.518 457.11 145.401 456.741 145.401H456.632C456.354 145.401 456.101 145.477 455.873 145.627C455.645 145.773 455.465 145.978 455.333 146.242C455.201 146.502 455.135 146.791 455.135 147.11V151H453.316V146.803C453.316 146.333 453.225 145.982 453.043 145.75C452.865 145.518 452.592 145.401 452.223 145.401H452.113C451.835 145.401 451.58 145.477 451.348 145.627C451.12 145.773 450.94 145.978 450.808 146.242C450.675 146.502 450.609 146.791 450.609 147.11V151H448.791V144H450.609ZM461.062 147.5C461.057 146.803 461.189 146.176 461.458 145.62C461.731 145.064 462.121 144.631 462.627 144.321C463.133 144.007 463.721 143.854 464.391 143.863C465.051 143.859 465.621 144.007 466.1 144.308C466.583 144.604 466.95 145.019 467.2 145.552C467.455 146.085 467.583 146.689 467.583 147.363C467.583 147.532 467.574 147.769 467.556 148.074H462.825C462.848 148.375 462.935 148.648 463.085 148.895C463.24 149.136 463.434 149.325 463.666 149.462C463.903 149.599 464.149 149.667 464.404 149.667H464.521C464.84 149.667 465.106 149.587 465.32 149.428C465.539 149.264 465.683 149.049 465.751 148.785H467.556C467.442 149.259 467.241 149.674 466.954 150.029C466.672 150.38 466.307 150.654 465.86 150.85C465.418 151.041 464.912 151.137 464.343 151.137C463.759 151.137 463.215 150.986 462.709 150.686C462.203 150.38 461.8 149.952 461.499 149.4C461.198 148.849 461.052 148.215 461.062 147.5ZM465.819 146.673C465.806 146.404 465.733 146.169 465.601 145.969C465.468 145.764 465.295 145.606 465.081 145.497C464.867 145.388 464.632 145.333 464.377 145.333H464.268C464.012 145.333 463.778 145.388 463.563 145.497C463.349 145.606 463.176 145.764 463.044 145.969C462.912 146.169 462.839 146.404 462.825 146.673H465.819Z" fill="#343537"/>
<path d="M384.943 178H376.615V176.271L379.896 172.558L376.732 169.226V167.497H384.789V169.299H379.442L382.467 172.448L379.142 176.198H384.943V178ZM391.132 178H388.297L385.705 170.5H387.77L389.748 176.564L391.718 170.5H393.725L391.132 178ZM394.296 174.25C394.286 173.518 394.44 172.854 394.757 172.258C395.08 171.657 395.526 171.188 396.098 170.852C396.674 170.51 397.323 170.344 398.046 170.354C398.769 170.344 399.416 170.51 399.987 170.852C400.563 171.188 401.01 171.657 401.327 172.258C401.649 172.854 401.806 173.518 401.796 174.25C401.806 174.982 401.649 175.649 401.327 176.25C401.01 176.845 400.563 177.314 399.987 177.656C399.416 177.993 398.769 178.156 398.046 178.146C397.323 178.156 396.674 177.993 396.098 177.656C395.526 177.314 395.08 176.845 394.757 176.25C394.44 175.649 394.286 174.982 394.296 174.25ZM396.259 174.25C396.259 174.729 396.33 175.144 396.471 175.495C396.613 175.842 396.813 176.108 397.072 176.293C397.331 176.479 397.636 176.572 397.987 176.572H398.104C398.451 176.572 398.754 176.479 399.013 176.293C399.276 176.108 399.479 175.842 399.621 175.495C399.762 175.144 399.833 174.729 399.833 174.25C399.833 173.771 399.762 173.359 399.621 173.012C399.479 172.661 399.276 172.392 399.013 172.207C398.754 172.021 398.451 171.928 398.104 171.928H397.987C397.636 171.928 397.331 172.021 397.072 172.207C396.813 172.392 396.613 172.661 396.471 173.012C396.33 173.359 396.259 173.771 396.259 174.25ZM405.319 167.497V178H403.371V167.497H405.319ZM413.837 178V179.575H406.784V178H413.837ZM415.294 178V167.497H417.243V171.474C417.355 171.284 417.519 171.103 417.733 170.932C417.948 170.761 418.2 170.622 418.488 170.515C418.781 170.407 419.086 170.354 419.403 170.354C420.077 170.344 420.668 170.517 421.176 170.874C421.684 171.23 422.072 171.708 422.34 172.309C422.614 172.91 422.746 173.557 422.736 174.25C422.746 174.943 422.614 175.59 422.34 176.191C422.072 176.792 421.684 177.27 421.176 177.626C420.668 177.983 420.077 178.156 419.403 178.146C419.086 178.146 418.781 178.093 418.488 177.985C418.2 177.878 417.948 177.739 417.733 177.568C417.519 177.397 417.355 177.216 417.243 177.026V178H415.294ZM417.243 174.25C417.238 174.694 417.313 175.095 417.47 175.451C417.631 175.808 417.843 176.086 418.107 176.286C418.375 176.486 418.659 176.582 418.957 176.572H419.074C419.396 176.572 419.687 176.474 419.945 176.279C420.209 176.083 420.414 175.81 420.561 175.458C420.712 175.102 420.788 174.694 420.788 174.235C420.788 173.776 420.712 173.374 420.561 173.027C420.414 172.675 420.211 172.404 419.953 172.214C419.694 172.023 419.401 171.928 419.074 171.928H418.957C418.659 171.918 418.375 172.014 418.107 172.214C417.843 172.414 417.631 172.692 417.47 173.049C417.313 173.405 417.238 173.806 417.243 174.25ZM424.245 170.5H426.193V175.078C426.193 175.561 426.288 175.932 426.479 176.191C426.674 176.445 426.95 176.572 427.306 176.572H427.423C427.702 176.572 427.958 176.486 428.192 176.315C428.432 176.145 428.62 175.913 428.756 175.62C428.898 175.327 428.969 175.009 428.969 174.667V170.5H430.917V178H428.969V176.901C428.734 177.292 428.424 177.597 428.039 177.817C427.658 178.037 427.238 178.146 426.779 178.146C425.934 178.146 425.299 177.89 424.875 177.377C424.455 176.855 424.245 176.162 424.245 175.297V170.5ZM437.252 179.077C437.252 179.716 437.086 180.202 436.754 180.534C436.427 180.866 435.944 181.032 435.304 181.032H432.572V179.348H434.564C434.804 179.348 434.979 179.326 435.092 179.282C435.204 179.243 435.282 179.167 435.326 179.055C435.37 178.942 435.392 178.767 435.392 178.527V177.414L432.125 170.5H434.315L436.337 175.063L438.285 170.5H440.446L437.252 177.333V179.077ZM441.127 174.997V173.276H443.83V170.5H445.822V173.276H448.524V174.997H445.822V177.773H443.83V174.997H441.127ZM458.053 178H449.726V176.271L453.007 172.558L449.843 169.226V167.497H457.899V169.299H452.553L455.578 172.448L452.252 176.198H458.053V178ZM464.242 178H461.408L458.815 170.5H460.88L462.858 176.564L464.828 170.5H466.835L464.242 178ZM467.406 174.25C467.396 173.518 467.55 172.854 467.868 172.258C468.19 171.657 468.637 171.188 469.208 170.852C469.784 170.51 470.434 170.344 471.156 170.354C471.879 170.344 472.526 170.51 473.097 170.852C473.673 171.188 474.12 171.657 474.438 172.258C474.76 172.854 474.916 173.518 474.906 174.25C474.916 174.982 474.76 175.649 474.438 176.25C474.12 176.845 473.673 177.314 473.097 177.656C472.526 177.993 471.879 178.156 471.156 178.146C470.434 178.156 469.784 177.993 469.208 177.656C468.637 177.314 468.19 176.845 467.868 176.25C467.55 175.649 467.396 174.982 467.406 174.25ZM469.369 174.25C469.369 174.729 469.44 175.144 469.582 175.495C469.723 175.842 469.923 176.108 470.182 176.293C470.441 176.479 470.746 176.572 471.098 176.572H471.215C471.562 176.572 471.864 176.479 472.123 176.293C472.387 176.108 472.589 175.842 472.731 175.495C472.873 175.144 472.943 174.729 472.943 174.25C472.943 173.771 472.873 173.359 472.731 173.012C472.589 172.661 472.387 172.392 472.123 172.207C471.864 172.021 471.562 171.928 471.215 171.928H471.098C470.746 171.928 470.441 172.021 470.182 172.207C469.923 172.392 469.723 172.661 469.582 173.012C469.44 173.359 469.369 173.771 469.369 174.25ZM478.429 167.497V178H476.481V167.497H478.429ZM486.947 178V179.575H479.894V178H486.947ZM489.877 175.524C489.877 175.861 489.992 176.135 490.221 176.345C490.456 176.55 490.761 176.652 491.137 176.652H491.254C491.562 176.652 491.808 176.586 491.994 176.455C492.184 176.318 492.279 176.137 492.279 175.913C492.279 175.722 492.213 175.568 492.082 175.451C491.955 175.329 491.754 175.234 491.481 175.166L490.507 174.924C489.701 174.729 489.11 174.453 488.734 174.096C488.363 173.735 488.178 173.256 488.178 172.661C488.178 172.211 488.3 171.813 488.544 171.467C488.793 171.115 489.145 170.842 489.599 170.646C490.058 170.451 490.59 170.354 491.195 170.354C491.835 170.354 492.384 170.456 492.843 170.661C493.307 170.866 493.661 171.162 493.905 171.547C494.149 171.928 494.271 172.38 494.271 172.902H492.323C492.284 172.565 492.167 172.307 491.972 172.126C491.781 171.94 491.522 171.848 491.195 171.848H491.078C490.785 171.848 490.548 171.911 490.368 172.038C490.192 172.165 490.104 172.348 490.104 172.587C490.104 172.773 490.185 172.927 490.346 173.049C490.512 173.171 490.761 173.271 491.093 173.349L492.096 173.605C492.819 173.786 493.349 174.057 493.686 174.418C494.027 174.775 494.198 175.249 494.198 175.839C494.198 176.279 494.079 176.674 493.839 177.026C493.6 177.373 493.249 177.646 492.785 177.846C492.326 178.046 491.776 178.146 491.137 178.146C490.463 178.146 489.882 178.044 489.394 177.839C488.905 177.629 488.532 177.329 488.273 176.938C488.014 176.542 487.885 176.071 487.885 175.524H489.877ZM495.443 174.25C495.438 173.503 495.58 172.832 495.868 172.236C496.161 171.64 496.579 171.176 497.121 170.844C497.663 170.507 498.292 170.344 499.01 170.354C499.718 170.349 500.329 170.507 500.841 170.83C501.359 171.147 501.752 171.591 502.021 172.163C502.294 172.734 502.431 173.381 502.431 174.104C502.431 174.284 502.421 174.538 502.401 174.865H497.333C497.357 175.188 497.45 175.48 497.611 175.744C497.777 176.003 497.985 176.206 498.234 176.352C498.488 176.499 498.751 176.572 499.025 176.572H499.149C499.491 176.572 499.777 176.486 500.006 176.315C500.241 176.14 500.395 175.91 500.468 175.627H502.401C502.279 176.135 502.064 176.579 501.757 176.96C501.454 177.336 501.063 177.629 500.585 177.839C500.111 178.044 499.569 178.146 498.959 178.146C498.334 178.146 497.75 177.985 497.208 177.663C496.667 177.336 496.234 176.877 495.912 176.286C495.59 175.695 495.434 175.017 495.443 174.25ZM500.541 173.364C500.526 173.076 500.448 172.824 500.307 172.609C500.165 172.39 499.979 172.221 499.75 172.104C499.521 171.987 499.269 171.928 498.996 171.928H498.878C498.605 171.928 498.354 171.987 498.124 172.104C497.895 172.221 497.709 172.39 497.567 172.609C497.426 172.824 497.348 173.076 497.333 173.364H500.541ZM505.998 167.497V178H504.049V167.497H505.998ZM509.967 167.497V178H508.019V167.497H509.967Z" fill="#A36CF7"/>
<path d="M674.598 151H672.15L668.397 141.197H670.51L673.415 149.018L676.197 141.197H678.269L674.598 151ZM678.077 147.5C678.068 146.816 678.212 146.197 678.508 145.641C678.809 145.08 679.226 144.643 679.759 144.328C680.297 144.009 680.903 143.854 681.577 143.863C682.252 143.854 682.855 144.009 683.389 144.328C683.926 144.643 684.343 145.08 684.64 145.641C684.94 146.197 685.086 146.816 685.077 147.5C685.086 148.184 684.94 148.806 684.64 149.366C684.343 149.922 683.926 150.36 683.389 150.679C682.855 150.993 682.252 151.146 681.577 151.137C680.903 151.146 680.297 150.993 679.759 150.679C679.226 150.36 678.809 149.922 678.508 149.366C678.212 148.806 678.068 148.184 678.077 147.5ZM679.909 147.5C679.909 147.947 679.975 148.334 680.107 148.662C680.24 148.986 680.426 149.234 680.668 149.407C680.91 149.58 681.194 149.667 681.522 149.667H681.632C681.955 149.667 682.238 149.58 682.479 149.407C682.726 149.234 682.915 148.986 683.047 148.662C683.179 148.334 683.245 147.947 683.245 147.5C683.245 147.053 683.179 146.668 683.047 146.345C682.915 146.017 682.726 145.766 682.479 145.593C682.238 145.42 681.955 145.333 681.632 145.333H681.522C681.194 145.333 680.91 145.42 680.668 145.593C680.426 145.766 680.24 146.017 680.107 146.345C679.975 146.668 679.909 147.053 679.909 147.5ZM688.365 141.197V151H686.547V141.197H688.365ZM690.184 144H692.002V148.272C692.002 148.724 692.091 149.07 692.269 149.312C692.451 149.549 692.708 149.667 693.041 149.667H693.15C693.41 149.667 693.649 149.587 693.868 149.428C694.091 149.268 694.267 149.052 694.395 148.778C694.527 148.505 694.593 148.209 694.593 147.89V144H696.411V151H694.593V149.975C694.374 150.339 694.085 150.624 693.725 150.829C693.369 151.034 692.977 151.137 692.549 151.137C691.76 151.137 691.168 150.897 690.771 150.419C690.38 149.931 690.184 149.284 690.184 148.478V144ZM700.109 144V144.991C700.337 144.622 700.633 144.342 700.998 144.15C701.367 143.959 701.768 143.863 702.201 143.863C702.702 143.863 703.135 143.966 703.5 144.171C703.869 144.376 704.149 144.674 704.341 145.066C704.591 144.67 704.917 144.371 705.318 144.171C705.724 143.966 706.168 143.863 706.651 143.863C707.513 143.863 708.142 144.112 708.538 144.608C708.939 145.096 709.14 145.757 709.14 146.591V151H707.321V146.803C707.321 146.333 707.232 145.982 707.055 145.75C706.882 145.518 706.61 145.401 706.241 145.401H706.132C705.854 145.401 705.601 145.477 705.373 145.627C705.145 145.773 704.965 145.978 704.833 146.242C704.701 146.502 704.635 146.791 704.635 147.11V151H702.816V146.803C702.816 146.333 702.725 145.982 702.543 145.75C702.365 145.518 702.092 145.401 701.723 145.401H701.613C701.335 145.401 701.08 145.477 700.848 145.627C700.62 145.773 700.44 145.978 700.308 146.242C700.175 146.502 700.109 146.791 700.109 147.11V151H698.291V144H700.109ZM710.562 147.5C710.557 146.803 710.689 146.176 710.958 145.62C711.231 145.064 711.621 144.631 712.127 144.321C712.633 144.007 713.221 143.854 713.891 143.863C714.551 143.859 715.121 144.007 715.6 144.308C716.083 144.604 716.45 145.019 716.7 145.552C716.955 146.085 717.083 146.689 717.083 147.363C717.083 147.532 717.074 147.769 717.056 148.074H712.325C712.348 148.375 712.435 148.648 712.585 148.895C712.74 149.136 712.934 149.325 713.166 149.462C713.403 149.599 713.649 149.667 713.904 149.667H714.021C714.34 149.667 714.606 149.587 714.82 149.428C715.039 149.264 715.183 149.049 715.251 148.785H717.056C716.942 149.259 716.741 149.674 716.454 150.029C716.172 150.38 715.807 150.654 715.36 150.85C714.918 151.041 714.412 151.137 713.843 151.137C713.259 151.137 712.715 150.986 712.209 150.686C711.703 150.38 711.3 149.952 710.999 149.4C710.698 148.849 710.552 148.215 710.562 147.5ZM715.319 146.673C715.306 146.404 715.233 146.169 715.101 145.969C714.968 145.764 714.795 145.606 714.581 145.497C714.367 145.388 714.132 145.333 713.877 145.333H713.768C713.512 145.333 713.278 145.388 713.063 145.497C712.849 145.606 712.676 145.764 712.544 145.969C712.412 146.169 712.339 146.404 712.325 146.673H715.319Z" fill="#343537"/>
<path d="M605.996 172.749C605.996 170.732 606.32 169.042 606.97 167.68C607.619 166.308 608.725 165.522 610.288 165.322V166.633C609.516 166.818 608.923 167.211 608.508 167.812C608.088 168.422 607.81 169.135 607.673 169.951C607.536 170.756 607.468 171.689 607.468 172.749C607.468 173.813 607.536 174.748 607.673 175.554C607.814 176.374 608.093 177.087 608.508 177.692C608.923 178.293 609.516 178.686 610.288 178.872V180.175C608.715 180.029 607.607 179.265 606.962 177.883C606.318 176.496 605.996 174.785 605.996 172.749ZM618.33 168.925C617.426 169.472 616.684 170.146 616.103 170.947C615.522 171.748 615.087 172.705 614.799 173.818C614.516 174.926 614.375 176.22 614.375 177.7V178H612.902V177.568C612.902 175.483 613.244 173.701 613.928 172.221C614.621 170.742 615.581 169.619 616.806 168.852H611.057V167.497H618.33V168.925ZM620.93 175.253C621.037 175.766 621.276 176.164 621.647 176.447C622.019 176.73 622.485 176.872 623.046 176.872H623.178C623.549 176.872 623.889 176.801 624.196 176.66C624.509 176.513 624.755 176.311 624.936 176.052C625.117 175.788 625.207 175.488 625.207 175.151C625.207 174.799 625.124 174.489 624.958 174.221C624.797 173.952 624.57 173.745 624.277 173.598C623.989 173.452 623.662 173.378 623.295 173.378H622.402V172.119H623.295C623.647 172.119 623.962 172.041 624.24 171.884C624.519 171.723 624.736 171.508 624.892 171.24C625.048 170.971 625.126 170.676 625.126 170.354C625.126 170.007 625.041 169.704 624.87 169.445C624.704 169.182 624.472 168.979 624.174 168.837C623.881 168.696 623.549 168.625 623.178 168.625H623.046C622.714 168.625 622.404 168.698 622.116 168.845C621.828 168.986 621.591 169.184 621.406 169.438C621.225 169.692 621.12 169.97 621.091 170.273H619.67C619.685 169.736 619.853 169.243 620.175 168.793C620.498 168.344 620.925 167.99 621.457 167.731C621.994 167.473 622.573 167.346 623.193 167.351C623.784 167.341 624.34 167.46 624.863 167.709C625.39 167.958 625.81 168.295 626.123 168.72C626.44 169.14 626.599 169.592 626.599 170.075C626.599 170.759 626.43 171.325 626.093 171.774C625.761 172.229 625.324 172.539 624.782 172.705C625.148 172.792 625.473 172.949 625.756 173.173C626.04 173.398 626.262 173.684 626.423 174.03C626.589 174.377 626.672 174.775 626.672 175.224C626.682 175.766 626.53 176.262 626.218 176.711C625.905 177.16 625.476 177.514 624.929 177.773C624.382 178.032 623.779 178.156 623.12 178.146C622.451 178.146 621.85 178.029 621.318 177.795C620.791 177.556 620.366 177.219 620.043 176.784C619.726 176.35 619.536 175.839 619.472 175.253H620.93ZM628.188 174.777V173.503H631.162V170.5H632.626V173.503H635.6V174.777H632.626V177.773H631.162V174.777H628.188ZM640.551 178H639.108V169.621L636.728 171.928V170.126L639.423 167.497H640.551V178ZM642.771 172.749C642.771 171.596 642.932 170.617 643.254 169.812C643.581 169.001 644.052 168.388 644.667 167.973C645.288 167.558 646.03 167.351 646.894 167.351C647.758 167.351 648.498 167.558 649.113 167.973C649.733 168.388 650.205 169.001 650.527 169.812C650.854 170.617 651.018 171.596 651.018 172.749C651.018 173.901 650.854 174.882 650.527 175.693C650.205 176.499 649.733 177.109 649.113 177.524C648.498 177.939 647.758 178.146 646.894 178.146C646.03 178.146 645.288 177.939 644.667 177.524C644.052 177.109 643.581 176.499 643.254 175.693C642.932 174.882 642.771 173.901 642.771 172.749ZM644.235 172.697C644.235 173.747 644.365 174.577 644.624 175.188C644.877 175.793 645.202 176.228 645.598 176.491C645.983 176.745 646.391 176.872 646.821 176.872H646.967C647.392 176.872 647.797 176.745 648.183 176.491C648.579 176.228 648.903 175.793 649.157 175.188C649.416 174.577 649.545 173.747 649.545 172.697C649.545 171.745 649.421 170.964 649.172 170.354C648.923 169.743 648.603 169.301 648.212 169.028C647.827 168.754 647.412 168.62 646.967 168.625H646.821C646.376 168.62 645.959 168.754 645.568 169.028C645.178 169.301 644.858 169.743 644.609 170.354C644.36 170.964 644.235 171.745 644.235 172.697ZM660.231 174.55C660.241 175.244 660.085 175.866 659.763 176.418C659.44 176.965 658.996 177.392 658.43 177.7C657.868 178.007 657.243 178.156 656.555 178.146C655.788 178.151 655.112 177.956 654.526 177.561C653.94 177.165 653.483 176.591 653.156 175.839C652.834 175.083 652.673 174.189 652.673 173.159C652.673 172.011 652.873 171.005 653.273 170.141C653.674 169.267 654.216 168.583 654.899 168.09C655.583 167.597 656.32 167.351 657.111 167.351C657.707 167.351 658.239 167.458 658.708 167.673C659.177 167.883 659.56 168.19 659.858 168.596C660.161 169.001 660.361 169.487 660.458 170.053H658.986C658.869 169.609 658.657 169.262 658.349 169.013C658.042 168.764 657.663 168.64 657.214 168.64H657.038C656.501 168.63 656.01 168.803 655.566 169.16C655.122 169.511 654.76 170.007 654.482 170.646C654.204 171.281 654.038 172.006 653.984 172.822C654.243 172.285 654.628 171.865 655.141 171.562C655.664 171.254 656.245 171.101 656.884 171.101C657.495 171.101 658.059 171.25 658.576 171.547C659.094 171.84 659.501 172.25 659.799 172.778C660.097 173.3 660.241 173.891 660.231 174.55ZM654.35 174.609C654.34 175.004 654.438 175.378 654.643 175.729C654.848 176.076 655.119 176.352 655.456 176.557C655.793 176.762 656.145 176.862 656.511 176.857H656.657C657.028 176.862 657.375 176.77 657.697 176.579C658.024 176.384 658.283 176.115 658.474 175.773C658.669 175.427 658.764 175.043 658.759 174.624C658.764 174.204 658.669 173.82 658.474 173.474C658.283 173.127 658.024 172.856 657.697 172.661C657.375 172.465 657.028 172.37 656.657 172.375H656.511C656.145 172.37 655.793 172.468 655.456 172.668C655.119 172.868 654.848 173.142 654.643 173.488C654.438 173.835 654.34 174.208 654.35 174.609ZM661.777 174.777V173.503H664.75V170.5H666.215V173.503H669.189V174.777H666.215V177.773H664.75V174.777H661.777ZM678.505 175.612H676.857V178H675.415V175.612H670.251V174.177L675.429 167.497H676.857V174.338H678.505V175.612ZM675.415 174.338V169.519L671.665 174.338H675.415ZM686.621 168.925C685.717 169.472 684.975 170.146 684.394 170.947C683.813 171.748 683.378 172.705 683.09 173.818C682.807 174.926 682.666 176.22 682.666 177.7V178H681.193V177.568C681.193 175.483 681.535 173.701 682.219 172.221C682.912 170.742 683.872 169.619 685.097 168.852H679.348V167.497H686.621V168.925ZM691.77 172.749C691.77 174.75 691.442 176.442 690.788 177.824C690.134 179.196 689.03 179.98 687.478 180.175V178.864C688.249 178.679 688.842 178.286 689.257 177.685C689.667 177.084 689.943 176.372 690.085 175.546C690.227 174.711 690.297 173.779 690.297 172.749C690.297 171.708 690.227 170.776 690.085 169.951C689.943 169.125 689.667 168.413 689.257 167.812C688.842 167.202 688.249 166.806 687.478 166.625V165.322C689.05 165.468 690.158 166.235 690.803 167.622C691.447 169.003 691.77 170.712 691.77 172.749ZM693.154 174.777V173.503H696.127V170.5H697.592V173.503H700.566V174.777H697.592V177.773H696.127V174.777H693.154ZM701.943 172.749C701.943 170.732 702.268 169.042 702.917 167.68C703.566 166.308 704.672 165.522 706.235 165.322V166.633C705.463 166.818 704.87 167.211 704.455 167.812C704.035 168.422 703.757 169.135 703.62 169.951C703.483 170.756 703.415 171.689 703.415 172.749C703.415 173.813 703.483 174.748 703.62 175.554C703.762 176.374 704.04 177.087 704.455 177.692C704.87 178.293 705.463 178.686 706.235 178.872V180.175C704.663 180.029 703.554 179.265 702.91 177.883C702.265 176.496 701.943 174.785 701.943 172.749ZM714.277 168.925C713.374 169.472 712.631 170.146 712.05 170.947C711.469 171.748 711.035 172.705 710.747 173.818C710.463 174.926 710.322 176.22 710.322 177.7V178H708.85V177.568C708.85 175.483 709.191 173.701 709.875 172.221C710.568 170.742 711.528 169.619 712.753 168.852H707.004V167.497H714.277V168.925ZM716.877 175.253C716.984 175.766 717.224 176.164 717.595 176.447C717.966 176.73 718.432 176.872 718.994 176.872H719.125C719.497 176.872 719.836 176.801 720.144 176.66C720.456 176.513 720.703 176.311 720.883 176.052C721.064 175.788 721.154 175.488 721.154 175.151C721.154 174.799 721.071 174.489 720.905 174.221C720.744 173.952 720.517 173.745 720.224 173.598C719.936 173.452 719.609 173.378 719.243 173.378H718.349V172.119H719.243C719.594 172.119 719.909 172.041 720.188 171.884C720.466 171.723 720.683 171.508 720.839 171.24C720.996 170.971 721.074 170.676 721.074 170.354C721.074 170.007 720.988 169.704 720.817 169.445C720.651 169.182 720.419 168.979 720.122 168.837C719.829 168.696 719.497 168.625 719.125 168.625H718.994C718.662 168.625 718.352 168.698 718.063 168.845C717.775 168.986 717.539 169.184 717.353 169.438C717.172 169.692 717.067 169.97 717.038 170.273H715.617C715.632 169.736 715.8 169.243 716.123 168.793C716.445 168.344 716.872 167.99 717.404 167.731C717.941 167.473 718.52 167.346 719.14 167.351C719.731 167.341 720.288 167.46 720.81 167.709C721.337 167.958 721.757 168.295 722.07 168.72C722.387 169.14 722.546 169.592 722.546 170.075C722.546 170.759 722.377 171.325 722.041 171.774C721.708 172.229 721.271 172.539 720.729 172.705C721.096 172.792 721.42 172.949 721.704 173.173C721.987 173.398 722.209 173.684 722.37 174.03C722.536 174.377 722.619 174.775 722.619 175.224C722.629 175.766 722.478 176.262 722.165 176.711C721.853 177.16 721.423 177.514 720.876 177.773C720.329 178.032 719.726 178.156 719.067 178.146C718.398 178.146 717.797 178.029 717.265 177.795C716.738 177.556 716.313 177.219 715.991 176.784C715.673 176.35 715.483 175.839 715.419 175.253H716.877ZM724.135 174.777V173.503H727.109V170.5H728.574V173.503H731.547V174.777H728.574V177.773H727.109V174.777H724.135ZM736.499 178H735.056V169.621L732.675 171.928V170.126L735.371 167.497H736.499V178ZM742.197 178H740.754V169.621L738.374 171.928V170.126L741.069 167.497H742.197V178ZM751.491 174.624C751.501 175.288 751.342 175.891 751.015 176.433C750.688 176.97 750.241 177.392 749.675 177.7C749.113 178.007 748.496 178.156 747.822 178.146C747.167 178.151 746.564 178.039 746.013 177.81C745.466 177.575 745.021 177.238 744.68 176.799C744.343 176.354 744.155 175.83 744.116 175.224H745.581C745.625 175.571 745.747 175.869 745.947 176.118C746.147 176.362 746.403 176.55 746.716 176.682C747.028 176.809 747.37 176.872 747.741 176.872H747.895C748.3 176.877 748.667 176.784 748.994 176.594C749.321 176.403 749.575 176.142 749.755 175.81C749.941 175.473 750.031 175.102 750.026 174.697C750.031 174.331 749.941 173.994 749.755 173.686C749.575 173.378 749.323 173.137 749.001 172.961C748.684 172.785 748.339 172.7 747.968 172.705H747.822C747.46 172.705 747.109 172.795 746.767 172.976C746.416 173.156 746.142 173.405 745.947 173.723H744.489L745.764 167.497H751.389V168.852H746.855L746.13 172.25C746.403 171.982 746.728 171.779 747.104 171.643C747.485 171.501 747.878 171.43 748.283 171.43C748.894 171.43 749.445 171.574 749.938 171.862C750.432 172.146 750.815 172.531 751.088 173.02C751.367 173.508 751.501 174.042 751.491 174.624ZM752.919 174.777V173.503H755.893V170.5H757.358V173.503H760.332V174.777H757.358V177.773H755.893V174.777H752.919ZM761.994 175.415C761.994 174.799 762.158 174.279 762.485 173.854C762.812 173.415 763.239 173.098 763.767 172.902C763.41 172.814 763.078 172.644 762.771 172.39C762.468 172.136 762.226 171.828 762.045 171.467C761.87 171.101 761.784 170.717 761.789 170.317C761.779 169.75 761.923 169.24 762.221 168.786C762.519 168.332 762.934 167.978 763.466 167.724C764.003 167.47 764.609 167.346 765.283 167.351C765.952 167.346 766.552 167.47 767.084 167.724C767.622 167.978 768.039 168.332 768.337 168.786C768.64 169.24 768.786 169.75 768.776 170.317C768.781 170.717 768.693 171.101 768.513 171.467C768.337 171.828 768.095 172.136 767.788 172.39C767.485 172.644 767.155 172.814 766.799 172.902C767.331 173.103 767.756 173.42 768.073 173.854C768.4 174.279 768.564 174.799 768.564 175.415C768.564 175.937 768.422 176.408 768.139 176.828C767.856 177.243 767.463 177.568 766.96 177.802C766.462 178.037 765.903 178.151 765.283 178.146C764.658 178.151 764.094 178.037 763.591 177.802C763.093 177.568 762.702 177.243 762.419 176.828C762.136 176.408 761.994 175.937 761.994 175.415ZM763.254 170.397C763.254 170.744 763.337 171.057 763.503 171.335C763.674 171.608 763.908 171.823 764.206 171.979C764.504 172.131 764.838 172.207 765.209 172.207H765.356C765.727 172.207 766.059 172.131 766.352 171.979C766.65 171.823 766.882 171.608 767.048 171.335C767.219 171.057 767.304 170.744 767.304 170.397C767.304 170.056 767.219 169.75 767.048 169.482C766.882 169.208 766.65 168.999 766.352 168.852C766.059 168.701 765.727 168.625 765.356 168.625H765.209C764.838 168.625 764.504 168.701 764.206 168.852C763.908 168.999 763.674 169.208 763.503 169.482C763.337 169.75 763.254 170.056 763.254 170.397ZM763.452 175.224C763.452 175.542 763.525 175.827 763.671 176.081C763.818 176.33 764.023 176.525 764.287 176.667C764.555 176.804 764.863 176.872 765.209 176.872H765.356C765.703 176.872 766.008 176.804 766.271 176.667C766.54 176.525 766.748 176.33 766.894 176.081C767.041 175.827 767.114 175.542 767.114 175.224C767.114 174.897 767.038 174.602 766.887 174.338C766.74 174.074 766.533 173.867 766.264 173.715C765.996 173.564 765.693 173.488 765.356 173.488H765.209C764.868 173.488 764.562 173.564 764.294 173.715C764.03 173.867 763.823 174.074 763.671 174.338C763.525 174.602 763.452 174.897 763.452 175.224ZM773.925 178H772.482V169.621L770.102 171.928V170.126L772.797 167.497H773.925V178ZM779.997 172.749C779.997 174.75 779.67 176.442 779.016 177.824C778.361 179.196 777.258 179.98 775.705 180.175V178.864C776.477 178.679 777.07 178.286 777.485 177.685C777.895 177.084 778.171 176.372 778.312 175.546C778.454 174.711 778.525 173.779 778.525 172.749C778.525 171.708 778.454 170.776 778.312 169.951C778.171 169.125 777.895 168.413 777.485 167.812C777.07 167.202 776.477 166.806 775.705 166.625V165.322C777.277 165.468 778.386 166.235 779.03 167.622C779.675 169.003 779.997 170.712 779.997 172.749Z" fill="#343537"/>
<path d="M587 173L582 170.113V175.887L587 173ZM531 172.5C530.724 172.5 530.5 172.724 530.5 173C530.5 173.276 530.724 173.5 531 173.5V172.5ZM582.5 172.5H531V173.5H582.5V172.5Z" fill="#343537"/>
</svg>
