<svg width="436" height="213" viewBox="0 0 436 213" fill="none" xmlns="http://www.w3.org/2000/svg">
<path d="M301.289 204.07C301.404 204.617 301.659 205.042 302.055 205.344C302.451 205.646 302.948 205.797 303.547 205.797H303.688C304.083 205.797 304.445 205.721 304.773 205.57C305.107 205.414 305.37 205.198 305.562 204.922C305.755 204.641 305.852 204.32 305.852 203.961C305.852 203.586 305.763 203.255 305.586 202.969C305.414 202.682 305.172 202.461 304.859 202.305C304.552 202.148 304.203 202.07 303.812 202.07H302.859V200.727H303.812C304.188 200.727 304.523 200.643 304.82 200.477C305.117 200.305 305.349 200.076 305.516 199.789C305.682 199.503 305.766 199.188 305.766 198.844C305.766 198.474 305.674 198.151 305.492 197.875C305.315 197.594 305.068 197.378 304.75 197.227C304.438 197.076 304.083 197 303.688 197H303.547C303.193 197 302.862 197.078 302.555 197.234C302.247 197.385 301.995 197.596 301.797 197.867C301.604 198.138 301.492 198.435 301.461 198.758H299.945C299.961 198.185 300.141 197.659 300.484 197.18C300.828 196.701 301.284 196.323 301.852 196.047C302.424 195.771 303.042 195.635 303.703 195.641C304.333 195.63 304.927 195.758 305.484 196.023C306.047 196.289 306.495 196.648 306.828 197.102C307.167 197.549 307.336 198.031 307.336 198.547C307.336 199.276 307.156 199.88 306.797 200.359C306.443 200.844 305.977 201.174 305.398 201.352C305.789 201.445 306.135 201.612 306.438 201.852C306.74 202.091 306.977 202.396 307.148 202.766C307.326 203.135 307.414 203.56 307.414 204.039C307.424 204.617 307.263 205.146 306.93 205.625C306.596 206.104 306.138 206.482 305.555 206.758C304.971 207.034 304.328 207.167 303.625 207.156C302.911 207.156 302.271 207.031 301.703 206.781C301.141 206.526 300.688 206.167 300.344 205.703C300.005 205.24 299.802 204.695 299.734 204.07H301.289ZM309.258 201.398C309.258 200.169 309.43 199.125 309.773 198.266C310.122 197.401 310.625 196.747 311.281 196.305C311.943 195.862 312.734 195.641 313.656 195.641C314.578 195.641 315.367 195.862 316.023 196.305C316.685 196.747 317.188 197.401 317.531 198.266C317.88 199.125 318.055 200.169 318.055 201.398C318.055 202.628 317.88 203.674 317.531 204.539C317.188 205.398 316.685 206.049 316.023 206.492C315.367 206.935 314.578 207.156 313.656 207.156C312.734 207.156 311.943 206.935 311.281 206.492C310.625 206.049 310.122 205.398 309.773 204.539C309.43 203.674 309.258 202.628 309.258 201.398ZM310.82 201.344C310.82 202.464 310.958 203.349 311.234 204C311.505 204.646 311.852 205.109 312.273 205.391C312.685 205.661 313.12 205.797 313.578 205.797H313.734C314.188 205.797 314.62 205.661 315.031 205.391C315.453 205.109 315.799 204.646 316.07 204C316.346 203.349 316.484 202.464 316.484 201.344C316.484 200.328 316.352 199.495 316.086 198.844C315.82 198.193 315.479 197.721 315.062 197.43C314.651 197.138 314.208 196.995 313.734 197H313.578C313.104 196.995 312.659 197.138 312.242 197.43C311.826 197.721 311.484 198.193 311.219 198.844C310.953 199.495 310.82 200.328 310.82 201.344ZM319.852 201.398C319.852 200.169 320.023 199.125 320.367 198.266C320.716 197.401 321.219 196.747 321.875 196.305C322.536 195.862 323.328 195.641 324.25 195.641C325.172 195.641 325.961 195.862 326.617 196.305C327.279 196.747 327.781 197.401 328.125 198.266C328.474 199.125 328.648 200.169 328.648 201.398C328.648 202.628 328.474 203.674 328.125 204.539C327.781 205.398 327.279 206.049 326.617 206.492C325.961 206.935 325.172 207.156 324.25 207.156C323.328 207.156 322.536 206.935 321.875 206.492C321.219 206.049 320.716 205.398 320.367 204.539C320.023 203.674 319.852 202.628 319.852 201.398ZM321.414 201.344C321.414 202.464 321.552 203.349 321.828 204C322.099 204.646 322.445 205.109 322.867 205.391C323.279 205.661 323.714 205.797 324.172 205.797H324.328C324.781 205.797 325.214 205.661 325.625 205.391C326.047 205.109 326.393 204.646 326.664 204C326.94 203.349 327.078 202.464 327.078 201.344C327.078 200.328 326.945 199.495 326.68 198.844C326.414 198.193 326.073 197.721 325.656 197.43C325.245 197.138 324.802 196.995 324.328 197H324.172C323.698 196.995 323.253 197.138 322.836 197.43C322.419 197.721 322.078 198.193 321.812 198.844C321.547 199.495 321.414 200.328 321.414 201.344ZM330.219 203.562V202.203H333.391V199H334.953V202.203H338.125V203.562H334.953V206.758H333.391V203.562H330.219ZM350.75 199V207H349.234V200.25H345.422V207H343.906V199H350.75ZM357.953 207C357.901 206.745 357.875 206.318 357.875 205.719C357.766 205.974 357.586 206.211 357.336 206.43C357.086 206.648 356.784 206.826 356.43 206.961C356.081 207.091 355.708 207.156 355.312 207.156C354.828 207.161 354.383 207.062 353.977 206.859C353.576 206.656 353.258 206.375 353.023 206.016C352.789 205.656 352.672 205.26 352.672 204.828C352.672 203.984 352.956 203.37 353.523 202.984C354.086 202.609 354.773 202.385 355.586 202.312L357.797 202.141V201.883C357.797 201.326 357.648 200.893 357.352 200.586C357.06 200.273 356.654 200.117 356.133 200.117H356C355.552 200.117 355.177 200.224 354.875 200.438C354.573 200.646 354.398 200.94 354.352 201.32H352.836C352.857 200.846 353.01 200.419 353.297 200.039C353.589 199.659 353.977 199.365 354.461 199.156C354.945 198.943 355.479 198.839 356.062 198.844C356.729 198.839 357.31 198.971 357.805 199.242C358.299 199.513 358.674 199.883 358.93 200.352C359.19 200.815 359.318 201.326 359.312 201.883V205.242C359.312 206.055 359.339 206.641 359.391 207H357.953ZM354.195 204.727C354.195 204.945 354.25 205.143 354.359 205.32C354.474 205.492 354.63 205.63 354.828 205.734C355.026 205.833 355.247 205.883 355.492 205.883H355.617C355.935 205.888 356.266 205.807 356.609 205.641C356.958 205.469 357.245 205.245 357.469 204.969C357.698 204.693 357.807 204.409 357.797 204.117V203.312L355.797 203.461C355.307 203.508 354.917 203.643 354.625 203.867C354.339 204.086 354.195 204.372 354.195 204.727ZM363.156 199V200.117C363.286 199.878 363.492 199.661 363.773 199.469C364.06 199.276 364.385 199.125 364.75 199.016C365.115 198.901 365.479 198.844 365.844 198.844C366.5 198.844 367.086 199.013 367.602 199.352C368.122 199.69 368.526 200.174 368.812 200.805C369.099 201.43 369.24 202.161 369.234 203C369.245 203.828 369.094 204.557 368.781 205.188C368.469 205.818 368.039 206.305 367.492 206.648C366.945 206.987 366.341 207.156 365.68 207.156C365.102 207.156 364.589 207.036 364.141 206.797C363.688 206.552 363.359 206.247 363.156 205.883V210.203H361.641V199H363.156ZM363.156 203C363.151 203.594 363.253 204.109 363.461 204.547C363.674 204.984 363.956 205.318 364.305 205.547C364.654 205.776 365.023 205.888 365.414 205.883H365.539C365.961 205.883 366.336 205.771 366.664 205.547C366.992 205.323 367.25 204.995 367.438 204.562C367.625 204.13 367.719 203.609 367.719 203C367.719 202.391 367.625 201.87 367.438 201.438C367.25 201.005 366.992 200.677 366.664 200.453C366.336 200.229 365.961 200.117 365.539 200.117H365.414C365.023 200.112 364.654 200.224 364.305 200.453C363.956 200.682 363.674 201.016 363.461 201.453C363.253 201.891 363.151 202.406 363.156 203ZM375.984 207C375.932 206.745 375.906 206.318 375.906 205.719C375.797 205.974 375.617 206.211 375.367 206.43C375.117 206.648 374.815 206.826 374.461 206.961C374.112 207.091 373.74 207.156 373.344 207.156C372.859 207.161 372.414 207.062 372.008 206.859C371.607 206.656 371.289 206.375 371.055 206.016C370.82 205.656 370.703 205.26 370.703 204.828C370.703 203.984 370.987 203.37 371.555 202.984C372.117 202.609 372.805 202.385 373.617 202.312L375.828 202.141V201.883C375.828 201.326 375.68 200.893 375.383 200.586C375.091 200.273 374.685 200.117 374.164 200.117H374.031C373.583 200.117 373.208 200.224 372.906 200.438C372.604 200.646 372.43 200.94 372.383 201.32H370.867C370.888 200.846 371.042 200.419 371.328 200.039C371.62 199.659 372.008 199.365 372.492 199.156C372.977 198.943 373.51 198.839 374.094 198.844C374.76 198.839 375.341 198.971 375.836 199.242C376.331 199.513 376.706 199.883 376.961 200.352C377.221 200.815 377.349 201.326 377.344 201.883V205.242C377.344 206.055 377.37 206.641 377.422 207H375.984ZM372.227 204.727C372.227 204.945 372.281 205.143 372.391 205.32C372.505 205.492 372.661 205.63 372.859 205.734C373.057 205.833 373.279 205.883 373.523 205.883H373.648C373.966 205.888 374.297 205.807 374.641 205.641C374.99 205.469 375.276 205.245 375.5 204.969C375.729 204.693 375.839 204.409 375.828 204.117V203.312L373.828 203.461C373.339 203.508 372.948 203.643 372.656 203.867C372.37 204.086 372.227 204.372 372.227 204.727ZM389.141 207H387.688V200.281L385.125 207H383.656L381.094 200.281V207H379.672V199H382.023L384.445 205.391L386.867 199H389.141V207ZM391.062 202.984C391.052 202.135 391.219 201.396 391.562 200.766C391.911 200.135 392.372 199.656 392.945 199.328C393.518 198.995 394.133 198.833 394.789 198.844C395.461 198.833 396.055 198.979 396.57 199.281C397.091 199.578 397.492 199.995 397.773 200.531C398.055 201.068 398.193 201.677 398.188 202.359V203.242H392.586C392.607 203.789 392.729 204.266 392.953 204.672C393.177 205.073 393.456 205.378 393.789 205.586C394.128 205.789 394.471 205.888 394.82 205.883H394.953C395.365 205.883 395.732 205.776 396.055 205.562C396.372 205.344 396.57 205.034 396.648 204.633H398.164C398.07 205.154 397.865 205.604 397.547 205.984C397.229 206.365 396.831 206.656 396.352 206.859C395.878 207.057 395.357 207.156 394.789 207.156C394.112 207.156 393.487 206.992 392.914 206.664C392.341 206.331 391.885 205.849 391.547 205.219C391.214 204.589 391.052 203.844 391.062 202.984ZM396.664 202.039C396.633 201.388 396.448 200.906 396.109 200.594C395.776 200.276 395.359 200.117 394.859 200.117H394.727C394.263 200.117 393.839 200.273 393.453 200.586C393.073 200.888 392.815 201.372 392.68 202.039H396.664ZM403.148 200.25V207H401.625V200.25H399.039V199H405.742V200.25H403.148ZM408.703 199V200.117C408.833 199.878 409.039 199.661 409.32 199.469C409.607 199.276 409.932 199.125 410.297 199.016C410.661 198.901 411.026 198.844 411.391 198.844C412.047 198.844 412.633 199.013 413.148 199.352C413.669 199.69 414.073 200.174 414.359 200.805C414.646 201.43 414.786 202.161 414.781 203C414.792 203.828 414.641 204.557 414.328 205.188C414.016 205.818 413.586 206.305 413.039 206.648C412.492 206.987 411.888 207.156 411.227 207.156C410.648 207.156 410.135 207.036 409.688 206.797C409.234 206.552 408.906 206.247 408.703 205.883V210.203H407.188V199H408.703ZM408.703 203C408.698 203.594 408.799 204.109 409.008 204.547C409.221 204.984 409.503 205.318 409.852 205.547C410.201 205.776 410.57 205.888 410.961 205.883H411.086C411.508 205.883 411.883 205.771 412.211 205.547C412.539 205.323 412.797 204.995 412.984 204.562C413.172 204.13 413.266 203.609 413.266 203C413.266 202.391 413.172 201.87 412.984 201.438C412.797 201.005 412.539 200.677 412.211 200.453C411.883 200.229 411.508 200.117 411.086 200.117H410.961C410.57 200.112 410.201 200.224 409.852 200.453C409.503 200.682 409.221 201.016 409.008 201.453C408.799 201.891 408.698 202.406 408.703 203ZM416.234 203C416.224 202.214 416.388 201.5 416.727 200.859C417.07 200.219 417.536 199.721 418.125 199.367C418.719 199.008 419.37 198.833 420.078 198.844C420.781 198.833 421.427 199.008 422.016 199.367C422.609 199.721 423.076 200.219 423.414 200.859C423.758 201.5 423.924 202.214 423.914 203C423.924 203.786 423.758 204.5 423.414 205.141C423.076 205.781 422.609 206.281 422.016 206.641C421.427 206.995 420.781 207.167 420.078 207.156C419.37 207.167 418.719 206.995 418.125 206.641C417.536 206.281 417.07 205.781 416.727 205.141C416.388 204.5 416.224 203.786 416.234 203ZM417.758 203C417.758 203.594 417.854 204.109 418.047 204.547C418.24 204.979 418.505 205.31 418.844 205.539C419.182 205.768 419.57 205.883 420.008 205.883H420.141C420.578 205.883 420.966 205.768 421.305 205.539C421.648 205.31 421.917 204.979 422.109 204.547C422.302 204.109 422.398 203.594 422.398 203C422.398 202.406 422.302 201.893 422.109 201.461C421.917 201.023 421.648 200.69 421.305 200.461C420.966 200.232 420.578 200.117 420.141 200.117H420.008C419.57 200.117 419.182 200.232 418.844 200.461C418.505 200.69 418.24 201.023 418.047 201.461C417.854 201.893 417.758 202.406 417.758 203ZM429.711 199C430.242 199 430.701 199.089 431.086 199.266C431.471 199.438 431.763 199.677 431.961 199.984C432.159 200.292 432.258 200.641 432.258 201.031C432.258 201.974 431.75 202.604 430.734 202.922C431.016 202.938 431.286 203.023 431.547 203.18C431.807 203.336 432.018 203.547 432.18 203.812C432.346 204.078 432.43 204.378 432.43 204.711C432.43 205.143 432.32 205.534 432.102 205.883C431.883 206.227 431.576 206.5 431.18 206.703C430.784 206.901 430.333 207 429.828 207H425.828V199H429.711ZM429.453 205.867C429.943 205.867 430.307 205.763 430.547 205.555C430.792 205.341 430.914 205.034 430.914 204.633C430.914 204.294 430.792 204.029 430.547 203.836C430.302 203.643 429.945 203.547 429.477 203.547H427.375V205.867H429.453ZM429.422 202.344C429.833 202.344 430.154 202.24 430.383 202.031C430.617 201.823 430.734 201.539 430.734 201.18C430.734 200.836 430.622 200.576 430.398 200.398C430.174 200.221 429.854 200.133 429.438 200.133H427.375V202.344H429.422Z" fill="#343537"/>
<path d="M306.281 14.3027C306.314 14.791 306.454 15.224 306.701 15.6016C306.955 15.9792 307.316 16.2754 307.785 16.4902C308.254 16.6986 308.82 16.8027 309.484 16.8027H309.68C310.155 16.8027 310.565 16.7279 310.91 16.5781C311.255 16.4219 311.516 16.2168 311.691 15.9629C311.874 15.7025 311.965 15.416 311.965 15.1035C311.965 14.6673 311.848 14.332 311.613 14.0977C311.379 13.8568 310.969 13.6777 310.383 13.5605L307.883 13.043C305.48 12.5417 304.279 11.1745 304.279 8.94141C304.279 8.22526 304.497 7.54818 304.934 6.91016C305.37 6.26562 305.992 5.7513 306.799 5.36719C307.606 4.97656 308.534 4.78776 309.582 4.80078C310.663 4.79427 311.607 4.98958 312.414 5.38672C313.221 5.77734 313.837 6.32422 314.26 7.02734C314.689 7.72396 314.898 8.51497 314.885 9.40039H312.18C312.134 8.70378 311.877 8.16341 311.408 7.7793C310.946 7.39518 310.337 7.20312 309.582 7.20312H309.377C308.908 7.20312 308.492 7.28125 308.127 7.4375C307.762 7.58724 307.479 7.79232 307.277 8.05273C307.082 8.31315 306.984 8.59635 306.984 8.90234C306.984 9.35156 307.115 9.69661 307.375 9.9375C307.635 10.1784 308.072 10.3607 308.684 10.4844L310.783 10.9043C312.046 11.1582 313.007 11.6172 313.664 12.2812C314.328 12.9453 314.66 13.8177 314.66 14.8984C314.673 15.7057 314.462 16.4382 314.025 17.0957C313.589 17.7467 312.961 18.2611 312.141 18.6387C311.32 19.0163 310.367 19.2018 309.279 19.1953C308.049 19.1953 307.014 18.9967 306.174 18.5996C305.34 18.2025 304.709 17.6393 304.279 16.9102C303.85 16.1745 303.615 15.3053 303.576 14.3027H306.281ZM316.916 9H319.514V15.1035C319.514 15.748 319.641 16.2428 319.895 16.5879C320.155 16.9264 320.523 17.0957 320.998 17.0957H321.154C321.525 17.0957 321.867 16.9818 322.18 16.7539C322.499 16.526 322.749 16.2168 322.932 15.8262C323.12 15.4355 323.215 15.0124 323.215 14.5566V9H325.812V19H323.215V17.5352C322.902 18.056 322.489 18.4629 321.975 18.7559C321.467 19.0488 320.907 19.1953 320.295 19.1953C319.169 19.1953 318.322 18.8535 317.756 18.1699C317.196 17.4733 316.916 16.5488 316.916 15.3965V9ZM331.096 9V10.2988C331.245 10.0449 331.464 9.80404 331.75 9.57617C332.036 9.34831 332.372 9.16276 332.756 9.01953C333.146 8.8763 333.553 8.80469 333.977 8.80469C334.875 8.79167 335.663 9.02279 336.34 9.49805C337.017 9.97331 337.535 10.6113 337.893 11.4121C338.257 12.2129 338.433 13.0755 338.42 14C338.433 14.9245 338.257 15.7871 337.893 16.5879C337.535 17.3887 337.017 18.0267 336.34 18.502C335.663 18.9772 334.875 19.2083 333.977 19.1953C333.553 19.1953 333.146 19.1237 332.756 18.9805C332.372 18.8372 332.036 18.6517 331.75 18.4238C331.464 18.196 331.245 17.9551 331.096 17.7012V23.0039H328.498V9H331.096ZM331.096 14C331.089 14.5924 331.19 15.1263 331.398 15.6016C331.613 16.0768 331.896 16.4479 332.248 16.7148C332.606 16.9818 332.984 17.1087 333.381 17.0957H333.537C333.973 17.0957 334.364 16.9688 334.709 16.7148C335.054 16.4544 335.324 16.0898 335.52 15.6211C335.721 15.1523 335.822 14.612 335.822 14C335.822 13.388 335.721 12.8477 335.52 12.3789C335.324 11.9102 335.054 11.5488 334.709 11.2949C334.364 11.0345 333.973 10.9043 333.537 10.9043H333.381C332.984 10.8913 332.606 11.0182 332.248 11.2852C331.896 11.5521 331.613 11.9232 331.398 12.3984C331.19 12.8737 331.089 13.4076 331.096 14ZM339.973 14C339.966 13.0039 340.155 12.1087 340.539 11.3145C340.93 10.5202 341.486 9.90169 342.209 9.45898C342.932 9.00977 343.771 8.79167 344.729 8.80469C345.673 8.79818 346.486 9.00977 347.17 9.43945C347.86 9.86263 348.384 10.4551 348.742 11.2168C349.107 11.9785 349.289 12.8411 349.289 13.8047C349.289 14.0456 349.276 14.3841 349.25 14.8203H342.492C342.525 15.25 342.648 15.6406 342.863 15.9922C343.085 16.3372 343.361 16.6074 343.693 16.8027C344.032 16.998 344.383 17.0957 344.748 17.0957H344.914C345.37 17.0957 345.751 16.9818 346.057 16.7539C346.369 16.5195 346.574 16.2135 346.672 15.8359H349.25C349.087 16.513 348.801 17.1055 348.391 17.6133C347.987 18.1146 347.466 18.5052 346.828 18.7852C346.197 19.0586 345.474 19.1953 344.66 19.1953C343.827 19.1953 343.049 18.9805 342.326 18.5508C341.604 18.1146 341.027 17.5026 340.598 16.7148C340.168 15.9271 339.96 15.0221 339.973 14ZM346.77 12.8184C346.75 12.4342 346.646 12.099 346.457 11.8125C346.268 11.5195 346.021 11.2949 345.715 11.1387C345.409 10.9824 345.074 10.9043 344.709 10.9043H344.553C344.188 10.9043 343.853 10.9824 343.547 11.1387C343.241 11.2949 342.993 11.5195 342.805 11.8125C342.616 12.099 342.512 12.4342 342.492 12.8184H346.77ZM354.045 9V11.002C354.247 10.3314 354.598 9.8138 355.1 9.44922C355.601 9.08464 356.216 8.90234 356.945 8.90234H357.453V11.3047H356.545C355.692 11.3047 355.061 11.5098 354.65 11.9199C354.247 12.3236 354.045 12.9518 354.045 13.8047V19H351.447V9H354.045ZM358.762 11.998C358.755 10.5658 359.016 9.30599 359.543 8.21875C360.077 7.125 360.852 6.27865 361.867 5.67969C362.883 5.08073 364.081 4.78776 365.461 4.80078C366.62 4.78776 367.632 4.99284 368.498 5.41602C369.37 5.83919 370.048 6.41862 370.529 7.1543C371.011 7.88346 371.281 8.69727 371.34 9.5957H368.645C368.495 8.83398 368.153 8.24479 367.619 7.82812C367.085 7.41146 366.398 7.20312 365.559 7.20312H365.363C364.608 7.19661 363.934 7.38542 363.342 7.76953C362.756 8.15365 362.297 8.70378 361.965 9.41992C361.633 10.1361 361.467 10.9694 361.467 11.9199C361.467 12.9095 361.626 13.7721 361.945 14.5078C362.271 15.2435 362.727 15.8099 363.312 16.207C363.905 16.6042 364.589 16.8027 365.363 16.8027H365.559C366.411 16.8027 367.102 16.5977 367.629 16.1875C368.156 15.7773 368.495 15.1816 368.645 14.4004H371.34C371.281 15.3379 371.011 16.1712 370.529 16.9004C370.054 17.623 369.383 18.1895 368.518 18.5996C367.652 19.0033 366.633 19.2018 365.461 19.1953C364.081 19.2083 362.883 18.9154 361.867 18.3164C360.852 17.7174 360.077 16.8743 359.543 15.7871C359.016 14.6934 358.755 13.4303 358.762 11.998ZM379.221 19C379.162 18.7201 379.123 18.3132 379.104 17.7793C378.785 18.222 378.365 18.5703 377.844 18.8242C377.323 19.0716 376.743 19.1953 376.105 19.1953C375.52 19.1953 374.979 19.0749 374.484 18.834C373.99 18.5866 373.596 18.2448 373.303 17.8086C373.01 17.3659 372.863 16.8646 372.863 16.3047C372.863 15.2565 373.205 14.459 373.889 13.9121C374.566 13.3717 375.445 13.056 376.525 12.9648L379.045 12.7402V12.4961C379.045 12.1966 378.977 11.9264 378.84 11.6855C378.71 11.4447 378.521 11.2559 378.273 11.1191C378.033 10.9759 377.756 10.9043 377.443 10.9043H377.277C376.978 10.9043 376.708 10.9596 376.467 11.0703C376.232 11.181 376.044 11.3275 375.9 11.5098C375.764 11.6921 375.686 11.8874 375.666 12.0957H373.059C373.117 11.4707 373.332 10.9108 373.703 10.416C374.081 9.91471 374.579 9.52083 375.197 9.23438C375.822 8.94792 376.529 8.80469 377.316 8.80469C378.169 8.80469 378.915 8.94466 379.553 9.22461C380.191 9.49805 380.686 9.90495 381.037 10.4453C381.389 10.9857 381.564 11.6367 381.564 12.3984V16.8027C381.564 17.8184 381.597 18.5508 381.662 19H379.221ZM375.422 16.0801C375.422 16.3861 375.539 16.6335 375.773 16.8223C376.008 17.0046 376.304 17.0957 376.662 17.0957H376.818C377.209 17.0957 377.574 17.0013 377.912 16.8125C378.257 16.6237 378.531 16.3633 378.732 16.0312C378.941 15.6992 379.045 15.3281 379.045 14.918V14.6348L376.877 14.8594C376.493 14.8919 376.154 15.0091 375.861 15.2109C375.568 15.4128 375.422 15.7025 375.422 16.0801ZM386.76 9V10.4648C387.072 9.95052 387.495 9.54688 388.029 9.25391C388.57 8.95443 389.156 8.80469 389.787 8.80469C390.946 8.80469 391.812 9.14974 392.385 9.83984C392.971 10.5299 393.264 11.4512 393.264 12.6035V19H390.666V12.8965C390.666 12.252 390.529 11.7604 390.256 11.4219C389.982 11.0768 389.592 10.9043 389.084 10.9043H388.928C388.537 10.9043 388.176 11.0182 387.844 11.2461C387.512 11.474 387.248 11.7832 387.053 12.1738C386.857 12.5645 386.76 12.9876 386.76 13.4434V19H384.162V9H386.76ZM395.266 14C395.253 13.0755 395.425 12.2129 395.783 11.4121C396.148 10.6113 396.665 9.97331 397.336 9.49805C398.013 9.02279 398.801 8.79167 399.699 8.80469C400.129 8.80469 400.536 8.8763 400.92 9.01953C401.311 9.16276 401.649 9.34831 401.936 9.57617C402.222 9.80404 402.437 10.0449 402.58 10.2988V4.99609H405.188V19H402.58V17.7012C402.437 17.9551 402.222 18.196 401.936 18.4238C401.649 18.6517 401.311 18.8372 400.92 18.9805C400.536 19.1237 400.129 19.1953 399.699 19.1953C398.801 19.2083 398.013 18.9772 397.336 18.502C396.665 18.0267 396.148 17.3887 395.783 16.5879C395.425 15.7871 395.253 14.9245 395.266 14ZM397.863 13.9805C397.863 14.5924 397.961 15.1361 398.156 15.6113C398.358 16.0801 398.632 16.4447 398.977 16.7051C399.322 16.9655 399.712 17.0957 400.148 17.0957H400.305C400.708 17.1087 401.086 16.9818 401.438 16.7148C401.789 16.4479 402.069 16.0768 402.277 15.6016C402.486 15.1263 402.587 14.5924 402.58 14C402.587 13.4076 402.486 12.8737 402.277 12.3984C402.069 11.9232 401.789 11.5521 401.438 11.2852C401.086 11.0182 400.708 10.8913 400.305 10.9043H400.148C399.712 10.9043 399.322 11.0312 398.977 11.2852C398.632 11.5391 398.358 11.9004 398.156 12.3691C397.961 12.8314 397.863 13.3685 397.863 13.9805ZM410.471 4.99609V19H407.873V4.99609H410.471ZM412.609 14C412.603 13.0039 412.792 12.1087 413.176 11.3145C413.566 10.5202 414.123 9.90169 414.846 9.45898C415.568 9.00977 416.408 8.79167 417.365 8.80469C418.309 8.79818 419.123 9.00977 419.807 9.43945C420.497 9.86263 421.021 10.4551 421.379 11.2168C421.743 11.9785 421.926 12.8411 421.926 13.8047C421.926 14.0456 421.913 14.3841 421.887 14.8203H415.129C415.161 15.25 415.285 15.6406 415.5 15.9922C415.721 16.3372 415.998 16.6074 416.33 16.8027C416.669 16.998 417.02 17.0957 417.385 17.0957H417.551C418.007 17.0957 418.387 16.9818 418.693 16.7539C419.006 16.5195 419.211 16.2135 419.309 15.8359H421.887C421.724 16.513 421.438 17.1055 421.027 17.6133C420.624 18.1146 420.103 18.5052 419.465 18.7852C418.833 19.0586 418.111 19.1953 417.297 19.1953C416.464 19.1953 415.686 18.9805 414.963 18.5508C414.24 18.1146 413.664 17.5026 413.234 16.7148C412.805 15.9271 412.596 15.0221 412.609 14ZM419.406 12.8184C419.387 12.4342 419.283 12.099 419.094 11.8125C418.905 11.5195 418.658 11.2949 418.352 11.1387C418.046 10.9824 417.71 10.9043 417.346 10.9043H417.189C416.825 10.9043 416.49 10.9824 416.184 11.1387C415.878 11.2949 415.63 11.5195 415.441 11.8125C415.253 12.099 415.148 12.4342 415.129 12.8184H419.406ZM426.047 15.6992C426.047 16.1484 426.2 16.513 426.506 16.793C426.818 17.0664 427.225 17.2031 427.727 17.2031H427.883C428.293 17.2031 428.622 17.1152 428.869 16.9395C429.123 16.7572 429.25 16.5163 429.25 16.2168C429.25 15.9629 429.162 15.7578 428.986 15.6016C428.817 15.4388 428.55 15.3118 428.186 15.2207L426.887 14.8984C425.812 14.638 425.025 14.2702 424.523 13.7949C424.029 13.3132 423.781 12.6751 423.781 11.8809C423.781 11.2819 423.944 10.7513 424.27 10.2891C424.602 9.82031 425.07 9.45573 425.676 9.19531C426.288 8.9349 426.997 8.80469 427.805 8.80469C428.658 8.80469 429.39 8.94141 430.002 9.21484C430.62 9.48828 431.092 9.88216 431.418 10.3965C431.743 10.9043 431.906 11.5065 431.906 12.2031H429.309C429.257 11.7539 429.1 11.4089 428.84 11.168C428.586 10.9206 428.241 10.7969 427.805 10.7969H427.648C427.258 10.7969 426.942 10.8815 426.701 11.0508C426.467 11.2201 426.35 11.4642 426.35 11.7832C426.35 12.0306 426.457 12.2357 426.672 12.3984C426.893 12.5612 427.225 12.6947 427.668 12.7988L429.006 13.1406C429.969 13.3815 430.676 13.7428 431.125 14.2246C431.581 14.6999 431.809 15.3314 431.809 16.1191C431.809 16.7051 431.649 17.2324 431.33 17.7012C431.011 18.1634 430.542 18.528 429.924 18.7949C429.312 19.0618 428.579 19.1953 427.727 19.1953C426.828 19.1953 426.053 19.0586 425.402 18.7852C424.751 18.5052 424.253 18.1048 423.908 17.584C423.563 17.0566 423.391 16.4284 423.391 15.6992H426.047Z" fill="#343537"/>
<path d="M360.5 106.5C365.344 92.1681 366.788 83.6659 368 68C369.286 83.633 370.822 92.1025 375.5 106.5H360.5Z" fill="#FCC200" fill-opacity="0.4"/>
<path d="M360.5 135C365.344 149.332 366.788 157.834 368 173.5C369.286 157.867 370.822 149.398 375.5 135H360.5Z" fill="#FCC200" fill-opacity="0.4"/>
<path d="M360.5 107C360.5 106.172 361.172 105.5 362 105.5H374C374.828 105.5 375.5 106.172 375.5 107V115.875C375.5 116.17 375.413 116.459 375.25 116.704L373.177 119.829C372.899 120.248 372.429 120.5 371.927 120.5H364.073C363.571 120.5 363.101 120.248 362.823 119.829L360.75 116.704C360.587 116.459 360.5 116.17 360.5 115.875V107Z" fill="#FCC200" stroke="black"/>
<path d="M360.5 134C360.5 134.828 361.172 135.5 362 135.5H374C374.828 135.5 375.5 134.828 375.5 134V125.125C375.5 124.83 375.413 124.541 375.25 124.296L373.177 121.171C372.899 120.752 372.429 120.5 371.927 120.5H364.073C363.571 120.5 363.101 120.752 362.823 121.171L360.75 124.296C360.587 124.541 360.5 124.83 360.5 125.125V134Z" fill="#FCC200" stroke="black"/>
<path d="M368 68V173.5" stroke="#343537" stroke-linecap="round"/>
<path d="M76.8789 11.998C76.8724 10.5658 77.1328 9.30599 77.6602 8.21875C78.194 7.125 78.9688 6.27865 79.9844 5.67969C81 5.08073 82.1979 4.78776 83.5781 4.80078C84.737 4.78776 85.7493 4.99284 86.6152 5.41602C87.4876 5.83919 88.1647 6.41862 88.6465 7.1543C89.1283 7.88346 89.3984 8.69727 89.457 9.5957H86.7617C86.612 8.83398 86.2702 8.24479 85.7363 7.82812C85.2025 7.41146 84.5156 7.20312 83.6758 7.20312H83.4805C82.7253 7.19661 82.0514 7.38542 81.459 7.76953C80.873 8.15365 80.4141 8.70378 80.082 9.41992C79.75 10.1361 79.584 10.9694 79.584 11.9199C79.584 12.9095 79.7435 13.7721 80.0625 14.5078C80.388 15.2435 80.8438 15.8099 81.4297 16.207C82.0221 16.6042 82.7057 16.8027 83.4805 16.8027H83.6758C84.5286 16.8027 85.2188 16.5977 85.7461 16.1875C86.2734 15.7773 86.612 15.1816 86.7617 14.4004H89.457C89.3984 15.3379 89.1283 16.1712 88.6465 16.9004C88.1712 17.623 87.5007 18.1895 86.6348 18.5996C85.7689 19.0033 84.75 19.2018 83.5781 19.1953C82.1979 19.2083 81 18.9154 79.9844 18.3164C78.9688 17.7174 78.194 16.8743 77.6602 15.7871C77.1328 14.6934 76.8724 13.4303 76.8789 11.998ZM97.3379 19C97.2793 18.7201 97.2402 18.3132 97.2207 17.7793C96.9017 18.222 96.4818 18.5703 95.9609 18.8242C95.4401 19.0716 94.8607 19.1953 94.2227 19.1953C93.6367 19.1953 93.0964 19.0749 92.6016 18.834C92.1068 18.5866 91.7129 18.2448 91.4199 17.8086C91.127 17.3659 90.9805 16.8646 90.9805 16.3047C90.9805 15.2565 91.3223 14.459 92.0059 13.9121C92.6829 13.3717 93.5618 13.056 94.6426 12.9648L97.1621 12.7402V12.4961C97.1621 12.1966 97.0938 11.9264 96.957 11.6855C96.8268 11.4447 96.638 11.2559 96.3906 11.1191C96.1497 10.9759 95.873 10.9043 95.5605 10.9043H95.3945C95.0951 10.9043 94.8249 10.9596 94.584 11.0703C94.3496 11.181 94.1608 11.3275 94.0176 11.5098C93.8809 11.6921 93.8027 11.8874 93.7832 12.0957H91.1758C91.2344 11.4707 91.4492 10.9108 91.8203 10.416C92.1979 9.91471 92.696 9.52083 93.3145 9.23438C93.9395 8.94792 94.6458 8.80469 95.4336 8.80469C96.2865 8.80469 97.0319 8.94466 97.6699 9.22461C98.3079 9.49805 98.8027 9.90495 99.1543 10.4453C99.5059 10.9857 99.6816 11.6367 99.6816 12.3984V16.8027C99.6816 17.8184 99.7142 18.5508 99.7793 19H97.3379ZM93.5391 16.0801C93.5391 16.3861 93.6562 16.6335 93.8906 16.8223C94.125 17.0046 94.4212 17.0957 94.7793 17.0957H94.9355C95.3262 17.0957 95.6908 17.0013 96.0293 16.8125C96.3743 16.6237 96.6478 16.3633 96.8496 16.0312C97.0579 15.6992 97.1621 15.3281 97.1621 14.918V14.6348L94.9941 14.8594C94.61 14.8919 94.2715 15.0091 93.9785 15.2109C93.6855 15.4128 93.5391 15.7025 93.5391 16.0801ZM104.877 9V10.4648C105.189 9.95052 105.613 9.54688 106.146 9.25391C106.687 8.95443 107.273 8.80469 107.904 8.80469C109.063 8.80469 109.929 9.14974 110.502 9.83984C111.088 10.5299 111.381 11.4512 111.381 12.6035V19H108.783V12.8965C108.783 12.252 108.646 11.7604 108.373 11.4219C108.1 11.0768 107.709 10.9043 107.201 10.9043H107.045C106.654 10.9043 106.293 11.0182 105.961 11.2461C105.629 11.474 105.365 11.7832 105.17 12.1738C104.975 12.5645 104.877 12.9876 104.877 13.4434V19H102.279V9H104.877ZM113.383 14C113.37 13.0755 113.542 12.2129 113.9 11.4121C114.265 10.6113 114.783 9.97331 115.453 9.49805C116.13 9.02279 116.918 8.79167 117.816 8.80469C118.246 8.80469 118.653 8.8763 119.037 9.01953C119.428 9.16276 119.766 9.34831 120.053 9.57617C120.339 9.80404 120.554 10.0449 120.697 10.2988V4.99609H123.305V19H120.697V17.7012C120.554 17.9551 120.339 18.196 120.053 18.4238C119.766 18.6517 119.428 18.8372 119.037 18.9805C118.653 19.1237 118.246 19.1953 117.816 19.1953C116.918 19.2083 116.13 18.9772 115.453 18.502C114.783 18.0267 114.265 17.3887 113.9 16.5879C113.542 15.7871 113.37 14.9245 113.383 14ZM115.98 13.9805C115.98 14.5924 116.078 15.1361 116.273 15.6113C116.475 16.0801 116.749 16.4447 117.094 16.7051C117.439 16.9655 117.829 17.0957 118.266 17.0957H118.422C118.826 17.1087 119.203 16.9818 119.555 16.7148C119.906 16.4479 120.186 16.0768 120.395 15.6016C120.603 15.1263 120.704 14.5924 120.697 14C120.704 13.4076 120.603 12.8737 120.395 12.3984C120.186 11.9232 119.906 11.5521 119.555 11.2852C119.203 11.0182 118.826 10.8913 118.422 10.9043H118.266C117.829 10.9043 117.439 11.0312 117.094 11.2852C116.749 11.5391 116.475 11.9004 116.273 12.3691C116.078 12.8314 115.98 13.3685 115.98 13.9805ZM128.588 4.99609V19H125.99V4.99609H128.588ZM130.727 14C130.72 13.0039 130.909 12.1087 131.293 11.3145C131.684 10.5202 132.24 9.90169 132.963 9.45898C133.686 9.00977 134.525 8.79167 135.482 8.80469C136.426 8.79818 137.24 9.00977 137.924 9.43945C138.614 9.86263 139.138 10.4551 139.496 11.2168C139.861 11.9785 140.043 12.8411 140.043 13.8047C140.043 14.0456 140.03 14.3841 140.004 14.8203H133.246C133.279 15.25 133.402 15.6406 133.617 15.9922C133.839 16.3372 134.115 16.6074 134.447 16.8027C134.786 16.998 135.137 17.0957 135.502 17.0957H135.668C136.124 17.0957 136.505 16.9818 136.811 16.7539C137.123 16.5195 137.328 16.2135 137.426 15.8359H140.004C139.841 16.513 139.555 17.1055 139.145 17.6133C138.741 18.1146 138.22 18.5052 137.582 18.7852C136.951 19.0586 136.228 19.1953 135.414 19.1953C134.581 19.1953 133.803 18.9805 133.08 18.5508C132.357 18.1146 131.781 17.5026 131.352 16.7148C130.922 15.9271 130.714 15.0221 130.727 14ZM137.523 12.8184C137.504 12.4342 137.4 12.099 137.211 11.8125C137.022 11.5195 136.775 11.2949 136.469 11.1387C136.163 10.9824 135.827 10.9043 135.463 10.9043H135.307C134.942 10.9043 134.607 10.9824 134.301 11.1387C133.995 11.2949 133.747 11.5195 133.559 11.8125C133.37 12.099 133.266 12.4342 133.246 12.8184H137.523ZM144.164 15.6992C144.164 16.1484 144.317 16.513 144.623 16.793C144.936 17.0664 145.342 17.2031 145.844 17.2031H146C146.41 17.2031 146.739 17.1152 146.986 16.9395C147.24 16.7572 147.367 16.5163 147.367 16.2168C147.367 15.9629 147.279 15.7578 147.104 15.6016C146.934 15.4388 146.667 15.3118 146.303 15.2207L145.004 14.8984C143.93 14.638 143.142 14.2702 142.641 13.7949C142.146 13.3132 141.898 12.6751 141.898 11.8809C141.898 11.2819 142.061 10.7513 142.387 10.2891C142.719 9.82031 143.188 9.45573 143.793 9.19531C144.405 8.9349 145.115 8.80469 145.922 8.80469C146.775 8.80469 147.507 8.94141 148.119 9.21484C148.738 9.48828 149.21 9.88216 149.535 10.3965C149.861 10.9043 150.023 11.5065 150.023 12.2031H147.426C147.374 11.7539 147.217 11.4089 146.957 11.168C146.703 10.9206 146.358 10.7969 145.922 10.7969H145.766C145.375 10.7969 145.059 10.8815 144.818 11.0508C144.584 11.2201 144.467 11.4642 144.467 11.7832C144.467 12.0306 144.574 12.2357 144.789 12.3984C145.01 12.5612 145.342 12.6947 145.785 12.7988L147.123 13.1406C148.087 13.3815 148.793 13.7428 149.242 14.2246C149.698 14.6999 149.926 15.3314 149.926 16.1191C149.926 16.7051 149.766 17.2324 149.447 17.7012C149.128 18.1634 148.66 18.528 148.041 18.7949C147.429 19.0618 146.697 19.1953 145.844 19.1953C144.945 19.1953 144.171 19.0586 143.52 18.7852C142.868 18.5052 142.37 18.1048 142.025 17.584C141.68 17.0566 141.508 16.4284 141.508 15.6992H144.164Z" fill="#343537"/>
<path d="M74.2656 204.453H72.5078V207H70.9688V204.453H65.4609V202.922L70.9844 195.797H72.5078V203.094H74.2656V204.453ZM70.9688 203.094V197.953L66.9688 203.094H70.9688ZM86.7344 199V207H85.2188V200.25H81.4062V207H79.8906V199H86.7344ZM93.9375 207C93.8854 206.745 93.8594 206.318 93.8594 205.719C93.75 205.974 93.5703 206.211 93.3203 206.43C93.0703 206.648 92.7682 206.826 92.4141 206.961C92.0651 207.091 91.6927 207.156 91.2969 207.156C90.8125 207.161 90.3672 207.062 89.9609 206.859C89.5599 206.656 89.2422 206.375 89.0078 206.016C88.7734 205.656 88.6562 205.26 88.6562 204.828C88.6562 203.984 88.9401 203.37 89.5078 202.984C90.0703 202.609 90.7578 202.385 91.5703 202.312L93.7812 202.141V201.883C93.7812 201.326 93.6328 200.893 93.3359 200.586C93.0443 200.273 92.638 200.117 92.1172 200.117H91.9844C91.5365 200.117 91.1615 200.224 90.8594 200.438C90.5573 200.646 90.3828 200.94 90.3359 201.32H88.8203C88.8411 200.846 88.9948 200.419 89.2812 200.039C89.5729 199.659 89.9609 199.365 90.4453 199.156C90.9297 198.943 91.4635 198.839 92.0469 198.844C92.7135 198.839 93.2943 198.971 93.7891 199.242C94.2839 199.513 94.6589 199.883 94.9141 200.352C95.1745 200.815 95.3021 201.326 95.2969 201.883V205.242C95.2969 206.055 95.3229 206.641 95.375 207H93.9375ZM90.1797 204.727C90.1797 204.945 90.2344 205.143 90.3438 205.32C90.4583 205.492 90.6146 205.63 90.8125 205.734C91.0104 205.833 91.2318 205.883 91.4766 205.883H91.6016C91.9193 205.888 92.25 205.807 92.5938 205.641C92.9427 205.469 93.2292 205.245 93.4531 204.969C93.6823 204.693 93.7917 204.409 93.7812 204.117V203.312L91.7812 203.461C91.2917 203.508 90.901 203.643 90.6094 203.867C90.3229 204.086 90.1797 204.372 90.1797 204.727ZM99.1406 199V200.117C99.2708 199.878 99.4766 199.661 99.7578 199.469C100.044 199.276 100.37 199.125 100.734 199.016C101.099 198.901 101.464 198.844 101.828 198.844C102.484 198.844 103.07 199.013 103.586 199.352C104.107 199.69 104.51 200.174 104.797 200.805C105.083 201.43 105.224 202.161 105.219 203C105.229 203.828 105.078 204.557 104.766 205.188C104.453 205.818 104.023 206.305 103.477 206.648C102.93 206.987 102.326 207.156 101.664 207.156C101.086 207.156 100.573 207.036 100.125 206.797C99.6719 206.552 99.3438 206.247 99.1406 205.883V210.203H97.625V199H99.1406ZM99.1406 203C99.1354 203.594 99.237 204.109 99.4453 204.547C99.6589 204.984 99.9401 205.318 100.289 205.547C100.638 205.776 101.008 205.888 101.398 205.883H101.523C101.945 205.883 102.32 205.771 102.648 205.547C102.977 205.323 103.234 204.995 103.422 204.562C103.609 204.13 103.703 203.609 103.703 203C103.703 202.391 103.609 201.87 103.422 201.438C103.234 201.005 102.977 200.677 102.648 200.453C102.32 200.229 101.945 200.117 101.523 200.117H101.398C101.008 200.112 100.638 200.224 100.289 200.453C99.9401 200.682 99.6589 201.016 99.4453 201.453C99.237 201.891 99.1354 202.406 99.1406 203ZM111.969 207C111.917 206.745 111.891 206.318 111.891 205.719C111.781 205.974 111.602 206.211 111.352 206.43C111.102 206.648 110.799 206.826 110.445 206.961C110.096 207.091 109.724 207.156 109.328 207.156C108.844 207.161 108.398 207.062 107.992 206.859C107.591 206.656 107.273 206.375 107.039 206.016C106.805 205.656 106.688 205.26 106.688 204.828C106.688 203.984 106.971 203.37 107.539 202.984C108.102 202.609 108.789 202.385 109.602 202.312L111.812 202.141V201.883C111.812 201.326 111.664 200.893 111.367 200.586C111.076 200.273 110.669 200.117 110.148 200.117H110.016C109.568 200.117 109.193 200.224 108.891 200.438C108.589 200.646 108.414 200.94 108.367 201.32H106.852C106.872 200.846 107.026 200.419 107.312 200.039C107.604 199.659 107.992 199.365 108.477 199.156C108.961 198.943 109.495 198.839 110.078 198.844C110.745 198.839 111.326 198.971 111.82 199.242C112.315 199.513 112.69 199.883 112.945 200.352C113.206 200.815 113.333 201.326 113.328 201.883V205.242C113.328 206.055 113.354 206.641 113.406 207H111.969ZM108.211 204.727C108.211 204.945 108.266 205.143 108.375 205.32C108.49 205.492 108.646 205.63 108.844 205.734C109.042 205.833 109.263 205.883 109.508 205.883H109.633C109.951 205.888 110.281 205.807 110.625 205.641C110.974 205.469 111.26 205.245 111.484 204.969C111.714 204.693 111.823 204.409 111.812 204.117V203.312L109.812 203.461C109.323 203.508 108.932 203.643 108.641 203.867C108.354 204.086 108.211 204.372 108.211 204.727ZM125.125 207H123.672V200.281L121.109 207H119.641L117.078 200.281V207H115.656V199H118.008L120.43 205.391L122.852 199H125.125V207ZM127.047 202.984C127.036 202.135 127.203 201.396 127.547 200.766C127.896 200.135 128.357 199.656 128.93 199.328C129.503 198.995 130.117 198.833 130.773 198.844C131.445 198.833 132.039 198.979 132.555 199.281C133.076 199.578 133.477 199.995 133.758 200.531C134.039 201.068 134.177 201.677 134.172 202.359V203.242H128.57C128.591 203.789 128.714 204.266 128.938 204.672C129.161 205.073 129.44 205.378 129.773 205.586C130.112 205.789 130.456 205.888 130.805 205.883H130.938C131.349 205.883 131.716 205.776 132.039 205.562C132.357 205.344 132.555 205.034 132.633 204.633H134.148C134.055 205.154 133.849 205.604 133.531 205.984C133.214 206.365 132.815 206.656 132.336 206.859C131.862 207.057 131.341 207.156 130.773 207.156C130.096 207.156 129.471 206.992 128.898 206.664C128.326 206.331 127.87 205.849 127.531 205.219C127.198 204.589 127.036 203.844 127.047 202.984ZM132.648 202.039C132.617 201.388 132.432 200.906 132.094 200.594C131.76 200.276 131.344 200.117 130.844 200.117H130.711C130.247 200.117 129.823 200.273 129.438 200.586C129.057 200.888 128.799 201.372 128.664 202.039H132.648ZM139.133 200.25V207H137.609V200.25H135.023V199H141.727V200.25H139.133ZM144.688 199V200.117C144.818 199.878 145.023 199.661 145.305 199.469C145.591 199.276 145.917 199.125 146.281 199.016C146.646 198.901 147.01 198.844 147.375 198.844C148.031 198.844 148.617 199.013 149.133 199.352C149.654 199.69 150.057 200.174 150.344 200.805C150.63 201.43 150.771 202.161 150.766 203C150.776 203.828 150.625 204.557 150.312 205.188C150 205.818 149.57 206.305 149.023 206.648C148.477 206.987 147.872 207.156 147.211 207.156C146.633 207.156 146.12 207.036 145.672 206.797C145.219 206.552 144.891 206.247 144.688 205.883V210.203H143.172V199H144.688ZM144.688 203C144.682 203.594 144.784 204.109 144.992 204.547C145.206 204.984 145.487 205.318 145.836 205.547C146.185 205.776 146.555 205.888 146.945 205.883H147.07C147.492 205.883 147.867 205.771 148.195 205.547C148.523 205.323 148.781 204.995 148.969 204.562C149.156 204.13 149.25 203.609 149.25 203C149.25 202.391 149.156 201.87 148.969 201.438C148.781 201.005 148.523 200.677 148.195 200.453C147.867 200.229 147.492 200.117 147.07 200.117H146.945C146.555 200.112 146.185 200.224 145.836 200.453C145.487 200.682 145.206 201.016 144.992 201.453C144.784 201.891 144.682 202.406 144.688 203ZM157.516 207C157.464 206.745 157.438 206.318 157.438 205.719C157.328 205.974 157.148 206.211 156.898 206.43C156.648 206.648 156.346 206.826 155.992 206.961C155.643 207.091 155.271 207.156 154.875 207.156C154.391 207.161 153.945 207.062 153.539 206.859C153.138 206.656 152.82 206.375 152.586 206.016C152.352 205.656 152.234 205.26 152.234 204.828C152.234 203.984 152.518 203.37 153.086 202.984C153.648 202.609 154.336 202.385 155.148 202.312L157.359 202.141V201.883C157.359 201.326 157.211 200.893 156.914 200.586C156.622 200.273 156.216 200.117 155.695 200.117H155.562C155.115 200.117 154.74 200.224 154.438 200.438C154.135 200.646 153.961 200.94 153.914 201.32H152.398C152.419 200.846 152.573 200.419 152.859 200.039C153.151 199.659 153.539 199.365 154.023 199.156C154.508 198.943 155.042 198.839 155.625 198.844C156.292 198.839 156.872 198.971 157.367 199.242C157.862 199.513 158.237 199.883 158.492 200.352C158.753 200.815 158.88 201.326 158.875 201.883V205.242C158.875 206.055 158.901 206.641 158.953 207H157.516ZM153.758 204.727C153.758 204.945 153.812 205.143 153.922 205.32C154.036 205.492 154.193 205.63 154.391 205.734C154.589 205.833 154.81 205.883 155.055 205.883H155.18C155.497 205.888 155.828 205.807 156.172 205.641C156.521 205.469 156.807 205.245 157.031 204.969C157.26 204.693 157.37 204.409 157.359 204.117V203.312L155.359 203.461C154.87 203.508 154.479 203.643 154.188 203.867C153.901 204.086 153.758 204.372 153.758 204.727Z" fill="#343537"/>
<rect x="105" y="91" width="16" height="60" rx="2" fill="#048B43"/>
<path d="M113 68V173.5" stroke="#048B43" stroke-linecap="round"/>
<path d="M7.49805 63.5977V67.2598H11.7578V63.5977H12.959V72H11.7578V68.3379H7.49805V72H6.29688V63.5977H7.49805ZM16.1406 63.5977V64.9219H14.8809V63.5977H16.1406ZM14.9453 66H16.082V72H14.9453V66ZM18.5547 72.7793C18.6133 73.0684 18.7832 73.291 19.0645 73.4473C19.3496 73.6035 19.709 73.6816 20.1426 73.6816H20.2598C20.8105 73.6816 21.2383 73.5293 21.543 73.2246C21.8477 72.9238 22 72.4766 22 71.8828V71.0391C21.8203 71.3281 21.5703 71.5605 21.25 71.7363C20.9336 71.9121 20.5723 72 20.166 72C19.6855 72 19.2441 71.8809 18.8418 71.6426C18.4395 71.4043 18.1191 71.0547 17.8809 70.5938C17.6426 70.1328 17.5273 69.582 17.5352 68.9414C17.5312 68.293 17.6465 67.7383 17.8809 67.2773C18.1152 66.8164 18.4336 66.4688 18.8359 66.2344C19.2383 66 19.6855 65.8828 20.1777 65.8828C20.459 65.8828 20.7227 65.9277 20.9688 66.0176C21.2188 66.1035 21.4316 66.2188 21.6074 66.3633C21.7871 66.5078 21.918 66.666 22 66.8379V66H23.1426V72C23.1504 72.4961 23.0352 72.9453 22.7969 73.3477C22.5586 73.75 22.2188 74.0664 21.7773 74.2969C21.3398 74.5273 20.8281 74.6426 20.2422 74.6426C19.6953 74.6426 19.2148 74.5645 18.8008 74.4082C18.3906 74.252 18.0664 74.0332 17.8281 73.752C17.5938 73.4707 17.457 73.1465 17.418 72.7793H18.5547ZM18.6777 68.9414C18.6777 69.4102 18.7441 69.8027 18.877 70.1191C19.0137 70.4316 19.1992 70.6641 19.4336 70.8164C19.6719 70.9648 19.9434 71.0391 20.248 71.0391H20.3418C20.623 71.0469 20.8926 70.9629 21.1504 70.7871C21.4082 70.6074 21.6152 70.3574 21.7715 70.0371C21.9316 69.7129 22.0078 69.3477 22 68.9414C22.0039 68.5312 21.9316 68.166 21.7832 67.8457C21.6348 67.5215 21.4375 67.2715 21.1914 67.0957C20.9453 66.916 20.6836 66.8301 20.4062 66.8379H20.3066C20.002 66.8379 19.7266 66.916 19.4805 67.0723C19.2344 67.2246 19.0391 67.459 18.8945 67.7754C18.75 68.0879 18.6777 68.4766 18.6777 68.9414ZM26.0781 63.5977V66.8379C26.5117 66.2012 27.1523 65.8828 28 65.8828C28.4453 65.8828 28.8301 65.9688 29.1543 66.1406C29.4785 66.3125 29.7266 66.5566 29.8984 66.873C30.0703 67.1895 30.1562 67.5586 30.1562 67.9805V72H29.0195V68.2207C29.0195 67.7754 28.918 67.4336 28.7148 67.1953C28.5117 66.957 28.209 66.8379 27.8066 66.8379H27.7129C27.4238 66.834 27.1523 66.9082 26.8984 67.0605C26.6484 67.209 26.4473 67.4219 26.2949 67.6992C26.1465 67.9727 26.0742 68.2871 26.0781 68.6426V72H24.9414V63.5977H26.0781Z" fill="#343537"/>
<path d="M38 68L109 68" stroke="#D1D2D5" stroke-linecap="round"/>
<path d="M11.8652 168.598V175.922H16.7871V177H10.6641V168.598H11.8652ZM17.4492 174C17.4414 173.41 17.5645 172.875 17.8184 172.395C18.0762 171.914 18.4258 171.541 18.8672 171.275C19.3125 171.006 19.8008 170.875 20.332 170.883C20.8594 170.875 21.3438 171.006 21.7852 171.275C22.2305 171.541 22.5801 171.914 22.834 172.395C23.0918 172.875 23.2168 173.41 23.209 174C23.2168 174.59 23.0918 175.125 22.834 175.605C22.5801 176.086 22.2305 176.461 21.7852 176.73C21.3438 176.996 20.8594 177.125 20.332 177.117C19.8008 177.125 19.3125 176.996 18.8672 176.73C18.4258 176.461 18.0762 176.086 17.8184 175.605C17.5645 175.125 17.4414 174.59 17.4492 174ZM18.5918 174C18.5918 174.445 18.6641 174.832 18.8086 175.16C18.9531 175.484 19.1523 175.732 19.4062 175.904C19.6602 176.076 19.9512 176.162 20.2793 176.162H20.3789C20.707 176.162 20.998 176.076 21.252 175.904C21.5098 175.732 21.7109 175.484 21.8555 175.16C22 174.832 22.0723 174.445 22.0723 174C22.0723 173.555 22 173.17 21.8555 172.846C21.7109 172.518 21.5098 172.268 21.252 172.096C20.998 171.924 20.707 171.838 20.3789 171.838H20.2793C19.9512 171.838 19.6602 171.924 19.4062 172.096C19.1523 172.268 18.9531 172.518 18.8086 172.846C18.6641 173.17 18.5918 173.555 18.5918 174ZM30.8965 177H29.6367L28.3184 172.312L26.9941 177H25.7344L23.877 171H25.0781L26.3965 175.746L27.7148 171H28.916L30.293 175.74L31.5586 171H32.7539L30.8965 177Z" fill="#343537"/>
<path d="M38 174L109 174" stroke="#D1D2D5" stroke-linecap="round"/>
<path d="M3.91406 149.799C3.90625 148.936 4.07227 148.176 4.41211 147.52C4.75586 146.863 5.23047 146.357 5.83594 146.002C6.44141 145.646 7.12109 145.473 7.875 145.48C8.62891 145.473 9.30859 145.646 9.91406 146.002C10.5195 146.357 10.9922 146.863 11.332 147.52C11.6758 148.176 11.8438 148.936 11.8359 149.799C11.8438 150.662 11.6758 151.422 11.332 152.078C10.9922 152.734 10.5195 153.24 9.91406 153.596C9.30859 153.951 8.62891 154.125 7.875 154.117C7.12109 154.125 6.44141 153.951 5.83594 153.596C5.23047 153.24 4.75586 152.734 4.41211 152.078C4.07227 151.422 3.90625 150.662 3.91406 149.799ZM5.11523 149.799C5.10742 150.447 5.21875 151.02 5.44922 151.516C5.68359 152.008 6.00781 152.387 6.42188 152.652C6.83594 152.914 7.30078 153.043 7.81641 153.039H7.93359C8.45312 153.047 8.91797 152.918 9.32812 152.652C9.74219 152.387 10.0645 152.008 10.2949 151.516C10.5254 151.023 10.6387 150.451 10.6348 149.799C10.6387 149.146 10.5254 148.574 10.2949 148.082C10.0645 147.59 9.74219 147.211 9.32812 146.945C8.91797 146.68 8.45312 146.551 7.93359 146.559H7.81641C7.30078 146.555 6.83594 146.686 6.42188 146.951C6.00781 147.213 5.68359 147.592 5.44922 148.088C5.21875 148.58 5.10742 149.15 5.11523 149.799ZM14.4609 148V148.838C14.5586 148.658 14.7129 148.496 14.9238 148.352C15.1387 148.207 15.3828 148.094 15.6562 148.012C15.9297 147.926 16.2031 147.883 16.4766 147.883C16.9688 147.883 17.4082 148.01 17.7949 148.264C18.1855 148.518 18.4883 148.881 18.7031 149.354C18.918 149.822 19.0234 150.371 19.0195 151C19.0273 151.621 18.9141 152.168 18.6797 152.641C18.4453 153.113 18.123 153.479 17.7129 153.736C17.3027 153.99 16.8496 154.117 16.3535 154.117C15.9199 154.117 15.5352 154.027 15.1992 153.848C14.8594 153.664 14.6133 153.436 14.4609 153.162V156.402H13.3242V148H14.4609ZM14.4609 151C14.457 151.445 14.5332 151.832 14.6895 152.16C14.8496 152.488 15.0605 152.738 15.3223 152.91C15.584 153.082 15.8613 153.166 16.1543 153.162H16.248C16.5645 153.162 16.8457 153.078 17.0918 152.91C17.3379 152.742 17.5312 152.496 17.6719 152.172C17.8125 151.848 17.8828 151.457 17.8828 151C17.8828 150.543 17.8125 150.152 17.6719 149.828C17.5312 149.504 17.3379 149.258 17.0918 149.09C16.8457 148.922 16.5645 148.838 16.248 148.838H16.1543C15.8613 148.834 15.584 148.918 15.3223 149.09C15.0605 149.262 14.8496 149.512 14.6895 149.84C14.5332 150.168 14.457 150.555 14.4609 151ZM20.1211 150.988C20.1133 150.352 20.2383 149.797 20.4961 149.324C20.7578 148.852 21.1035 148.492 21.5332 148.246C21.9629 147.996 22.4238 147.875 22.916 147.883C23.4199 147.875 23.8652 147.984 24.252 148.211C24.6426 148.434 24.9434 148.746 25.1543 149.148C25.3652 149.551 25.4688 150.008 25.4648 150.52V151.182H21.2637C21.2793 151.592 21.3711 151.949 21.5391 152.254C21.707 152.555 21.916 152.783 22.166 152.939C22.4199 153.092 22.6777 153.166 22.9395 153.162H23.0391C23.3477 153.162 23.623 153.082 23.8652 152.922C24.1035 152.758 24.252 152.525 24.3105 152.225H25.4473C25.377 152.615 25.2227 152.953 24.9844 153.238C24.7461 153.523 24.4473 153.742 24.0879 153.895C23.7324 154.043 23.3418 154.117 22.916 154.117C22.4082 154.117 21.9395 153.994 21.5098 153.748C21.0801 153.498 20.7383 153.137 20.4844 152.664C20.2344 152.191 20.1133 151.633 20.1211 150.988ZM24.3223 150.279C24.2988 149.791 24.1602 149.43 23.9062 149.195C23.6562 148.957 23.3438 148.838 22.9688 148.838H22.8691C22.5215 148.838 22.2031 148.955 21.9141 149.189C21.6289 149.416 21.4355 149.779 21.334 150.279H24.3223ZM28.0781 148V148.838C28.5117 148.201 29.1523 147.883 30 147.883C30.4453 147.883 30.8301 147.969 31.1543 148.141C31.4785 148.312 31.7266 148.557 31.8984 148.873C32.0703 149.189 32.1562 149.559 32.1562 149.98V154H31.0195V150.221C31.0195 149.775 30.918 149.434 30.7148 149.195C30.5117 148.957 30.209 148.838 29.8066 148.838H29.7129C29.4238 148.834 29.1523 148.908 28.8984 149.061C28.6484 149.209 28.4473 149.422 28.2949 149.699C28.1465 149.973 28.0742 150.287 28.0781 150.643V154H26.9414V148H28.0781Z" fill="#343537"/>
<path d="M38 151L101 151" stroke="#D1D2D5" stroke-linecap="round"/>
<path d="M1.05859 90.7988C1.05859 89.9746 1.21875 89.2363 1.53906 88.584C1.86328 87.9238 2.32227 87.4102 2.91602 87.043C3.52148 86.668 4.23633 86.4805 5.06055 86.4805C5.65039 86.4805 6.19141 86.5977 6.68359 86.832C7.17969 87.0625 7.57812 87.3867 7.87891 87.8047C8.18359 88.2227 8.35156 88.7012 8.38281 89.2402H7.18164C7.14258 88.9082 7.02734 88.6152 6.83594 88.3613C6.64844 88.1035 6.40234 87.9062 6.09766 87.7695C5.79297 87.6289 5.45312 87.5586 5.07812 87.5586H4.96094C4.41016 87.5508 3.92969 87.6895 3.51953 87.9746C3.10938 88.2598 2.79492 88.6504 2.57617 89.1465C2.35742 89.6426 2.25195 90.1934 2.25977 90.7988C2.25195 91.4043 2.35742 91.9551 2.57617 92.4512C2.79492 92.9473 3.10938 93.3379 3.51953 93.623C3.92969 93.9082 4.41016 94.0469 4.96094 94.0391H5.07812C5.45312 94.0391 5.79297 93.9707 6.09766 93.834C6.40234 93.6934 6.64844 93.4961 6.83594 93.2422C7.02734 92.9844 7.14258 92.6895 7.18164 92.3574H8.38281C8.35156 92.8926 8.18555 93.3711 7.88477 93.793C7.58398 94.2109 7.18555 94.5371 6.68945 94.7715C6.19727 95.002 5.6582 95.1172 5.07227 95.1172C4.24414 95.1172 3.52539 94.9316 2.91602 94.5605C2.32227 94.1855 1.86328 93.6699 1.53906 93.0137C1.21875 92.3613 1.05859 91.623 1.05859 90.7988ZM10.9609 86.5977V95H9.82422V86.5977H10.9609ZM12.3906 92C12.3828 91.4102 12.5059 90.875 12.7598 90.3945C13.0176 89.9141 13.3672 89.541 13.8086 89.2754C14.2539 89.0059 14.7422 88.875 15.2734 88.8828C15.8008 88.875 16.2852 89.0059 16.7266 89.2754C17.1719 89.541 17.5215 89.9141 17.7754 90.3945C18.0332 90.875 18.1582 91.4102 18.1504 92C18.1582 92.5898 18.0332 93.125 17.7754 93.6055C17.5215 94.0859 17.1719 94.4609 16.7266 94.7305C16.2852 94.9961 15.8008 95.125 15.2734 95.1172C14.7422 95.125 14.2539 94.9961 13.8086 94.7305C13.3672 94.4609 13.0176 94.0859 12.7598 93.6055C12.5059 93.125 12.3828 92.5898 12.3906 92ZM13.5332 92C13.5332 92.4453 13.6055 92.832 13.75 93.1602C13.8945 93.4844 14.0938 93.7324 14.3477 93.9043C14.6016 94.0762 14.8926 94.1621 15.2207 94.1621H15.3203C15.6484 94.1621 15.9395 94.0762 16.1934 93.9043C16.4512 93.7324 16.6523 93.4844 16.7969 93.1602C16.9414 92.832 17.0137 92.4453 17.0137 92C17.0137 91.5547 16.9414 91.1699 16.7969 90.8457C16.6523 90.5176 16.4512 90.2676 16.1934 90.0957C15.9395 89.9238 15.6484 89.8379 15.3203 89.8379H15.2207C14.8926 89.8379 14.6016 89.9238 14.3477 90.0957C14.0938 90.2676 13.8945 90.5176 13.75 90.8457C13.6055 91.1699 13.5332 91.5547 13.5332 92ZM20.2656 93.1426C20.2969 93.4785 20.4297 93.7324 20.6641 93.9043C20.9023 94.0762 21.2148 94.1621 21.6016 94.1621H21.6953C22.0156 94.1621 22.2812 94.0918 22.4922 93.9512C22.707 93.8066 22.8145 93.6172 22.8145 93.3828C22.8145 93.1758 22.75 93.0098 22.6211 92.8848C22.4922 92.7598 22.2832 92.668 21.9941 92.6094L21.1211 92.4453C20.5977 92.3398 20.1719 92.1484 19.8438 91.8711C19.5273 91.5898 19.3691 91.1992 19.3691 90.6992C19.3691 90.332 19.4707 90.0117 19.6738 89.7383C19.8809 89.4609 20.1562 89.25 20.5 89.1055C20.8438 88.957 21.2168 88.8828 21.6191 88.8828C22.127 88.8828 22.5605 88.9668 22.9199 89.1348C23.2793 89.2988 23.5508 89.5293 23.7344 89.8262C23.918 90.123 24.0098 90.4668 24.0098 90.8574H22.873C22.8379 90.5488 22.7207 90.3027 22.5215 90.1191C22.3223 89.9316 22.0469 89.8379 21.6953 89.8379H21.6016C21.3867 89.8379 21.1953 89.873 21.0273 89.9434C20.8633 90.0098 20.7344 90.1016 20.6406 90.2188C20.5508 90.3359 20.5059 90.4648 20.5059 90.6055C20.5059 90.8164 20.5703 90.9824 20.6992 91.1035C20.832 91.2246 21.0488 91.3164 21.3496 91.3789L22.293 91.5664C22.7969 91.6641 23.1992 91.8555 23.5 92.1406C23.8008 92.4258 23.9512 92.8281 23.9512 93.3477C23.9512 93.6914 23.8496 94 23.6465 94.2734C23.4434 94.543 23.1621 94.752 22.8027 94.9004C22.4434 95.0488 22.0391 95.1211 21.5898 95.1172C21.0742 95.1172 20.6309 95.0352 20.2598 94.8711C19.8926 94.7031 19.6113 94.4707 19.416 94.1738C19.2246 93.873 19.1289 93.5293 19.1289 93.1426H20.2656ZM25.082 91.9883C25.0742 91.3516 25.1992 90.7969 25.457 90.3242C25.7188 89.8516 26.0645 89.4922 26.4941 89.2461C26.9238 88.9961 27.3848 88.875 27.877 88.8828C28.3809 88.875 28.8262 88.9844 29.2129 89.2109C29.6035 89.4336 29.9043 89.7461 30.1152 90.1484C30.3262 90.5508 30.4297 91.0078 30.4258 91.5195V92.1816H26.2246C26.2402 92.5918 26.332 92.9492 26.5 93.2539C26.668 93.5547 26.877 93.7832 27.127 93.9395C27.3809 94.0918 27.6387 94.166 27.9004 94.1621H28C28.3086 94.1621 28.584 94.082 28.8262 93.9219C29.0645 93.7578 29.2129 93.5254 29.2715 93.2246H30.4082C30.3379 93.6152 30.1836 93.9531 29.9453 94.2383C29.707 94.5234 29.4082 94.7422 29.0488 94.8945C28.6934 95.043 28.3027 95.1172 27.877 95.1172C27.3691 95.1172 26.9004 94.9941 26.4707 94.748C26.041 94.498 25.6992 94.1367 25.4453 93.6641C25.1953 93.1914 25.0742 92.6328 25.082 91.9883ZM29.2832 91.2793C29.2598 90.791 29.1211 90.4297 28.8672 90.1953C28.6172 89.957 28.3047 89.8379 27.9297 89.8379H27.8301C27.4824 89.8379 27.1641 89.9551 26.875 90.1895C26.5898 90.416 26.3965 90.7793 26.2949 91.2793H29.2832Z" fill="#343537"/>
<path d="M38 91L101 91" stroke="#D1D2D5" stroke-linecap="round"/>
</svg>
