<svg width="653" height="152" viewBox="0 0 653 152" fill="none" xmlns="http://www.w3.org/2000/svg">
<path d="M197 76L187 70.2265L187 81.7735L197 76ZM143 75C142.448 75 142 75.4477 142 76C142 76.5523 142.448 77 143 77L143 75ZM188 75L143 75L143 77L188 77L188 75Z" fill="#343537"/>
<rect width="160" height="152" rx="4" fill="white"/>
<path d="M97.3867 23.1973C97.9928 23.1927 98.5352 23.3112 99.0137 23.5527C99.4967 23.7897 99.8727 24.1361 100.142 24.5918C100.41 25.043 100.543 25.5693 100.538 26.1709C100.543 26.7725 100.41 27.2988 100.142 27.75C99.8727 28.2012 99.4967 28.5475 99.0137 28.7891C98.5352 29.026 97.9928 29.1423 97.3867 29.1377H94.6592V33H93.2578V23.1973H97.3867ZM97.1816 27.873C97.8151 27.873 98.2982 27.7295 98.6309 27.4424C98.9681 27.1507 99.1367 26.7269 99.1367 26.1709C99.1367 25.6149 98.9681 25.1911 98.6309 24.8994C98.2982 24.6077 97.8151 24.4619 97.1816 24.4619H94.6592V27.873H97.1816ZM103.334 26V27.5381C103.425 27.2054 103.571 26.9183 103.771 26.6768C103.972 26.4307 104.209 26.2461 104.482 26.123C104.76 25.9954 105.054 25.9316 105.364 25.9316H105.993V27.2168H105.433C105.018 27.2168 104.658 27.3079 104.353 27.4902C104.047 27.668 103.812 27.9255 103.648 28.2627C103.484 28.5999 103.402 28.9987 103.402 29.459V33H102.076V26H103.334ZM108.734 23.1973V24.7422H107.265V23.1973H108.734ZM107.34 26H108.666V33H107.34V26ZM110.348 29.5C110.339 28.8073 110.468 28.1852 110.737 27.6338C111.011 27.0778 111.403 26.6426 111.913 26.3281C112.428 26.0091 113.027 25.8542 113.711 25.8633C114.24 25.8633 114.711 25.9635 115.126 26.1641C115.545 26.3646 115.88 26.6494 116.131 27.0186C116.386 27.3877 116.536 27.8184 116.582 28.3105H115.249C115.185 27.9095 115.019 27.5882 114.75 27.3467C114.481 27.1006 114.153 26.9775 113.766 26.9775H113.649C113.23 26.9775 112.872 27.0892 112.576 27.3125C112.28 27.5358 112.057 27.8389 111.906 28.2217C111.756 28.6045 111.681 29.0306 111.681 29.5C111.681 29.9694 111.756 30.3955 111.906 30.7783C112.057 31.1611 112.28 31.4642 112.576 31.6875C112.872 31.9108 113.23 32.0225 113.649 32.0225H113.766C114.153 32.0225 114.481 31.9017 114.75 31.6602C115.019 31.4141 115.185 31.0905 115.249 30.6895H116.582C116.536 31.1816 116.386 31.6123 116.131 31.9814C115.88 32.3506 115.545 32.6354 115.126 32.8359C114.711 33.0365 114.24 33.1367 113.711 33.1367C113.027 33.1458 112.428 32.9932 111.913 32.6787C111.403 32.3597 111.011 31.9245 110.737 31.373C110.468 30.8171 110.339 30.1927 110.348 29.5ZM117.799 29.4863C117.79 28.7435 117.936 28.0964 118.236 27.5449C118.542 26.9935 118.945 26.5742 119.446 26.2871C119.948 25.9954 120.485 25.8542 121.06 25.8633C121.647 25.8542 122.167 25.9818 122.618 26.2461C123.074 26.5059 123.425 26.8704 123.671 27.3398C123.917 27.8092 124.038 28.3424 124.033 28.9395V29.7119H119.132C119.15 30.1904 119.257 30.6074 119.453 30.9629C119.649 31.3138 119.893 31.5804 120.185 31.7627C120.481 31.9404 120.782 32.027 121.087 32.0225H121.203C121.563 32.0225 121.884 31.929 122.167 31.7422C122.445 31.5508 122.618 31.2796 122.687 30.9287H124.013C123.931 31.3844 123.751 31.7786 123.473 32.1113C123.195 32.444 122.846 32.6992 122.427 32.877C122.012 33.0501 121.556 33.1367 121.06 33.1367C120.467 33.1367 119.92 32.9932 119.419 32.7061C118.918 32.4144 118.519 31.9928 118.223 31.4414C117.931 30.89 117.79 30.2383 117.799 29.4863ZM122.7 28.6592C122.673 28.0895 122.511 27.668 122.215 27.3945C121.923 27.1165 121.559 26.9775 121.121 26.9775H121.005C120.599 26.9775 120.228 27.1143 119.891 27.3877C119.558 27.652 119.332 28.0758 119.214 28.6592H122.7Z" fill="#919294"/>
<path d="M16.7656 72.3984C16.7656 71.2995 16.9792 70.3151 17.4062 69.4453C17.8385 68.5651 18.4505 67.8802 19.2422 67.3906C20.0495 66.8906 21.0026 66.6406 22.1016 66.6406C22.888 66.6406 23.6094 66.7969 24.2656 67.1094C24.9271 67.4167 25.4583 67.849 25.8594 68.4062C26.2656 68.9635 26.4896 69.6016 26.5312 70.3203H24.9297C24.8776 69.8776 24.724 69.487 24.4688 69.1484C24.2188 68.8047 23.8906 68.5417 23.4844 68.3594C23.0781 68.1719 22.625 68.0781 22.125 68.0781H21.9688C21.2344 68.0677 20.5938 68.2526 20.0469 68.6328C19.5 69.013 19.0807 69.5339 18.7891 70.1953C18.4974 70.8568 18.3568 71.5911 18.3672 72.3984C18.3568 73.2057 18.4974 73.9401 18.7891 74.6016C19.0807 75.263 19.5 75.7839 20.0469 76.1641C20.5938 76.5443 21.2344 76.7292 21.9688 76.7188H22.125C22.625 76.7188 23.0781 76.6276 23.4844 76.4453C23.8906 76.2578 24.2188 75.9948 24.4688 75.6562C24.724 75.3125 24.8776 74.9193 24.9297 74.4766H26.5312C26.4896 75.1901 26.2682 75.8281 25.8672 76.3906C25.4661 76.9479 24.9349 77.3828 24.2734 77.6953C23.6172 78.0026 22.8984 78.1562 22.1172 78.1562C21.013 78.1562 20.0547 77.9089 19.2422 77.4141C18.4505 76.9141 17.8385 76.2266 17.4062 75.3516C16.9792 74.4818 16.7656 73.4974 16.7656 72.3984ZM29.9688 66.7969V78H28.4531V66.7969H29.9688ZM31.875 74C31.8646 73.2135 32.0286 72.5 32.3672 71.8594C32.7109 71.2188 33.1771 70.7214 33.7656 70.3672C34.3594 70.0078 35.0104 69.8333 35.7188 69.8438C36.4219 69.8333 37.0677 70.0078 37.6562 70.3672C38.25 70.7214 38.7161 71.2188 39.0547 71.8594C39.3984 72.5 39.5651 73.2135 39.5547 74C39.5651 74.7865 39.3984 75.5 39.0547 76.1406C38.7161 76.7812 38.25 77.2812 37.6562 77.6406C37.0677 77.9948 36.4219 78.1667 35.7188 78.1562C35.0104 78.1667 34.3594 77.9948 33.7656 77.6406C33.1771 77.2812 32.7109 76.7812 32.3672 76.1406C32.0286 75.5 31.8646 74.7865 31.875 74ZM33.3984 74C33.3984 74.5938 33.4948 75.1094 33.6875 75.5469C33.8802 75.9792 34.1458 76.3099 34.4844 76.5391C34.8229 76.7682 35.2109 76.8828 35.6484 76.8828H35.7812C36.2188 76.8828 36.6068 76.7682 36.9453 76.5391C37.2891 76.3099 37.5573 75.9792 37.75 75.5469C37.9427 75.1094 38.0391 74.5938 38.0391 74C38.0391 73.4062 37.9427 72.8932 37.75 72.4609C37.5573 72.0234 37.2891 71.6901 36.9453 71.4609C36.6068 71.2318 36.2188 71.1172 35.7812 71.1172H35.6484C35.2109 71.1172 34.8229 71.2318 34.4844 71.4609C34.1458 71.6901 33.8802 72.0234 33.6875 72.4609C33.4948 72.8932 33.3984 73.4062 33.3984 74ZM42.375 75.5234C42.4167 75.9714 42.5938 76.3099 42.9062 76.5391C43.224 76.7682 43.6406 76.8828 44.1562 76.8828H44.2812C44.7083 76.8828 45.0625 76.7891 45.3438 76.6016C45.6302 76.4089 45.7734 76.1562 45.7734 75.8438C45.7734 75.5677 45.6875 75.3464 45.5156 75.1797C45.3438 75.013 45.0651 74.8906 44.6797 74.8125L43.5156 74.5938C42.8177 74.4531 42.25 74.1979 41.8125 73.8281C41.3906 73.4531 41.1797 72.9323 41.1797 72.2656C41.1797 71.776 41.3151 71.349 41.5859 70.9844C41.862 70.6146 42.2292 70.3333 42.6875 70.1406C43.1458 69.9427 43.6432 69.8438 44.1797 69.8438C44.8568 69.8438 45.4349 69.9557 45.9141 70.1797C46.3932 70.3984 46.7552 70.7057 47 71.1016C47.2448 71.4974 47.3672 71.9557 47.3672 72.4766H45.8516C45.8047 72.0651 45.6484 71.737 45.3828 71.4922C45.1172 71.2422 44.75 71.1172 44.2812 71.1172H44.1562C43.8698 71.1172 43.6146 71.1641 43.3906 71.2578C43.1719 71.3464 43 71.4688 42.875 71.625C42.7552 71.7812 42.6953 71.9531 42.6953 72.1406C42.6953 72.4219 42.7812 72.6432 42.9531 72.8047C43.1302 72.9661 43.4193 73.0885 43.8203 73.1719L45.0781 73.4219C45.75 73.5521 46.2865 73.8073 46.6875 74.1875C47.0885 74.5677 47.2891 75.1042 47.2891 75.7969C47.2891 76.2552 47.1536 76.6667 46.8828 77.0312C46.612 77.3906 46.237 77.6693 45.7578 77.8672C45.2786 78.0651 44.7396 78.1615 44.1406 78.1562C43.4531 78.1562 42.862 78.0469 42.3672 77.8281C41.8776 77.6042 41.5026 77.2943 41.2422 76.8984C40.987 76.4974 40.8594 76.0391 40.8594 75.5234H42.375ZM48.7969 73.9844C48.7865 73.1354 48.9531 72.3958 49.2969 71.7656C49.6458 71.1354 50.1068 70.6562 50.6797 70.3281C51.2526 69.9948 51.8672 69.8333 52.5234 69.8438C53.1953 69.8333 53.7891 69.9792 54.3047 70.2812C54.8255 70.5781 55.2266 70.9948 55.5078 71.5312C55.7891 72.0677 55.9271 72.6771 55.9219 73.3594V74.2422H50.3203C50.3411 74.7891 50.4635 75.2656 50.6875 75.6719C50.9115 76.0729 51.1901 76.3776 51.5234 76.5859C51.862 76.7891 52.2057 76.888 52.5547 76.8828H52.6875C53.099 76.8828 53.4661 76.776 53.7891 76.5625C54.1068 76.3438 54.3047 76.0339 54.3828 75.6328H55.8984C55.8047 76.1536 55.599 76.6042 55.2812 76.9844C54.9635 77.3646 54.5651 77.6562 54.0859 77.8594C53.612 78.0573 53.0911 78.1562 52.5234 78.1562C51.8464 78.1562 51.2214 77.9922 50.6484 77.6641C50.0755 77.3307 49.6198 76.849 49.2812 76.2188C48.9479 75.5885 48.7865 74.8438 48.7969 73.9844ZM54.3984 73.0391C54.3672 72.388 54.1823 71.9062 53.8438 71.5938C53.5104 71.276 53.0938 71.1172 52.5938 71.1172H52.4609C51.9974 71.1172 51.5729 71.2734 51.1875 71.5859C50.8073 71.888 50.5495 72.3724 50.4141 73.0391H54.3984Z" fill="#38CFFF"/>
<path d="M96.6094 78H95.0703V69.0625L92.5312 71.5234V69.6016L95.4062 66.7969H96.6094V78ZM107.344 75.4531H105.586V78H104.047V75.4531H98.5391V73.9219L104.062 66.7969H105.586V74.0938H107.344V75.4531ZM104.047 74.0938V68.9531L100.047 74.0938H104.047ZM112.469 78H110.93V69.0625L108.391 71.5234V69.6016L111.266 66.7969H112.469V78ZM116.914 76.0781V78H114.992V76.0781H116.914ZM118.539 72.3984C118.539 71.1693 118.711 70.125 119.055 69.2656C119.404 68.401 119.906 67.7474 120.562 67.3047C121.224 66.862 122.016 66.6406 122.938 66.6406C123.859 66.6406 124.648 66.862 125.305 67.3047C125.966 67.7474 126.469 68.401 126.812 69.2656C127.161 70.125 127.336 71.1693 127.336 72.3984C127.336 73.6276 127.161 74.6745 126.812 75.5391C126.469 76.3984 125.966 77.0495 125.305 77.4922C124.648 77.9349 123.859 78.1562 122.938 78.1562C122.016 78.1562 121.224 77.9349 120.562 77.4922C119.906 77.0495 119.404 76.3984 119.055 75.5391C118.711 74.6745 118.539 73.6276 118.539 72.3984ZM120.102 72.3438C120.102 73.4635 120.24 74.349 120.516 75C120.786 75.6458 121.133 76.1094 121.555 76.3906C121.966 76.6615 122.401 76.7969 122.859 76.7969H123.016C123.469 76.7969 123.901 76.6615 124.312 76.3906C124.734 76.1094 125.081 75.6458 125.352 75C125.628 74.349 125.766 73.4635 125.766 72.3438C125.766 71.3281 125.633 70.4948 125.367 69.8438C125.102 69.1927 124.76 68.7214 124.344 68.4297C123.932 68.138 123.49 67.9948 123.016 68H122.859C122.385 67.9948 121.94 68.138 121.523 68.4297C121.107 68.7214 120.766 69.1927 120.5 69.8438C120.234 70.4948 120.102 71.3281 120.102 72.3438ZM136.602 78H129.031V76.3047L132.648 72.8672C132.758 72.7578 132.927 72.6042 133.156 72.4062C133.521 72.0781 133.823 71.7865 134.062 71.5312C134.604 70.9531 134.875 70.3464 134.875 69.7109C134.875 69.3724 134.792 69.0755 134.625 68.8203C134.458 68.5599 134.232 68.3594 133.945 68.2188C133.659 68.0729 133.339 68 132.984 68H132.828C132.427 68 132.068 68.0938 131.75 68.2812C131.438 68.4635 131.193 68.7188 131.016 69.0469C130.839 69.3698 130.75 69.7344 130.75 70.1406H129.148C129.143 69.4583 129.305 68.849 129.633 68.3125C129.961 67.776 130.411 67.362 130.984 67.0703C131.562 66.7734 132.203 66.6302 132.906 66.6406C133.547 66.6302 134.138 66.7448 134.68 66.9844C135.221 67.224 135.651 67.5703 135.969 68.0234C136.286 68.4714 136.445 68.9948 136.445 69.5938C136.445 70.1615 136.333 70.6693 136.109 71.1172C135.88 71.5703 135.604 71.9792 135.281 72.3438C134.984 72.6771 134.544 73.1146 133.961 73.6562L133.82 73.7891L130.828 76.5625H136.602V78Z" fill="#13161C"/>
<path d="M16 48.5H144V47.5H16V48.5Z" fill="#E8E9EC"/>
<path d="M16.7812 120.398C16.7708 119.247 16.9922 118.234 17.4453 117.359C17.9036 116.484 18.5365 115.81 19.3438 115.336C20.151 114.862 21.0573 114.63 22.0625 114.641C23.0677 114.63 23.974 114.862 24.7812 115.336C25.5885 115.81 26.2188 116.484 26.6719 117.359C27.1302 118.234 27.3542 119.247 27.3438 120.398C27.3542 121.549 27.1302 122.562 26.6719 123.438C26.2188 124.312 25.5885 124.987 24.7812 125.461C23.974 125.935 23.0677 126.167 22.0625 126.156C21.0573 126.167 20.151 125.935 19.3438 125.461C18.5365 124.987 17.9036 124.312 17.4453 123.438C16.9922 122.562 16.7708 121.549 16.7812 120.398ZM18.3828 120.398C18.3724 121.263 18.5208 122.026 18.8281 122.688C19.1406 123.344 19.5729 123.849 20.125 124.203C20.6771 124.552 21.2969 124.724 21.9844 124.719H22.1406C22.8333 124.729 23.4531 124.557 24 124.203C24.5521 123.849 24.9818 123.344 25.2891 122.688C25.5964 122.031 25.7474 121.268 25.7422 120.398C25.7474 119.529 25.5964 118.766 25.2891 118.109C24.9818 117.453 24.5521 116.948 24 116.594C23.4531 116.24 22.8333 116.068 22.1406 116.078H21.9844C21.2969 116.073 20.6771 116.247 20.125 116.602C19.5729 116.951 19.1406 117.456 18.8281 118.117C18.5208 118.773 18.3724 119.534 18.3828 120.398ZM30.8438 118V119.117C30.974 118.878 31.1797 118.661 31.4609 118.469C31.7474 118.276 32.0729 118.125 32.4375 118.016C32.8021 117.901 33.1667 117.844 33.5312 117.844C34.1875 117.844 34.7734 118.013 35.2891 118.352C35.8099 118.69 36.2135 119.174 36.5 119.805C36.7865 120.43 36.9271 121.161 36.9219 122C36.9323 122.828 36.7812 123.557 36.4688 124.188C36.1562 124.818 35.7266 125.305 35.1797 125.648C34.6328 125.987 34.0286 126.156 33.3672 126.156C32.7891 126.156 32.276 126.036 31.8281 125.797C31.375 125.552 31.0469 125.247 30.8438 124.883V129.203H29.3281V118H30.8438ZM30.8438 122C30.8385 122.594 30.9401 123.109 31.1484 123.547C31.362 123.984 31.6432 124.318 31.9922 124.547C32.3411 124.776 32.7109 124.888 33.1016 124.883H33.2266C33.6484 124.883 34.0234 124.771 34.3516 124.547C34.6797 124.323 34.9375 123.995 35.125 123.562C35.3125 123.13 35.4062 122.609 35.4062 122C35.4062 121.391 35.3125 120.87 35.125 120.438C34.9375 120.005 34.6797 119.677 34.3516 119.453C34.0234 119.229 33.6484 119.117 33.2266 119.117H33.1016C32.7109 119.112 32.3411 119.224 31.9922 119.453C31.6432 119.682 31.362 120.016 31.1484 120.453C30.9401 120.891 30.8385 121.406 30.8438 122ZM38.3906 121.984C38.3802 121.135 38.5469 120.396 38.8906 119.766C39.2396 119.135 39.7005 118.656 40.2734 118.328C40.8464 117.995 41.4609 117.833 42.1172 117.844C42.7891 117.833 43.3828 117.979 43.8984 118.281C44.4193 118.578 44.8203 118.995 45.1016 119.531C45.3828 120.068 45.5208 120.677 45.5156 121.359V122.242H39.9141C39.9349 122.789 40.0573 123.266 40.2812 123.672C40.5052 124.073 40.7839 124.378 41.1172 124.586C41.4557 124.789 41.7995 124.888 42.1484 124.883H42.2812C42.6927 124.883 43.0599 124.776 43.3828 124.562C43.7005 124.344 43.8984 124.034 43.9766 123.633H45.4922C45.3984 124.154 45.1927 124.604 44.875 124.984C44.5573 125.365 44.1589 125.656 43.6797 125.859C43.2057 126.057 42.6849 126.156 42.1172 126.156C41.4401 126.156 40.8151 125.992 40.2422 125.664C39.6693 125.331 39.2135 124.849 38.875 124.219C38.5417 123.589 38.3802 122.844 38.3906 121.984ZM43.9922 121.039C43.9609 120.388 43.776 119.906 43.4375 119.594C43.1042 119.276 42.6875 119.117 42.1875 119.117H42.0547C41.5911 119.117 41.1667 119.273 40.7812 119.586C40.401 119.888 40.1432 120.372 40.0078 121.039H43.9922ZM49 118V119.117C49.5781 118.268 50.4323 117.844 51.5625 117.844C52.1562 117.844 52.6693 117.958 53.1016 118.188C53.5339 118.417 53.8646 118.742 54.0938 119.164C54.3229 119.586 54.4375 120.078 54.4375 120.641V126H52.9219V120.961C52.9219 120.367 52.7865 119.911 52.5156 119.594C52.2448 119.276 51.8411 119.117 51.3047 119.117H51.1797C50.7943 119.112 50.4323 119.211 50.0938 119.414C49.7604 119.612 49.4922 119.896 49.2891 120.266C49.0911 120.63 48.9948 121.049 49 121.523V126H47.4844V118H49Z" fill="#FB607F"/>
<path d="M96.6094 126H95.0703V117.062L92.5312 119.523V117.602L95.4062 114.797H96.6094V126ZM107.344 123.453H105.586V126H104.047V123.453H98.5391V121.922L104.062 114.797H105.586V122.094H107.344V123.453ZM104.047 122.094V116.953L100.047 122.094H104.047ZM112.469 126H110.93V117.062L108.391 119.523V117.602L111.266 114.797H112.469V126ZM116.914 124.078V126H114.992V124.078H116.914ZM118.539 120.398C118.539 119.169 118.711 118.125 119.055 117.266C119.404 116.401 119.906 115.747 120.562 115.305C121.224 114.862 122.016 114.641 122.938 114.641C123.859 114.641 124.648 114.862 125.305 115.305C125.966 115.747 126.469 116.401 126.812 117.266C127.161 118.125 127.336 119.169 127.336 120.398C127.336 121.628 127.161 122.674 126.812 123.539C126.469 124.398 125.966 125.049 125.305 125.492C124.648 125.935 123.859 126.156 122.938 126.156C122.016 126.156 121.224 125.935 120.562 125.492C119.906 125.049 119.404 124.398 119.055 123.539C118.711 122.674 118.539 121.628 118.539 120.398ZM120.102 120.344C120.102 121.464 120.24 122.349 120.516 123C120.786 123.646 121.133 124.109 121.555 124.391C121.966 124.661 122.401 124.797 122.859 124.797H123.016C123.469 124.797 123.901 124.661 124.312 124.391C124.734 124.109 125.081 123.646 125.352 123C125.628 122.349 125.766 121.464 125.766 120.344C125.766 119.328 125.633 118.495 125.367 117.844C125.102 117.193 124.76 116.721 124.344 116.43C123.932 116.138 123.49 115.995 123.016 116H122.859C122.385 115.995 121.94 116.138 121.523 116.43C121.107 116.721 120.766 117.193 120.5 117.844C120.234 118.495 120.102 119.328 120.102 120.344ZM132.844 126H131.305V117.062L128.766 119.523V117.602L131.641 114.797H132.844V126Z" fill="#13161C"/>
<path d="M16 96.5H144V95.5H16V96.5Z" fill="#E8E9EC"/>
<path d="M284.489 35.0986C284.485 34.096 284.667 33.2142 285.036 32.4531C285.41 31.6875 285.952 31.0951 286.663 30.6758C287.374 30.2565 288.213 30.0514 289.179 30.0605C289.99 30.0514 290.699 30.195 291.305 30.4912C291.915 30.7874 292.389 31.193 292.727 31.708C293.064 32.2184 293.253 32.7881 293.294 33.417H291.407C291.302 32.8838 291.063 32.4714 290.689 32.1797C290.316 31.888 289.835 31.7422 289.247 31.7422H289.11C288.582 31.7376 288.11 31.8698 287.695 32.1387C287.285 32.4076 286.964 32.7926 286.731 33.2939C286.499 33.7952 286.383 34.3786 286.383 35.0439C286.383 35.7367 286.494 36.3405 286.718 36.8555C286.946 37.3704 287.265 37.7669 287.675 38.0449C288.09 38.3229 288.568 38.4619 289.11 38.4619H289.247C289.844 38.4619 290.327 38.3184 290.696 38.0312C291.065 37.7441 291.302 37.3271 291.407 36.7803H293.294C293.253 37.4365 293.064 38.0199 292.727 38.5303C292.394 39.0361 291.924 39.4326 291.318 39.7197C290.712 40.0023 289.999 40.1413 289.179 40.1367C288.213 40.1458 287.374 39.9408 286.663 39.5215C285.952 39.1022 285.41 38.512 285.036 37.751C284.667 36.9854 284.485 36.1012 284.489 35.0986ZM296.582 30.1973V34.0254C296.801 33.6654 297.097 33.3828 297.471 33.1777C297.849 32.9681 298.259 32.8633 298.701 32.8633C299.512 32.8633 300.118 33.1048 300.52 33.5879C300.93 34.071 301.135 34.7158 301.135 35.5225V40H299.316V35.7275C299.316 35.2764 299.221 34.9323 299.029 34.6953C298.838 34.4538 298.564 34.333 298.209 34.333H298.1C297.826 34.333 297.573 34.4128 297.341 34.5723C297.108 34.7318 296.924 34.9482 296.787 35.2217C296.65 35.4951 296.582 35.7913 296.582 36.1104V40H294.764V30.1973H296.582ZM306.986 40C306.945 39.804 306.918 39.5192 306.904 39.1455C306.681 39.4554 306.387 39.6992 306.022 39.877C305.658 40.0501 305.252 40.1367 304.806 40.1367C304.396 40.1367 304.017 40.0524 303.671 39.8838C303.325 39.7106 303.049 39.4714 302.844 39.166C302.639 38.8561 302.536 38.5052 302.536 38.1133C302.536 37.3796 302.775 36.8213 303.254 36.4385C303.728 36.0602 304.343 35.8392 305.1 35.7754L306.863 35.6182V35.4473C306.863 35.2376 306.815 35.0485 306.72 34.8799C306.629 34.7113 306.496 34.5791 306.323 34.4834C306.155 34.3831 305.961 34.333 305.742 34.333H305.626C305.416 34.333 305.227 34.3717 305.059 34.4492C304.895 34.5267 304.762 34.6292 304.662 34.7568C304.566 34.8844 304.512 35.0212 304.498 35.167H302.673C302.714 34.7295 302.864 34.3376 303.124 33.9912C303.388 33.6403 303.737 33.3646 304.17 33.1641C304.607 32.9635 305.102 32.8633 305.653 32.8633C306.25 32.8633 306.772 32.9613 307.219 33.1572C307.665 33.3486 308.012 33.6335 308.258 34.0117C308.504 34.39 308.627 34.8457 308.627 35.3789V38.4619C308.627 39.1729 308.65 39.6855 308.695 40H306.986ZM304.327 37.9561C304.327 38.1702 304.409 38.3434 304.573 38.4756C304.737 38.6032 304.945 38.667 305.195 38.667H305.305C305.578 38.667 305.833 38.6009 306.07 38.4688C306.312 38.3366 306.503 38.1543 306.645 37.9219C306.79 37.6895 306.863 37.4297 306.863 37.1426V36.9443L305.346 37.1016C305.077 37.1243 304.84 37.2064 304.635 37.3477C304.43 37.4889 304.327 37.6917 304.327 37.9561ZM312.264 33V34.0254C312.482 33.6654 312.779 33.3828 313.152 33.1777C313.531 32.9681 313.941 32.8633 314.383 32.8633C315.194 32.8633 315.8 33.1048 316.201 33.5879C316.611 34.071 316.816 34.7158 316.816 35.5225V40H314.998V35.7275C314.998 35.2764 314.902 34.9323 314.711 34.6953C314.52 34.4538 314.246 34.333 313.891 34.333H313.781C313.508 34.333 313.255 34.4128 313.022 34.5723C312.79 34.7318 312.605 34.9482 312.469 35.2217C312.332 35.4951 312.264 35.7913 312.264 36.1104V40H310.445V33H312.264ZM319.94 40.7861C319.981 41.0368 320.139 41.2373 320.412 41.3877C320.69 41.5381 321.055 41.6133 321.506 41.6133H321.588C321.902 41.6133 322.183 41.5495 322.429 41.4219C322.679 41.2943 322.875 41.1051 323.017 40.8545C323.158 40.6038 323.229 40.3008 323.229 39.9453V39.0225C323.037 39.346 322.764 39.5898 322.408 39.7539C322.053 39.918 321.656 40 321.219 40C320.676 40 320.175 39.8542 319.715 39.5625C319.259 39.2708 318.895 38.8561 318.621 38.3184C318.352 37.776 318.222 37.1471 318.231 36.4316C318.222 35.7161 318.352 35.0895 318.621 34.5518C318.895 34.0094 319.259 33.5924 319.715 33.3008C320.175 33.0091 320.676 32.8633 321.219 32.8633C321.656 32.8633 322.053 32.9453 322.408 33.1094C322.764 33.2734 323.037 33.5173 323.229 33.8408V33H325.047V40.1709C325.056 40.6768 324.915 41.1553 324.623 41.6064C324.336 42.0576 323.917 42.4176 323.365 42.6865C322.814 42.96 322.167 43.0921 321.424 43.083C320.818 43.0876 320.264 42.9919 319.763 42.7959C319.266 42.5999 318.869 42.3242 318.573 41.9688C318.282 41.6178 318.129 41.2236 318.115 40.7861H319.94ZM320.05 36.4316C320.05 36.86 320.118 37.2337 320.255 37.5527C320.392 37.8672 320.578 38.1087 320.815 38.2773C321.052 38.446 321.319 38.5303 321.615 38.5303H321.731C322.019 38.5303 322.274 38.446 322.497 38.2773C322.725 38.1087 322.903 37.8649 323.03 37.5459C323.162 37.2269 323.229 36.8555 323.229 36.4316C323.229 36.0033 323.162 35.6318 323.03 35.3174C322.903 34.9984 322.725 34.7546 322.497 34.5859C322.274 34.4173 322.019 34.333 321.731 34.333H321.615C321.319 34.333 321.052 34.4173 320.815 34.5859C320.578 34.7546 320.392 34.9984 320.255 35.3174C320.118 35.6318 320.05 36.0033 320.05 36.4316ZM326.53 36.5C326.526 35.8027 326.658 35.1761 326.927 34.6201C327.2 34.0641 327.59 33.6312 328.096 33.3213C328.602 33.0068 329.189 32.8542 329.859 32.8633C330.52 32.8587 331.09 33.0068 331.568 33.3076C332.051 33.6038 332.418 34.0186 332.669 34.5518C332.924 35.085 333.052 35.6888 333.052 36.3633C333.052 36.5319 333.043 36.7689 333.024 37.0742H328.294C328.317 37.375 328.403 37.6484 328.554 37.8945C328.709 38.1361 328.902 38.3252 329.135 38.4619C329.372 38.5986 329.618 38.667 329.873 38.667H329.989C330.308 38.667 330.575 38.5872 330.789 38.4277C331.008 38.2637 331.151 38.0495 331.22 37.7852H333.024C332.91 38.2591 332.71 38.6738 332.423 39.0293C332.14 39.3802 331.776 39.6536 331.329 39.8496C330.887 40.041 330.381 40.1367 329.812 40.1367C329.228 40.1367 328.684 39.9863 328.178 39.6855C327.672 39.3802 327.269 38.9518 326.968 38.4004C326.667 37.849 326.521 37.2155 326.53 36.5ZM331.288 35.6729C331.274 35.404 331.201 35.1693 331.069 34.9688C330.937 34.7637 330.764 34.6064 330.55 34.4971C330.336 34.3877 330.101 34.333 329.846 34.333H329.736C329.481 34.333 329.246 34.3877 329.032 34.4971C328.818 34.6064 328.645 34.7637 328.513 34.9688C328.381 35.1693 328.308 35.404 328.294 35.6729H331.288Z" fill="#343537"/>
<path d="M253.148 68.25C253.138 67.4932 253.29 66.8193 253.602 66.2285C253.915 65.6377 254.342 65.1787 254.884 64.8516C255.431 64.5195 256.034 64.3535 256.693 64.3535C257.723 64.3535 258.534 64.5879 259.125 65.0566C259.715 65.5205 260.047 66.209 260.121 67.1221H258.172C258.114 66.7412 257.967 66.4482 257.733 66.2432C257.503 66.0332 257.196 65.9282 256.81 65.9282H256.686C256.163 65.9282 255.765 66.1455 255.492 66.5801C255.228 67.0098 255.096 67.5664 255.096 68.25C255.096 68.9287 255.228 69.4854 255.492 69.9199C255.765 70.3545 256.163 70.5718 256.686 70.5718H256.81C257.196 70.5718 257.503 70.4692 257.733 70.2642C257.967 70.0542 258.114 69.7588 258.172 69.3779H260.121C260.047 70.291 259.715 70.9819 259.125 71.4507C258.534 71.9146 257.723 72.1465 256.693 72.1465C256.034 72.1465 255.431 71.9829 254.884 71.6558C254.342 71.3237 253.915 70.8623 253.602 70.2715C253.29 69.6807 253.138 69.0068 253.148 68.25ZM263.6 61.4971V72H261.651V61.4971H263.6ZM265.189 68.25C265.179 67.5176 265.333 66.8535 265.65 66.2578C265.973 65.6572 266.419 65.1885 266.991 64.8516C267.567 64.5098 268.216 64.3438 268.939 64.3535C269.662 64.3438 270.309 64.5098 270.88 64.8516C271.456 65.1885 271.903 65.6572 272.22 66.2578C272.542 66.8535 272.699 67.5176 272.689 68.25C272.699 68.9824 272.542 69.6489 272.22 70.2495C271.903 70.8452 271.456 71.314 270.88 71.6558C270.309 71.9927 269.662 72.1562 268.939 72.1465C268.216 72.1562 267.567 71.9927 266.991 71.6558C266.419 71.314 265.973 70.8452 265.65 70.2495C265.333 69.6489 265.179 68.9824 265.189 68.25ZM267.152 68.25C267.152 68.7285 267.223 69.1436 267.364 69.4951C267.506 69.8418 267.706 70.1079 267.965 70.2935C268.224 70.479 268.529 70.5718 268.88 70.5718H268.998C269.344 70.5718 269.647 70.479 269.906 70.2935C270.169 70.1079 270.372 69.8418 270.514 69.4951C270.655 69.1436 270.726 68.7285 270.726 68.25C270.726 67.7715 270.655 67.3589 270.514 67.0122C270.372 66.6606 270.169 66.3921 269.906 66.2065C269.647 66.021 269.344 65.9282 268.998 65.9282H268.88C268.529 65.9282 268.224 66.021 267.965 66.2065C267.706 66.3921 267.506 66.6606 267.364 67.0122C267.223 67.3589 267.152 67.7715 267.152 68.25ZM275.736 69.5244C275.736 69.8613 275.851 70.1348 276.08 70.3447C276.314 70.5498 276.62 70.6523 276.996 70.6523H277.113C277.42 70.6523 277.667 70.5864 277.853 70.4546C278.043 70.3179 278.138 70.1372 278.138 69.9126C278.138 69.7222 278.072 69.5684 277.94 69.4512C277.813 69.3291 277.613 69.2339 277.34 69.1655L276.366 68.9238C275.56 68.7285 274.969 68.4526 274.593 68.0962C274.222 67.7349 274.037 67.2563 274.037 66.6606C274.037 66.2114 274.159 65.8135 274.403 65.4668C274.652 65.1152 275.003 64.8418 275.458 64.6465C275.917 64.4512 276.449 64.3535 277.054 64.3535C277.694 64.3535 278.243 64.4561 278.702 64.6611C279.166 64.8662 279.52 65.1616 279.764 65.5474C280.008 65.9282 280.13 66.3799 280.13 66.9023H278.182C278.143 66.5654 278.026 66.3066 277.831 66.126C277.64 65.9404 277.381 65.8477 277.054 65.8477H276.937C276.644 65.8477 276.407 65.9111 276.227 66.0381C276.051 66.165 275.963 66.3481 275.963 66.5874C275.963 66.7729 276.043 66.9268 276.205 67.0488C276.371 67.1709 276.62 67.271 276.952 67.3491L277.955 67.6055C278.678 67.7861 279.208 68.0571 279.544 68.4185C279.886 68.7749 280.057 69.2485 280.057 69.8394C280.057 70.2788 279.938 70.6743 279.698 71.0259C279.459 71.3726 279.107 71.646 278.644 71.8462C278.185 72.0464 277.635 72.1465 276.996 72.1465C276.322 72.1465 275.741 72.0439 275.252 71.8389C274.764 71.6289 274.391 71.3286 274.132 70.938C273.873 70.5425 273.744 70.0713 273.744 69.5244H275.736ZM281.302 68.25C281.297 67.5029 281.439 66.8315 281.727 66.2358C282.02 65.6401 282.438 65.1763 282.979 64.8442C283.521 64.5073 284.151 64.3438 284.869 64.3535C285.577 64.3486 286.188 64.5073 286.7 64.8296C287.218 65.147 287.611 65.5913 287.879 66.1626C288.153 66.7339 288.29 67.3809 288.29 68.1035C288.29 68.2842 288.28 68.5381 288.26 68.8652H283.192C283.216 69.1875 283.309 69.4805 283.47 69.7441C283.636 70.0029 283.844 70.2056 284.093 70.3521C284.347 70.4985 284.61 70.5718 284.884 70.5718H285.008C285.35 70.5718 285.636 70.4863 285.865 70.3154C286.1 70.1396 286.253 69.9102 286.327 69.627H288.26C288.138 70.1348 287.923 70.5791 287.616 70.96C287.313 71.3359 286.922 71.6289 286.444 71.8389C285.97 72.0439 285.428 72.1465 284.818 72.1465C284.193 72.1465 283.609 71.9854 283.067 71.6631C282.525 71.3359 282.093 70.877 281.771 70.2861C281.449 69.6953 281.292 69.0166 281.302 68.25ZM286.4 67.3638C286.385 67.0757 286.307 66.8242 286.166 66.6094C286.024 66.3896 285.838 66.2212 285.609 66.104C285.379 65.9868 285.128 65.9282 284.854 65.9282H284.737C284.464 65.9282 284.212 65.9868 283.983 66.104C283.753 66.2212 283.568 66.3896 283.426 66.6094C283.285 66.8242 283.207 67.0757 283.192 67.3638H286.4ZM297.32 67.2759V68.9971H289.908V67.2759H297.32ZM298.895 68.25C298.885 67.5176 299.039 66.8535 299.356 66.2578C299.679 65.6572 300.125 65.1885 300.697 64.8516C301.273 64.5098 301.922 64.3438 302.645 64.3535C303.368 64.3438 304.015 64.5098 304.586 64.8516C305.162 65.1885 305.609 65.6572 305.926 66.2578C306.249 66.8535 306.405 67.5176 306.395 68.25C306.405 68.9824 306.249 69.6489 305.926 70.2495C305.609 70.8452 305.162 71.314 304.586 71.6558C304.015 71.9927 303.368 72.1562 302.645 72.1465C301.922 72.1562 301.273 71.9927 300.697 71.6558C300.125 71.314 299.679 70.8452 299.356 70.2495C299.039 69.6489 298.885 68.9824 298.895 68.25ZM300.858 68.25C300.858 68.7285 300.929 69.1436 301.07 69.4951C301.212 69.8418 301.412 70.1079 301.671 70.2935C301.93 70.479 302.235 70.5718 302.586 70.5718H302.704C303.05 70.5718 303.353 70.479 303.612 70.2935C303.875 70.1079 304.078 69.8418 304.22 69.4951C304.361 69.1436 304.432 68.7285 304.432 68.25C304.432 67.7715 304.361 67.3589 304.22 67.0122C304.078 66.6606 303.875 66.3921 303.612 66.2065C303.353 66.021 303.05 65.9282 302.704 65.9282H302.586C302.235 65.9282 301.93 66.021 301.671 66.2065C301.412 66.3921 301.212 66.6606 301.07 67.0122C300.929 67.3589 300.858 67.7715 300.858 68.25ZM309.918 64.5V65.4741C310.03 65.2837 310.194 65.103 310.409 64.9321C310.624 64.7612 310.875 64.6221 311.163 64.5146C311.456 64.4072 311.761 64.3535 312.079 64.3535C312.752 64.3438 313.343 64.5171 313.851 64.8735C314.359 65.23 314.747 65.7085 315.016 66.3091C315.289 66.9097 315.421 67.5566 315.411 68.25C315.421 68.9434 315.289 69.5903 315.016 70.1909C314.747 70.7915 314.359 71.27 313.851 71.6265C313.343 71.9829 312.752 72.1562 312.079 72.1465C311.761 72.1465 311.456 72.0928 311.163 71.9854C310.875 71.8779 310.624 71.7388 310.409 71.5679C310.194 71.397 310.03 71.2163 309.918 71.0259V75.0029H307.97V64.5H309.918ZM309.918 68.25C309.913 68.6943 309.989 69.0947 310.145 69.4512C310.306 69.8076 310.519 70.0859 310.782 70.2861C311.051 70.4863 311.334 70.5815 311.632 70.5718H311.749C312.076 70.5718 312.369 70.4766 312.628 70.2861C312.887 70.0908 313.089 69.8174 313.236 69.4658C313.387 69.1143 313.463 68.709 313.463 68.25C313.463 67.791 313.387 67.3857 313.236 67.0342C313.089 66.6826 312.887 66.4116 312.628 66.2212C312.369 66.0259 312.076 65.9282 311.749 65.9282H311.632C311.334 65.9185 311.051 66.0137 310.782 66.2139C310.519 66.4141 310.306 66.6924 310.145 67.0488C309.989 67.4053 309.913 67.8057 309.918 68.25ZM316.576 68.25C316.571 67.5029 316.712 66.8315 317 66.2358C317.293 65.6401 317.711 65.1763 318.253 64.8442C318.795 64.5073 319.425 64.3438 320.143 64.3535C320.851 64.3486 321.461 64.5073 321.974 64.8296C322.491 65.147 322.884 65.5913 323.153 66.1626C323.426 66.7339 323.563 67.3809 323.563 68.1035C323.563 68.2842 323.553 68.5381 323.534 68.8652H318.465C318.49 69.1875 318.583 69.4805 318.744 69.7441C318.91 70.0029 319.117 70.2056 319.366 70.3521C319.62 70.4985 319.884 70.5718 320.157 70.5718H320.282C320.624 70.5718 320.909 70.4863 321.139 70.3154C321.373 70.1396 321.527 69.9102 321.6 69.627H323.534C323.412 70.1348 323.197 70.5791 322.889 70.96C322.586 71.3359 322.196 71.6289 321.717 71.8389C321.244 72.0439 320.702 72.1465 320.091 72.1465C319.466 72.1465 318.883 71.9854 318.341 71.6631C317.799 71.3359 317.367 70.877 317.044 70.2861C316.722 69.6953 316.566 69.0166 316.576 68.25ZM321.673 67.3638C321.659 67.0757 321.581 66.8242 321.439 66.6094C321.297 66.3896 321.112 66.2212 320.882 66.104C320.653 65.9868 320.401 65.9282 320.128 65.9282H320.011C319.737 65.9282 319.486 65.9868 319.256 66.104C319.027 66.2212 318.841 66.3896 318.7 66.6094C318.558 66.8242 318.48 67.0757 318.465 67.3638H321.673ZM327.13 64.5V65.5986C327.364 65.2129 327.682 64.9102 328.082 64.6904C328.487 64.4658 328.927 64.3535 329.4 64.3535C330.27 64.3535 330.919 64.6123 331.349 65.1299C331.788 65.6475 332.008 66.3384 332.008 67.2026V72H330.06V67.4224C330.06 66.939 329.957 66.5703 329.752 66.3164C329.547 66.0576 329.254 65.9282 328.873 65.9282H328.756C328.463 65.9282 328.192 66.0137 327.943 66.1846C327.694 66.3555 327.496 66.5874 327.35 66.8804C327.203 67.1733 327.13 67.4907 327.13 67.8325V72H325.182V64.5H327.13Z" fill="#A36CF7"/>
<path d="M345.5 81L240 81" stroke="#A36CF7" stroke-linecap="round"/>
<path d="M276.014 97.25C276.004 96.5176 276.158 95.8535 276.476 95.2578C276.798 94.6572 277.245 94.1885 277.816 93.8516C278.392 93.5098 279.042 93.3438 279.764 93.3535C280.487 93.3438 281.134 93.5098 281.705 93.8516C282.281 94.1885 282.728 94.6572 283.045 95.2578C283.368 95.8535 283.524 96.5176 283.514 97.25C283.524 97.9824 283.368 98.6489 283.045 99.2495C282.728 99.8452 282.281 100.314 281.705 100.656C281.134 100.993 280.487 101.156 279.764 101.146C279.042 101.156 278.392 100.993 277.816 100.656C277.245 100.314 276.798 99.8452 276.476 99.2495C276.158 98.6489 276.004 97.9824 276.014 97.25ZM277.977 97.25C277.977 97.7285 278.048 98.1436 278.189 98.4951C278.331 98.8418 278.531 99.1079 278.79 99.2935C279.049 99.479 279.354 99.5718 279.706 99.5718H279.823C280.169 99.5718 280.472 99.479 280.731 99.2935C280.995 99.1079 281.197 98.8418 281.339 98.4951C281.48 98.1436 281.551 97.7285 281.551 97.25C281.551 96.7715 281.48 96.3589 281.339 96.0122C281.197 95.6606 280.995 95.3921 280.731 95.2065C280.472 95.021 280.169 94.9282 279.823 94.9282H279.706C279.354 94.9282 279.049 95.021 278.79 95.2065C278.531 95.3921 278.331 95.6606 278.189 96.0122C278.048 96.3589 277.977 96.7715 277.977 97.25ZM287.037 93.5V94.4741C287.149 94.2837 287.313 94.103 287.528 93.9321C287.743 93.7612 287.994 93.6221 288.282 93.5146C288.575 93.4072 288.88 93.3535 289.198 93.3535C289.872 93.3438 290.462 93.5171 290.97 93.8735C291.478 94.23 291.866 94.7085 292.135 95.3091C292.408 95.9097 292.54 96.5566 292.53 97.25C292.54 97.9434 292.408 98.5903 292.135 99.1909C291.866 99.7915 291.478 100.27 290.97 100.626C290.462 100.983 289.872 101.156 289.198 101.146C288.88 101.146 288.575 101.093 288.282 100.985C287.994 100.878 287.743 100.739 287.528 100.568C287.313 100.397 287.149 100.216 287.037 100.026V104.003H285.089V93.5H287.037ZM287.037 97.25C287.032 97.6943 287.108 98.0947 287.264 98.4512C287.425 98.8076 287.638 99.0859 287.901 99.2861C288.17 99.4863 288.453 99.5815 288.751 99.5718H288.868C289.195 99.5718 289.488 99.4766 289.747 99.2861C290.006 99.0908 290.208 98.8174 290.355 98.4658C290.506 98.1143 290.582 97.709 290.582 97.25C290.582 96.791 290.506 96.3857 290.355 96.0342C290.208 95.6826 290.006 95.4116 289.747 95.2212C289.488 95.0259 289.195 94.9282 288.868 94.9282H288.751C288.453 94.9185 288.17 95.0137 287.901 95.2139C287.638 95.4141 287.425 95.6924 287.264 96.0488C287.108 96.4053 287.032 96.8057 287.037 97.25ZM293.695 97.25C293.69 96.5029 293.832 95.8315 294.12 95.2358C294.413 94.6401 294.83 94.1763 295.372 93.8442C295.914 93.5073 296.544 93.3438 297.262 93.3535C297.97 93.3486 298.58 93.5073 299.093 93.8296C299.61 94.147 300.003 94.5913 300.272 95.1626C300.545 95.7339 300.682 96.3809 300.682 97.1035C300.682 97.2842 300.672 97.5381 300.653 97.8652H295.584C295.609 98.1875 295.702 98.4805 295.863 98.7441C296.029 99.0029 296.236 99.2056 296.485 99.3521C296.739 99.4985 297.003 99.5718 297.276 99.5718H297.401C297.743 99.5718 298.028 99.4863 298.258 99.3154C298.492 99.1396 298.646 98.9102 298.719 98.627H300.653C300.531 99.1348 300.316 99.5791 300.008 99.96C299.706 100.336 299.315 100.629 298.836 100.839C298.363 101.044 297.821 101.146 297.21 101.146C296.585 101.146 296.002 100.985 295.46 100.663C294.918 100.336 294.486 99.877 294.164 99.2861C293.841 98.6953 293.685 98.0166 293.695 97.25ZM298.792 96.3638C298.778 96.0757 298.7 95.8242 298.558 95.6094C298.417 95.3896 298.231 95.2212 298.001 95.104C297.772 94.9868 297.521 94.9282 297.247 94.9282H297.13C296.856 94.9282 296.605 94.9868 296.375 95.104C296.146 95.2212 295.96 95.3896 295.819 95.6094C295.677 95.8242 295.599 96.0757 295.584 96.3638H298.792ZM304.249 93.5V94.5986C304.483 94.2129 304.801 93.9102 305.201 93.6904C305.606 93.4658 306.046 93.3535 306.52 93.3535C307.389 93.3535 308.038 93.6123 308.468 94.1299C308.907 94.6475 309.127 95.3384 309.127 96.2026V101H307.179V96.4224C307.179 95.939 307.076 95.5703 306.871 95.3164C306.666 95.0576 306.373 94.9282 305.992 94.9282H305.875C305.582 94.9282 305.311 95.0137 305.062 95.1846C304.813 95.3555 304.615 95.5874 304.469 95.8804C304.322 96.1733 304.249 96.4907 304.249 96.8325V101H302.301V93.5H304.249Z" fill="#A36CF7"/>
<path d="M355.681 80.1475L353.506 77.9722L354.751 76.7271L356.926 78.9023L359.087 76.7417L360.303 77.9722L358.157 80.1182L360.317 82.2935L359.072 83.5386L356.912 81.3633L354.736 83.5386L353.521 82.3081L355.681 80.1475ZM365.759 84H363.855V76.3315L361.533 78.5581V76.0825L364.185 73.4971H365.759V84ZM367.803 78.7485C367.798 77.6841 367.966 76.7417 368.308 75.9214C368.655 75.1011 369.15 74.4663 369.795 74.0171C370.444 73.563 371.206 73.3408 372.08 73.3506C372.954 73.3408 373.713 73.563 374.358 74.0171C375.007 74.4663 375.503 75.1011 375.845 75.9214C376.191 76.7417 376.362 77.6841 376.357 78.7485C376.367 79.8276 376.204 80.7749 375.867 81.5903C375.53 82.4058 375.037 83.0381 374.387 83.4873C373.743 83.9316 372.974 84.1514 372.08 84.1465C371.187 84.1514 370.415 83.9316 369.766 83.4873C369.121 83.0381 368.63 82.4058 368.293 81.5903C367.957 80.7749 367.793 79.8276 367.803 78.7485ZM369.802 78.7485C369.802 79.8765 369.976 80.7725 370.322 81.4365C370.674 82.0957 371.235 82.4253 372.007 82.4253H372.153C372.935 82.4253 373.496 82.0957 373.838 81.4365C374.185 80.7725 374.358 79.8765 374.358 78.7485C374.358 77.6206 374.185 76.7246 373.838 76.0605C373.496 75.4014 372.935 75.0718 372.153 75.0718H372.007C371.235 75.0718 370.674 75.4014 370.322 76.0605C369.976 76.7246 369.802 77.6206 369.802 78.7485ZM377.881 78.7485C377.876 77.6841 378.044 76.7417 378.386 75.9214C378.733 75.1011 379.229 74.4663 379.873 74.0171C380.522 73.563 381.284 73.3408 382.158 73.3506C383.032 73.3408 383.792 73.563 384.436 74.0171C385.085 74.4663 385.581 75.1011 385.923 75.9214C386.27 76.7417 386.44 77.6841 386.436 78.7485C386.445 79.8276 386.282 80.7749 385.945 81.5903C385.608 82.4058 385.115 83.0381 384.465 83.4873C383.821 83.9316 383.052 84.1514 382.158 84.1465C381.265 84.1514 380.493 83.9316 379.844 83.4873C379.199 83.0381 378.708 82.4058 378.372 81.5903C378.035 80.7749 377.871 79.8276 377.881 78.7485ZM379.88 78.7485C379.88 79.8765 380.054 80.7725 380.4 81.4365C380.752 82.0957 381.313 82.4253 382.085 82.4253H382.231C383.013 82.4253 383.574 82.0957 383.916 81.4365C384.263 80.7725 384.436 79.8765 384.436 78.7485C384.436 77.6206 384.263 76.7246 383.916 76.0605C383.574 75.4014 383.013 75.0718 382.231 75.0718H382.085C381.313 75.0718 380.752 75.4014 380.4 76.0605C380.054 76.7246 379.88 77.6206 379.88 78.7485Z" fill="#A36CF7"/>
<path d="M557.239 35.0986C557.235 34.096 557.417 33.2142 557.786 32.4531C558.16 31.6875 558.702 31.0951 559.413 30.6758C560.124 30.2565 560.963 30.0514 561.929 30.0605C562.74 30.0514 563.449 30.195 564.055 30.4912C564.665 30.7874 565.139 31.193 565.477 31.708C565.814 32.2184 566.003 32.7881 566.044 33.417H564.157C564.052 32.8838 563.813 32.4714 563.439 32.1797C563.066 31.888 562.585 31.7422 561.997 31.7422H561.86C561.332 31.7376 560.86 31.8698 560.445 32.1387C560.035 32.4076 559.714 32.7926 559.481 33.2939C559.249 33.7952 559.133 34.3786 559.133 35.0439C559.133 35.7367 559.244 36.3405 559.468 36.8555C559.696 37.3704 560.015 37.7669 560.425 38.0449C560.84 38.3229 561.318 38.4619 561.86 38.4619H561.997C562.594 38.4619 563.077 38.3184 563.446 38.0312C563.815 37.7441 564.052 37.3271 564.157 36.7803H566.044C566.003 37.4365 565.814 38.0199 565.477 38.5303C565.144 39.0361 564.674 39.4326 564.068 39.7197C563.462 40.0023 562.749 40.1413 561.929 40.1367C560.963 40.1458 560.124 39.9408 559.413 39.5215C558.702 39.1022 558.16 38.512 557.786 37.751C557.417 36.9854 557.235 36.1012 557.239 35.0986ZM569.332 30.1973V34.0254C569.551 33.6654 569.847 33.3828 570.221 33.1777C570.599 32.9681 571.009 32.8633 571.451 32.8633C572.262 32.8633 572.868 33.1048 573.27 33.5879C573.68 34.071 573.885 34.7158 573.885 35.5225V40H572.066V35.7275C572.066 35.2764 571.971 34.9323 571.779 34.6953C571.588 34.4538 571.314 34.333 570.959 34.333H570.85C570.576 34.333 570.323 34.4128 570.091 34.5723C569.858 34.7318 569.674 34.9482 569.537 35.2217C569.4 35.4951 569.332 35.7913 569.332 36.1104V40H567.514V30.1973H569.332ZM579.736 40C579.695 39.804 579.668 39.5192 579.654 39.1455C579.431 39.4554 579.137 39.6992 578.772 39.877C578.408 40.0501 578.002 40.1367 577.556 40.1367C577.146 40.1367 576.767 40.0524 576.421 39.8838C576.075 39.7106 575.799 39.4714 575.594 39.166C575.389 38.8561 575.286 38.5052 575.286 38.1133C575.286 37.3796 575.525 36.8213 576.004 36.4385C576.478 36.0602 577.093 35.8392 577.85 35.7754L579.613 35.6182V35.4473C579.613 35.2376 579.565 35.0485 579.47 34.8799C579.379 34.7113 579.246 34.5791 579.073 34.4834C578.905 34.3831 578.711 34.333 578.492 34.333H578.376C578.166 34.333 577.977 34.3717 577.809 34.4492C577.645 34.5267 577.512 34.6292 577.412 34.7568C577.316 34.8844 577.262 35.0212 577.248 35.167H575.423C575.464 34.7295 575.614 34.3376 575.874 33.9912C576.138 33.6403 576.487 33.3646 576.92 33.1641C577.357 32.9635 577.852 32.8633 578.403 32.8633C579 32.8633 579.522 32.9613 579.969 33.1572C580.415 33.3486 580.762 33.6335 581.008 34.0117C581.254 34.39 581.377 34.8457 581.377 35.3789V38.4619C581.377 39.1729 581.4 39.6855 581.445 40H579.736ZM577.077 37.9561C577.077 38.1702 577.159 38.3434 577.323 38.4756C577.487 38.6032 577.695 38.667 577.945 38.667H578.055C578.328 38.667 578.583 38.6009 578.82 38.4688C579.062 38.3366 579.253 38.1543 579.395 37.9219C579.54 37.6895 579.613 37.4297 579.613 37.1426V36.9443L578.096 37.1016C577.827 37.1243 577.59 37.2064 577.385 37.3477C577.18 37.4889 577.077 37.6917 577.077 37.9561ZM585.014 33V34.0254C585.232 33.6654 585.529 33.3828 585.902 33.1777C586.281 32.9681 586.691 32.8633 587.133 32.8633C587.944 32.8633 588.55 33.1048 588.951 33.5879C589.361 34.071 589.566 34.7158 589.566 35.5225V40H587.748V35.7275C587.748 35.2764 587.652 34.9323 587.461 34.6953C587.27 34.4538 586.996 34.333 586.641 34.333H586.531C586.258 34.333 586.005 34.4128 585.772 34.5723C585.54 34.7318 585.355 34.9482 585.219 35.2217C585.082 35.4951 585.014 35.7913 585.014 36.1104V40H583.195V33H585.014ZM592.69 40.7861C592.731 41.0368 592.889 41.2373 593.162 41.3877C593.44 41.5381 593.805 41.6133 594.256 41.6133H594.338C594.652 41.6133 594.933 41.5495 595.179 41.4219C595.429 41.2943 595.625 41.1051 595.767 40.8545C595.908 40.6038 595.979 40.3008 595.979 39.9453V39.0225C595.787 39.346 595.514 39.5898 595.158 39.7539C594.803 39.918 594.406 40 593.969 40C593.426 40 592.925 39.8542 592.465 39.5625C592.009 39.2708 591.645 38.8561 591.371 38.3184C591.102 37.776 590.972 37.1471 590.981 36.4316C590.972 35.7161 591.102 35.0895 591.371 34.5518C591.645 34.0094 592.009 33.5924 592.465 33.3008C592.925 33.0091 593.426 32.8633 593.969 32.8633C594.406 32.8633 594.803 32.9453 595.158 33.1094C595.514 33.2734 595.787 33.5173 595.979 33.8408V33H597.797V40.1709C597.806 40.6768 597.665 41.1553 597.373 41.6064C597.086 42.0576 596.667 42.4176 596.115 42.6865C595.564 42.96 594.917 43.0921 594.174 43.083C593.568 43.0876 593.014 42.9919 592.513 42.7959C592.016 42.5999 591.619 42.3242 591.323 41.9688C591.032 41.6178 590.879 41.2236 590.865 40.7861H592.69ZM592.8 36.4316C592.8 36.86 592.868 37.2337 593.005 37.5527C593.142 37.8672 593.328 38.1087 593.565 38.2773C593.802 38.446 594.069 38.5303 594.365 38.5303H594.481C594.769 38.5303 595.024 38.446 595.247 38.2773C595.475 38.1087 595.653 37.8649 595.78 37.5459C595.912 37.2269 595.979 36.8555 595.979 36.4316C595.979 36.0033 595.912 35.6318 595.78 35.3174C595.653 34.9984 595.475 34.7546 595.247 34.5859C595.024 34.4173 594.769 34.333 594.481 34.333H594.365C594.069 34.333 593.802 34.4173 593.565 34.5859C593.328 34.7546 593.142 34.9984 593.005 35.3174C592.868 35.6318 592.8 36.0033 592.8 36.4316ZM599.28 36.5C599.276 35.8027 599.408 35.1761 599.677 34.6201C599.95 34.0641 600.34 33.6312 600.846 33.3213C601.352 33.0068 601.939 32.8542 602.609 32.8633C603.27 32.8587 603.84 33.0068 604.318 33.3076C604.801 33.6038 605.168 34.0186 605.419 34.5518C605.674 35.085 605.802 35.6888 605.802 36.3633C605.802 36.5319 605.793 36.7689 605.774 37.0742H601.044C601.067 37.375 601.153 37.6484 601.304 37.8945C601.459 38.1361 601.652 38.3252 601.885 38.4619C602.122 38.5986 602.368 38.667 602.623 38.667H602.739C603.058 38.667 603.325 38.5872 603.539 38.4277C603.758 38.2637 603.901 38.0495 603.97 37.7852H605.774C605.66 38.2591 605.46 38.6738 605.173 39.0293C604.89 39.3802 604.526 39.6536 604.079 39.8496C603.637 40.041 603.131 40.1367 602.562 40.1367C601.978 40.1367 601.434 39.9863 600.928 39.6855C600.422 39.3802 600.019 38.9518 599.718 38.4004C599.417 37.849 599.271 37.2155 599.28 36.5ZM604.038 35.6729C604.024 35.404 603.951 35.1693 603.819 34.9688C603.687 34.7637 603.514 34.6064 603.3 34.4971C603.086 34.3877 602.851 34.333 602.596 34.333H602.486C602.231 34.333 601.996 34.3877 601.782 34.4971C601.568 34.6064 601.395 34.7637 601.263 34.9688C601.131 35.1693 601.058 35.404 601.044 35.6729H604.038Z" fill="#343537"/>
<path d="M521.973 67H520.53V58.6211L518.15 60.9282V59.1265L520.845 56.4971H521.973V67ZM532.037 64.6123H530.389V67H528.946V64.6123H523.782V63.1768L528.96 56.4971H530.389V63.3379H532.037V64.6123ZM528.946 63.3379V58.5186L525.196 63.3379H528.946ZM536.841 67H535.398V58.6211L533.018 60.9282V59.1265L535.713 56.4971H536.841V67ZM541.009 65.1982V67H539.207V65.1982H541.009ZM549.915 63.6235C549.925 64.2876 549.766 64.8906 549.439 65.4326C549.112 65.9697 548.665 66.3921 548.099 66.6997C547.537 67.0073 546.919 67.1562 546.246 67.1465C545.591 67.1514 544.988 67.0391 544.437 66.8096C543.89 66.5752 543.445 66.2383 543.104 65.7988C542.767 65.3545 542.579 64.8296 542.54 64.2241H544.004C544.048 64.5708 544.17 64.8687 544.371 65.1177C544.571 65.3618 544.827 65.5498 545.14 65.6816C545.452 65.8086 545.794 65.8721 546.165 65.8721H546.319C546.724 65.877 547.09 65.7842 547.417 65.5938C547.745 65.4033 547.999 65.1421 548.179 64.8101C548.365 64.4731 548.455 64.1021 548.45 63.6968C548.455 63.3306 548.365 62.9937 548.179 62.686C547.999 62.3784 547.747 62.1367 547.425 61.9609C547.107 61.7852 546.763 61.6997 546.392 61.7046H546.246C545.884 61.7046 545.533 61.7949 545.191 61.9756C544.839 62.1562 544.566 62.4053 544.371 62.7227H542.913L544.188 56.4971H549.812V57.8521H545.279L544.554 61.2505C544.827 60.9819 545.152 60.7793 545.528 60.6426C545.909 60.501 546.302 60.4302 546.707 60.4302C547.317 60.4302 547.869 60.5742 548.362 60.8623C548.855 61.1455 549.239 61.5312 549.512 62.0195C549.791 62.5078 549.925 63.0425 549.915 63.6235ZM559.188 62.5029V63.7773H551.775V62.5029H559.188ZM564.585 67H563.143V58.6211L560.762 60.9282V59.1265L563.458 56.4971H564.585V67ZM574.649 64.6123H573.001V67H571.558V64.6123H566.395V63.1768L571.573 56.4971H573.001V63.3379H574.649V64.6123ZM571.558 63.3379V58.5186L567.808 63.3379H571.558ZM575.975 61.7485C575.975 60.5962 576.136 59.6172 576.458 58.8115C576.785 58.001 577.256 57.3882 577.872 56.9731C578.492 56.5581 579.234 56.3506 580.098 56.3506C580.962 56.3506 581.702 56.5581 582.317 56.9731C582.938 57.3882 583.409 58.001 583.731 58.8115C584.058 59.6172 584.222 60.5962 584.222 61.7485C584.222 62.9009 584.058 63.8823 583.731 64.6929C583.409 65.4985 582.938 66.1089 582.317 66.5239C581.702 66.939 580.962 67.1465 580.098 67.1465C579.234 67.1465 578.492 66.939 577.872 66.5239C577.256 66.1089 576.785 65.4985 576.458 64.6929C576.136 63.8823 575.975 62.9009 575.975 61.7485ZM577.439 61.6973C577.439 62.7471 577.569 63.5771 577.828 64.1875C578.082 64.793 578.406 65.2275 578.802 65.4912C579.188 65.7451 579.595 65.8721 580.025 65.8721H580.171C580.596 65.8721 581.001 65.7451 581.387 65.4912C581.783 65.2275 582.107 64.793 582.361 64.1875C582.62 63.5771 582.75 62.7471 582.75 61.6973C582.75 60.7451 582.625 59.9639 582.376 59.3535C582.127 58.7432 581.807 58.3013 581.417 58.0278C581.031 57.7544 580.616 57.6201 580.171 57.625H580.025C579.581 57.6201 579.163 57.7544 578.772 58.0278C578.382 58.3013 578.062 58.7432 577.813 59.3535C577.564 59.9639 577.439 60.7451 577.439 61.6973ZM587.547 65.1982V67H585.745V65.1982H587.547ZM589.568 64.4146C589.568 63.7993 589.732 63.2793 590.059 62.8545C590.386 62.415 590.813 62.0977 591.341 61.9023C590.984 61.8145 590.652 61.6436 590.345 61.3896C590.042 61.1357 589.8 60.8281 589.62 60.4668C589.444 60.1006 589.358 59.7173 589.363 59.3169C589.354 58.7505 589.498 58.2402 589.795 57.7861C590.093 57.332 590.508 56.978 591.041 56.7241C591.578 56.4702 592.183 56.3457 592.857 56.3506C593.526 56.3457 594.126 56.4702 594.659 56.7241C595.196 56.978 595.613 57.332 595.911 57.7861C596.214 58.2402 596.36 58.7505 596.351 59.3169C596.355 59.7173 596.268 60.1006 596.087 60.4668C595.911 60.8281 595.669 61.1357 595.362 61.3896C595.059 61.6436 594.729 61.8145 594.373 61.9023C594.905 62.1025 595.33 62.4199 595.647 62.8545C595.975 63.2793 596.138 63.7993 596.138 64.4146C596.138 64.937 595.997 65.4082 595.713 65.8281C595.43 66.2432 595.037 66.5679 594.534 66.8022C594.036 67.0366 593.477 67.1514 592.857 67.1465C592.232 67.1514 591.668 67.0366 591.165 66.8022C590.667 66.5679 590.276 66.2432 589.993 65.8281C589.71 65.4082 589.568 64.937 589.568 64.4146ZM590.828 59.3975C590.828 59.7441 590.911 60.0566 591.077 60.335C591.248 60.6084 591.482 60.8232 591.78 60.9795C592.078 61.1309 592.413 61.2065 592.784 61.2065H592.93C593.301 61.2065 593.633 61.1309 593.926 60.9795C594.224 60.8232 594.456 60.6084 594.622 60.335C594.793 60.0566 594.878 59.7441 594.878 59.3975C594.878 59.0557 594.793 58.7505 594.622 58.4819C594.456 58.2085 594.224 57.9985 593.926 57.8521C593.633 57.7007 593.301 57.625 592.93 57.625H592.784C592.413 57.625 592.078 57.7007 591.78 57.8521C591.482 57.9985 591.248 58.2085 591.077 58.4819C590.911 58.7505 590.828 59.0557 590.828 59.3975ZM591.026 64.2241C591.026 64.5415 591.099 64.8271 591.246 65.0811C591.392 65.3301 591.597 65.5254 591.861 65.667C592.129 65.8037 592.437 65.8721 592.784 65.8721H592.93C593.277 65.8721 593.582 65.8037 593.846 65.667C594.114 65.5254 594.322 65.3301 594.468 65.0811C594.615 64.8271 594.688 64.5415 594.688 64.2241C594.688 63.897 594.612 63.6016 594.461 63.3379C594.314 63.0742 594.107 62.8667 593.838 62.7153C593.57 62.564 593.267 62.4883 592.93 62.4883H592.784C592.442 62.4883 592.137 62.564 591.868 62.7153C591.604 62.8667 591.397 63.0742 591.246 63.3379C591.099 63.6016 591.026 63.897 591.026 64.2241ZM605.865 64.6123H604.217V67H602.774V64.6123H597.61V63.1768L602.789 56.4971H604.217V63.3379H605.865V64.6123ZM602.774 63.3379V58.5186L599.024 63.3379H602.774Z" fill="#343537"/>
<path d="M614 76L510 76" stroke="#343537" stroke-linecap="round"/>
<path d="M543.279 96H541.836V87.6211L539.456 89.9282V88.1265L542.151 85.4971H543.279V96ZM553.343 93.6123H551.695V96H550.252V93.6123H545.088V92.1768L550.267 85.4971H551.695V92.3379H553.343V93.6123ZM550.252 92.3379V87.5186L546.502 92.3379H550.252ZM554.668 90.7485C554.668 89.5962 554.83 88.6172 555.152 87.8115C555.479 87.001 555.95 86.3882 556.565 85.9731C557.186 85.5581 557.928 85.3506 558.792 85.3506C559.656 85.3506 560.396 85.5581 561.011 85.9731C561.631 86.3882 562.103 87.001 562.425 87.8115C562.752 88.6172 562.916 89.5962 562.916 90.7485C562.916 91.9009 562.752 92.8823 562.425 93.6929C562.103 94.4985 561.631 95.1089 561.011 95.5239C560.396 95.939 559.656 96.1465 558.792 96.1465C557.928 96.1465 557.186 95.939 556.565 95.5239C555.95 95.1089 555.479 94.4985 555.152 93.6929C554.83 92.8823 554.668 91.9009 554.668 90.7485ZM556.133 90.6973C556.133 91.7471 556.263 92.5771 556.521 93.1875C556.775 93.793 557.1 94.2275 557.496 94.4912C557.881 94.7451 558.289 94.8721 558.719 94.8721H558.865C559.29 94.8721 559.695 94.7451 560.081 94.4912C560.477 94.2275 560.801 93.793 561.055 93.1875C561.314 92.5771 561.443 91.7471 561.443 90.6973C561.443 89.7451 561.319 88.9639 561.07 88.3535C560.821 87.7432 560.501 87.3013 560.11 87.0278C559.725 86.7544 559.31 86.6201 558.865 86.625H558.719C558.274 86.6201 557.857 86.7544 557.466 87.0278C557.076 87.3013 556.756 87.7432 556.507 88.3535C556.258 88.9639 556.133 89.7451 556.133 90.6973ZM566.241 94.1982V96H564.439V94.1982H566.241ZM568.262 93.4146C568.262 92.7993 568.426 92.2793 568.753 91.8545C569.08 91.415 569.507 91.0977 570.035 90.9023C569.678 90.8145 569.346 90.6436 569.039 90.3896C568.736 90.1357 568.494 89.8281 568.313 89.4668C568.138 89.1006 568.052 88.7173 568.057 88.3169C568.047 87.7505 568.191 87.2402 568.489 86.7861C568.787 86.332 569.202 85.978 569.734 85.7241C570.271 85.4702 570.877 85.3457 571.551 85.3506C572.22 85.3457 572.82 85.4702 573.353 85.7241C573.89 85.978 574.307 86.332 574.605 86.7861C574.908 87.2402 575.054 87.7505 575.044 88.3169C575.049 88.7173 574.961 89.1006 574.781 89.4668C574.605 89.8281 574.363 90.1357 574.056 90.3896C573.753 90.6436 573.423 90.8145 573.067 90.9023C573.599 91.1025 574.024 91.4199 574.341 91.8545C574.668 92.2793 574.832 92.7993 574.832 93.4146C574.832 93.937 574.69 94.4082 574.407 94.8281C574.124 95.2432 573.731 95.5679 573.228 95.8022C572.73 96.0366 572.171 96.1514 571.551 96.1465C570.926 96.1514 570.362 96.0366 569.859 95.8022C569.361 95.5679 568.97 95.2432 568.687 94.8281C568.404 94.4082 568.262 93.937 568.262 93.4146ZM569.522 88.3975C569.522 88.7441 569.605 89.0566 569.771 89.335C569.942 89.6084 570.176 89.8232 570.474 89.9795C570.772 90.1309 571.106 90.2065 571.478 90.2065H571.624C571.995 90.2065 572.327 90.1309 572.62 89.9795C572.918 89.8232 573.15 89.6084 573.316 89.335C573.487 89.0566 573.572 88.7441 573.572 88.3975C573.572 88.0557 573.487 87.7505 573.316 87.4819C573.15 87.2085 572.918 86.9985 572.62 86.8521C572.327 86.7007 571.995 86.625 571.624 86.625H571.478C571.106 86.625 570.772 86.7007 570.474 86.8521C570.176 86.9985 569.942 87.2085 569.771 87.4819C569.605 87.7505 569.522 88.0557 569.522 88.3975ZM569.72 93.2241C569.72 93.5415 569.793 93.8271 569.939 94.0811C570.086 94.3301 570.291 94.5254 570.555 94.667C570.823 94.8037 571.131 94.8721 571.478 94.8721H571.624C571.971 94.8721 572.276 94.8037 572.54 94.667C572.808 94.5254 573.016 94.3301 573.162 94.0811C573.309 93.8271 573.382 93.5415 573.382 93.2241C573.382 92.897 573.306 92.6016 573.155 92.3379C573.008 92.0742 572.801 91.8667 572.532 91.7153C572.264 91.564 571.961 91.4883 571.624 91.4883H571.478C571.136 91.4883 570.831 91.564 570.562 91.7153C570.298 91.8667 570.091 92.0742 569.939 92.3379C569.793 92.6016 569.72 92.897 569.72 93.2241ZM584.559 93.6123H582.911V96H581.468V93.6123H576.304V92.1768L581.482 85.4971H582.911V92.3379H584.559V93.6123ZM581.468 92.3379V87.5186L577.718 92.3379H581.468Z" fill="#343537"/>
<path d="M622.289 75.6328L619.982 73.3184L620.912 72.3882L623.219 74.7026L625.526 72.3882L626.457 73.3184L624.149 75.6328L626.457 77.9399L625.526 78.8701L623.219 76.563L620.912 78.8701L619.982 77.9399L622.289 75.6328ZM631.591 79.5H630.148V71.1211L627.768 73.4282V71.6265L630.463 68.9971H631.591V79.5ZM633.81 74.2485C633.81 73.0962 633.971 72.1172 634.293 71.3115C634.621 70.501 635.092 69.8882 635.707 69.4731C636.327 69.0581 637.069 68.8506 637.934 68.8506C638.798 68.8506 639.538 69.0581 640.153 69.4731C640.773 69.8882 641.244 70.501 641.566 71.3115C641.894 72.1172 642.057 73.0962 642.057 74.2485C642.057 75.4009 641.894 76.3823 641.566 77.1929C641.244 77.9985 640.773 78.6089 640.153 79.0239C639.538 79.439 638.798 79.6465 637.934 79.6465C637.069 79.6465 636.327 79.439 635.707 79.0239C635.092 78.6089 634.621 77.9985 634.293 77.1929C633.971 76.3823 633.81 75.4009 633.81 74.2485ZM635.275 74.1973C635.275 75.2471 635.404 76.0771 635.663 76.6875C635.917 77.293 636.242 77.7275 636.637 77.9912C637.023 78.2451 637.431 78.3721 637.86 78.3721H638.007C638.432 78.3721 638.837 78.2451 639.223 77.9912C639.618 77.7275 639.943 77.293 640.197 76.6875C640.456 76.0771 640.585 75.2471 640.585 74.1973C640.585 73.2451 640.46 72.4639 640.211 71.8535C639.962 71.2432 639.643 70.8013 639.252 70.5278C638.866 70.2544 638.451 70.1201 638.007 70.125H637.86C637.416 70.1201 636.999 70.2544 636.608 70.5278C636.217 70.8013 635.897 71.2432 635.648 71.8535C635.399 72.4639 635.275 73.2451 635.275 74.1973ZM643.742 74.2485C643.742 73.0962 643.903 72.1172 644.225 71.3115C644.552 70.501 645.023 69.8882 645.639 69.4731C646.259 69.0581 647.001 68.8506 647.865 68.8506C648.729 68.8506 649.469 69.0581 650.084 69.4731C650.705 69.8882 651.176 70.501 651.498 71.3115C651.825 72.1172 651.989 73.0962 651.989 74.2485C651.989 75.4009 651.825 76.3823 651.498 77.1929C651.176 77.9985 650.705 78.6089 650.084 79.0239C649.469 79.439 648.729 79.6465 647.865 79.6465C647.001 79.6465 646.259 79.439 645.639 79.0239C645.023 78.6089 644.552 77.9985 644.225 77.1929C643.903 76.3823 643.742 75.4009 643.742 74.2485ZM645.207 74.1973C645.207 75.2471 645.336 76.0771 645.595 76.6875C645.849 77.293 646.173 77.7275 646.569 77.9912C646.955 78.2451 647.362 78.3721 647.792 78.3721H647.938C648.363 78.3721 648.769 78.2451 649.154 77.9912C649.55 77.7275 649.875 77.293 650.128 76.6875C650.387 76.0771 650.517 75.2471 650.517 74.1973C650.517 73.2451 650.392 72.4639 650.143 71.8535C649.894 71.2432 649.574 70.8013 649.184 70.5278C648.798 70.2544 648.383 70.1201 647.938 70.125H647.792C647.348 70.1201 646.93 70.2544 646.54 70.5278C646.149 70.8013 645.829 71.2432 645.58 71.8535C645.331 72.4639 645.207 73.2451 645.207 74.1973Z" fill="#343537"/>
<path d="M472 76L467 73.1132V78.8868L472 76ZM416 75.5C415.724 75.5 415.5 75.7239 415.5 76C415.5 76.2761 415.724 76.5 416 76.5V75.5ZM467.5 75.5H416V76.5H467.5V75.5Z" fill="#343537"/>
</svg>
